<?xml version="1.0" encoding="UTF-8"?>
<svg xmlns="http://www.w3.org/2000/svg" viewBox="0 0 1024 1024" preserveAspectRatio="xMidYMid meet">
<style>

.main { transform-origin: 512px 600px; animation: clamEntry 3s cubic-bezier(.2,1.2,.3,1) both, clamBreathe 3.8s 3s ease-in-out infinite; }
.bubbles-existing { animation: bubbleShimmer 3.5s ease-in-out infinite; }
.extra-bubble { opacity:0; animation: bubbleUp 6s linear infinite; }
@keyframes clamEntry {
  0%   { transform: scale(.2) translateY(240px); opacity:0; }
  60%  { transform: scale(1.08) translateY(-20px); opacity:1; }
  100% { transform: scale(1) translateY(0); opacity:1; }
}
@keyframes clamBreathe {
  0%,100% { transform: scale(1) translateY(0); }
  50%     { transform: scale(1.04) translateY(-14px); }
}
@keyframes bubbleShimmer {
  0%,100% { transform: translate(0,0); opacity:.9; }
  50%     { transform: translate(20px,-30px); opacity:.6; }
}
@keyframes bubbleUp {
  0%   { transform: translate(0,0) scale(.3); opacity:0; }
  10%  { opacity:.8; }
  100% { transform: translate(var(--dx,40px),-900px) scale(1.1); opacity:0; }
}

</style>

<g class="bubbles-existing"><path d="M0 0 C7.732 5.376 12.041 11.696 14 21 C14.699 29.667 12.459 37.137 7 44 C0.77 50.085 -5.652 53.2 -14.438 53.5 C-22.862 53.186 -29.142 51.064 -35.375 45.312 C-42.058 37.939 -43.703 31.291 -43.383 21.371 C-42.514 13.721 -38.883 7.01 -33 2 C-21.963 -4.741 -11.654 -6.381 0 0 Z " fill="#747C9B" transform="translate(745,181)"/>
<path d="M0 0 C5.134 2.876 7.969 6.532 9.641 12.164 C10.612 17.374 9.622 21.744 7.016 26.332 C3.738 30.7 0.058 32.806 -5.336 33.605 C-10.012 33.785 -13.484 33.546 -17.797 31.664 C-22.31 27.261 -25.63 23.109 -25.797 16.602 C-25.125 6.843 -25.125 6.843 -21.773 3.656 C-15.321 -1.108 -7.763 -2.75 0 0 Z " fill="#767E9A" transform="translate(794.359375,264.8359375)"/>
<path d="M0 0 C3.904 1.661 5.399 3.144 7 7 C7.655 10.794 7.864 14.453 5.949 17.883 C3.64 20.703 1.721 22.759 -1.953 23.273 C-6.247 23.463 -9.096 23.434 -12.5 20.625 C-16.135 16.808 -16.392 14.442 -16.359 9.328 C-15.755 5.41 -13.831 3.696 -11 1 C-7.551 -0.725 -3.779 -0.366 0 0 Z " fill="#7A809B" transform="translate(700,136)"/>
<path d="M0 0 C0.994 0.009 1.988 0.018 3.012 0.027 C3.391 0.033 3.391 0.033 5.312 0.062 C5.312 0.392 5.312 0.723 5.312 1.062 C5.022 1.111 5.022 1.111 3.555 1.359 C-1.734 2.372 -5.299 3.797 -9.688 7.062 C-11.007 7.757 -12.334 8.438 -13.688 9.062 C-14.347 8.072 -15.008 7.082 -15.688 6.062 C-14.587 5.245 -13.482 4.434 -12.375 3.625 C-11.76 3.173 -11.145 2.72 -10.512 2.254 C-7.021 -0.026 -4.051 -0.048 0 0 Z " fill="#90929F" transform="translate(786.6875,263.9375)"/>
<path d="M0 0 C-0.33 1.32 -0.66 2.64 -1 4 C-1.66 4 -2.32 4 -3 4 C-4.419 8.258 -4.727 12.229 -3 16.438 C-2.67 16.953 -2.34 17.469 -2 18 C-2.99 18 -3.98 18 -5 18 C-7.682 13.977 -7.812 10.728 -7 6 C-5.407 3.087 -3.602 0 0 0 Z " fill="#878996" transform="translate(691,137)"/></g>
<circle class="extra-bubble" cx="450" cy="800" r="14" fill="rgba(100,130,180,0.55)" style="--dx:40px; animation-delay:0.0s;"/>
<circle class="extra-bubble" cx="560" cy="780" r="10" fill="rgba(100,130,180,0.55)" style="--dx:-30px; animation-delay:1.2s;"/>
<circle class="extra-bubble" cx="510" cy="750" r="16" fill="rgba(100,130,180,0.55)" style="--dx:60px; animation-delay:2.4s;"/>
<circle class="extra-bubble" cx="480" cy="770" r="8" fill="rgba(100,130,180,0.55)" style="--dx:-20px; animation-delay:3.6s;"/>
<circle class="extra-bubble" cx="540" cy="790" r="12" fill="rgba(100,130,180,0.55)" style="--dx:30px; animation-delay:4.8s;"/>

<g class="pearl">
  <radialGradient id="pearl-grad" cx="45%" cy="40%" r="50%">
    <stop offset="0%" stop-color="#FFFFFF"/>
    <stop offset="30%" stop-color="#F5F0F0"/>
    <stop offset="60%" stop-color="#E8DDE0"/>
    <stop offset="100%" stop-color="#C9B8BD"/>
  </radialGradient>
  <circle cx="500" cy="580" r="55" fill="url(#pearl-grad)"/>
  <ellipse cx="485" cy="562" rx="18" ry="12" fill="rgba(255,255,255,0.6)"/>
  <circle cx="478" cy="558" r="6" fill="rgba(255,255,255,0.85)"/>
</g>
<g class="main"><path d="M0 0 C0.691 -0.001 1.381 -0.001 2.093 -0.002 C19.351 0.025 34.762 2.858 51.125 8.25 C52 8.534 52.876 8.817 53.777 9.109 C73.857 16.386 91.078 29.887 105.809 45.004 C106.717 45.931 107.626 46.858 108.562 47.812 C109.469 48.742 110.375 49.671 111.309 50.629 C113.391 52.567 115.12 53.972 117.473 55.465 C118.348 56.054 119.223 56.643 120.125 57.25 C120.125 57.91 120.125 58.57 120.125 59.25 C120.723 59.374 121.321 59.498 121.938 59.625 C124.125 60.25 124.125 60.25 127.125 62.25 C127.125 62.91 127.125 63.57 127.125 64.25 C127.479 64.39 127.479 64.39 129.27 65.098 C131.132 65.849 132.985 66.627 134.824 67.434 C149.172 73.454 163.944 74.395 179.33 75.406 C189.477 76.136 199.23 77.949 209.125 80.25 C209.125 80.91 209.125 81.57 209.125 82.25 C209.959 82.336 210.793 82.423 211.652 82.512 C215.81 83.396 218.994 85.021 222.688 87.062 C223.011 87.234 223.011 87.234 224.646 88.104 C228.47 90.177 231.737 92.505 235.125 95.25 C236.115 95.58 237.105 95.91 238.125 96.25 C239.703 97.852 239.703 97.852 241.375 99.875 C243.634 102.559 245.909 105.013 248.5 107.375 C264.074 122.809 268.4 143.523 272.125 164.25 C278.359 198.238 278.359 198.238 292.125 208.25 C292.641 208.951 293.156 209.653 293.688 210.375 C295.499 212.738 297.559 213.775 300.125 215.25 C301.137 216.237 302.136 217.239 303.125 218.25 C304.327 219.299 305.536 220.34 306.75 221.375 C318.589 231.782 327.8 242.75 332.125 258.25 C332.213 258.562 332.213 258.562 332.656 260.138 C336.636 275.805 335.501 294.076 330.125 309.25 C329.884 309.944 329.642 310.638 329.394 311.353 C314.556 353.141 273.016 373.77 236.125 393.25 C235.319 393.679 234.513 394.108 233.683 394.55 C225.723 398.769 218.032 402.438 209.125 404.25 C209.455 404.91 209.785 405.57 210.125 406.25 C212.426 406.777 212.426 406.777 215.438 407.188 C220.686 407.909 225.714 409.123 230.84 410.432 C237.573 412.109 244.366 413.53 251.146 415 C262.45 417.479 273.406 420.566 284.375 424.25 C285.411 424.593 286.448 424.936 287.516 425.289 C303.006 430.466 321.568 437.42 330.688 451.875 C334.672 461.229 332.216 469.131 328.574 478.23 C314.769 511.321 289.56 533.982 258.874 551.242 C257.347 552.122 255.861 553.071 254.383 554.031 C252.125 555.25 252.125 555.25 248.125 555.25 C247.795 555.91 247.465 556.57 247.125 557.25 C246.114 557.745 245.104 558.24 244.062 558.75 C239.698 561.15 237.216 564.607 234.234 568.52 C229.153 575.097 223.661 581.115 217.125 586.25 C216.712 586.691 216.3 587.132 215.875 587.586 C202.055 600.727 182.432 608.248 164.125 612.25 C163.735 612.345 163.735 612.345 161.761 612.825 C150.685 615.138 139.25 614.391 128 614.25 C123.727 614.196 119.453 614.157 115.18 614.125 C114.699 614.117 114.699 614.117 112.269 614.075 C98.665 613.977 86.572 617.756 75.43 625.633 C71.849 628.145 68.119 630.418 64.41 632.734 C62.125 634.25 62.125 634.25 60.125 636.25 C52.13 640.252 43.886 643.533 35.312 646.062 C34.657 646.257 34.001 646.451 33.326 646.652 C22.77 649.627 12.587 650.64 1.625 650.625 C0.967 650.624 0.309 650.624 -0.368 650.623 C-11.631 650.581 -22.085 649.515 -32.875 646.25 C-33.599 646.036 -34.324 645.821 -35.07 645.601 C-48.063 641.652 -59.913 635.675 -71.289 628.273 C-72.781 627.311 -74.327 626.433 -75.875 625.562 C-76.205 625.346 -76.205 625.346 -77.875 624.25 C-77.875 623.59 -77.875 622.93 -77.875 622.25 C-78.659 622.003 -79.442 621.755 -80.25 621.5 C-83.866 620.253 -87.328 618.796 -90.824 617.25 C-102.494 613.425 -114.272 614.106 -126.383 614.366 C-153.516 614.905 -175.719 609.449 -198.875 595.25 C-199.846 594.684 -200.816 594.118 -201.816 593.535 C-207.093 590.369 -211.151 587.268 -215.004 582.473 C-217.277 579.773 -219.772 577.387 -222.312 574.938 C-226.032 571.334 -229.153 567.608 -232.062 563.312 C-235.483 558.351 -238.337 556.485 -243.875 554.25 C-244.205 553.59 -244.535 552.93 -244.875 552.25 C-245.77 551.952 -246.664 551.654 -247.586 551.348 C-258.503 547.704 -271.964 537.369 -278.875 528.25 C-279.618 527.508 -280.36 526.765 -281.125 526 C-293.435 513.69 -301.985 500.144 -308.875 484.25 C-309.286 483.372 -309.697 482.494 -310.121 481.59 C-314.127 473.036 -316.109 464.776 -314.875 455.25 C-310.682 444.224 -299.181 436.589 -288.926 431.859 C-282.531 428.997 -275.97 426.788 -269.312 424.625 C-268.158 424.243 -267.004 423.862 -265.814 423.469 C-247.335 417.389 -247.335 417.389 -238.125 415.5 C-237.376 415.344 -236.626 415.187 -235.854 415.026 C-220.248 411.839 -204.546 409.098 -188.875 406.25 C-191.65 404.117 -194.217 402.509 -197.438 401.125 C-197.82 400.959 -197.82 400.959 -199.754 400.117 C-201.436 399.43 -203.151 398.825 -204.875 398.25 C-204.875 397.59 -204.875 396.93 -204.875 396.25 C-205.726 395.987 -206.577 395.724 -207.453 395.453 C-216.175 392.386 -224.476 387.694 -232.301 382.805 C-234.486 381.485 -236.689 380.265 -238.934 379.051 C-244.7 375.862 -250.153 372.229 -255.625 368.562 C-256.687 367.851 -257.749 367.14 -258.843 366.407 C-278.033 353.469 -298.101 338.983 -307.875 317.25 C-307.875 316.59 -307.875 315.93 -307.875 315.25 C-308.535 314.92 -309.195 314.59 -309.875 314.25 C-310.825 311.711 -311.659 309.216 -312.438 306.625 C-312.548 306.275 -312.548 306.275 -313.107 304.504 C-315.706 296.04 -316.083 287.869 -316.125 279.062 C-316.146 278.002 -316.166 276.942 -316.188 275.85 C-316.287 255.536 -307.981 239.516 -294.125 225.312 C-289.992 221.21 -285.646 217.563 -281.059 213.984 C-278.446 211.909 -276.138 209.701 -273.875 207.25 C-273.407 206.776 -272.939 206.301 -272.457 205.812 C-261.557 194.156 -258.941 178.883 -256.799 163.657 C-253.707 141.972 -248.881 123.093 -233.875 106.25 C-233.548 105.876 -233.548 105.876 -231.895 103.984 C-212.11 82.752 -184.606 76.877 -156.909 73.907 C-145.688 72.59 -135.005 69.63 -125.312 63.688 C-124.383 63.129 -123.454 62.571 -122.496 61.996 C-117.141 58.428 -112.765 54.211 -108.285 49.621 C-104.567 45.852 -100.72 42.32 -96.707 38.867 C-95.225 37.559 -93.818 36.166 -92.438 34.75 C-82.7 25.25 -82.7 25.25 -78.875 25.25 C-78.875 24.59 -78.875 23.93 -78.875 23.25 C-78.174 22.875 -77.472 22.5 -76.75 22.113 C-75.801 21.602 -74.852 21.09 -73.875 20.562 C-72.947 20.064 -72.019 19.565 -71.062 19.051 C-69.389 18.105 -67.72 17.146 -66.126 16.072 C-60.48 12.284 -54.641 10.185 -48.188 8.125 C-47.124 7.779 -46.061 7.433 -44.965 7.076 C-29.867 2.232 -15.869 0.014 0 0 Z M-96.875 305.25 C-95.875 307.25 -95.875 307.25 -95.875 307.25 Z M-70.059 358.656 C-74.88 364.417 -78.599 370.501 -81.875 377.25 C-82.255 378.016 -82.636 378.781 -83.027 379.57 C-91.43 398.278 -90.454 420.086 -83.625 439.062 C-78.863 450.541 -71.604 459.521 -62.875 468.25 C-57.643 468.888 -52.228 468.207 -47 467.75 C-30.739 466.597 -14.69 466.792 1.523 468.391 C2.613 468.495 3.702 468.599 4.824 468.706 C10.333 469.234 15.832 469.805 21.329 470.442 C23.39 470.649 25.451 470.855 27.512 471.059 C27.98 471.12 27.98 471.12 30.35 471.433 C35.794 471.926 38.695 471.327 43.096 467.97 C46.73 464.806 49.91 461.402 52.812 457.562 C53.276 456.957 53.739 456.351 54.217 455.726 C66.607 439.114 71.081 418.755 68.42 398.34 C65.234 378.039 55.031 359.381 38.367 346.937 C4.04 322.622 -41.618 327.315 -70.059 358.656 Z " fill="#30334E" transform="translate(502.875,191.75)"/>
<path d="M0 0 C0.755 -0.006 1.511 -0.011 2.289 -0.017 C3.893 -0.027 5.497 -0.033 7.101 -0.037 C9.497 -0.047 11.893 -0.078 14.289 -0.109 C28.289 -0.207 41.365 1.756 54.672 6.266 C55.547 6.561 56.422 6.856 57.323 7.16 C70.578 11.851 82.816 18.805 93.297 28.203 C94.146 28.946 94.996 29.688 95.871 30.453 C103.249 36.981 110.169 43.59 116.047 51.516 C116.303 51.86 116.303 51.86 117.6 53.603 C128.698 68.774 137.59 85.523 146.801 101.874 C157.273 120.46 168.173 138.359 181.297 155.203 C182.235 156.419 183.172 157.635 184.109 158.852 C191.703 168.654 199.59 178.199 207.984 187.328 C222.131 202.925 222.131 202.925 222.426 212.238 C222.702 214.776 222.875 215.828 224.804 217.542 C226.904 218.716 229.024 219.692 231.234 220.641 C244.542 227.02 254.421 236.089 259.734 250.141 C260.747 253.086 261.297 255.073 261.297 258.203 C261.957 257.523 262.617 256.842 263.297 256.141 C264.292 255.157 265.293 254.178 266.297 253.203 C266.901 252.614 267.506 252.025 268.129 251.418 C268.782 250.811 269.436 250.204 270.109 249.578 C270.714 249.008 271.319 248.439 271.941 247.852 C279.205 242.768 286.468 242.744 295.047 242.641 C317.444 242.287 317.444 242.287 326.797 237.328 C327.756 236.836 328.715 236.343 329.703 235.836 C333.494 233.45 335.866 231.496 337.297 227.203 C337.366 224.975 337.381 222.745 337.359 220.516 C337.355 219.926 337.355 219.926 337.332 216.941 C337.32 216.038 337.309 215.134 337.297 214.203 C343.934 217.909 349.677 223.537 351.984 230.965 C354.422 248.426 340.164 269.562 330.211 282.762 C316.01 300.875 297.959 313.995 278.046 325.195 C276.519 326.075 275.033 327.024 273.555 327.984 C271.297 329.203 271.297 329.203 267.297 329.203 C266.967 329.863 266.637 330.523 266.297 331.203 C265.286 331.698 264.276 332.193 263.234 332.703 C258.87 335.103 256.388 338.56 253.406 342.473 C248.325 349.05 242.833 355.068 236.297 360.203 C236.091 360.424 236.091 360.424 235.047 361.539 C221.227 374.68 201.603 382.201 183.297 386.203 C182.907 386.298 182.907 386.298 180.933 386.778 C169.857 389.091 158.422 388.345 147.172 388.203 C142.898 388.15 138.625 388.11 134.352 388.078 C133.871 388.07 133.871 388.07 131.44 388.028 C117.837 387.93 105.744 391.709 94.602 399.586 C91.021 402.098 87.291 404.371 83.582 406.688 C81.297 408.203 81.297 408.203 79.297 410.203 C71.302 414.205 63.058 417.486 54.484 420.016 C53.829 420.21 53.173 420.404 52.498 420.605 C41.941 423.58 31.759 424.593 20.797 424.578 C20.139 424.578 19.481 424.577 18.803 424.576 C7.541 424.534 -2.913 423.468 -13.703 420.203 C-14.065 420.096 -14.065 420.096 -15.898 419.554 C-28.891 415.605 -40.741 409.628 -52.117 402.227 C-53.609 401.264 -55.155 400.386 -56.703 399.516 C-57.363 399.082 -58.023 398.649 -58.703 398.203 C-58.703 397.543 -58.703 396.883 -58.703 396.203 C-59.095 396.079 -59.095 396.079 -61.078 395.453 C-64.694 394.206 -68.156 392.749 -71.652 391.203 C-83.322 387.378 -95.101 388.059 -107.211 388.32 C-134.344 388.858 -156.547 383.402 -179.703 369.203 C-180.674 368.637 -181.644 368.071 -182.645 367.488 C-187.921 364.322 -191.979 361.221 -195.832 356.426 C-198.105 353.726 -200.601 351.34 -203.141 348.891 C-206.86 345.287 -209.981 341.561 -212.891 337.266 C-216.312 332.304 -219.165 330.438 -224.703 328.203 C-225.033 327.543 -225.363 326.883 -225.703 326.203 C-226.598 325.905 -227.492 325.608 -228.414 325.301 C-239.331 321.658 -252.792 311.322 -259.703 302.203 C-260.074 301.832 -260.074 301.832 -261.953 299.953 C-274.263 287.643 -282.813 274.097 -289.703 258.203 C-290.114 257.325 -290.526 256.447 -290.949 255.543 C-294.955 246.989 -296.937 238.729 -295.703 229.203 C-293.369 223.065 -288.445 218.576 -283.703 214.203 C-282.517 216.575 -282.694 217.828 -282.828 220.453 C-282.856 224.813 -282.212 227.523 -279.703 231.203 C-272.484 238.422 -264.312 240.695 -254.328 241.266 C-246.855 241.841 -239.76 242.488 -232.703 245.203 C-232.374 245.329 -232.374 245.329 -230.707 245.969 C-225.216 248.567 -222.687 253.187 -219.703 258.203 C-219.373 258.698 -219.373 258.698 -217.703 261.203 C-217.374 260.513 -217.046 259.824 -216.707 259.113 C-208.437 242.775 -192.92 232.833 -176.703 225.203 C-176.043 225.203 -175.383 225.203 -174.703 225.203 C-174.738 224.749 -174.738 224.749 -174.914 222.449 C-175.359 212.13 -173.141 204.482 -168.703 195.203 C-168.494 194.756 -168.494 194.756 -167.435 192.492 C-163.939 185.022 -160.338 177.606 -156.703 170.203 C-156.199 169.174 -155.696 168.144 -155.177 167.084 C-148.558 153.588 -141.63 140.297 -134.336 127.153 C-132.583 123.985 -130.844 120.809 -129.105 117.633 C-75.543 20.049 -75.543 20.049 -25.411 4.492 C-20.878 3.219 -16.308 2.181 -11.703 1.203 C-11.135 1.028 -10.566 0.853 -9.981 0.673 C-6.668 -0.01 -3.368 0.02 0 0 Z M-77.703 79.203 C-76.703 81.203 -76.703 81.203 -76.703 81.203 Z M-50.887 132.609 C-55.708 138.37 -59.427 144.455 -62.703 151.203 C-63.083 151.969 -63.464 152.735 -63.855 153.523 C-72.258 172.231 -71.282 194.039 -64.453 213.016 C-59.692 224.494 -52.432 233.475 -43.703 242.203 C-38.471 242.841 -33.056 242.16 -27.828 241.703 C-11.567 240.55 4.481 240.745 20.695 242.344 C21.785 242.448 22.874 242.552 23.996 242.659 C29.505 243.187 35.004 243.758 40.501 244.395 C42.562 244.602 44.623 244.808 46.684 245.012 C47.152 245.074 47.152 245.074 49.522 245.386 C54.966 245.879 57.867 245.28 62.268 241.923 C65.902 238.759 69.082 235.355 71.984 231.516 C72.448 230.91 72.911 230.304 73.389 229.679 C85.778 213.067 90.253 192.708 87.592 172.293 C84.406 151.993 74.203 133.334 57.539 120.89 C23.212 96.575 -22.446 101.268 -50.887 132.609 Z " fill="#F1838A" transform="translate(483.703125,417.796875)"/>
<path d="M0 0 C0.339 0.229 0.339 0.229 2.055 1.391 C2.52 1.697 2.52 1.697 4.875 3.25 C5.327 3.552 5.327 3.552 7.617 5.078 C16.92 10.363 26.012 12.039 36.518 13.422 C46.39 14.867 46.39 14.867 50 19 C51.484 21.629 51.484 21.629 52.75 24.562 C59.576 38.823 71.256 49.278 86 55 C108.026 62.465 127.817 58.059 150 53 C152.516 52.434 155.032 51.874 157.551 51.32 C158.66 51.074 159.769 50.828 160.911 50.575 C173.4 48.251 183.944 51.656 194.379 58.578 C197.289 60.673 200.15 62.826 203 65 C225.155 81.888 225.155 81.888 236 88 C236.586 88.336 237.171 88.672 237.774 89.018 C267.756 106.127 305.353 111.334 339 103 C339.674 102.834 340.348 102.667 341.042 102.496 C351.721 99.741 361.353 95.285 371 90 C371.451 89.753 371.451 89.753 373.734 88.504 C383.378 82.942 392.267 76.087 401.127 69.372 C415.662 58.373 429.805 47.836 449 50 C458.134 51.356 467.208 53.146 476.219 55.156 C503.003 60.911 532.27 61.246 556 46 C564.272 40.1 570.157 32.551 575.746 24.164 C579.117 19.431 582.223 15.474 588 14 C591.352 13.68 594.698 13.587 598.062 13.5 C614.182 12.877 628.323 10.85 641 0 C641.465 5.512 639.974 9.162 637.625 14 C637.273 14.739 636.921 15.478 636.558 16.239 C633.39 22.653 629.515 28.36 625.199 34.047 C623.277 36.628 621.647 39.241 620 42 C618.379 43.711 616.705 45.373 615 47 C614.508 47.513 614.015 48.026 613.508 48.555 C601.717 60.797 587.471 70.546 572.875 79.125 C572.057 79.611 571.239 80.097 570.396 80.597 C569.624 81.042 568.851 81.487 568.055 81.945 C567.712 82.144 567.712 82.144 565.976 83.149 C564 84 564 84 560 84 C559.67 84.66 559.34 85.32 559 86 C557.989 86.495 556.979 86.99 555.938 87.5 C551.573 89.9 549.091 93.357 546.109 97.27 C541.028 103.847 535.536 109.865 529 115 C528.794 115.22 528.794 115.22 527.75 116.336 C513.93 129.477 494.307 136.998 476 141 C475.61 141.095 475.61 141.095 473.636 141.575 C462.56 143.888 451.125 143.141 439.875 143 C435.602 142.946 431.328 142.907 427.055 142.875 C426.574 142.867 426.574 142.867 424.144 142.825 C410.54 142.727 398.447 146.506 387.305 154.383 C383.724 156.895 379.994 159.168 376.285 161.484 C374 163 374 163 372 165 C364.005 169.002 355.761 172.283 347.188 174.812 C346.532 175.007 345.876 175.201 345.201 175.402 C334.645 178.377 324.462 179.39 313.5 179.375 C312.842 179.374 312.184 179.374 311.507 179.373 C300.244 179.331 289.79 178.265 279 175 C278.276 174.786 277.551 174.571 276.805 174.351 C263.812 170.402 251.962 164.425 240.586 157.023 C239.094 156.061 237.548 155.183 236 154.312 C235.34 153.879 234.68 153.446 234 153 C234 152.34 234 151.68 234 151 C233.608 150.876 233.608 150.876 231.625 150.25 C228.009 149.003 224.547 147.546 221.051 146 C209.381 142.175 197.603 142.856 185.492 143.116 C158.359 143.655 136.156 138.199 113 124 C112.029 123.434 111.059 122.868 110.059 122.285 C104.782 119.119 100.724 116.018 96.871 111.223 C94.598 108.523 92.103 106.137 89.562 103.688 C85.843 100.084 82.722 96.358 79.812 92.062 C76.392 87.101 73.538 85.235 68 83 C67.67 82.34 67.34 81.68 67 81 C66.105 80.702 65.211 80.404 64.289 80.098 C53.372 76.454 39.911 66.119 33 57 C32.257 56.258 31.515 55.515 30.75 54.75 C18.495 42.495 9.731 28.911 3 13 C2.639 12.161 2.278 11.322 1.906 10.457 C0.426 6.804 -0.113 3.911 0 0 Z " fill="#323650" transform="translate(191,663)"/>
<path d="M0 0 C2.598 2.383 2.598 2.383 3.598 5.383 C3.853 5.222 3.853 5.222 5.145 4.406 C10.909 2.001 19.085 2.521 25.113 4 C31.115 6.67 35.866 11.914 38.773 17.738 C40.667 23.812 40.825 31.573 38.035 37.383 C36.598 40.383 36.598 40.383 36.66 42.82 C37.785 45.894 39.21 48.732 40.758 51.613 C41.598 53.383 41.598 53.383 41.598 55.383 C40.391 55.481 39.185 55.579 37.941 55.68 C36.327 55.83 34.712 55.981 33.098 56.133 C32.306 56.195 31.515 56.257 30.699 56.32 C24.167 56.963 18.337 58.643 13.598 63.383 C12.923 67.449 12.889 71.158 14.973 74.758 C23.062 79.766 32.287 80.404 41.598 79.383 C44.159 78.576 46.375 77.634 48.73 76.355 C50.672 75.344 52.463 74.833 54.598 74.383 C57.423 77.719 59.502 80.909 61.363 84.859 C64.697 91.696 68.459 98.224 72.348 104.758 C72.697 105.347 73.047 105.937 73.407 106.544 C78.724 115.489 84.265 124.12 90.598 132.383 C91.807 133.965 93.016 135.549 94.223 137.133 C94.689 137.726 95.156 138.319 95.637 138.93 C96.598 140.383 96.598 140.383 96.598 142.383 C96.284 142.39 96.284 142.39 94.699 142.427 C64.369 143.206 35.596 147.344 6.744 156.867 C4.303 157.454 2.099 157.471 -0.402 157.383 C0.672 152.726 1.968 148.314 3.598 143.82 C10.29 123.843 8.31 102.005 -0.59 83.07 C-4.103 76.465 -8.391 70.911 -13.402 65.383 C-13.661 65.072 -13.661 65.072 -14.969 63.5 C-27.982 48.89 -48.227 42.715 -67.059 41.164 C-87.582 40.422 -107.657 48.048 -123.215 61.258 C-135.306 72.618 -144.202 87.489 -146.91 103.961 C-147.402 106.383 -147.402 106.383 -148.407 109.142 C-149.425 112.457 -149.714 115.2 -149.816 118.656 C-149.855 119.81 -149.894 120.964 -149.934 122.152 C-149.965 123.342 -149.995 124.532 -150.027 125.758 C-150.066 126.971 -150.105 128.184 -150.145 129.434 C-150.238 132.417 -150.324 135.399 -150.402 138.383 C-151.547 138.397 -152.692 138.411 -153.871 138.426 C-165.351 138.707 -176.573 139.967 -187.902 141.758 C-188.575 141.863 -189.248 141.968 -189.941 142.076 C-197.954 143.338 -205.841 144.853 -213.713 146.819 C-216.402 147.383 -216.402 147.383 -220.402 147.383 C-220.835 141.835 -219.384 137.744 -217.34 132.695 C-216.998 131.842 -216.656 130.99 -216.303 130.111 C-212.003 119.843 -206.414 110.261 -200.914 100.605 C-197.608 94.799 -194.566 88.92 -191.699 82.887 C-190.461 80.497 -189.085 78.477 -187.402 76.383 C-184.604 76.892 -182.034 77.511 -179.34 78.445 C-171.604 80.692 -162.937 79.981 -155.402 77.383 C-151.735 75.277 -149.751 73.906 -147.402 70.383 C-147.474 66.416 -147.72 64.175 -150.34 61.133 C-157.867 56.831 -165.858 55.854 -174.402 55.383 C-173.199 52.889 -171.948 50.701 -170.402 48.383 C-169.62 43.561 -171.72 41.249 -174.402 37.383 C-177.518 30.217 -177.029 23.646 -174.371 16.484 C-171.446 10.138 -166.461 6.462 -160.402 3.383 C-153.773 1.228 -147.806 2.248 -141.402 4.383 C-136.507 4.106 -133.615 1.422 -130.027 -1.617 C-118.4 -11.049 -106.926 -17.66 -92.402 -21.617 C-91.32 -21.936 -90.237 -22.254 -89.121 -22.582 C-56.84 -30.921 -25.16 -20.313 0 0 Z M-157.402 14.383 C-156.402 16.383 -156.402 16.383 -156.402 16.383 Z " fill="#CD4950" transform="translate(563.40234375,482.6171875)"/>
<path d="M0 0 C0.691 -0.001 1.381 -0.001 2.093 -0.002 C19.351 0.025 34.762 2.858 51.125 8.25 C52 8.534 52.876 8.817 53.777 9.109 C73.857 16.386 91.078 29.887 105.809 45.004 C106.717 45.931 107.626 46.858 108.562 47.812 C109.469 48.742 110.375 49.671 111.309 50.629 C113.391 52.567 115.12 53.972 117.473 55.465 C118.348 56.054 119.223 56.643 120.125 57.25 C120.125 57.91 120.125 58.57 120.125 59.25 C120.723 59.374 121.321 59.498 121.938 59.625 C124.125 60.25 124.125 60.25 127.125 62.25 C127.125 62.91 127.125 63.57 127.125 64.25 C127.479 64.39 127.479 64.39 129.27 65.098 C131.132 65.849 132.985 66.627 134.824 67.434 C149.172 73.454 163.944 74.395 179.33 75.406 C189.477 76.136 199.23 77.949 209.125 80.25 C209.125 80.91 209.125 81.57 209.125 82.25 C209.959 82.336 210.793 82.423 211.652 82.512 C215.81 83.396 218.994 85.021 222.688 87.062 C223.011 87.234 223.011 87.234 224.646 88.104 C228.47 90.177 231.737 92.505 235.125 95.25 C236.115 95.58 237.105 95.91 238.125 96.25 C239.703 97.852 239.703 97.852 241.375 99.875 C243.634 102.559 245.909 105.013 248.5 107.375 C264.074 122.809 268.4 143.523 272.125 164.25 C278.359 198.238 278.359 198.238 292.125 208.25 C292.641 208.951 293.156 209.653 293.688 210.375 C295.499 212.738 297.559 213.775 300.125 215.25 C301.137 216.237 302.136 217.239 303.125 218.25 C304.327 219.299 305.536 220.34 306.75 221.375 C318.589 231.782 327.8 242.75 332.125 258.25 C332.213 258.562 332.213 258.562 332.656 260.138 C337.905 280.801 333.894 302.274 325.125 321.25 C324.795 321.25 324.465 321.25 324.125 321.25 C324.56 317.698 325.079 314.398 326.145 310.977 C330.209 295.53 325.98 278.759 318.484 265.078 C310.863 252.144 298.277 242.804 286.188 234.312 C268.064 221.569 255.19 208.497 250.125 186.25 C249.379 181.702 248.818 177.136 248.25 172.562 C245.11 149.224 238.243 129.284 219.039 114.285 C200.414 101.278 177.802 99.351 155.75 98.812 C127.706 98.041 109.851 86.234 90.559 66.699 C86.903 63.009 83.172 59.51 79.125 56.25 C78.153 55.462 77.181 54.675 76.18 53.863 C62.174 42.698 47.264 35.566 30.188 30.438 C29.845 30.334 29.845 30.334 28.111 29.81 C10.98 24.878 -9.814 25.448 -26.875 30.25 C-28.125 30.567 -29.376 30.884 -30.664 31.211 C-57.379 38.402 -77.275 56.184 -96.093 75.592 C-112.92 92.733 -132.04 97.748 -155.277 99.541 C-178.97 101.382 -199.325 106.485 -216.363 124.301 C-229.376 139.58 -231.293 158.499 -233.363 177.699 C-235.595 198.15 -243.016 213.836 -259.055 226.918 C-262.269 229.443 -265.564 231.854 -268.875 234.25 C-284.864 245.983 -300.929 258.483 -306.875 278.25 C-307.08 278.876 -307.285 279.503 -307.496 280.148 C-310.55 291.142 -309.23 304.05 -307.875 315.25 C-309.875 314.25 -309.875 314.25 -311.129 310.898 C-311.573 309.476 -312.009 308.052 -312.438 306.625 C-312.548 306.275 -312.548 306.275 -313.107 304.504 C-315.706 296.04 -316.083 287.869 -316.125 279.062 C-316.146 278.002 -316.166 276.942 -316.188 275.85 C-316.287 255.536 -307.981 239.516 -294.125 225.312 C-289.992 221.21 -285.646 217.563 -281.059 213.984 C-278.446 211.909 -276.138 209.701 -273.875 207.25 C-273.407 206.776 -272.939 206.301 -272.457 205.812 C-261.557 194.156 -258.941 178.883 -256.799 163.657 C-253.707 141.972 -248.881 123.093 -233.875 106.25 C-233.548 105.876 -233.548 105.876 -231.895 103.984 C-212.11 82.752 -184.606 76.877 -156.909 73.907 C-145.688 72.59 -135.005 69.63 -125.312 63.688 C-124.383 63.129 -123.454 62.571 -122.496 61.996 C-117.141 58.428 -112.765 54.211 -108.285 49.621 C-104.567 45.852 -100.72 42.32 -96.707 38.867 C-95.225 37.559 -93.818 36.166 -92.438 34.75 C-82.7 25.25 -82.7 25.25 -78.875 25.25 C-78.875 24.59 -78.875 23.93 -78.875 23.25 C-78.174 22.875 -77.472 22.5 -76.75 22.113 C-75.801 21.602 -74.852 21.09 -73.875 20.562 C-72.947 20.064 -72.019 19.565 -71.062 19.051 C-69.389 18.105 -67.72 17.146 -66.126 16.072 C-60.48 12.284 -54.641 10.185 -48.188 8.125 C-47.124 7.779 -46.061 7.433 -44.965 7.076 C-29.867 2.232 -15.869 0.014 0 0 Z " fill="#70799A" transform="translate(502.875,191.75)"/>
<path d="M0 0 C0.378 -0.003 0.378 -0.003 2.289 -0.017 C3.893 -0.027 5.497 -0.033 7.101 -0.037 C9.497 -0.047 11.893 -0.078 14.289 -0.109 C28.289 -0.207 41.365 1.756 54.672 6.266 C55.547 6.561 56.422 6.856 57.323 7.16 C70.578 11.851 82.816 18.805 93.297 28.203 C94.146 28.946 94.996 29.688 95.871 30.453 C103.249 36.981 110.169 43.59 116.047 51.516 C116.303 51.86 116.303 51.86 117.6 53.603 C128.698 68.774 137.59 85.523 146.801 101.874 C157.273 120.46 168.173 138.359 181.297 155.203 C182.235 156.419 183.172 157.635 184.109 158.852 C191.703 168.654 199.59 178.199 207.984 187.328 C216.072 196.245 222.715 203.86 222.297 216.203 C221.995 216.107 221.995 216.107 220.468 215.619 C214.396 213.733 208.358 212.295 202.109 211.141 C201.2 210.961 200.29 210.782 199.352 210.597 C195.204 209.804 191.18 209.118 186.953 208.996 C181.263 208.747 177.702 208.567 173.508 204.496 C171.222 201.535 169.314 198.377 167.444 195.141 C166.364 193.316 165.214 191.588 163.992 189.855 C153.656 175.174 144.805 159.234 136.647 143.259 C135.297 141.203 135.297 141.203 132.297 140.203 C130.359 140.945 130.359 140.945 128.297 142.078 C120.129 146.503 110.656 146.394 101.734 144.016 C97.558 142.523 94.782 141.014 92.297 137.203 C91.417 133.965 91.315 131.425 92.297 128.203 C96.312 123.332 102.086 120.819 108.297 120.203 C112.636 120.063 116.957 120.084 121.297 120.203 C120.852 119.479 120.407 118.754 119.949 118.008 C119.383 117.041 118.817 116.074 118.234 115.078 C117.95 114.602 117.95 114.602 116.512 112.195 C114.746 107.847 115.562 104.957 117.336 100.723 C119.437 95.215 119.172 88.44 117.645 82.789 C115.052 77.025 110.632 72.911 105.047 70.051 C101.52 68.964 98.42 68.975 94.734 69.016 C93.434 69.022 92.133 69.029 90.793 69.035 C87.297 69.203 87.297 69.203 84.965 69.836 C84.69 69.897 84.69 69.897 83.297 70.203 C81.172 68.266 81.172 68.266 79.891 66.859 C73.377 60.09 65.613 55.405 57.297 51.203 C56.62 50.834 55.943 50.466 55.246 50.086 C33.212 38.316 6.176 38.494 -17.297 45.425 C-24.86 47.871 -31.528 50.986 -38.141 55.391 C-38.871 55.865 -39.601 56.34 -40.353 56.829 C-45.73 60.386 -50.534 64.271 -55.211 68.719 C-58.699 70.796 -60.839 70.113 -64.703 69.203 C-65.198 69.038 -65.198 69.038 -67.703 68.203 C-76.328 67.772 -83.177 69.326 -89.703 75.203 C-94.2 80.794 -96.201 86.799 -96.031 94.012 C-95.269 99.104 -93.367 104.539 -89.703 108.203 C-89.145 110.995 -89.364 112.634 -90.824 115.086 C-92.073 116.833 -93.355 118.532 -94.703 120.203 C-94.025 120.168 -93.347 120.134 -92.648 120.098 C-84.555 119.862 -76.89 120.584 -70.141 125.453 C-67.104 128.879 -66.463 130.634 -66.703 135.203 C-70.16 140.65 -74.018 143.238 -80.328 144.891 C-88.268 145.626 -95.371 145.873 -102.863 142.859 C-104.703 142.203 -104.703 142.203 -107.703 142.203 C-112.279 149.991 -116.594 157.839 -120.556 165.957 C-122.731 170.373 -125.071 174.658 -127.522 178.926 C-131.248 185.424 -134.651 191.885 -137.328 198.891 C-137.576 199.525 -137.823 200.16 -138.079 200.814 C-139.608 205.051 -139.922 208.722 -139.703 213.203 C-140.444 213.425 -141.184 213.646 -141.947 213.874 C-145.347 214.894 -148.744 215.924 -152.141 216.953 C-152.723 217.127 -152.723 217.127 -155.67 218.008 C-162.238 220.006 -168.525 222.199 -174.703 225.203 C-175.579 213.769 -173.633 205.51 -168.703 195.203 C-168.494 194.756 -168.494 194.756 -167.435 192.492 C-163.939 185.022 -160.338 177.606 -156.703 170.203 C-156.199 169.174 -155.696 168.144 -155.177 167.084 C-148.558 153.588 -141.63 140.297 -134.336 127.153 C-132.583 123.985 -130.844 120.809 -129.105 117.633 C-75.543 20.049 -75.543 20.049 -25.411 4.492 C-20.878 3.219 -16.308 2.181 -11.703 1.203 C-11.135 1.028 -10.566 0.853 -9.981 0.673 C-6.668 -0.01 -3.368 0.02 0 0 Z " fill="#DE6169" transform="translate(483.703125,417.796875)"/>
<path d="M0 0 C1.186 2.372 1.009 3.625 0.875 6.25 C0.847 10.61 1.491 13.32 4 17 C11.219 24.219 19.391 26.492 29.375 27.062 C36.848 27.638 43.943 28.285 51 31 C51.659 31.253 52.317 31.505 52.996 31.766 C57.763 34.021 60.02 37.513 62.641 41.879 C64 44 64 44 65.594 45.578 C67 47 67 47 68.25 50.188 C72.117 59.588 80.274 65.149 89.359 69 C94.16 70.721 98.906 71.714 104 72 C105.061 72.076 106.122 72.152 107.215 72.23 C117.784 72.634 127.387 70.669 137.672 68.379 C144.003 66.973 150.358 65.781 156.75 64.688 C157.701 64.516 158.651 64.345 159.631 64.169 C174.697 61.633 188.063 62.89 200.984 71.617 C206.372 75.874 211.26 80.665 216.215 85.41 C242.849 110.849 272.469 118.918 308.698 118.132 C335.406 117.066 359.278 103.722 378.5 86 C393.819 71.88 408.917 62.217 430.445 62.75 C444.99 63.387 459.228 66.534 473.34 69.914 C491.372 74.148 510.923 74.306 527.375 65.188 C533.926 60.962 542.569 53.858 544.504 45.938 C545.325 42.732 547.592 41.203 550 39 C550.302 38.708 550.302 38.708 551.828 37.23 C552.483 36.618 553.138 36.006 553.812 35.375 C554.417 34.805 555.022 34.235 555.645 33.648 C562.908 28.565 570.171 28.541 578.75 28.438 C601.147 28.084 601.147 28.084 610.5 23.125 C611.459 22.633 612.418 22.14 613.406 21.633 C617.197 19.246 619.569 17.293 621 13 C621.069 10.772 621.085 8.542 621.062 6.312 C621.058 5.723 621.058 5.723 621.035 2.738 C621.024 1.835 621.012 0.931 621 0 C627.66 3.719 633.29 9.315 635.703 16.715 C636.474 22.649 635.304 29.044 632 34 C631.67 33.34 631.34 32.68 631 32 C630.175 32.866 629.35 33.732 628.5 34.625 C624.715 37.883 620.682 39.578 616.062 41.312 C615.729 41.44 615.729 41.44 614.039 42.083 C605.164 45.263 596.103 45.241 586.777 45.342 C580.765 45.53 575.936 46.389 571 50 C568.855 52.594 568.855 52.594 567.188 55.5 C556.461 72.692 541.692 83.592 521.961 88.641 C514.76 90.228 507.793 90.535 500.438 90.5 C499.776 90.5 499.114 90.499 498.432 90.499 C483.96 90.448 470.132 88.032 456 85 C438.174 81.287 423.773 79.966 407.695 90.167 C400.001 95.276 392.705 100.957 385.342 106.525 C352.592 131.193 317.129 142.1 275.938 137.312 C246.5 132.418 222.816 119.141 199.562 101 C194.866 97.343 190.062 93.889 185.125 90.562 C184.519 90.149 183.912 89.736 183.287 89.311 C172.705 82.284 161.905 80.517 149.441 82.953 C147.48 83.376 145.52 83.809 143.562 84.25 C142.516 84.475 141.469 84.699 140.39 84.93 C135.541 85.974 130.705 87.062 125.883 88.223 C105.735 92.98 85.197 92.989 66.875 82.188 C54.72 73.935 46.898 64.7 40.75 51.348 C37.906 47.533 34.258 46.431 29.752 45.572 C27.276 45.214 24.798 44.915 22.312 44.625 C10.573 43.044 1.111 39.798 -8 32 C-8.66 32.99 -9.32 33.98 -10 35 C-12.177 27.926 -13.839 19.836 -11.125 12.699 C-8.225 7.787 -4.17 3.846 0 0 Z " fill="#6E789A" transform="translate(200,632)"/>
<path d="M0 0 C0.33 0 0.66 0 1 0 C0.965 1.114 0.93 2.227 0.895 3.375 C0.429 24.779 4.452 45.458 19.375 61.812 C19.857 62.293 20.339 62.774 20.836 63.27 C22.482 65.717 22.653 68.11 23 71 C13.497 73.45 3.91 75.083 -5.771 76.642 C-6.776 76.804 -7.781 76.966 -8.816 77.133 C-9.267 77.204 -9.267 77.204 -11.549 77.567 C-14 78 -14 78 -16.09 78.542 C-19.348 79.324 -22.667 79.226 -26 79.25 C-26.712 79.271 -27.423 79.291 -28.156 79.312 C-31.476 79.337 -33.628 79.225 -36.5 77.484 C-36.995 76.995 -37.49 76.505 -38 76 C-37.757 70.168 -36.041 67.415 -32.438 62.902 C-29.587 59.13 -28.782 55.635 -29.062 51 C-29.661 47.657 -30.647 44.95 -32.992 42.387 C-37.699 39.136 -43.581 37.657 -49 36 C-49 35.67 -49 35.34 -49 35 C-32.877 32.24 -17.366 30.369 -1 31 C-1.005 30.239 -1.01 29.477 -1.016 28.693 C-1.037 25.233 -1.05 21.773 -1.062 18.312 C-1.071 17.114 -1.079 15.916 -1.088 14.682 C-1.091 13.525 -1.094 12.368 -1.098 11.176 C-1.103 10.113 -1.108 9.05 -1.114 7.954 C-1.007 5.187 -0.629 2.692 0 0 Z " fill="#E86A71" transform="translate(414,590)"/>
<path d="M0 0 C6.055 0.08 10.948 2.9 16 6 C21.563 11.717 23.593 16.777 23.875 24.812 C23.58 32.559 22.008 37.748 16.348 43.117 C9.968 48.236 4.126 49.816 -4.008 49.617 C-11.23 48.815 -15.796 44.973 -20.273 39.453 C-24.119 33.878 -25.683 28.102 -24.75 21.312 C-23.016 13.42 -19.575 8.011 -12.75 3.5 C-8.387 0.961 -5.017 0.418 0 0 Z M-5.75 12.312 C-4.75 14.312 -4.75 14.312 -4.75 14.312 Z " fill="#201D1B" transform="translate(411.75,484.6875)"/>
<path d="M0 0 C5.997 2.668 10.773 7.915 13.652 13.75 C15.829 20.637 15.443 28.246 12.484 34.82 C9.142 40.644 4.611 43.854 -1.328 46.758 C-8.402 48.145 -15.274 48.484 -21.668 44.781 C-26.79 40.905 -31.513 35.51 -33.516 29.383 C-34.6 21 -33.452 14.319 -28.516 7.383 C-20.688 -1.039 -11.117 -2.728 0 0 Z " fill="#1F1C1B" transform="translate(588.515625,486.6171875)"/>
<path d="M0 0 C2.188 2.312 2.188 2.312 4 5 C4.413 5.598 4.825 6.196 5.25 6.812 C6.692 11.019 6.648 15.379 5 19.5 C4.67 19.995 4.34 20.49 4 21 C3.34 21 2.68 21 2 21 C2 21.99 2 22.98 2 24 C0.148 24.797 -1.707 25.587 -3.562 26.375 C-4.595 26.816 -5.628 27.257 -6.691 27.711 C-13.243 30.264 -18.821 31.288 -25.777 31.195 C-26.589 31.192 -27.4 31.19 -28.236 31.187 C-30.803 31.176 -33.37 31.151 -35.938 31.125 C-37.688 31.115 -39.439 31.106 -41.189 31.098 C-45.46 31.076 -49.73 31.041 -54 31 C-53.197 30.381 -52.395 29.761 -51.568 29.123 C-48.988 26.99 -48.258 26.001 -47.188 22.938 C-44.32 15.85 -39.572 9.242 -34 4 C-34 4.66 -34 5.32 -34 6 C-26.733 5.211 -19.907 3.073 -12.918 0.996 C-11.973 0.727 -11.028 0.457 -10.055 0.18 C-9.204 -0.071 -8.353 -0.321 -7.476 -0.579 C-4.638 -1.062 -2.744 -0.849 0 0 Z " fill="#E96C72" transform="translate(598,633)"/>
<path d="M0 0 C3.087 0.009 6.172 -0.02 9.259 -0.052 C20.955 -0.091 31.433 0.859 42.591 4.446 C42.591 5.106 42.591 5.766 42.591 6.446 C46.246 7.198 49.909 7.847 53.591 8.446 C53.591 9.106 53.591 9.766 53.591 10.446 C54.272 10.549 54.953 10.652 55.654 10.759 C60.408 11.871 64.536 13.743 68.591 16.446 C68.591 17.106 68.591 17.766 68.591 18.446 C70.571 19.106 72.551 19.766 74.591 20.446 C74.591 21.106 74.591 21.766 74.591 22.446 C74.859 22.57 74.859 22.57 76.216 23.196 C81.028 25.728 85.515 28.849 89.591 32.446 C89.591 33.106 89.591 33.766 89.591 34.446 C90.195 34.538 90.798 34.629 91.419 34.723 C94.124 35.623 94.8 36.653 96.341 39.009 C96.555 39.329 96.555 39.329 97.638 40.95 C97.953 41.444 98.267 41.937 98.591 42.446 C98.261 43.106 97.931 43.766 97.591 44.446 C96.876 43.696 96.16 42.946 95.423 42.173 C80.676 26.924 64.189 15.349 43.966 8.509 C43.169 8.238 42.372 7.968 41.55 7.689 C28.482 3.554 15.59 1.923 1.937 2 C-0.342 2.009 -2.62 1.98 -4.899 1.948 C-18.916 1.88 -32.214 4.439 -45.096 10.134 C-45.491 10.305 -45.491 10.305 -47.487 11.171 C-60.343 16.93 -70.995 25.062 -81.409 34.446 C-81.761 34.756 -81.761 34.756 -83.542 36.325 C-100.83 52.492 -113.703 75.066 -125.409 95.446 C-125.881 96.267 -126.353 97.089 -126.84 97.935 C-139.716 120.395 -151.948 143.191 -163.758 166.229 C-164.824 168.306 -165.893 170.382 -166.965 172.456 C-184.905 207.177 -184.905 207.177 -184.346 219.634 C-184.389 223.251 -184.389 223.251 -185.409 226.446 C-189.554 230.235 -195.098 232.144 -200.176 234.37 C-210.888 239.531 -221.873 249.391 -226.409 260.446 C-227.337 257.936 -227.596 256.865 -226.483 254.376 C-226.025 253.698 -225.568 253.02 -225.096 252.321 C-224.646 251.638 -224.196 250.955 -223.733 250.251 C-222.409 248.446 -222.409 248.446 -220.409 246.446 C-220.244 246.116 -220.244 246.116 -219.409 244.446 C-218.749 244.446 -218.089 244.446 -217.409 244.446 C-217.409 243.786 -217.409 243.126 -217.409 242.446 C-216.419 242.116 -215.429 241.786 -214.409 241.446 C-212.721 239.801 -211.055 238.133 -209.409 236.446 C-206.409 234.446 -206.409 234.446 -203.409 234.446 C-203.409 233.786 -203.409 233.126 -203.409 232.446 C-202.419 232.446 -201.429 232.446 -200.409 232.446 C-200.409 231.786 -200.409 231.126 -200.409 230.446 C-199.089 230.446 -197.769 230.446 -196.409 230.446 C-196.409 229.786 -196.409 229.126 -196.409 228.446 C-193.769 227.456 -191.129 226.466 -188.409 225.446 C-188.299 224.456 -188.19 223.466 -188.077 222.446 C-187.247 215.385 -186.184 209.037 -183.409 202.446 C-183.076 201.076 -182.764 199.7 -182.471 198.321 C-181.566 194.418 -179.664 191.758 -177.409 188.446 C-177.079 187.291 -176.749 186.136 -176.409 184.946 C-175.313 181.111 -173.614 178.753 -171.409 175.446 C-170.313 172.939 -169.329 170.402 -168.346 167.848 C-165.462 160.457 -165.462 160.457 -162.846 157.946 C-160.756 155.764 -160.235 153.305 -159.409 150.446 C-158.749 150.446 -158.089 150.446 -157.409 150.446 C-157.409 149.126 -157.409 147.806 -157.409 146.446 C-156.442 145.414 -155.438 144.416 -154.409 143.446 C-153.459 141.403 -153.459 141.403 -152.721 139.259 C-152.47 138.543 -152.218 137.828 -151.959 137.091 C-151.778 136.548 -151.596 136.005 -151.409 135.446 C-150.749 135.446 -150.089 135.446 -149.409 135.446 C-149.409 134.126 -149.409 132.806 -149.409 131.446 C-148.749 131.446 -148.089 131.446 -147.409 131.446 C-147.239 130.878 -147.068 130.309 -146.893 129.723 C-145.258 124.514 -143.276 120.092 -140.409 115.446 C-139.749 115.446 -139.089 115.446 -138.409 115.446 C-137.419 112.146 -136.429 108.846 -135.409 105.446 C-134.749 105.446 -134.089 105.446 -133.409 105.446 C-133.409 104.456 -133.409 103.466 -133.409 102.446 C-132.409 101.446 -131.409 100.446 -130.409 99.446 C-129.221 96.759 -129.221 96.759 -128.409 94.446 C-127.749 94.446 -127.089 94.446 -126.409 94.446 C-125.419 91.476 -124.429 88.506 -123.409 85.446 C-122.749 85.446 -122.089 85.446 -121.409 85.446 C-121.409 84.456 -121.409 83.466 -121.409 82.446 C-120.749 82.446 -120.089 82.446 -119.409 82.446 C-119.409 81.456 -119.409 80.466 -119.409 79.446 C-118.749 79.446 -118.089 79.446 -117.409 79.446 C-117.409 78.456 -117.409 77.466 -117.409 76.446 C-116.749 76.446 -116.089 76.446 -115.409 76.446 C-115.409 75.126 -115.409 73.806 -115.409 72.446 C-114.749 72.446 -114.089 72.446 -113.409 72.446 C-113.409 71.126 -113.409 69.806 -113.409 68.446 C-112.749 68.446 -112.089 68.446 -111.409 68.446 C-111.244 67.951 -111.244 67.951 -110.409 65.446 C-109.749 65.446 -109.089 65.446 -108.409 65.446 C-108.409 64.456 -108.409 63.466 -108.409 62.446 C-107.075 61.113 -105.742 59.779 -104.409 58.446 C-103.392 56.455 -102.392 54.454 -101.409 52.446 C-99.346 49.571 -99.346 49.571 -97.409 47.446 C-96.749 47.446 -96.089 47.446 -95.409 47.446 C-94.749 45.796 -94.089 44.146 -93.409 42.446 C-92.749 42.446 -92.089 42.446 -91.409 42.446 C-91.285 42.157 -91.285 42.157 -90.659 40.696 C-89.226 38.117 -87.624 36.385 -85.409 34.446 C-84.749 34.446 -84.089 34.446 -83.409 34.446 C-83.244 33.724 -83.079 33.002 -82.909 32.259 C-80.971 28.626 -78.633 27.496 -75.088 25.559 C-74.811 25.376 -74.811 25.376 -73.409 24.446 C-73.409 23.786 -73.409 23.126 -73.409 22.446 C-72.419 22.446 -71.429 22.446 -70.409 22.446 C-70.409 21.786 -70.409 21.126 -70.409 20.446 C-65.568 16.505 -60.198 13.72 -54.409 11.446 C-52.947 10.807 -51.489 10.161 -50.034 9.509 C-49.264 9.171 -48.495 8.833 -47.702 8.485 C-46.25 7.827 -44.813 7.138 -43.397 6.407 C-29.991 -0.283 -14.624 -0.062 0 0 Z " fill="#4F2D42" transform="translate(494.40869140625,416.553955078125)"/>
<path d="M0 0 C0.43 -0.006 0.43 -0.006 2.605 -0.035 C8.821 -0.007 14.682 0.686 19.758 4.65 C22.396 7.372 23.114 9.163 23.312 12.938 C21.586 17.934 18.49 19.897 14.125 22.625 C4.931 26.073 -5.649 25.257 -14.582 21.57 C-17.707 19.941 -19.32 18.558 -20.875 15.375 C-21.438 11.875 -21.438 11.875 -20.875 8.375 C-15.201 1.032 -8.729 -0.117 0 0 Z " fill="#F1878D" transform="translate(393.875,538.625)"/>
<path d="M0 0 C0.461 -0.015 0.461 -0.015 2.791 -0.088 C9.964 -0.154 15.419 1.237 20.812 6.125 C22.323 9.43 22.316 11.726 21.812 15.312 C18.321 20.156 13.5 22.793 7.812 24.312 C-1.831 25.326 -11.155 24.735 -19.312 19.188 C-21.536 15.779 -22.085 13.568 -21.883 9.535 C-20.559 5.305 -16.943 3.323 -13.188 1.312 C-8.818 -0.144 -4.578 0.047 0 0 Z " fill="#F0878D" transform="translate(597.1875,538.6875)"/>
<path d="M0 0 C3.065 0.374 3.674 0.942 5.562 3.312 C6.082 5.328 6.082 5.328 6.375 7.562 C7.363 12.652 9.658 15.94 13.562 19.312 C18.226 22.252 23.235 21.8 28.562 21.312 C33.509 19.664 36.946 16.826 39.562 12.312 C40.485 9.724 41.228 7.152 41.887 4.484 C42.562 2.312 42.562 2.312 44.562 0.312 C47.062 0.062 47.062 0.062 49.562 0.312 C51.562 2.312 51.562 2.312 51.938 5.312 C51.697 12.526 48.262 19.537 43.406 24.777 C36.981 30.127 29.335 32.703 21.066 32.594 C13.852 31.783 7.579 28.445 2.562 23.312 C-2.294 16.778 -5.077 10.62 -4.438 2.312 C-2.438 0.312 -2.438 0.312 0 0 Z " fill="#251917" transform="translate(471.4375,469.6875)"/>
<path d="M0 0 C2.308 0.016 4.614 0 6.922 -0.019 C20.698 -0.04 33.732 2.019 46.817 6.454 C47.692 6.749 48.567 7.044 49.469 7.348 C62.723 12.039 74.961 18.993 85.442 28.391 C86.291 29.134 87.141 29.876 88.016 30.641 C95.394 37.169 102.314 43.778 108.192 51.704 C108.704 52.392 109.217 53.081 109.745 53.791 C119.701 67.402 127.819 82.304 136.082 96.978 C137.016 98.636 137.957 100.29 138.904 101.941 C139.133 102.345 139.133 102.345 140.293 104.387 C140.707 105.11 141.12 105.832 141.546 106.576 C142.442 108.391 142.442 108.391 142.442 110.391 C141.782 110.391 141.122 110.391 140.442 110.391 C140.112 109.071 139.782 107.751 139.442 106.391 C138.782 106.391 138.122 106.391 137.442 106.391 C135.442 101.391 133.442 96.391 131.442 91.391 C130.782 91.391 130.122 91.391 129.442 91.391 C129.168 90.664 128.894 89.936 128.612 89.186 C127.493 86.513 126.22 84.149 124.727 81.668 C124.466 81.234 124.466 81.234 123.147 79.038 C122.876 78.591 122.876 78.591 121.504 76.329 C121.235 75.88 121.235 75.88 119.874 73.608 C115.801 66.854 115.801 66.854 113.764 64.229 C112.442 62.391 112.442 62.391 112.442 60.391 C111.782 60.391 111.122 60.391 110.442 60.391 C109.412 58.743 108.418 57.072 107.442 55.391 C105.993 53.534 104.512 51.701 103.004 49.891 C98.479 44.439 98.479 44.439 96.344 41.672 C94.442 39.391 94.442 39.391 91.442 37.391 C91.442 36.731 91.442 36.071 91.442 35.391 C90.679 35.144 89.916 34.896 89.129 34.641 C86.161 33.26 85.296 32.004 83.442 29.391 C82.452 29.061 81.462 28.731 80.442 28.391 C79.823 27.752 79.204 27.112 78.567 26.454 C76.271 24.225 74.377 23.55 71.442 22.391 C71.112 21.896 71.112 21.896 69.442 19.391 C67.222 18.15 65.065 17.059 62.754 16.016 C62.088 15.712 61.422 15.407 60.735 15.093 C33.343 2.855 1.487 -2.19 -27.558 6.391 C-29.283 6.784 -31.012 7.163 -32.746 7.516 C-36.558 8.391 -36.558 8.391 -39.371 9.579 C-41.945 10.535 -42.988 10.151 -45.558 9.391 C-43.188 8.44 -40.813 7.506 -38.433 6.579 C-37.787 6.318 -37.141 6.057 -36.476 5.788 C-24.517 1.175 -12.689 -0.105 0 0 Z " fill="#BF6875" transform="translate(491.55810546875,417.60888671875)"/>
<path d="M0 0 C2.907 1.32 5.027 2.762 7.32 4.977 C7.627 5.269 7.627 5.269 9.176 6.747 C9.819 7.367 10.462 7.987 11.125 8.625 C39.816 35.759 68.262 45.987 107.698 45.132 C129.094 44.278 151.835 35.018 168 21 C168.66 21.33 169.32 21.66 170 22 C159.025 31.2 148.074 37.091 134.825 42.28 C133.311 42.877 131.808 43.503 130.309 44.137 C127.839 45.06 125.467 45.591 122.875 46.062 C120.129 46.568 117.657 47.114 115 48 C110.644 48.208 106.286 48.186 101.926 48.185 C99.799 48.187 97.673 48.205 95.547 48.225 C86.197 48.262 77.237 47.478 68 46 C68 45.34 68 44.68 68 44 C66.719 43.915 65.437 43.83 64.117 43.742 C58.68 43.135 54.103 41.316 49.125 39.125 C48.705 38.949 48.705 38.949 46.578 38.059 C42.705 36.394 39.951 35.034 37 32 C36.196 31.691 35.391 31.381 34.562 31.062 C31.636 29.849 30.182 28.255 28 26 C27.01 25.67 26.02 25.34 25 25 C23.286 23.382 21.629 21.703 20 20 C14.324 14.171 8.449 8.659 2 3.688 C1.34 3.131 0.68 2.574 0 2 C0 1.34 0 0.68 0 0 Z " fill="#89718C" transform="translate(401,705)"/>
<path d="M0 0 C0.99 0.33 1.98 0.66 3 1 C3 1.66 3 2.32 3 3 C3.66 3 4.32 3 5 3 C8.875 9.625 8.875 9.625 10 13 C10.66 13 11.32 13 12 13 C13.364 14.979 14.694 16.982 16 19 C16.557 19.557 17.114 20.114 17.688 20.688 C19 22 19 22 20 25 C20.66 25.33 21.32 25.66 22 26 C22 26.66 22 27.32 22 28 C22.66 28 23.32 28 24 28 C25.148 29.391 25.148 29.391 26.375 31.25 C28.371 34.16 30.461 36.538 33 39 C34.096 40.197 35.179 41.406 36.25 42.625 C36.771 43.215 37.292 43.806 37.828 44.414 C39 46 39 46 39 48 C40.32 48.66 41.64 49.32 43 50 C43 50.66 43 51.32 43 52 C43.66 52 44.32 52 45 52 C48 56.385 48 56.385 48 59 C48.66 59 49.32 59 50 59 C52.257 64.36 53.363 68.198 53 74 C54.32 74 55.64 74 57 74 C57 74.66 57 75.32 57 76 C57.536 76.134 57.536 76.134 60.25 76.812 C63.562 77.861 65.529 78.628 68 81 C68 81.66 68 82.32 68 83 C70.652 84.075 73.284 85.095 76 86 C77.384 87.965 78.712 89.97 80 92 C83.643 96.821 83.643 96.821 86 98 C89.559 104.376 91.293 109.668 91 117 C89.127 114.19 88.363 112.176 87.375 109 C82.966 96.758 73.839 86.619 62.031 81.051 C61.693 80.892 61.693 80.892 59.979 80.089 C51.487 76.079 51.487 76.079 49.812 72.371 C49.438 69.562 49.438 69.562 49.281 66.727 C48.495 59.101 41.304 52.96 36.352 47.594 C33.201 44.118 30.262 40.49 27.312 36.844 C24.927 33.91 22.498 31.017 20.062 28.125 C14.856 21.888 9.888 15.489 5 9 C4.426 8.239 3.853 7.479 3.262 6.695 C0 2.267 0 2.267 0 0 Z " fill="#4B2C40" transform="translate(655,559)"/>
<path d="M0 0 C0 0.99 0 1.98 0 3 C0.557 3.062 1.114 3.124 1.688 3.188 C4.949 4.334 6.598 6.54 9 9 C9.949 9.598 10.897 10.196 11.875 10.812 C17.257 14.58 21.12 19.749 25 25 C21.57 23.534 19.486 21.639 16.938 18.938 C5.433 7.245 -7.533 -3.004 -24.547 -3.145 C-30.589 -3.108 -36.313 -2.381 -42.25 -1.312 C-42.761 -1.225 -42.761 -1.225 -45.35 -0.782 C-51.752 0.338 -58.092 1.658 -64.436 3.071 C-81.374 6.823 -99.29 9.063 -115 0 C-113.188 -0.625 -113.188 -0.625 -111 -1 C-110.01 -0.34 -109.02 0.32 -108 1 C-89.757 6.738 -68.879 2.159 -51.086 -3.125 C-35.613 -7.512 -14.499 -7.25 0 0 Z " fill="#D28A9A" transform="translate(399,699)"/>
<path d="M0 0 C5.997 2.668 10.773 7.915 13.652 13.75 C15.829 20.637 15.443 28.246 12.484 34.82 C9.142 40.644 4.611 43.854 -1.328 46.758 C-8.402 48.145 -15.274 48.484 -21.668 44.781 C-26.79 40.905 -31.513 35.51 -33.516 29.383 C-34.6 21 -33.452 14.319 -28.516 7.383 C-20.688 -1.039 -11.117 -2.728 0 0 Z M-17.266 2.133 C-18.395 2.458 -19.524 2.783 -20.688 3.117 C-23.516 4.383 -23.516 4.383 -24.906 6.523 C-25.107 7.137 -25.308 7.751 -25.516 8.383 C-26.176 8.383 -26.836 8.383 -27.516 8.383 C-32.035 15.444 -32.451 22.093 -31.516 30.383 C-30.856 31.043 -30.196 31.703 -29.516 32.383 C-29.247 33.146 -28.979 33.909 -28.703 34.695 C-26.903 38.769 -24.552 41.39 -20.504 43.363 C-12.465 46.352 -6.3 46.42 1.547 42.883 C3.201 42.066 4.85 41.238 6.484 40.383 C6.484 39.393 6.484 38.403 6.484 37.383 C7.144 37.383 7.804 37.383 8.484 37.383 C8.722 36.826 8.722 36.826 9.922 34.008 C10.737 32.116 11.563 30.226 12.484 28.383 C13.435 15.144 13.435 15.144 9.484 9.383 C8.824 9.383 8.164 9.383 7.484 9.383 C7.258 8.743 7.031 8.104 6.797 7.445 C5.484 5.383 5.484 5.383 2.859 4.633 C2.467 4.592 2.467 4.592 0.484 4.383 C0.484 3.723 0.484 3.063 0.484 2.383 C-5.755 -0.553 -10.785 0.192 -17.266 2.133 Z " fill="#3D1516" transform="translate(588.515625,486.6171875)"/>
<path d="M0 0 C0.165 0.33 0.165 0.33 1 2 C1.66 2 2.32 2 3 2 C3.657 22.05 3.657 22.05 -1.465 27.582 C-5.316 31 -5.316 31 -8 31 C-8.33 31.99 -8.66 32.98 -9 34 C-13.026 36.286 -17.375 37.434 -22 37 C-22 37.66 -22 38.32 -22 39 C-22.66 39 -23.32 39 -24 39 C-24.66 39.99 -25.32 40.98 -26 42 C-27.093 41.691 -28.186 41.381 -29.312 41.062 C-34.483 39.754 -39.693 39.371 -45 39 C-44.852 38.709 -44.852 38.709 -44.102 37.234 C-43.128 35.259 -42.233 33.277 -41.375 31.25 C-40.921 30.178 -40.467 29.105 -40 28 C-39.374 28.349 -38.747 28.699 -38.102 29.059 C-37.284 29.514 -36.467 29.969 -35.625 30.438 C-34.813 30.89 -34.001 31.342 -33.164 31.809 C-28.115 34.589 -23.724 34.552 -18 34 C-11.291 32.017 -5.296 28.725 -1.879 22.453 C0.407 17.755 0.468 13.642 0.25 8.5 C0.232 7.678 0.214 6.855 0.195 6.008 C0.149 4.005 0.077 2.002 0 0 Z " fill="#C34C54" transform="translate(434,499)"/>
<path d="M0 0 C6.055 0.08 10.948 2.9 16 6 C21.563 11.717 23.593 16.777 23.875 24.812 C23.58 32.559 22.008 37.748 16.348 43.117 C9.964 48.239 4.133 49.795 -4 49.629 C-10.771 48.85 -15.341 45.273 -19.75 40.312 C-19.42 39.322 -19.09 38.332 -18.75 37.312 C-18.296 38.055 -17.842 38.798 -17.375 39.562 C-12.988 44.159 -7.986 46.142 -1.641 46.477 C4.393 46.161 8.54 45.334 13.25 41.312 C14.158 40.694 15.065 40.075 16 39.438 C19.515 36.117 20.14 32.579 20.551 27.84 C20.555 26.655 20.559 25.471 20.562 24.25 C20.579 23.063 20.596 21.876 20.613 20.652 C20.223 17.061 19.245 15.265 17.25 12.312 C17.25 11.652 17.25 10.993 17.25 10.312 C16.59 10.312 15.93 10.312 15.25 10.312 C14.59 9.322 13.93 8.332 13.25 7.312 C8.016 3.299 2.535 2.715 -3.906 2.902 C-7.953 3.486 -10.366 5.08 -13.75 7.312 C-14.74 6.983 -15.73 6.652 -16.75 6.312 C-10.961 2.42 -6.993 0.583 0 0 Z " fill="#3E1516" transform="translate(411.75,484.6875)"/>
<path d="M0 0 C2.324 2.154 3.892 4.289 5.461 7.035 C5.926 7.835 6.39 8.635 6.869 9.46 C7.366 10.319 7.863 11.178 8.375 12.062 C14.339 22.173 20.95 31.626 28 41 C28.543 41.728 29.086 42.457 29.646 43.208 C38.469 55.032 47.771 66.321 57.75 77.188 C65.814 86.089 72.417 93.689 72 106 C71.34 106 70.68 106 70 106 C69.939 105.408 69.879 104.817 69.816 104.207 C69.38 100.09 68.913 96.045 68 92 C67.34 92 66.68 92 66 92 C64.666 90.319 63.407 88.578 62.188 86.812 C57.779 80.565 57.779 80.565 55 77.938 C54.34 77.298 53.68 76.659 53 76 C53 75.34 53 74.68 53 74 C52.34 74 51.68 74 51 74 C51 73.34 51 72.68 51 72 C50.34 72 49.68 72 49 72 C47.981 70.345 46.982 68.677 46 67 C45.67 66.835 45.67 66.835 44 66 C44 65.34 44 64.68 44 64 C43.34 64 42.68 64 42 64 C41.732 63.402 41.464 62.804 41.188 62.188 C39.977 59.957 38.818 58.75 37 57 C32 51.446 32 51.446 32 49 C31.505 48.835 31.505 48.835 29 48 C28.013 46.29 27.032 44.575 26.105 42.832 C25 41 25 41 22.438 38.438 C19.817 35.817 18.642 33.285 17 30 C16.01 29.67 15.02 29.34 14 29 C13.531 27.33 13.068 25.658 12.652 23.974 C11.491 20.461 9.225 17.727 7 14.812 C0 5.462 0 5.462 0 0 Z " fill="#BD6875" transform="translate(634,528)"/>
<path d="M0 0 C0.951 0.005 1.903 0.009 2.883 0.014 C13.398 0.23 23.067 2.557 33.125 5.469 C45.014 8.819 56.487 9.785 68.812 9.938 C70.067 9.968 71.321 9.998 72.614 10.03 C80.495 10.033 86.614 8.766 93.847 5.611 C96.107 4.635 98.163 3.939 100.562 3.438 C98.028 6.426 95.285 7.6 91.688 9.062 C90.659 9.488 89.63 9.913 88.57 10.352 C71.32 16.58 50.525 12.073 33.284 8.066 C14.912 3.824 -2.803 1.485 -21.438 5.438 C-15.947 -0.053 -7.318 -0.08 0 0 Z " fill="#CF8A9A" transform="translate(628.4375,692.5625)"/>
<path d="M0 0 C0.605 1.891 0.605 1.891 1 4 C-0.309 5.357 -1.649 6.685 -3 8 C-4.081 9.883 -4.996 11.812 -5.926 13.773 C-8.298 18.691 -10.972 23.458 -14 28 C-14.66 28 -15.32 28 -16 28 C-16.106 28.547 -16.211 29.093 -16.32 29.656 C-17.154 32.531 -18.431 34.875 -19.875 37.5 C-20.5 38.642 -21.125 39.784 -21.77 40.961 C-22.513 42.307 -23.256 43.654 -24 45 C-24.9 46.638 -25.8 48.276 -26.699 49.914 C-34.014 63.229 -34.014 63.229 -36.898 68.41 C-40.341 74.622 -43.494 80.885 -45.938 87.562 C-47.545 91.25 -49.533 94.814 -52 98 C-52.66 98 -53.32 98 -54 98 C-52.633 93.562 -50.886 89.568 -48.762 85.441 C-48.445 84.824 -48.128 84.207 -47.801 83.572 C-46.769 81.566 -45.729 79.564 -44.688 77.562 C-44.33 76.873 -43.973 76.183 -43.605 75.473 C-37.531 63.755 -31.179 52.218 -24.59 40.781 C-22.923 37.866 -21.287 34.936 -19.656 32 C-13.538 21.005 -7.217 10.312 0 0 Z " fill="#BE6674" transform="translate(383,488)"/>
<path d="M0 0 C3.377 1.393 4.871 2.823 6.75 5.938 C7.178 6.627 7.606 7.317 8.047 8.027 C9 10 9 10 9 13 C9.66 13 10.32 13 11 13 C11 13.66 11 14.32 11 15 C11.825 15.33 11.825 15.33 16 17 C16.041 18.134 16.082 19.269 16.125 20.438 C16.693 25.109 18.751 28.025 21.457 31.785 C22.857 33.795 23.948 35.732 25 37.938 C26.895 41.9 29.133 45.596 31.418 49.344 C33.59 52.99 35.6 56.717 37.605 60.457 C39.54 63.985 41.444 67.323 44 70.438 C47.217 74.559 49.143 79.142 51 84 C47.495 80.686 44.817 77.458 42.32 73.336 C41.646 72.227 40.972 71.118 40.278 69.976 C39.56 68.776 38.842 67.576 38.125 66.375 C37.372 65.126 36.62 63.878 35.867 62.629 C30.11 53.04 24.653 43.302 19.271 33.497 C15.567 26.764 11.765 20.115 7.75 13.562 C7.308 12.841 6.866 12.12 6.411 11.376 C4.758 8.712 3.11 6.144 1.203 3.652 C0 2 0 2 0 0 Z " fill="#4F2E41" transform="translate(604,475)"/>
<path d="M0 0 C-2.777 1.851 -5.574 3.462 -8.5 5.062 C-8.98 5.326 -8.98 5.326 -11.406 6.66 C-14 8 -14 8 -17 9 C-17.33 9.99 -17.66 10.98 -18 12 C-18.99 12 -19.98 12 -21 12 C-21.248 12.619 -21.495 13.238 -21.75 13.875 C-23 16 -23 16 -24.879 16.906 C-27.32 18.165 -28.47 19.496 -30.188 21.625 C-33.487 25.56 -37.112 28.797 -41.082 32.043 C-43.239 34.244 -43.899 36.157 -45 39 C-46.48 40.379 -46.48 40.379 -48.188 41.562 C-52.602 45.057 -54.778 49.547 -57.324 54.488 C-59 57 -59 57 -61.207 57.855 C-61.799 57.903 -62.39 57.951 -63 58 C-54.062 43.232 -20.416 -6.805 0 0 Z " fill="#C06673" transform="translate(447,429)"/>
<path d="M0 0 C0 0.66 0 1.32 0 2 C-2.117 3.508 -2.117 3.508 -4.875 5.125 C-5.78 5.664 -6.685 6.203 -7.617 6.758 C-10 8 -10 8 -12 8 C-12.33 9.32 -12.66 10.64 -13 12 C-13.557 12.041 -13.557 12.041 -16.375 12.25 C-17.571 12.497 -18.767 12.745 -20 13 C-21.188 15 -21.188 15 -22 17 C-23.326 17.362 -24.659 17.697 -26 18 C-26.33 18.99 -26.66 19.98 -27 21 C-27.66 21 -28.32 21 -29 21 C-29.264 21.568 -29.529 22.137 -29.801 22.723 C-31.497 25.944 -33.688 28.765 -35.855 31.684 C-37.298 34.603 -36.933 35.938 -36 39 C-35.752 39.825 -35.505 40.65 -35.25 41.5 C-32.666 46.668 -29.225 48.968 -24 51 C-23.67 51.99 -23.34 52.98 -23 54 C-29.554 52.157 -34.31 47.07 -38.5 41.938 C-40.322 38.369 -40.761 36.956 -40 33 C-34.46 20.991 -14.488 0 0 0 Z " fill="#D68692" transform="translate(307,644)"/>
<path d="M0 0 C2.5 0.25 2.5 0.25 4.5 2.25 C5.455 9.886 2.504 17.026 -2.125 23.062 C-7.052 28.379 -14.353 31.639 -21.508 32.488 C-29.203 32.758 -35.996 30.477 -42.062 25.688 C-44.5 23.25 -44.5 23.25 -45.5 20.25 C-44.84 20.25 -44.18 20.25 -43.5 20.25 C-42.819 20.993 -42.139 21.735 -41.438 22.5 C-37.26 26.762 -32.401 28.982 -26.461 29.531 C-21.395 29.582 -16.462 29.353 -11.5 28.25 C-11.5 27.59 -11.5 26.93 -11.5 26.25 C-10.51 26.25 -9.52 26.25 -8.5 26.25 C-7.84 24.93 -7.18 23.61 -6.5 22.25 C-5.51 22.25 -4.52 22.25 -3.5 22.25 C-3.356 21.466 -3.211 20.683 -3.062 19.875 C-2.5 17.25 -2.5 17.25 -1.5 15.25 C-0.84 15.25 -0.18 15.25 0.5 15.25 C0.5 13.6 0.5 11.95 0.5 10.25 C1.16 10.25 1.82 10.25 2.5 10.25 C2.335 9.095 2.335 9.095 1.5 3.25 C0.18 3.25 -1.14 3.25 -2.5 3.25 C-2.61 3.876 -2.719 4.503 -2.832 5.148 C-2.911 5.557 -2.911 5.557 -3.312 7.625 C-3.463 8.437 -3.614 9.249 -3.77 10.086 C-4.5 12.25 -4.5 12.25 -7.5 14.25 C-7.05 12.29 -6.59 10.332 -6.125 8.375 C-5.997 7.83 -5.997 7.83 -5.352 5.07 C-4.303 1.598 -3.702 0.37 0 0 Z " fill="#401514" transform="translate(518.5,469.75)"/>
<path d="M0 0 C0 0.33 0 0.66 0 1 C-1.174 0.97 -2.347 0.939 -3.556 0.908 C-31.71 0.192 -59.838 -0.143 -88 0 C-88 -0.33 -88 -0.66 -88 -1 C-58.331 -4.097 -29.589 -2.849 0 0 Z " fill="#E8A0A5" transform="translate(528,661)"/>
<path d="M0 0 C-0.776 0.366 -1.552 0.732 -2.352 1.109 C-11.103 5.496 -18.026 10.925 -25.281 17.454 C-37.644 28.577 -51.009 39.567 -67 45 C-67.99 44.67 -68.98 44.34 -70 44 C-67.544 42.829 -65.085 41.663 -62.625 40.5 C-61.926 40.166 -61.228 39.832 -60.508 39.488 C-55.227 37 -55.227 37 -53 37 C-52.814 36.402 -52.629 35.804 -52.438 35.188 C-50.334 31.987 -47.481 31.393 -44 30 C-43.67 29.34 -43.34 28.68 -43 28 C-42.34 28 -41.68 28 -41 28 C-41 27.34 -41 26.68 -41 26 C-39.066 24.562 -39.066 24.562 -36.562 23 C-32.105 20.21 -32.105 20.21 -31 18 C-30.01 18 -29.02 18 -28 18 C-27.732 17.402 -27.464 16.804 -27.188 16.188 C-25.119 12.376 -22.8 10.9 -19 9 C-18.67 8.34 -18.34 7.68 -18 7 C-17.01 7 -16.02 7 -15 7 C-14.772 6.388 -14.544 5.775 -14.309 5.145 C-12.605 2.353 -11.09 1.839 -8.062 0.688 C-7.187 0.341 -6.312 -0.006 -5.41 -0.363 C-3 -1 -3 -1 0 0 Z " fill="#D58A99" transform="translate(607,699)"/>
<path d="M0 0 C-1.724 0.64 -3.454 1.261 -5.188 1.875 C-6.15 2.223 -7.113 2.571 -8.105 2.93 C-18.053 5.95 -28.43 6.36 -38.75 6.312 C-39.965 6.31 -41.18 6.307 -42.431 6.304 C-65.443 6.038 -65.443 6.038 -73 1 C-72.661 1.03 -72.661 1.03 -70.947 1.184 C-50.607 2.967 -31.207 4.608 -11.104 0.335 C-10.233 0.151 -9.362 -0.033 -8.465 -0.223 C-7.698 -0.395 -6.931 -0.568 -6.14 -0.746 C-3.817 -1.022 -2.214 -0.706 0 0 Z " fill="#D38A99" transform="translate(537,745)"/>
<path d="M0 0 C0.391 -0.008 0.391 -0.008 2.371 -0.051 C5.117 0.404 5.933 1.077 7.562 3.312 C8.223 5.434 8.223 5.434 8.625 7.75 C9.191 10.937 9.88 13.523 11.562 16.312 C17.433 20.275 22.133 21.1 29.09 19.863 C31.258 19.38 33.413 18.87 35.562 18.312 C32.52 21.564 30.622 23.115 26.074 23.551 C20.006 23.71 16.26 23.563 11.562 19.312 C7.313 15.159 5.926 12.122 5.02 6.266 C4.562 4.312 4.562 4.312 2.562 2.312 C0 2.125 0 2.125 -2.438 2.312 C-3.438 3.312 -3.438 3.312 -3.688 6.25 C-3.646 11.176 -2.001 15.687 -0.438 20.312 C-1.428 20.312 -2.418 20.312 -3.438 20.312 C-5.782 14.409 -7.479 8.712 -6.438 2.312 C-4.023 -0.102 -3.31 0.016 0 0 Z " fill="#B45055" transform="translate(471.4375,468.6875)"/>
<path d="M0 0 C2.018 0.065 4.036 0.13 6.055 0.195 C6.055 0.855 6.055 1.515 6.055 2.195 C7.045 2.525 8.035 2.855 9.055 3.195 C9.18 8.945 9.18 8.945 8.055 11.195 C7.395 11.195 6.735 11.195 6.055 11.195 C6.055 11.855 6.055 12.515 6.055 13.195 C4.595 13.135 3.137 13.046 1.68 12.945 C1.274 12.922 1.274 12.922 -0.781 12.805 C-2.945 12.195 -2.945 12.195 -4.25 10.344 C-5.223 7.337 -4.734 5.219 -3.945 2.195 C-1.945 0.195 -1.945 0.195 0 0 Z " fill="#F5F6F5" transform="translate(410.9453125,490.8046875)"/>
<path d="M0 0 C0.745 0.005 1.49 0.009 2.258 0.014 C4.089 0.025 5.919 0.043 7.75 0.062 C7.75 0.723 7.75 1.382 7.75 2.062 C9.07 2.392 10.39 2.723 11.75 3.062 C11.09 3.392 10.43 3.723 9.75 4.062 C8.884 3.753 8.017 3.444 7.125 3.125 C0.716 1.107 -5.03 1.687 -11.25 4.062 C-17.427 7.516 -21.014 11.725 -23.5 18.438 C-25.24 26.849 -23.966 32.426 -20.25 40.062 C-19.59 41.053 -18.93 42.043 -18.25 43.062 C-20.625 42.438 -20.625 42.438 -23.25 41.062 C-24.438 38.125 -24.438 38.125 -25.25 35.062 C-25.91 34.072 -26.57 33.082 -27.25 32.062 C-28.172 24.225 -27.731 17.646 -23.25 11.062 C-22.714 10.238 -22.178 9.413 -21.625 8.562 C-21.171 8.067 -20.717 7.572 -20.25 7.062 C-19.59 7.062 -18.93 7.062 -18.25 7.062 C-17.92 6.072 -17.59 5.082 -17.25 4.062 C-11.6 0.092 -6.746 -0.077 0 0 Z " fill="#C5676C" transform="translate(412.25,483.9375)"/>
<path d="M0 0 C0 0.33 0 0.66 0 1 C-2.125 0.884 -4.25 0.756 -6.375 0.625 C-7.558 0.555 -8.742 0.486 -9.961 0.414 C-12.98 0.171 -15.844 -0.366 -18.801 -1.016 C-36.15 -4.63 -52.721 -2.226 -67.855 6.926 C-68.563 7.28 -69.271 7.635 -70 8 C-70.66 7.67 -71.32 7.34 -72 7 C-50.205 -9.016 -24.961 -6.645 0 0 Z " fill="#8C728C" transform="translate(664,700)"/>
<path d="M0 0 C-0.66 0.33 -1.32 0.66 -2 1 C-4.455 -0.081 -6.752 -1.382 -9.102 -2.676 C-15.541 -5.618 -21.762 -6.389 -28.75 -6.375 C-29.157 -6.375 -29.157 -6.375 -31.219 -6.372 C-40.724 -6.194 -49.78 -4.158 -59 -2 C-73.925 1.425 -73.925 1.425 -81 1 C-81 0.67 -81 0.34 -81 0 C-68.79 -2.65 -56.563 -5.182 -44.25 -7.312 C-43.301 -7.484 -42.351 -7.655 -41.373 -7.831 C-26.143 -10.391 -12.864 -9.08 0 0 Z " fill="#90728C" transform="translate(401,704)"/>
<path d="M0 0 C9.992 7.311 15.236 17.619 17.75 29.562 C16.525 35.178 12.807 38.83 9 43 C8.704 43.325 8.704 43.325 7.203 44.973 C5.863 46.376 4.439 47.698 3 49 C2.34 49 1.68 49 1 49 C2.37 44.517 4.314 42.787 8 40 C8.557 39.258 9.114 38.515 9.688 37.75 C10.121 37.173 10.554 36.595 11 36 C11.66 36 12.32 36 13 36 C13.826 30.394 14.068 25.577 13 20 C12.34 20 11.68 20 11 20 C10.89 19.362 10.781 18.724 10.668 18.066 C10.509 17.24 10.351 16.414 10.188 15.562 C10.037 14.739 9.886 13.915 9.73 13.066 C9.489 12.384 9.248 11.703 9 11 C8.01 10.67 7.02 10.34 6 10 C4.395 8.223 4.395 8.223 2.812 6.062 C2.283 5.352 1.753 4.642 1.207 3.91 C0 2 0 2 0 0 Z " fill="#D48995" transform="translate(728,647)"/>
<path d="M0 0 C1.936 3.872 3.127 6.316 3.133 10.691 C3.133 11.164 3.133 11.164 3.137 13.557 C3.133 14.549 3.129 15.541 3.125 16.562 C3.129 17.527 3.133 18.492 3.137 19.486 C3.129 25.405 2.763 31.131 2 37 C1.34 37 0.68 37 0 37 C-0.037 37.664 -0.075 38.328 -0.113 39.012 C-0.796 48.18 -0.796 48.18 -4 52 C-4.495 52.165 -4.495 52.165 -7 53 C-6.567 51.763 -6.134 50.525 -5.688 49.25 C-0.325 32.857 0.248 17.127 0 0 Z " fill="#C4656B" transform="translate(571,583)"/>
<path d="M0 0 C1.236 3.708 0.568 4.675 -0.938 8.188 C-1.318 9.089 -1.698 9.99 -2.09 10.918 C-2.39 11.605 -2.691 12.292 -3 13 C-3.66 13 -4.32 13 -5 13 C-5.206 14.258 -5.413 15.516 -5.625 16.812 C-6.483 20.741 -7.857 23.78 -9.875 27.25 C-15.214 36.596 -17.571 46.292 -18 57 C-18.33 57 -18.66 57 -19 57 C-19.875 45.571 -17.934 37.297 -13 27 C-12.523 25.988 -12.046 24.976 -11.554 23.934 C-7.773 15.923 -3.962 7.924 0 0 Z " fill="#BC6673" transform="translate(328,586)"/>
<path d="M0 0 C0.66 0.33 1.32 0.66 2 1 C-6.665 6.416 -14.418 7.365 -24.5 7.312 C-25.554 7.31 -26.607 7.307 -27.693 7.304 C-38.086 7.166 -48.364 6.174 -58 2 C-54.125 0.555 -51.256 1.495 -47.312 2.438 C-32.845 5.477 -16.062 6.334 -2.16 0.777 C-1.447 0.521 -0.734 0.264 0 0 Z " fill="#83728D" transform="translate(722,700)"/>
<path d="M0 0 C6.036 -0.794 11.069 1.703 16 5 C16.33 5.99 16.66 6.98 17 8 C20.062 9.188 20.062 9.188 23 10 C23 10.66 23 11.32 23 12 C23.536 12.248 24.072 12.495 24.625 12.75 C29.436 15.282 33.924 18.403 38 22 C38 22.66 38 23.32 38 24 C38.603 24.092 39.207 24.183 39.828 24.277 C42.533 25.177 43.208 26.207 44.75 28.562 C45.178 29.203 45.606 29.844 46.047 30.504 C46.204 30.751 46.204 30.751 47 32 C46.835 32.33 46.835 32.33 46 34 C45.285 33.25 44.569 32.5 43.832 31.727 C32.088 19.583 19.721 10.841 4.787 2.986 C3.14 2.077 1.565 1.043 0 0 Z " fill="#4E2C40" transform="translate(546,427)"/>
<path d="M0 0 C2.188 -0.312 2.188 -0.312 5 0 C7.562 2.188 7.562 2.188 10 5 C10.674 5.721 11.348 6.441 12.043 7.184 C14.426 10.613 15.108 13.835 15.75 17.875 C15.875 18.557 16 19.239 16.129 19.941 C16.893 24.349 17.117 28.529 17 33 C16.34 33 15.68 33 15 33 C14.546 33.969 14.092 34.939 13.625 35.938 C12 39 12 39 10 40 C10.412 37.047 10.812 34.428 12.016 31.688 C14.277 25.514 14.148 17.589 11.438 11.562 C9.052 7.519 5.669 4.837 2 2 C1.34 1.34 0.68 0.68 0 0 Z " fill="#C2656B" transform="translate(589,487)"/>
<path d="M0 0 C0.33 0.66 0.66 1.32 1 2 C1.66 2 2.32 2 3 2 C3.657 22.05 3.657 22.05 -1.465 27.582 C-5.316 31 -5.316 31 -8 31 C-8.33 31.99 -8.66 32.98 -9 34 C-15.409 36.768 -22.134 36.186 -29 36 C-29 35.67 -29 35.34 -29 35 C-28.31 34.974 -27.621 34.948 -26.91 34.922 C-18.25 34.399 -10.237 32.416 -4 26 C-0.191 20.229 0.538 15.302 0.25 8.5 C0.241 8.089 0.241 8.089 0.195 6.008 C0.149 4.005 0.077 2.002 0 0 Z " fill="#AB4E53" transform="translate(434,499)"/>
<path d="M0 0 C0.299 0.103 0.299 0.103 1.812 0.625 C1.354 0.954 0.895 1.282 0.422 1.621 C-5.564 6.262 -8.535 11.005 -9.602 18.555 C-10.053 27.897 -6.672 33.42 -1.188 40.625 C-3.125 40.312 -3.125 40.312 -5.188 39.625 C-5.352 39.13 -5.352 39.13 -6.188 36.625 C-8.25 35.938 -8.25 35.938 -10.188 35.625 C-13.148 25.82 -13.135 17.142 -9.188 7.625 C-8.528 7.625 -7.867 7.625 -7.188 7.625 C-7.053 7.151 -7.053 7.151 -6.375 4.75 C-5.06 1.29 -3.99 -0.684 0 0 Z " fill="#AE4E53" transform="translate(565.1875,488.375)"/>
<path d="M0 0 C0.33 0 0.66 0 1 0 C0.965 1.114 0.93 2.227 0.895 3.375 C0.577 18 2.294 30.93 8.012 44.523 C9 47 9 47 9 49 C6 48 6 48 4.438 45.938 C2.033 41.025 1 36.464 1 31 C0.34 31 -0.32 31 -1 31 C-1.029 26.771 -1.047 22.542 -1.062 18.312 C-1.071 17.114 -1.079 15.916 -1.088 14.682 C-1.091 13.525 -1.094 12.368 -1.098 11.176 C-1.103 10.113 -1.108 9.05 -1.114 7.954 C-1.007 5.187 -0.629 2.692 0 0 Z " fill="#D68487" transform="translate(414,590)"/>
<path d="M0 0 C0.99 0 1.98 0 3 0 C3.33 0.66 3.66 1.32 4 2 C5.975 3.048 7.975 4.052 10 5 C10 5.66 10 6.32 10 7 C10.566 7.107 11.132 7.214 11.715 7.324 C14.363 8.107 16.249 9.307 18.562 10.812 C23.083 13.614 27.549 15.362 32.57 17.055 C35.536 18.209 37.716 19.795 40 22 C25.857 20.216 12.99 11.605 2 3 C1.34 2.01 0.68 1.02 0 0 Z " fill="#D18B9A" transform="translate(424,724)"/>
<path d="M0 0 C0.33 0 0.66 0 1 0 C1.312 2.25 1.312 2.25 1 5 C-1.438 7.188 -1.438 7.188 -4 9 C-4.33 9.66 -4.66 10.32 -5 11 C-8.896 11.116 -12.791 11.187 -16.688 11.25 C-17.79 11.284 -18.893 11.317 -20.029 11.352 C-28.268 11.451 -28.268 11.451 -32.27 8.984 C-32.841 8.33 -33.412 7.675 -34 7 C-33.67 6.34 -33.34 5.68 -33 5 C-32.453 5.33 -32.453 5.33 -29.688 7 C-23.764 9.93 -17.799 10.098 -11.473 8.27 C-6.644 6.301 -3.444 3.874 0 0 Z " fill="#B14E53" transform="translate(598,524)"/>
<path d="M0 0 C0.33 0.66 0.66 1.32 1 2 C0.414 3.668 -0.244 5.311 -0.938 6.938 C-3.79 14.422 -3.71 21.243 -2 29 C-2.99 28.67 -3.98 28.34 -5 28 C-8.3 20.88 -7.512 14.187 -4.934 7.055 C-3.691 4.321 -2.044 2.185 0 0 Z " fill="#3B1819" transform="translate(394,492)"/>
<path d="M0 0 C3.068 0.374 3.669 0.942 5.562 3.312 C6.152 5.363 6.152 5.363 6.5 7.625 C7.348 12.058 8.825 14.753 11.562 18.312 C10.902 18.642 10.243 18.973 9.562 19.312 C9.562 18.652 9.562 17.993 9.562 17.312 C8.243 16.983 6.923 16.652 5.562 16.312 C4.572 12.022 3.582 7.733 2.562 3.312 C1.243 2.983 -0.077 2.652 -1.438 2.312 C-1.796 8.285 -1.369 11.959 1.562 17.312 C1.233 18.303 0.902 19.293 0.562 20.312 C-0.086 19.043 -0.731 17.772 -1.375 16.5 C-1.735 15.792 -2.094 15.085 -2.465 14.355 C-4.439 10.209 -4.686 6.875 -4.438 2.312 C-2.438 0.312 -2.438 0.312 0 0 Z " fill="#441515" transform="translate(471.4375,469.6875)"/>
<path d="M0 0 C5.353 -0.357 5.353 -0.357 7.812 1 C9.701 4.181 9.7 7.335 10 11 C9.34 11 8.68 11 8 11 C7.67 13.31 7.34 15.62 7 18 C6.01 18.33 5.02 18.66 4 19 C3.856 19.371 3.856 19.371 3.125 21.25 C1.692 24.753 -0.109 26.58 -3 29 C-5.812 29.812 -5.812 29.812 -8 30 C-7.299 29.505 -6.598 29.01 -5.875 28.5 C0.238 23.185 5.466 16.253 6.176 7.941 C6.186 6.293 6.103 4.645 6 3 C4.02 2.34 2.04 1.68 0 1 C0 0.67 0 0.34 0 0 Z " fill="#B35055" transform="translate(516,469)"/>
<path d="M0 0 C-3.676 2.117 -7.6 3.021 -11.688 4 C-12.401 4.175 -13.115 4.35 -13.851 4.531 C-17.619 5.449 -21.394 6.318 -25.188 7.125 C-29 8 -29 8 -31.812 9.188 C-34.387 10.144 -35.43 9.76 -38 9 C-25.783 4.097 -13.408 -0.804 0 0 Z " fill="#B96471" transform="translate(484,418)"/>
<path d="M0 0 C0.958 0.005 1.917 0.01 2.904 0.016 C7.64 0.068 12.158 0.28 16.812 1.25 C16.812 1.58 16.812 1.91 16.812 2.25 C16.435 2.26 16.435 2.26 14.524 2.31 C11.037 2.406 7.55 2.516 4.062 2.625 C2.875 2.656 1.688 2.687 0.465 2.719 C-7.236 2.971 -14.625 3.77 -22.188 5.25 C-16.44 -0.497 -7.598 -0.166 0 0 Z " fill="#D98B97" transform="translate(629.1875,692.75)"/>
<path d="M0 0 C0.66 0 1.32 0 2 0 C2.125 2.375 2.125 2.375 2 5 C1.34 5.66 0.68 6.32 0 7 C0.702 13.498 3.056 17.745 8 22 C9.661 22.68 11.327 23.349 13 24 C13.33 24.99 13.66 25.98 14 27 C7.446 25.157 2.69 20.07 -1.5 14.938 C-3.237 11.535 -3.55 9.769 -3 6 C-1.5 2.625 -1.5 2.625 0 0 Z " fill="#D78E9B" transform="translate(270,671)"/>
<path d="M0 0 C0.66 0 1.32 0 2 0 C3.348 5.884 3.184 11.678 3.188 17.688 C3.2 18.821 3.212 19.955 3.225 21.123 C3.236 27.995 2.672 34.328 1 41 C0.67 41 0.34 41 0 41 C-0.091 35.694 -0.123 30.463 0.5 25.188 C1.219 18.823 1.302 12.396 1 6 C0.67 5.67 0.34 5.34 0 5 C-0.041 3.334 -0.043 1.666 0 0 Z " fill="#90919C" transform="translate(834,454)"/>
<path d="M0 0 C0.276 0.58 0.552 1.16 0.836 1.758 C6.454 12.579 15.221 18.008 26 23 C26 23.33 26 23.66 26 24 C17.76 23.817 11.189 19.27 5.551 13.488 C-0.473 6.253 -0.473 6.253 -1 1 C-0.67 0.67 -0.34 0.34 0 0 Z " fill="#8B728C" transform="translate(266,679)"/>
<path d="M0 0 C6.75 0.75 6.75 0.75 9 3 C9 4.32 9 5.64 9 7 C10.65 7 12.3 7 14 7 C17.125 13.625 17.125 13.625 16 17 C15.264 16.192 14.528 15.384 13.77 14.551 C12.784 13.471 11.798 12.392 10.812 11.312 C10.33 10.782 9.847 10.252 9.35 9.705 C6.313 6.383 3.206 3.159 0 0 Z " fill="#CC7178" transform="translate(540,538)"/>
<path d="M0 0 C0.99 0.66 1.98 1.32 3 2 C2.649 3.011 2.299 4.021 1.938 5.062 C0.824 8.94 1.053 12.052 2 16 C2.66 16.33 3.32 16.66 4 17 C3.67 17.99 3.34 18.98 3 20 C2.34 20 1.68 20 1 20 C0.67 21.32 0.34 22.64 0 24 C-2.117 17.121 -3.929 8.482 -0.984 1.641 C-0.66 1.099 -0.335 0.558 0 0 Z " fill="#868896" transform="translate(190,643)"/>
<path d="M0 0 C0.424 0.387 0.848 0.773 1.285 1.172 C8.49 7.569 14.767 11.249 24.539 11.168 C28.465 10.9 32.204 10.005 36 9 C36 9.66 36 10.32 36 11 C27.27 13.739 17.979 14.837 9.5 10.812 C5.71 8.633 2.712 6.436 0 3 C0 2.01 0 1.02 0 0 Z " fill="#A84F53" transform="translate(472,490)"/>
<path d="M0 0 C0.66 0 1.32 0 2 0 C2.043 1.666 2.041 3.334 2 5 C1.67 5.33 1.34 5.66 1 6 C0.797 7.403 0.653 8.814 0.535 10.227 C0.457 11.094 0.379 11.962 0.299 12.855 C0.143 14.678 -0.01 16.501 -0.162 18.324 C-0.746 24.77 -1.335 30.503 -5 36 C-3.687 23.936 -1.972 11.974 0 0 Z " fill="#9799A3" transform="translate(249,337)"/>
<path d="M0 0 C-3.646 3.094 -7.715 4.813 -12.062 6.688 C-12.782 7.008 -13.502 7.328 -14.244 7.658 C-17.308 8.992 -19.623 10 -23 10 C-23 9.34 -23 8.68 -23 8 C-21.35 8 -19.7 8 -18 8 C-18 7.34 -18 6.68 -18 6 C-14.317 2.428 -10.93 1.209 -6 0 C-3.509 -1.245 -2.589 -0.777 0 0 Z " fill="#5C5B63" transform="translate(567,825)"/>
<path d="M0 0 C0.66 0.33 1.32 0.66 2 1 C1.146 5.851 -0.435 10.328 -2.062 14.965 C-2.991 17.972 -3.555 20.887 -4 24 C-4.33 24 -4.66 24 -5 24 C-6.698 17.206 -4.923 11.615 -3 5 C-2.34 5 -1.68 5 -1 5 C-0.67 3.35 -0.34 1.7 0 0 Z " fill="#CB7379" transform="translate(420,565)"/>
<path d="M0 0 C0.703 1.684 0.703 1.684 1 4 C-0.328 6.473 -0.328 6.473 -2.25 9.062 C-2.874 9.92 -3.498 10.777 -4.141 11.66 C-6.937 15.18 -9.791 17.703 -13.5 20.25 C-14.273 20.791 -15.047 21.333 -15.844 21.891 C-16.555 22.257 -17.267 22.623 -18 23 C-18.99 22.67 -19.98 22.34 -21 22 C-20.455 21.683 -19.909 21.366 -19.348 21.039 C-10.836 15.772 -4.225 9.14 0 0 Z " fill="#8E738B" transform="translate(745,677)"/>
<path d="M0 0 C2.76 2.561 4.868 5.448 7.062 8.5 C7.755 9.459 8.447 10.418 9.16 11.406 C10.469 13.251 11.745 15.118 13 17 C11.02 17 9.04 17 7 17 C7 15.35 7 13.7 7 12 C6.402 11.794 5.804 11.587 5.188 11.375 C2.127 9.451 1.325 7.312 0 4 C0 2.68 0 1.36 0 0 Z " fill="#DF8A90" transform="translate(423,639)"/>
<path d="M0 0 C0.33 0 0.66 0 1 0 C0.402 8.079 -2.332 14.828 -6 22 C-7.205 17.108 -6.758 14.436 -4.688 9.875 C-4.238 8.862 -3.788 7.849 -3.324 6.805 C-2.245 4.52 -1.147 2.251 0 0 Z " fill="#898C9A" transform="translate(258,313)"/>
<path d="M0 0 C-0.369 2.591 -0.657 3.716 -2.707 5.414 C-3.402 5.814 -4.097 6.213 -4.812 6.625 C-5.156 6.827 -5.156 6.827 -6.895 7.852 C-7.589 8.231 -8.284 8.61 -9 9 C-9.684 9.4 -10.369 9.799 -11.074 10.211 C-13 11 -13 11 -16 10 C-14.043 8.519 -12.085 7.04 -10.125 5.562 C-9.569 5.142 -9.014 4.721 -8.441 4.287 C-2.748 0 -2.748 0 0 0 Z " fill="#86889A" transform="translate(292,281)"/>
<path d="M0 0 C-5.228 4.531 -11.404 8.801 -18 11 C-18 8 -18 8 -16 6 C-14.68 6 -13.36 6 -12 6 C-11.67 5.01 -11.34 4.02 -11 3 C-7.287 0.136 -4.634 -0.323 0 0 Z " fill="#C97176" transform="translate(460,530)"/>
<path d="M0 0 C-5.475 3.264 -9.298 5.139 -15.766 5.098 C-16.655 5.094 -17.545 5.091 -18.461 5.088 C-19.381 5.08 -20.302 5.071 -21.25 5.062 C-22.186 5.058 -23.122 5.053 -24.086 5.049 C-26.391 5.037 -28.695 5.021 -31 5 C-31 4.67 -31 4.34 -31 4 C-29.996 3.974 -28.992 3.948 -27.957 3.922 C-19.556 3.606 -12.434 2.605 -4.477 -0.258 C-2 -1 -2 -1 0 0 Z " fill="#91738B" transform="translate(724,701)"/>
<path d="M0 0 C7.101 0.257 12.098 0.934 18 5 C18 5.99 18 6.98 18 8 C17.316 7.724 16.631 7.448 15.926 7.164 C12.689 5.876 9.44 4.623 6.188 3.375 C5.026 2.929 3.865 2.483 2.668 2.023 C1.788 1.686 0.907 1.348 0 1 C0 0.67 0 0.34 0 0 Z " fill="#CD777D" transform="translate(516,526)"/>
<path d="M0 0 C0.734 1.676 0.734 1.676 1 4 C-0.547 6.543 -0.547 6.543 -2.75 9.188 C-3.467 10.068 -4.183 10.948 -4.922 11.855 C-7 14 -7 14 -10 15 C-8.596 10.899 -6.629 8.019 -3.875 4.688 C-3.151 3.804 -2.426 2.921 -1.68 2.012 C-1.125 1.348 -0.571 0.684 0 0 Z " fill="#8A8D9C" transform="translate(269,298)"/>
<path d="M0 0 C0.66 0.33 1.32 0.66 2 1 C1.615 1.344 1.615 1.344 -0.336 3.082 C-1.349 3.992 -2.362 4.902 -3.375 5.812 C-3.883 6.264 -4.391 6.716 -4.914 7.182 C-7.322 9.352 -9.191 11.286 -11 14 C-13.953 16.044 -15.367 17 -19 17 C-16.96 15.102 -14.918 13.207 -12.875 11.312 C-12.59 11.047 -12.59 11.047 -11.148 9.705 C-7.524 6.348 -3.822 3.131 0 0 Z " fill="#91728B" transform="translate(590,708)"/>
<path d="M0 0 C1.98 0 3.96 0 6 0 C5 3 5 3 1.84 4.605 C0.544 5.144 -0.757 5.671 -2.062 6.188 C-2.726 6.46 -3.389 6.733 -4.072 7.014 C-5.711 7.686 -7.355 8.344 -9 9 C-9 8.01 -9 7.02 -9 6 C-7.35 5.67 -5.7 5.34 -4 5 C-4 4.34 -4 3.68 -4 3 C-2.68 3 -1.36 3 0 3 C0 2.01 0 1.02 0 0 Z " fill="#57555E" transform="translate(740,579)"/>
<path d="M0 0 C0.33 0.66 0.66 1.32 1 2 C0.515 2.052 0.515 2.052 -1.938 2.312 C-5.857 2.848 -9.389 4.091 -13.082 5.477 C-15 6 -15 6 -17 5 C-17 4.34 -17 3.68 -17 3 C-5.478 -0.444 -5.478 -0.444 0 0 Z " fill="#888B9A" transform="translate(327,269)"/>
<path d="M0 0 C-0.33 1.32 -0.66 2.64 -1 4 C-1.99 4 -2.98 4 -4 4 C-4 4.763 -4 5.526 -4 6.312 C-5 9 -5 9 -6.848 10 C-8.883 10.747 -10.913 11.415 -13 12 C-13 11.34 -13 10.68 -13 10 C-11.355 8.379 -11.355 8.379 -9.188 6.562 C-5.148 3.156 -5.148 3.156 -3.363 1.277 C-2 0 -2 0 0 0 Z " fill="#9495A4" transform="translate(402,236)"/>
<path d="M0 0 C0.99 0 1.98 0 3 0 C3 1.65 3 3.3 3 5 C3.66 5 4.32 5 5 5 C5.33 8.63 5.66 12.26 6 16 C4 15 4 15 2.93 12.383 C2.582 11.308 2.234 10.233 1.875 9.125 C1.522 8.055 1.169 6.985 0.805 5.883 C0 3 0 3 0 0 Z " fill="#9596A1" transform="translate(189,491)"/>
<path d="M0 0 C0.33 0 0.66 0 1 0 C1.125 6.75 1.125 6.75 0 9 C0.082 10.093 0.165 11.186 0.25 12.312 C0 16 0 16 -2.5 18.938 C-2.913 19.278 -2.913 19.278 -5 21 C-6 19 -6 19 -5.293 16.68 C-4.928 15.754 -4.563 14.829 -4.188 13.875 C-2.437 9.278 -1.085 4.793 0 0 Z " fill="#D38289" transform="translate(570,615)"/>
<path d="M0 0 C4.847 0.782 9.377 2.398 14 4 C14 4.66 14 5.32 14 6 C15.32 6.33 16.64 6.66 18 7 C16 8 16 8 14.082 7.547 C9.299 5.868 4.629 4.068 0 2 C0 1.34 0 0.68 0 0 Z " fill="#6C696F" transform="translate(320,794)"/>
<path d="M0 0 C0.66 0.33 1.32 0.66 2 1 C0.56 6.235 -1.817 10.63 -5 15 C-5.33 15 -5.66 15 -6 15 C-5.67 12.69 -5.34 10.38 -5 8 C-4.34 8 -3.68 8 -3 8 C-2.691 7.051 -2.381 6.102 -2.062 5.125 C-1 2 -1 2 0 0 Z " fill="#524D56" transform="translate(825,677)"/>
<path d="M0 0 C0.99 0 1.98 0 3 0 C2.345 4.058 1.054 7.54 -0.562 11.312 C-1.018 12.381 -1.473 13.45 -1.941 14.551 C-2.116 14.955 -2.116 14.955 -3 17 C-3.33 17 -3.66 17 -4 17 C-3.357 11.087 -1.81 5.658 0 0 Z " fill="#848492" transform="translate(831,496)"/>
<path d="M0 0 C0.33 0 0.66 0 1 0 C1.025 0.62 1.05 1.241 1.076 1.88 C1.192 4.691 1.315 7.502 1.438 10.312 C1.477 11.289 1.516 12.265 1.557 13.271 C1.599 14.209 1.64 15.147 1.684 16.113 C1.72 16.977 1.757 17.841 1.795 18.732 C2 21 2 21 3 24 C2.84 26.701 2.396 29.319 2 32 C1.67 32 1.34 32 1 32 C-0.224 25.36 -0.112 18.798 -0.062 12.062 C-0.058 10.902 -0.053 9.741 -0.049 8.545 C-0.037 5.697 -0.021 2.848 0 0 Z " fill="#9899A0" transform="translate(187,458)"/>
<path d="M0 0 C0.312 2.25 0.312 2.25 0 5 C-2.375 7.125 -2.375 7.125 -5 9 C-5.33 9.495 -5.33 9.495 -7 12 C-7.99 12 -8.98 12 -10 12 C-10 11.34 -10 10.68 -10 10 C-8.667 8.667 -7.333 7.333 -6 6 C-4.994 4.337 -3.993 2.671 -3 1 C-1 0 -1 0 0 0 Z " fill="#888B9C" transform="translate(241,386)"/></g>
</svg>