<?xml version="1.0" encoding="UTF-8"?>
<svg xmlns="http://www.w3.org/2000/svg" viewBox="0 0 1024 1024" preserveAspectRatio="xMidYMid meet">
<style>

.main { transform-origin: 50% 25%; animation: dressSway 4.5s ease-in-out infinite; }
@keyframes dressSway {
  0%, 100% { transform: rotate(-2deg) translateY(0); }
  50%      { transform: rotate(2deg) translateY(-6px); }
}
.sparkle { transform-origin: center; animation: twinkle 2.6s ease-in-out infinite; }
.sparkle.s2 { animation-delay: .5s; animation-duration: 2.1s; }
.sparkle.s3 { animation-delay: 1.1s; animation-duration: 3.0s; }
.sparkle.s4 { animation-delay: 1.6s; animation-duration: 2.4s; }
.sparkle.s5 { animation-delay: .3s;  animation-duration: 3.3s; }
.sparkle.s6 { animation-delay: .9s;  animation-duration: 2.2s; }
@keyframes twinkle {
  0%,100% { opacity: 0.2; transform: scale(.6) rotate(0); }
  50%     { opacity: 1;   transform: scale(1.3) rotate(45deg); }
}

</style>
<g class="main"><path d="M0 0 C0.66 0.33 0.66 0.33 4 2 C4 2.66 4 3.32 4 4 C5.65 3.34 7.3 2.68 9 2 C9.625 3.875 9.625 3.875 10 6 C9.34 6.66 8.68 7.32 8 8 C7.01 8 6.02 8 5 8 C5.66 9.32 6.32 10.64 7 12 C6.34 12.99 5.68 13.98 5 15 C4.6061 17.3239 4.2651 19.6579 4 22 C4.66 22.33 4.66 22.33 8 24 C8 24.66 8 25.32 8 26 C8.99 26.33 9.98 26.66 11 27 C10.67 27.99 10.34 28.98 10 30 C9.34 30 8.68 30 8 30 C8.66 30.99 9.32 31.98 10 33 C10 33.99 10 34.98 10 36 C8.68 36 7.36 36 6 36 C6.5014 37.0042 7.0029 38.0084 7.5195 39.043 C12.968 51.8999 3.9615 70.5946 -0.0146 82.8916 C-1.4241 87.3379 -2.7013 91.8154 -3.9375 96.3125 C-4.037 96.6705 -4.037 96.6705 -4.5403 98.4822 C-5.043 100.3171 -5.5227 102.1583 -6 104 C-6.2075 104.7773 -6.4151 105.5546 -6.6289 106.3555 C-7.2149 110.5312 -7 114.7833 -7 119 C0.26 118.34 7.52 117.68 15 117 C18.3727 123.7454 18.2813 131.0156 18.625 138.4375 C18.6504 138.9349 18.6504 138.9349 18.7791 141.4521 C19.0504 147.9141 18.8245 154.1859 18.3008 160.6287 C17.1677 175.4719 17.1677 175.4719 21.125 180.875 C22.7341 182.5983 24.3612 184.3049 26 186 C28.0837 188.6696 30.0382 191.4276 32 194.1875 C32.5467 194.9443 33.0934 195.701 33.6567 196.4807 C45.8827 213.4612 57.2121 231.0771 68 249 C68.5377 249.8899 69.0754 250.7799 69.6294 251.6968 C89.3504 284.4798 107.1197 318.8824 122.604 353.8574 C123.8906 356.7537 125.1901 359.6439 126.4933 362.5328 C136.3665 384.4441 145.4517 406.6324 154.2186 429.0075 C154.8885 430.7157 155.5616 432.4227 156.2354 434.1294 C158.5725 440.057 160.8125 446.0156 163 452 C163.2469 452.6747 163.4938 453.3494 163.7482 454.0446 C173.1597 479.7913 182.0254 505.6811 190.3066 531.813 C190.9598 533.8733 191.6155 535.9329 192.272 537.9922 C203.1056 572.0598 212.6102 606.5337 221.375 641.1875 C221.6138 642.1249 221.8526 643.0623 222.0986 644.0281 C222.7607 646.6796 223.3858 649.337 224 652 C224.2415 652.9738 224.4829 653.9476 224.7317 654.9509 C226.3608 662.243 226.3608 662.243 224.6836 665.7617 C208.7945 679.3849 189.5432 689.8127 168.3169 690.1973 C158.7173 690.3811 152.6148 691.4036 144.2188 696.2812 C139.0845 699.0228 133.6935 700.0158 128 701 C127.0616 701.183 126.1231 701.3661 125.1562 701.5547 C107.1729 704.0919 92.1477 700.2279 75.9717 692.6377 C59.3829 684.8971 43.3704 683.696 26 690 C19.2807 692.8372 12.9131 696.4128 6.5156 699.8984 C-28.8173 718.5418 -77.3404 718.2402 -114.8555 706.875 C-120.8228 704.8616 -126.3071 702.3719 -131.875 699.4375 C-149.5181 690.4889 -169.1971 688.9097 -188.0842 694.7725 C-191.2264 695.8252 -194.3454 696.9259 -197.4609 698.0547 C-219.3706 705.9213 -246.1684 703.9671 -267.3359 694.3672 C-278.2169 688.7831 -278.2169 688.7831 -281 686 C-282.9945 685.9611 -284.9903 685.9887 -286.9844 686.043 C-288.2309 686.0642 -289.4774 686.0855 -290.7617 686.1074 C-293.374 686.1599 -295.986 686.2245 -298.5977 686.3027 C-317.4546 686.5628 -332.8846 678.6167 -347.2188 666.9805 C-352.3303 658.4276 -345.9118 643.5104 -343.625 634.375 C-343.177 632.564 -342.7292 630.753 -342.2815 628.9419 C-326.237 564.3581 -306.9335 500.5448 -283.125 438.375 C-282.8527 437.6633 -282.5803 436.9517 -282.2997 436.2184 C-262.1621 383.7068 -239.5432 332.2277 -212.5532 282.8564 C-210.9952 279.9911 -209.456 277.1164 -207.9219 274.2383 C-202.0511 263.2497 -196.0439 252.4581 -189.2788 241.9956 C-187.9003 239.8444 -186.5517 237.6764 -185.207 235.5039 C-173.1056 216.0039 -159.8767 197.4039 -145.2422 179.7227 C-143.6458 177.7841 -142.069 175.8374 -140.5078 173.8711 C-140.1043 173.3664 -140.1043 173.3664 -138.0625 170.8125 C-137.3316 169.8908 -136.6007 168.9691 -135.8477 168.0195 C-135.2379 167.3531 -134.6282 166.6866 -134 166 C-133.34 166 -132.68 166 -132 166 C-131.7834 165.4457 -131.5669 164.8914 -131.3438 164.3203 C-128.9629 160.2092 -125.0591 157.3708 -121.5312 154.2422 C-113.4145 145.3249 -116.3736 126.6368 -116.7661 115.6172 C-117.6998 101.1778 -122.698 87.4364 -127.1797 73.7881 C-135.739 47.6576 -135.739 47.6576 -131.4375 37.8125 C-127.8205 31.4638 -122.5893 27.4742 -115.582 25.4688 C-101.0711 22.8344 -89.9997 27.1554 -78 35 C-75.796 36.5749 -73.949 38.1051 -72 40 C-72 40.66 -72 41.32 -72 42 C-71.34 42 -70.68 42 -70 42 C-68.7656 43.7671 -67.6107 45.5902 -66.5 47.4375 C-63.2102 52.8949 -63.2102 52.8949 -61 54 C-60.7938 53.34 -60.5875 52.68 -60.375 52 C-54.4106 38.9868 -42.8668 31.3804 -29.9844 26.1875 C-23.3174 24.1005 -15.9121 24.838 -9 25 C-7.5 22.0505 -6.1998 19.0851 -5 16 C-5.99 16 -6.98 16 -8 16 C-8.66 17.32 -9.32 18.64 -10 20 C-12.875 19.375 -12.875 19.375 -16 18 C-17.375 14.875 -17.375 14.875 -18 12 C-14.7102 10.9034 -13.287 11.2005 -10 12 C-9.6081 11.2163 -9.2162 10.4325 -8.8125 9.625 C-7 7 -7 7 -4.4375 6 C-2 5 -2 5 -0.6875 2.375 C-0.5741 1.9831 -0.5741 1.9831 0 0 Z " fill="#FEFEFE" transform="translate(576,222)"/>
<path d="M0 0 C0.66 0.33 0.66 0.33 4 2 C4 2.66 4 3.32 4 4 C4.825 3.67 4.825 3.67 9 2 C9.625 3.875 9.625 3.875 10 6 C9.34 6.66 8.68 7.32 8 8 C7.01 8 6.02 8 5 8 C5.33 8.66 5.33 8.66 7 12 C6.34 12.99 5.68 13.98 5 15 C4.6061 17.3239 4.2651 19.6579 4 22 C4.66 22.33 4.66 22.33 8 24 C8 24.66 8 25.32 8 26 C8.99 26.33 9.98 26.66 11 27 C10.67 27.99 10.34 28.98 10 30 C9.34 30 8.68 30 8 30 C8.33 30.495 8.33 30.495 10 33 C10 33.99 10 34.98 10 36 C8.68 36 7.36 36 6 36 C6.5014 37.0042 7.0029 38.0084 7.5195 39.043 C12.968 51.8999 3.9615 70.5946 -0.0146 82.8916 C-1.4241 87.3379 -2.7013 91.8154 -3.9375 96.3125 C-4.037 96.6705 -4.037 96.6705 -4.5403 98.4822 C-5.043 100.3171 -5.5227 102.1583 -6 104 C-6.2075 104.7773 -6.4151 105.5546 -6.6289 106.3555 C-7.2149 110.5312 -7 114.7833 -7 119 C0.26 118.34 7.52 117.68 15 117 C24.5766 136.1533 19.0828 166.9998 14 187 C6.7942 189.5907 -2.1664 184.5288 -8.7681 181.4629 C-18.0119 176.9719 -26.2386 171.213 -34.4663 165.0881 C-36 164 -36 164 -38 163 C-30.2316 177.1112 -22.3858 191.159 -14.2202 205.0454 C-9.2907 213.4484 -4.5174 221.9339 0.2073 230.4536 C3.3103 236.0374 6.503 241.5272 9.916 246.9282 C11 249 11 249 11 252 C6.38 253.98 1.76 255.96 -3 258 C-3.9694 255.9169 -4.9388 253.8338 -5.9375 251.6875 C-7.9212 247.4277 -9.9127 243.1722 -11.9414 238.9336 C-18.9469 224.2836 -25.6288 209.4878 -32.3262 194.6953 C-34.5453 189.7944 -36.772 184.8969 -39 180 C-38.9071 180.3263 -38.9071 180.3263 -38.4368 181.9775 C-35.2952 193.0335 -32.1613 204.0826 -29.4375 215.25 C-27.7787 222.0491 -25.9542 228.7799 -24 235.5 C-20.207 248.5546 -16.8963 261.718 -14 275 C-16.0055 274.3501 -18.004 273.6785 -20 273 C-20.6378 272.7869 -21.2757 272.5737 -21.9329 272.3541 C-28.4611 270.0493 -34.527 267.8597 -37.8131 261.4799 C-39.0351 257.1581 -39.4422 252.7543 -39.8633 248.2969 C-40.0734 246.6514 -40.2901 245.0068 -40.513 243.3631 C-41.0812 239.0433 -41.5616 234.7181 -42.0229 230.3857 C-42.4998 226.045 -43.0561 221.7146 -43.6074 217.3828 C-44.437 210.8002 -45.2272 204.2144 -45.9836 197.623 C-47.4011 185.3214 -48.9346 172.9641 -51.668 160.875 C-52 159 -52 159 -52 155 C-53.2016 155.0167 -54.4031 155.0334 -55.6411 155.0505 C-67.244 155.1606 -78.7054 154.709 -90.269 153.7732 C-92.9223 153.5587 -95.5762 153.3557 -98.2305 153.1543 C-99.9428 153.0215 -101.655 152.888 -103.3672 152.7539 C-104.1484 152.6934 -104.9297 152.633 -105.7346 152.5707 C-109.8686 152.2337 -113.9154 151.7518 -118 151 C-117.9322 150.2831 -117.8643 149.5662 -117.7944 148.8276 C-115.366 121.7386 -118.7516 99.4514 -127.1797 73.7886 C-135.7383 47.6561 -135.7383 47.6561 -131.4375 37.8125 C-127.8205 31.4638 -122.5893 27.4742 -115.582 25.4688 C-101.0711 22.8344 -89.9997 27.1554 -78 35 C-75.796 36.5749 -73.949 38.1051 -72 40 C-72 40.66 -72 41.32 -72 42 C-71.34 42 -70.68 42 -70 42 C-68.7656 43.7671 -67.6107 45.5902 -66.5 47.4375 C-63.2102 52.8949 -63.2102 52.8949 -61 54 C-60.8969 53.67 -60.8969 53.67 -60.375 52 C-54.4106 38.9868 -42.8668 31.3804 -29.9844 26.1875 C-23.3174 24.1005 -15.9121 24.838 -9 25 C-7.5 22.0505 -6.1998 19.0851 -5 16 C-5.99 16 -6.98 16 -8 16 C-8.66 17.32 -9.32 18.64 -10 20 C-12.875 19.375 -12.875 19.375 -16 18 C-17.375 14.875 -17.375 14.875 -18 12 C-14.7102 10.9034 -13.287 11.2005 -10 12 C-9.8041 11.6081 -9.8041 11.6081 -8.8125 9.625 C-7 7 -7 7 -4.4375 6 C-2 5 -2 5 -0.6875 2.375 C-0.5741 1.9831 -0.5741 1.9831 0 0 Z " fill="#FEFDFD" transform="translate(576,222)"/>
<path d="M0 0 C1.6102 7.0151 2.4253 13.8125 2.6875 21 C2.7063 21.5009 2.7063 21.5009 2.8015 24.0359 C3.2952 39.6703 1.8545 53.8331 -2 69 C-9.2058 71.5907 -18.1664 66.5288 -24.7681 63.4629 C-34.0119 58.9719 -42.2386 53.213 -50.4663 47.0881 C-52 46 -52 46 -54 45 C-46.2316 59.1112 -38.3858 73.159 -30.2202 87.0454 C-25.2907 95.4484 -20.5174 103.9339 -15.7927 112.4536 C-12.6897 118.0374 -9.497 123.5272 -6.084 128.9282 C-5 131 -5 131 -5 134 C-9.62 135.98 -14.24 137.96 -19 140 C-19.9694 137.9169 -20.9388 135.8338 -21.9375 133.6875 C-23.9212 129.4277 -25.9127 125.1722 -27.9414 120.9336 C-34.9469 106.2836 -41.6288 91.4878 -48.3262 76.6953 C-50.5453 71.7944 -52.772 66.8969 -55 62 C-54.9071 62.3263 -54.9071 62.3263 -54.4368 63.9775 C-51.2952 75.0335 -48.1613 86.0826 -45.4375 97.25 C-43.7787 104.0491 -41.9542 110.7799 -40 117.5 C-36.207 130.5546 -32.8963 143.718 -30 157 C-32.0055 156.3501 -34.004 155.6785 -36 155 C-36.6378 154.7869 -37.2757 154.5737 -37.9329 154.3541 C-44.4611 152.0493 -50.527 149.8597 -53.8131 143.4799 C-55.0351 139.1581 -55.4422 134.7543 -55.8633 130.2969 C-56.0734 128.6514 -56.2901 127.0068 -56.513 125.3631 C-57.0812 121.0433 -57.5616 116.7181 -58.0229 112.3857 C-58.4998 108.045 -59.0561 103.7146 -59.6074 99.3828 C-60.437 92.8002 -61.2272 86.2144 -61.9836 79.623 C-63.4011 67.3214 -64.9346 54.9641 -67.668 42.875 C-68 41 -68 41 -68 37 C-68.6008 37.0083 -68.6008 37.0083 -71.6411 37.0505 C-83.244 37.1606 -94.7054 36.709 -106.269 35.7732 C-108.9223 35.5587 -111.5762 35.3557 -114.2305 35.1543 C-115.9428 35.0215 -117.655 34.888 -119.3672 34.7539 C-119.7578 34.7237 -119.7578 34.7237 -121.7346 34.5707 C-125.8686 34.2337 -129.9154 33.7518 -134 33 C-133.4483 27.7587 -132.4776 23.0783 -131 18 C-130.5045 18.0428 -130.5045 18.0428 -127.9968 18.2595 C-91.0125 21.4454 -91.0125 21.4454 -79.8555 21.8555 C-77.2723 21.9523 -74.6906 22.1013 -72.1133 22.3008 C-64.5453 22.7109 -60.6331 21.8493 -54.7539 17.0742 C-46.1238 10.5741 -35.2174 6.2734 -25 3 C-24.1608 2.7138 -23.3216 2.4277 -22.457 2.1328 C-14.911 -0.324 -7.8264 -1.6651 0 0 Z " fill="#27313E" transform="translate(592,340)"/>
<path d="M0 0 C1.3198 3.9593 0.2982 5.4239 -1.25 9.25 C-1.6883 10.3483 -2.1266 11.4466 -2.5781 12.5781 C-3.5333 14.8769 -4.509 17.1673 -5.5039 19.4492 C-7.046 23.1091 -8.3934 26.8105 -9.6875 30.5625 C-12.4185 38.3981 -15.2429 46.1972 -18.1082 53.9846 C-20.1057 59.442 -21.9893 64.9267 -23.8125 70.4446 C-25.2739 74.8201 -26.7747 79.1815 -28.2773 83.543 C-28.8796 85.2949 -29.4818 87.0468 -30.084 88.7988 C-31.0078 91.4864 -31.9327 94.1736 -32.8611 96.8596 C-36.2415 106.6449 -39.5528 116.4195 -42.3181 126.3995 C-43.5575 130.8004 -45.1504 134.8327 -47 139 C-47.5962 140.7807 -48.1583 142.5732 -48.6875 144.375 C-50.3405 149.8787 -52.0683 155.3537 -53.8311 160.8232 C-59.5716 178.6355 -64.8809 196.5557 -70.088 214.5295 C-78.7617 244.4673 -78.7617 244.4673 -82.1875 254.5 C-83.4362 258.1647 -84.4968 261.8161 -85.4102 265.5781 C-86.9489 271.823 -88.579 278.0394 -90.25 284.25 C-90.5508 285.3697 -90.8517 286.4894 -91.1616 287.6431 C-93.2198 295.2502 -95.388 302.8188 -97.625 310.375 C-99.9945 318.3828 -102.1999 326.4054 -104.1392 334.5288 C-105.18 338.8559 -106.316 343.1445 -107.5331 347.4256 C-110.1778 356.7539 -112.5764 366.1387 -114.918 375.5469 C-115.0905 376.2399 -115.263 376.933 -115.4408 377.647 C-116.693 382.6805 -117.9407 387.7152 -119.1875 392.75 C-120.4459 397.8313 -121.706 402.9121 -122.97 407.992 C-123.4694 410.0022 -123.9659 412.0131 -124.4622 414.0241 C-124.7662 415.2469 -125.0703 416.4697 -125.3835 417.7295 C-125.6483 418.7988 -125.913 419.8682 -126.1857 420.9699 C-126.7531 423.0811 -127.3936 425.1733 -128.0888 427.2459 C-128.9466 429.8385 -129.2181 431.6739 -129.125 434.375 C-129.0838 435.5712 -129.0425 436.7675 -129 438 C-129.5775 437.6906 -130.155 437.3813 -130.75 437.0625 C-132.849 436.0713 -134.7507 435.5245 -137 435 C-135.7344 427.7698 -134.3194 420.5939 -132.6875 413.4375 C-132.4709 412.4842 -132.2544 411.531 -132.0312 410.5488 C-130.5013 403.9204 -128.7626 397.3781 -126.8779 390.843 C-124.9171 383.9473 -123.3558 376.9742 -121.875 369.9609 C-120.8487 365.233 -119.6082 360.6972 -118.0312 356.1211 C-115.923 349.9753 -114.4513 343.779 -113.0625 337.4375 C-109.2959 320.7476 -104.8463 304.3448 -100.0361 287.9276 C-97.3234 278.6686 -94.7234 269.389 -92.25 260.0625 C-90.1165 252.029 -87.8545 244.0852 -85.3086 236.1719 C-83.6147 230.856 -82.1047 225.4863 -80.5625 220.125 C-78.0385 211.3832 -75.3151 202.7399 -72.3906 194.125 C-69.4101 185.3385 -66.7407 176.4491 -64.0508 167.5703 C-63.8767 166.9983 -63.8767 166.9983 -62.9956 164.1035 C-62.3072 161.8404 -61.6224 159.5761 -60.9419 157.3105 C-59.2048 151.6053 -57.28 146.0842 -55.0066 140.5728 C-53.059 135.5949 -51.5284 130.4756 -49.9375 125.375 C-46.0202 112.8694 -46.0202 112.8694 -43.8362 107.209 C-42.752 104.3449 -41.7391 101.4577 -40.7188 98.5703 C-38.0335 91.0311 -35.207 83.5497 -32.3433 76.0767 C-31.4985 73.8711 -30.6573 71.6641 -29.8164 69.457 C-27.0066 62.1014 -24.1244 54.79 -21.0635 47.5342 C-19.6946 44.2724 -18.4099 40.9833 -17.125 37.6875 C-14.3352 30.635 -11.1854 23.7846 -7.9219 16.9409 C-6.283 13.4904 -4.6749 10.0255 -3.0625 6.5625 C-2.4702 5.2929 -1.8777 4.0234 -1.2852 2.7539 C-0.8611 1.8451 -0.437 0.9363 0 0 Z " fill="#E1DBD4" transform="translate(428,472)"/>
<path d="M0 0 C2.7048 2.7048 2.8068 4.9297 3.5859 8.668 C3.729 9.3398 3.872 10.0117 4.0194 10.7039 C4.4784 12.8637 4.9274 15.0254 5.375 17.1875 C7.3672 26.7295 9.5099 36.1656 12.0762 45.5725 C13.3544 50.315 14.4827 55.0839 15.5625 59.875 C15.7752 60.8135 15.9879 61.752 16.207 62.719 C17.5984 68.9542 18.7947 75.1974 19.8428 81.4983 C20.643 86.22 21.6228 90.8777 22.6841 95.5474 C25.5899 108.3334 27.7894 121.1931 29.8567 134.136 C30.9226 140.7724 32.0336 147.3591 33.5 153.9219 C35.3827 162.4475 36.615 171.0527 37.875 179.6875 C38.1363 181.456 38.398 183.2245 38.6599 184.9929 C40.644 198.425 42.5823 211.8639 44.4807 225.3083 C44.5309 225.6642 44.5309 225.6642 44.7852 227.4648 C44.8852 228.1732 44.9852 228.8816 45.0882 229.6115 C45.7861 234.5372 46.5109 239.4586 47.2461 244.3789 C50.4014 265.6117 52.8638 286.8927 55.159 308.2345 C56.0057 316.0984 56.8977 323.9563 57.8125 331.8125 C57.9364 332.8793 58.0603 333.9461 58.188 335.0452 C58.4577 337.3636 58.7287 339.6818 59 342 C62.63 342.66 66.26 343.32 70 344 C70.165 344.495 70.165 344.495 71 347 C70.5701 346.8975 70.5701 346.8975 68.3945 346.3789 C60.2269 344.5174 52.3801 343.4037 44 343 C44 342.67 44 342.34 44 342 C46.31 342 48.62 342 51 342 C50.8066 340.7277 50.6133 339.4554 50.4141 338.1445 C48.893 327.9338 47.576 317.7494 46.7349 307.4583 C46.3553 303.0118 45.8021 298.6553 45.0352 294.2578 C43.662 286.3265 42.9343 278.3404 42.1445 270.334 C41.4968 263.9921 40.6591 257.7727 39.4551 251.5129 C38.771 247.7355 38.3756 243.9435 38 240.125 C37.379 233.8803 36.5232 227.6992 35.5488 221.4995 C34.9905 217.9394 34.4536 214.3767 33.9219 210.8125 C30.8912 190.5796 27.6787 170.38 24.36 150.1924 C24.0094 148.0573 23.6602 145.922 23.3115 143.7866 C21.1824 130.7539 19.002 117.7453 16.4531 104.7876 C14.8703 96.6079 13.6193 88.3815 12.3943 80.1416 C11.6932 75.4363 10.9727 70.7435 10.1016 66.0664 C8.4056 56.9268 6.984 47.7383 5.5 38.5625 C5.036 35.6991 4.5718 32.8358 4.1072 29.9725 C3.8092 28.1347 3.5118 26.2969 3.2151 24.4589 C2.2918 18.7498 1.3328 13.0483 0.3145 7.3552 C-0.0164 4.8769 -0.0557 2.4973 0 0 Z " fill="#E2DCD3" transform="translate(575,564)"/>
<path d="M0 0 C1.1514 3.4541 0.5266 5.1302 -0.4033 8.5508 C-1.6002 13.4637 -2.1717 18.4972 -2.875 23.5 C-4.1542 32.3721 -5.4994 41.2251 -7 50.0625 C-8.437 58.5534 -9.8119 67.0515 -11.125 75.5625 C-11.2836 76.5842 -11.4421 77.6058 -11.6055 78.6584 C-12.7413 86.0692 -13.7495 93.4936 -14.7265 100.9268 C-15.5314 107.028 -16.356 113.1266 -17.1772 119.2256 C-17.3929 120.8287 -17.6081 122.4319 -17.8228 124.0352 C-18.9841 132.7056 -20.1844 141.364 -21.5352 150.0073 C-26.0086 178.8075 -28.7194 207.8477 -31.6757 236.8327 C-31.9824 239.8285 -32.2939 242.8238 -32.6064 245.8191 C-33.4603 254.0662 -34.2474 262.271 -34.5 270.5625 C-34.882 280.432 -35.8457 290.1939 -37 300 C-36.3096 299.954 -35.6193 299.908 -34.908 299.8606 C-31.752 299.6603 -28.5951 299.4862 -25.4375 299.3125 C-24.3515 299.2397 -23.2654 299.1668 -22.1465 299.0918 C-15.8706 298.7675 -11.5301 298.9136 -6 302 C-8.4168 302.8366 -9.9045 303.018 -12.4414 302.5391 C-17.4057 301.7871 -22.2987 301.8157 -27.3125 301.8125 C-28.307 301.8003 -29.3015 301.788 -30.3262 301.7754 C-36.5348 301.7632 -41.9918 302.4248 -48 304 C-48 303.34 -48 302.68 -48 302 C-46.68 302 -45.36 302 -44 302 C-44.0111 301.4165 -44.0221 300.833 -44.0335 300.2318 C-44.1045 293.4613 -43.6638 286.8135 -43.0469 280.0742 C-42.9468 278.946 -42.8468 277.8177 -42.7437 276.6553 C-42.4176 272.9989 -42.0843 269.3432 -41.75 265.6875 C-41.6364 264.4319 -41.5228 263.1763 -41.4058 261.8827 C-39.5779 241.6931 -37.5901 221.53 -35.2747 201.3906 C-34.9786 198.8139 -34.6843 196.2371 -34.3901 193.6602 C-32.4256 176.4747 -30.4378 159.2914 -28.3125 142.125 C-28.2054 141.2545 -28.0984 140.384 -27.988 139.4871 C-27.2784 133.8529 -26.4361 128.2448 -25.5603 122.6343 C-25.0572 119.3713 -24.5723 116.1065 -24.0951 112.8397 C-21.4155 94.5222 -18.4349 76.2936 -14.875 58.125 C-14.7112 57.2849 -14.5474 56.4448 -14.3786 55.5792 C-11.4092 40.4153 -8.1231 25.3464 -3.8125 10.5 C-3.5528 9.5835 -3.293 8.667 -3.0254 7.7227 C-1.1298 1.1298 -1.1298 1.1298 0 0 Z " fill="#E1DCD4" transform="translate(437,612)"/>
<path d="M0 0 C2.7879 3.3224 4.2435 6.7217 5.8125 10.75 C6.0704 11.4105 6.3283 12.071 6.594 12.7515 C7.4029 14.8317 8.2018 16.9156 9 19 C9.2465 19.6352 9.4931 20.2704 9.7471 20.9248 C16.2165 37.5964 21.7048 54.5511 26.5195 71.7695 C28.2471 77.9313 30.1078 84.0521 31.9963 90.1663 C33.3705 94.6732 34.5146 99.1693 35.4995 103.7764 C36.4953 108.2005 37.8013 112.5424 39.0566 116.8984 C42.3666 128.5708 44.7731 140.465 47.217 152.3423 C47.6942 154.6573 48.1761 156.9712 48.6582 159.2852 C48.9638 160.7656 49.2692 162.246 49.5742 163.7266 C49.7179 164.414 49.8616 165.1014 50.0097 165.8097 C50.5805 168.6035 51 171.1389 51 174 C57.93 173.67 64.86 173.34 72 173 C72 173.33 72 173.66 72 174 C68.763 174.8479 65.7347 175.061 62.4102 175.0703 C51.9214 175.1401 44.0817 175.862 35.0078 181.3086 C30.382 183.9098 26.2957 185 21 185 C21 184.34 21 183.68 21 183 C23.31 183 25.62 183 28 183 C28 182.34 28 181.68 28 181 C29.98 181 31.96 181 34 181 C34 180.34 34 179.68 34 179 C35.32 179 36.64 179 38 179 C38 178.34 38 177.68 38 177 C39.98 176.67 41.96 176.34 44 176 C43.8695 175.4581 43.739 174.9162 43.6045 174.3579 C42.9847 171.7807 42.367 169.2029 41.75 166.625 C41.5218 165.672 41.2937 164.719 41.0586 163.7371 C39.6389 157.7753 38.2922 151.803 37 145.8125 C35.733 139.9785 34.2723 134.2377 32.625 128.5 C30.5009 121.0946 28.7085 113.6367 27 106.125 C23.4782 90.6571 19.7242 75.3136 15.3052 60.0762 C11.4836 46.8463 8.0944 33.4978 4.8125 20.125 C3.7786 15.929 2.6699 11.8314 1.25 7.75 C0 4 0 4 0 0 Z " fill="#E2DDD4" transform="translate(685,737)"/>
<path d="M0 0 C1.32 0.66 2.64 1.32 4 2 C4 2.66 4 3.32 4 4 C5.65 3.34 7.3 2.68 9 2 C9.625 3.875 9.625 3.875 10 6 C9.34 6.66 8.68 7.32 8 8 C7.01 8 6.02 8 5 8 C5.66 9.32 6.32 10.64 7 12 C6.67 12.495 6.67 12.495 5 15 C4.6061 17.3239 4.2651 19.6579 4 22 C5.32 22.66 6.64 23.32 8 24 C8 24.66 8 25.32 8 26 C8.99 26.33 9.98 26.66 11 27 C10.67 27.99 10.34 28.98 10 30 C9.34 30 8.68 30 8 30 C8.66 30.99 9.32 31.98 10 33 C10 33.99 10 34.98 10 36 C7.8125 36.8125 7.8125 36.8125 5 37 C3.8302 35.8637 2.6708 34.7118 1.6016 33.4805 C-1.6719 30.4545 -5.9783 28.8352 -10 27 C-8.5191 23.2205 -6.8495 19.615 -5 16 C-5.99 16 -6.98 16 -8 16 C-8.66 17.32 -9.32 18.64 -10 20 C-12.875 19.375 -12.875 19.375 -16 18 C-17.375 14.875 -17.375 14.875 -18 12 C-14.7102 10.9034 -13.287 11.2005 -10 12 C-9.6081 11.2163 -9.2162 10.4325 -8.8125 9.625 C-7 7 -7 7 -4.4375 6 C-2 5 -2 5 -0.6875 2.375 C-0.4606 1.5913 -0.2337 0.8075 0 0 Z " fill="#F7E7CD" transform="translate(576,222)"/>
<path d="M0 0 C0.99 0.33 1.98 0.66 3 1 C3.2887 1.6394 3.5775 2.2788 3.875 2.9375 C5 5 5 5 7.5625 5.875 C8.3669 6.2463 9.1712 6.6175 10 7 C10.8125 10.125 10.8125 10.125 11 13 C12.1137 12.6494 13.2275 12.2988 14.375 11.9375 C18 11 18 11 20 12 C19.25 16.75 19.25 16.75 17 19 C13.875 19.125 13.875 19.125 11 19 C10.67 18.01 10.34 17.02 10 16 C9.34 16.66 8.68 17.32 8 18 C8.33 18.5981 8.66 19.1962 9 19.8125 C10 22 10 22 10 25 C9.01 25 8.02 25 7 25 C7 24.34 7 23.68 7 23 C6.01 23 5.02 23 4 23 C3.67 23.66 3.34 24.32 3 25 C2.34 25 1.68 25 1 25 C1.66 26.65 2.32 28.3 3 30 C2.01 30.33 1.02 30.66 0 31 C-0.66 30.34 -1.32 29.68 -2 29 C-2 29.99 -2 30.98 -2 32 C-3 34.1875 -3 34.1875 -4 36 C-4.99 36 -5.98 36 -7 36 C-6.835 35.01 -6.835 35.01 -6 30 C-6.99 29.67 -7.98 29.34 -9 29 C-9 28.34 -9 27.68 -9 27 C-7.68 26.67 -6.36 26.34 -5 26 C-4.8556 25.3606 -4.7113 24.7212 -4.5625 24.0625 C-4 22 -4 22 -3 21 C-2.3648 15.9183 -3.89 12.572 -6.125 8.1484 C-7 6 -7 6 -7 2 C-6.2163 2.0412 -5.4325 2.0825 -4.625 2.125 C-2 2 -2 2 0 0 Z " fill="#EDD8B9" transform="translate(448,221)"/>
<path d="M0 0 C0.66 0 1.32 0 2 0 C2.66 1.65 3.32 3.3 4 5 C6.64 4.67 9.28 4.34 12 4 C12 6 12 8 12 10 C12.6394 10.2681 13.2787 10.5362 13.9375 10.8125 C16 12 16 12 17 15 C16.1956 15.2475 15.3913 15.495 14.5625 15.75 C13.7169 16.1625 12.8713 16.575 12 17 C11.3125 19.0625 11.3125 19.0625 11 21 C10.34 21.33 9.68 21.66 9 22 C9.66 22.33 10.32 22.66 11 23 C11 23.99 11 24.98 11 26 C8.36 25.34 5.72 24.68 3 24 C2.9175 24.9487 2.835 25.8975 2.75 26.875 C2 30 2 30 -0.0625 31.375 C-0.7019 31.5813 -1.3412 31.7875 -2 32 C-2.33 30.02 -2.66 28.04 -3 26 C-3.99 26.33 -4.98 26.66 -6 27 C-7.32 25.68 -8.64 24.36 -10 23 C-9.34 21.68 -8.68 20.36 -8 19 C-6.35 19.33 -4.7 19.66 -3 20 C-2.67 21.32 -2.34 22.64 -2 24 C-1.34 23.67 -0.68 23.34 0 23 C-0.1676 22.3967 -0.3352 21.7934 -0.5078 21.1719 C-0.7115 20.3727 -0.9152 19.5734 -1.125 18.75 C-1.3338 17.9611 -1.5427 17.1722 -1.7578 16.3594 C-2.0431 13.5797 -1.4498 12.3411 0 10 C-0.99 9.67 -1.98 9.34 -3 9 C-3.33 8.01 -3.66 7.02 -4 6 C-2.1875 2.8125 -2.1875 2.8125 0 0 Z " fill="#F7E3C2" transform="translate(582,192)"/>
<path d="M0 0 C0.66 0 1.32 0 2 0 C2 1.32 2 2.64 2 4 C2.99 4 3.98 4 5 4 C5.2082 7.7478 4.6495 9.701 3 13 C1.8778 19.5086 1.9486 22.1514 5 28 C4.34 28.99 3.68 29.98 3 31 C1.1875 30.8125 1.1875 30.8125 -1 30 C-1.4538 29.1544 -1.9075 28.3088 -2.375 27.4375 C-2.9112 26.6331 -3.4475 25.8288 -4 25 C-7.1875 24.6875 -7.1875 24.6875 -10 25 C-9.9794 24.0513 -9.9588 23.1025 -9.9375 22.125 C-10 19 -10 19 -11 17 C-11.99 16.67 -12.98 16.34 -14 16 C-14.33 15.01 -14.66 14.02 -15 13 C-15.99 12.34 -16.98 11.68 -18 11 C-17.01 9.68 -16.02 8.36 -15 7 C-14.34 7.33 -13.68 7.66 -13 8 C-13 8.99 -13 9.98 -13 11 C-11.68 10.67 -10.36 10.34 -9 10 C-9.99 8.35 -10.98 6.7 -12 5 C-11.67 4.67 -11.34 4.34 -11 4 C-9.4748 4.0894 -7.9532 4.2454 -6.4375 4.4375 C-5.6112 4.5393 -4.7849 4.6412 -3.9336 4.7461 C-3.2955 4.8299 -2.6574 4.9137 -2 5 C-1.34 3.35 -0.68 1.7 0 0 Z " fill="#F8E9CD" transform="translate(443,191)"/>
<path d="M0 0 C1.32 0.66 2.64 1.32 4 2 C4 2.66 4 3.32 4 4 C5.65 3.34 7.3 2.68 9 2 C9.625 3.875 9.625 3.875 10 6 C9.34 6.66 8.68 7.32 8 8 C7.01 8 6.02 8 5 8 C5.66 9.32 6.32 10.64 7 12 C6.34 12.66 5.68 13.32 5 14 C5 13.34 5 12.68 5 12 C4.34 12.33 4.34 12.33 1 14 C1 14.99 1 15.98 1 17 C-0.98 17.33 -2.96 17.66 -5 18 C-5.33 17.34 -5.66 16.68 -6 16 C-6.66 16 -7.32 16 -8 16 C-8.66 17.32 -9.32 18.64 -10 20 C-12.875 19.375 -12.875 19.375 -16 18 C-17.375 14.875 -17.375 14.875 -18 12 C-14.7102 10.9034 -13.287 11.2005 -10 12 C-9.6081 11.2163 -9.2162 10.4325 -8.8125 9.625 C-7 7 -7 7 -4.4375 6 C-2 5 -2 5 -0.6875 2.375 C-0.4606 1.5913 -0.2337 0.8075 0 0 Z " fill="#F6E2C5" transform="translate(576,222)"/>
<path d="M0 0 C23.1 0 46.2 0 70 0 C70 0.33 70 0.66 70 1 C47.2108 5.1991 22.7877 5.2703 0 1 C0 0.67 0 0.34 0 0 Z " fill="#F7E6CE" transform="translate(479,932)"/>
<path d="M0 0 C0.33 0 0.66 0 1 0 C3.8469 17.4432 4.2063 36.5827 1 54 C0.34 54 -0.32 54 -1 54 C-1.0253 46.4703 -1.0428 38.9406 -1.0549 31.4109 C-1.06 28.8471 -1.0668 26.2833 -1.0754 23.7195 C-1.0875 20.0434 -1.0932 16.3675 -1.0977 12.6914 C-1.1028 11.5373 -1.108 10.3831 -1.1133 9.194 C-1.1134 8.133 -1.1134 7.0719 -1.1135 5.9788 C-1.1157 5.0394 -1.118 4.1001 -1.1203 3.1323 C-1 1 -1 1 0 0 Z " fill="#54483E" transform="translate(592,343)"/>
<path d="M0 0 C0.66 0 1.32 0 2 0 C2.66 1.65 3.32 3.3 4 5 C6.64 4.67 9.28 4.34 12 4 C12 6 12 8 12 10 C12.66 10.66 13.32 11.32 14 12 C13.3813 12.1031 12.7625 12.2063 12.125 12.3125 C10 13 10 13 8 16 C7.34 16 6.68 16 6 16 C5 13 5 13 5 11 C3.35 11.66 1.7 12.32 0 13 C0 12.01 0 11.02 0 10 C-0.99 9.67 -1.98 9.34 -3 9 C-3.33 8.01 -3.66 7.02 -4 6 C-2.1875 2.8125 -2.1875 2.8125 0 0 Z " fill="#EBD7B9" transform="translate(582,192)"/>
<path d="M0 0 C1.9719 6.6475 0.1758 12.9388 -2.1133 19.2812 C-3.2702 22.8286 -4.1286 26.4373 -5 30.0625 C-6.0258 34.3143 -7.0584 38.4937 -8.6875 42.5625 C-10.0654 46.1712 -10.6024 49.1831 -11 53 C-11.66 53 -12.32 53 -13 53 C-12.3723 46.856 -11.1265 41.0972 -9.5312 35.1367 C-9.2909 34.2229 -9.0505 33.3091 -8.8029 32.3676 C-8.0401 29.473 -7.27 26.5803 -6.5 23.6875 C-5.9826 21.726 -5.4657 19.7644 -4.9492 17.8027 C-4.0045 14.2242 -3.0596 10.6457 -2.1074 7.0691 C-1.9172 6.3538 -1.7271 5.6384 -1.5311 4.9014 C-1.0706 3.2529 -0.5413 1.6238 0 0 Z " fill="#F8EAD6" transform="translate(247,801)"/>
<path d="M0 0 C1.32 0 2.64 0 4 0 C3.67 1.32 3.34 2.64 3 4 C3.66 4 4.32 4 5 4 C6.625 5.375 6.625 5.375 8 7 C8 7.66 8 8.32 8 9 C8.99 9 9.98 9 11 9 C13 12 13 12 13 15 C10.8125 15.8125 10.8125 15.8125 8 16 C6.8302 14.8637 5.6708 13.7118 4.6016 12.4805 C1.3281 9.4545 -2.9783 7.8352 -7 6 C-6.34 5.34 -5.68 4.68 -5 4 C-3.68 4 -2.36 4 -1 4 C-0.67 2.68 -0.34 1.36 0 0 Z " fill="#E4C4A0" transform="translate(573,243)"/>
<path d="M0 0 C2.6875 -0.3125 2.6875 -0.3125 5 0 C6.125 4.75 6.125 4.75 5 7 C3.68 6.67 2.36 6.34 1 6 C1 6.99 1 7.98 1 9 C0.34 9 -0.32 9 -1 9 C-1.66 10.32 -2.32 11.64 -3 13 C-5.875 12.375 -5.875 12.375 -9 11 C-10.375 7.875 -10.375 7.875 -11 5 C-7.7102 3.9034 -6.287 4.2005 -3 5 C-2.8041 4.5875 -2.8041 4.5875 -1.8125 2.5 C-1.2144 1.675 -0.6163 0.85 0 0 Z " fill="#F2E0C3" transform="translate(569,229)"/>
<path d="M0 0 C0.99 0.33 1.98 0.66 3 1 C-3.0141 7.5652 -9.6901 11.8047 -17.5 15.9375 C-18.3774 16.4097 -19.2549 16.8819 -20.1589 17.3684 C-26.0055 20.3704 -31.4953 22.0716 -38 23 C-38 22.34 -38 21.68 -38 21 C-36.68 20.835 -36.68 20.835 -30 20 C-30 19.34 -30 18.68 -30 18 C-28.35 18 -26.7 18 -25 18 C-25 17.34 -25 16.68 -25 16 C-21.9119 14.2354 -20.7669 14 -17 14 C-17 13.34 -17 12.68 -17 12 C-16.01 12 -15.02 12 -14 12 C-14 11.34 -14 10.68 -14 10 C-12.68 10 -11.36 10 -10 10 C-10 9.34 -10 8.68 -10 8 C-9.34 7.34 -8.68 6.68 -8 6 C-7.01 6 -6.02 6 -5 6 C-4.7319 5.3813 -4.4638 4.7625 -4.1875 4.125 C-3 2 -3 2 0 0 Z " fill="#F9EBD4" transform="translate(796,887)"/>
<path d="M0 0 C0 0.66 0 1.32 0 2 C-0.99 2.33 -1.98 2.66 -3 3 C-4.5703 4.9961 -4.5703 4.9961 -6.125 7.4375 C-6.6432 8.2406 -7.1614 9.0437 -7.6953 9.8711 C-11.0641 15.368 -10.3378 20.9056 -9 27 C-8.7346 29.3353 -8.5015 31.6718 -8.2812 34.0117 C-8 36 -8 36 -7 38 C-6.96 39.9996 -6.9565 42.0005 -7 44 C-11.6545 36.0118 -14.1609 23.142 -13 14 C-11.2961 8.5756 -6.4614 0 0 0 Z " fill="#F8E6CF" transform="translate(456,250)"/>
<path d="M0 0 C0.7425 0.3919 1.485 0.7837 2.25 1.1875 C1.59 2.5075 0.93 3.8275 0.25 5.1875 C0.7862 4.5275 1.3225 3.8675 1.875 3.1875 C4.25 1.1875 4.25 1.1875 7.5 0.9375 C8.4075 1.02 9.315 1.1025 10.25 1.1875 C10.58 2.1775 10.91 3.1675 11.25 4.1875 C8.94 4.5175 6.63 4.8475 4.25 5.1875 C4.25 6.5075 4.25 7.8275 4.25 9.1875 C2.93 9.1875 1.61 9.1875 0.25 9.1875 C-0.08 7.8675 -0.41 6.5475 -0.75 5.1875 C-3.06 5.5175 -5.37 5.8475 -7.75 6.1875 C-7.3797 3.503 -6.8734 2.3197 -5 0.3125 C-2.75 -0.8125 -2.75 -0.8125 0 0 Z " fill="#FBEFD5" transform="translate(587.75,202.8125)"/>
<path d="M0 0 C0.33 1.32 0.66 2.64 1 4 C2.32 4 3.64 4 5 4 C5 2.68 5 1.36 5 0 C5.66 0.33 6.32 0.66 7 1 C6.625 2.9375 6.625 2.9375 6 5 C5.67 5.165 5.67 5.165 4 6 C4.66 6.33 5.32 6.66 6 7 C6 7.99 6 8.98 6 10 C3.36 9.34 0.72 8.68 -2 8 C-2.33 8.66 -2.66 9.32 -3 10 C-3 9.34 -3 8.68 -3 8 C-3.66 7.67 -4.32 7.34 -5 7 C-5.625 3.9375 -5.625 3.9375 -6 1 C-3 0 -3 0 0 0 Z " fill="#EFD6B3" transform="translate(587,208)"/>
<path d="M0 0 C1.193 -0.0116 2.3861 -0.0232 3.6152 -0.0352 C9.9788 -0.0139 14.8324 0.2638 20.4375 3.375 C18.0207 4.2116 16.533 4.393 13.9961 3.9141 C9.0318 3.1621 4.1388 3.1907 -0.875 3.1875 C-1.8695 3.1753 -2.864 3.163 -3.8887 3.1504 C-10.0973 3.1382 -15.5543 3.7998 -21.5625 5.375 C-21.5625 4.715 -21.5625 4.055 -21.5625 3.375 C-14.3634 0.0029 -7.8711 -0.0768 0 0 Z " fill="#F1DCC3" transform="translate(410.5625,910.625)"/>
<path d="M0 0 C0.66 0 1.32 0 2 0 C4.4391 6.2137 5.4243 11.5366 5.293 18.1914 C5.2887 19.0221 5.2845 19.8528 5.2801 20.7087 C5.2635 23.327 5.2259 25.9445 5.1875 28.5625 C5.1724 30.3522 5.1587 32.1419 5.1465 33.9316 C5.1136 38.2881 5.062 42.6439 5 47 C4.34 46.67 3.68 46.34 3 46 C3.0157 45.1948 3.0314 44.3896 3.0476 43.5601 C3.0995 40.4997 3.1367 37.4396 3.1648 34.3789 C3.1869 32.4321 3.225 30.4856 3.2637 28.5391 C3.3248 20.5497 2.5519 13.5534 0.6497 5.8149 C0 3 0 3 0 0 Z " fill="#E6D3B9" transform="translate(456,317)"/>
<path d="M0 0 C1.8395 1.9134 3.3919 3.8779 5 6 C4.67 6.66 4.34 7.32 4 8 C3.3606 7.1131 2.7213 6.2262 2.0625 5.3125 C-2.2378 0.1423 -8.349 -3.1377 -15 -4 C-18.2723 -4.1112 -21.5388 -4.0942 -24.8125 -4.0625 C-25.2543 -4.0602 -25.2543 -4.0602 -27.4902 -4.0488 C-29.6602 -4.0371 -31.8301 -4.0192 -34 -4 C-23.2282 -11.1812 -9.8144 -6.641 0 0 Z " fill="#FBEAD4" transform="translate(578,254)"/>
<path d="M0 0 C0.66 0 1.32 0 2 0 C1.8556 0.8224 1.7112 1.6448 1.5625 2.4922 C0.4131 9.4044 -0.2846 15.9945 0 23 C0.99 23 1.98 23 3 23 C3 23.66 3 24.32 3 25 C0.69 25.33 -1.62 25.66 -4 26 C-3.7209 22.603 -3.4245 19.2077 -3.125 15.8125 C-3.0464 14.8528 -2.9677 13.8931 -2.8867 12.9043 C-2.8029 11.9729 -2.7191 11.0416 -2.6328 10.082 C-2.5595 9.2284 -2.4862 8.3748 -2.4106 7.4954 C-1.9641 4.782 -1.1049 2.5106 0 0 Z " fill="#F1E1CC" transform="translate(569,318)"/>
<path d="M0 0 C0 0.66 0 1.32 0 2 C-0.99 2.33 -1.98 2.66 -3 3 C-4.6133 4.6016 -4.6133 4.6016 -6.3125 6.625 C-6.9235 7.3417 -7.5345 8.0584 -8.1641 8.7969 C-9.3317 10.198 -10.4938 11.6038 -11.6484 13.0156 C-11.9024 13.3224 -11.9024 13.3224 -13.1875 14.875 C-13.6348 15.4293 -14.0821 15.9836 -14.543 16.5547 C-16.2109 18.2092 -17.8617 19.0568 -20 20 C-17.6659 13.0843 -8.2114 0 0 0 Z " fill="#F9EBD6" transform="translate(536,254)"/>
<path d="M0 0 C2.359 2.359 2.9997 4.2551 4.1641 7.375 C4.5637 8.4423 4.9633 9.5097 5.375 10.6094 C5.5812 11.1688 5.5812 11.1688 6.625 14 C7.0452 15.1189 7.4655 16.2378 7.8984 17.3906 C11 25.7286 11 25.7286 11 28 C10.34 28 9.68 28 9 28 C9 27.34 9 26.68 9 26 C8.34 26 7.68 26 7 26 C6.7112 24.7831 6.4225 23.5662 6.125 22.3125 C5.5083 19.8192 4.8325 17.5812 3.875 15.1875 C3 13 3 13 3 10 C2.34 10 1.68 10 1 10 C0.67 6.7 0.34 3.4 0 0 Z " fill="#F8E8D1" transform="translate(724,638)"/>
<path d="M0 0 C0.66 -0.33 1.32 -0.66 2 -1 C2.66 0.65 3.32 2.3 4 4 C3.01 4.33 2.02 4.66 1 5 C0.34 4.34 -0.32 3.68 -1 3 C-1 3.99 -1 4.98 -1 6 C-2 8.1875 -2 8.1875 -3 10 C-3.99 10 -4.98 10 -6 10 C-5.67 8.02 -5.34 6.04 -5 4 C-5.99 3.67 -6.98 3.34 -8 3 C-8 2.34 -8 1.68 -8 1 C-4.8535 -0.9104 -3.4807 -1.0442 0 0 Z " fill="#F3DEBB" transform="translate(447,247)"/>
<path d="M0 0 C1.3622 0.9603 2.7046 1.9513 4 3 C1.69 3 -0.62 3 -3 3 C-3 2.34 -3 1.68 -3 1 C-6.4999 0.2029 -9.7142 -0.1186 -13.3008 -0.0977 C-14.2772 -0.0944 -15.2537 -0.0912 -16.2598 -0.0879 C-16.7635 -0.0837 -16.7635 -0.0837 -19.3125 -0.0625 C-20.3392 -0.058 -21.366 -0.0535 -22.4238 -0.0488 C-24.9493 -0.0371 -27.4746 -0.0207 -30 0 C-21.587 -5.6087 -8.8888 -3.9778 0 0 Z " fill="#F8E6CD" transform="translate(486,250)"/>
<path d="M0 0 C0.66 0 1.32 0 2 0 C4.4694 3.7042 4.4691 5.6214 4 10 C2 11.9375 2 11.9375 0 13 C0 12.01 0 11.02 0 10 C-0.99 9.67 -1.98 9.34 -3 9 C-3.33 8.01 -3.66 7.02 -4 6 C-2.1875 2.8125 -2.1875 2.8125 0 0 Z " fill="#F4E4C4" transform="translate(582,192)"/>
<path d="M0 0 C0.99 0.33 1.98 0.66 3 1 C3 1.99 3 2.98 3 4 C4.32 3.67 5.64 3.34 7 3 C6.34 2.01 5.68 1.02 5 0 C7.31 0.66 9.62 1.32 12 2 C11.67 2.99 11.34 3.98 11 5 C10.0306 5.1238 9.0612 5.2475 8.0625 5.375 C7.5572 5.4781 7.5572 5.4781 5 6 C4.67 6.66 4.34 7.32 4 8 C4.99 8 5.98 8 7 8 C6.67 9.32 6.34 10.64 6 12 C5.67 11.34 5.34 10.68 5 10 C4.01 9.67 3.02 9.34 2 9 C1.67 8.01 1.34 7.02 1 6 C0.01 5.34 -0.98 4.68 -2 4 C-1.34 2.68 -0.68 1.36 0 0 Z " fill="#EDD4B3" transform="translate(427,198)"/>
<path d="M0 0 C3.9583 -0.2282 6.6785 0.4495 10.3125 2 C11.1955 2.3713 12.0785 2.7425 12.9883 3.125 C13.6521 3.4138 14.316 3.7025 15 4 C15 4.66 15 5.32 15 6 C16.2581 5.9381 17.5163 5.8763 18.8125 5.8125 C22.7223 5.7917 22.7223 5.7917 25 7.5 C25.33 7.995 25.66 8.49 26 9 C16.8371 8.2952 8.0349 5.4638 0 1 C0 0.67 0 0.34 0 0 Z " fill="#F7E7D0" transform="translate(304,913)"/>
<path d="M0 0 C1.9395 2.9093 2.6373 4.8505 3.5078 8.1836 C3.7721 9.1936 4.0363 10.2036 4.3086 11.2441 C4.578 12.2979 4.8474 13.3518 5.125 14.4375 C5.4021 15.4874 5.6793 16.5374 5.9648 17.6191 C7.0762 21.9139 8 25.5381 8 30 C7.34 30 6.68 30 6 30 C4.7168 26.1505 4.9336 23.0526 5 19 C4.34 19 3.68 19 3 19 C0.8661 12.7405 0.4104 6.5779 0 0 Z " fill="#F7E5CD" transform="translate(786,824)"/>
<path d="M0 0 C0.6953 1.7578 0.6953 1.7578 1 4 C-0.2578 5.9297 -0.2578 5.9297 -2.125 7.875 C-2.4479 8.2192 -2.4479 8.2192 -4.082 9.9609 C-4.715 10.6338 -5.3479 11.3067 -6 12 C-6.9465 13.1593 -7.8854 14.3251 -8.8125 15.5 C-9.1734 15.9125 -9.1734 15.9125 -11 18 C-11.66 18 -12.32 18 -13 18 C-13 18.66 -13 19.32 -13 20 C-13.66 20 -14.32 20 -15 20 C-13.4088 16.3641 -11.1606 13.5993 -8.625 10.5625 C-5.7171 7.0662 -2.8298 3.5599 0 0 Z " fill="#F8E9D4" transform="translate(437,394)"/>
<path d="M0 0 C5.75 0.875 5.75 0.875 8 2 C8 2.66 8 3.32 8 4 C6.35 4 4.7 4 3 4 C3 5.32 3 6.64 3 8 C1.35 8.66 -0.3 9.32 -2 10 C-2.66 8.68 -3.32 7.36 -4 6 C-2.68 5.67 -1.36 5.34 0 5 C0 3.35 0 1.7 0 0 Z " fill="#FDF4DE" transform="translate(447,238)"/>
<path d="M0 0 C0.9001 3.2376 0.9619 5.2697 0.1875 8.5625 C0.0161 9.3269 -0.1554 10.0913 -0.332 10.8789 C-1 13 -1 13 -3 16 C-3.5666 18.8247 -3.9495 21.6499 -4.3398 24.5039 C-5 27 -5 27 -8 29 C-7.3586 22.5585 -5.4525 16.6954 -3.4375 10.5625 C-3.1081 9.5448 -2.7788 8.5271 -2.4395 7.4785 C-1.6314 4.984 -0.8181 2.4913 0 0 Z " fill="#F5E4CC" transform="translate(268,731)"/>
<path d="M0 0 C-0.75 4.75 -0.75 4.75 -3 7 C-6.125 7.125 -6.125 7.125 -9 7 C-9 3 -9 3 -7 0 C-4.021 -1.1532 -3.1344 -1.0448 0 0 Z " fill="#F8E8C9" transform="translate(468,233)"/>
<path d="M0 0 C7.3492 -0.4323 13.9022 1.1823 21 3 C21 3.99 21 4.98 21 6 C13.6499 5.4235 6.9858 3.2895 0 1 C0 0.67 0 0.34 0 0 Z " fill="#F8EBD5" transform="translate(456,926)"/>
<path d="M0 0 C0.2475 0.6394 0.495 1.2788 0.75 1.9375 C2 4 2 4 4.125 4.75 C4.7437 4.8325 5.3625 4.915 6 5 C5.505 5.5981 5.01 6.1962 4.5 6.8125 C3 9 3 9 3 12 C1.02 12.33 -0.96 12.66 -3 13 C-3.33 11.35 -3.66 9.7 -4 8 C-2.68 8.33 -1.36 8.66 0 9 C0 6.69 0 4.38 0 2 C-1.32 1.67 -2.64 1.34 -4 1 C-2.68 0.67 -1.36 0.34 0 0 Z " fill="#E1C6A8" transform="translate(574,227)"/>
<path d="M0 0 C1.9352 6.8835 -0.5251 14.4593 -3 21 C-3.66 21 -4.32 21 -5 21 C-5.33 22.98 -5.66 24.96 -6 27 C-7.2767 23.4029 -6.7038 21.1697 -5.5664 17.5781 C-5.2474 16.5533 -4.9283 15.5285 -4.5996 14.4727 C-4.2574 13.4092 -3.9151 12.3457 -3.5625 11.25 C-3.2241 10.1711 -2.8857 9.0921 -2.5371 7.9805 C-1.7005 5.3173 -0.8545 2.6575 0 0 Z " fill="#F4E3CC" transform="translate(255,773)"/>
<path d="M0 0 C0.33 0.66 0.66 1.32 1 2 C1.66 2.33 2.32 2.66 3 3 C-0.8636 7.4872 -4.7479 11.8768 -9 16 C-9 11.9373 -7.344 10.2031 -5.0625 6.875 C-4.3316 5.7999 -3.6007 4.7248 -2.8477 3.6172 C-1 1 -1 1 0 0 Z " fill="#F8EBD7" transform="translate(408,432)"/>
<path d="M0 0 C3 1 3 1 4.6875 4.0625 C5.1206 5.0319 5.5537 6.0012 6 7 C5.67 7.495 5.67 7.495 4 10 C2.1875 9.875 2.1875 9.875 0 9 C-1.75 5.9375 -1.75 5.9375 -3 3 C-2.01 2.01 -1.02 1.02 0 0 Z " fill="#F1DEBE" transform="translate(442,212)"/>
<path d="M0 0 C0.66 0 1.32 0 2 0 C0.4754 7.4961 -1.6801 14.7136 -4 22 C-4.33 22 -4.66 22 -5 22 C-5.4431 14.0234 -3.7334 7.0772 0 0 Z " fill="#F6E8D1" transform="translate(576,296)"/>
<path d="M0 0 C1.32 0.33 2.64 0.66 4 1 C4 1.66 4 2.32 4 3 C4.5878 3.1147 5.1756 3.2295 5.7812 3.3477 C8.1503 4.0442 9.5503 4.9442 11.5 6.4375 C13.9177 8.2365 16.2272 9.78 19 11 C19 11.66 19 12.32 19 13 C14.4158 11.6912 11.0728 9.8979 7.25 7.0625 C6.3064 6.3729 5.3628 5.6832 4.3906 4.9727 C2 3 2 3 0 0 Z " fill="#F8E8D1" transform="translate(230,888)"/>
<path d="M0 0 C0 1.32 0 2.64 0 4 C-1.65 4.33 -3.3 4.66 -5 5 C-5.33 5.99 -5.66 6.98 -6 8 C-7.65 8 -9.3 8 -11 8 C-10.6906 7.4019 -10.3813 6.8038 -10.0625 6.1875 C-9 4 -9 4 -8 1 C-5.2374 0.4027 -2.8397 0 0 0 Z " fill="#FCEFD7" transform="translate(578,239)"/>
<path d="M0 0 C0.33 0 0.66 0 1 0 C1.3512 5.6184 0.942 9.8845 -1.2656 15.0703 C-2.3856 18.0134 -2.6747 20.8775 -3 24 C-3.66 24 -4.32 24 -5 24 C-4.395 18.3445 -3.3781 12.9979 -1.9375 7.5 C-1.7512 6.773 -1.565 6.0459 -1.373 5.2969 C-0.9197 3.5301 -0.4605 1.7649 0 0 Z " fill="#F5E4CC" transform="translate(239,830)"/>
<path d="M0 0 C2.3289 2.3289 2.4673 3.3946 3.0703 6.5703 C3.1573 7.0183 3.1573 7.0183 3.5977 9.2852 C3.6847 9.7537 3.6847 9.7537 4.125 12.125 C4.3068 13.0699 4.4885 14.0148 4.6758 14.9883 C5.1241 17.3243 5.5652 19.6614 6 22 C5.01 22.33 4.02 22.66 3 23 C2.4949 20.105 1.9958 17.2091 1.5 14.3125 C1.3569 13.4959 1.2138 12.6793 1.0664 11.8379 C0.3883 7.8502 -0.1986 4.0627 0 0 Z " fill="#E4E3E0" transform="translate(575,564)"/>
<path d="M0 0 C0 0.99 0 1.98 0 3 C-5.7069 3.9925 -11.2141 4.1048 -17 4 C-16.01 3.67 -15.02 3.34 -14 3 C-14 2.34 -14 1.68 -14 1 C-12.4169 0.8308 -10.8335 0.6648 -9.25 0.5 C-8.8091 0.4536 -8.8091 0.4536 -6.5781 0.2188 C-4 0 -4 0 0 0 Z " fill="#4E4237" transform="translate(591,339)"/>
<path d="M0 0 C0.4022 0.0103 0.4022 0.0103 2.4375 0.0625 C3.5625 4.8125 3.5625 4.8125 2.4375 7.0625 C1.1175 6.7325 -0.2025 6.4025 -1.5625 6.0625 C-1.8925 6.7225 -2.2225 7.3825 -2.5625 8.0625 C-3.5625 7.0625 -3.5625 7.0625 -3.6875 4.0625 C-3.5218 0.0859 -3.5218 0.0859 0 0 Z " fill="#FDF4E0" transform="translate(571.5625,228.9375)"/>
<path d="M0 0 C0.66 0 1.32 0 2 0 C2 0.66 2 1.32 2 2 C3.32 2 4.64 2 6 2 C5.4363 5.2695 4.5004 6.8258 2 9 C2.33 9.66 2.66 10.32 3 11 C1.02 11.33 -0.96 11.66 -3 12 C-2.67 10.35 -2.34 8.7 -2 7 C-0.68 7 0.64 7 2 7 C2 6.01 2 5.02 2 4 C1.34 3.67 0.68 3.34 0 3 C0 2.01 0 1.02 0 0 Z " fill="#E2CBAA" transform="translate(436,204)"/>
<path d="M0 0 C-2.2243 1.3213 -4.4538 2.6321 -6.6875 3.9375 C-7.3133 4.3107 -7.9392 4.6839 -8.584 5.0684 C-12.0444 7.0794 -14.9551 8.5128 -19 9 C-19 8.01 -19 7.02 -19 6 C-15.3803 4.6837 -12.9043 4 -9 4 C-9 3.34 -9 2.68 -9 2 C-5.9627 -1.0373 -4.0622 -1.3541 0 0 Z " fill="#F8E8D2" transform="translate(591,917)"/>
<path d="M0 0 C-3.3553 2.2369 -6.5963 3.1674 -10.4375 4.1875 C-10.7717 4.2826 -10.7717 4.2826 -12.4629 4.7637 C-15.9381 5.6971 -18.5861 6.3708 -22 5 C-18.6285 2.7523 -16.0763 2.202 -12.125 1.375 C-10.9107 1.1146 -9.6964 0.8542 -8.4453 0.5859 C-5.5291 0.09 -2.9438 -0.1231 0 0 Z " fill="#F7E6CF" transform="translate(572,926)"/>
<path d="M0 0 C1.65 0 3.3 0 5 0 C5 2.31 5 4.62 5 7 C3.68 7.33 2.36 7.66 1 8 C1 7.34 1 6.68 1 6 C0.01 5.67 -0.98 5.34 -2 5 C-1.34 3.35 -0.68 1.7 0 0 Z " fill="#FDF6E3" transform="translate(453,228)"/>
<path d="M0 0 C2.125 0.9375 2.125 0.9375 4 2 C3.67 3.65 3.34 5.3 3 7 C2.01 7.33 1.02 7.66 0 8 C-0.99 7.34 -1.98 6.68 -3 6 C-2.625 3.5625 -2.625 3.5625 -2 1 C-1.34 0.67 -0.68 0.34 0 0 Z " fill="#F9E8C8" transform="translate(450,210)"/>
<path d="M0 0 C1.6272 0.0814 3.2575 0.1075 4.8867 0.0977 C5.8245 0.0944 6.7623 0.0912 7.7285 0.0879 C8.2167 0.0837 8.2167 0.0837 10.6875 0.0625 C11.1815 0.0602 11.1815 0.0602 13.6816 0.0488 C16.1212 0.037 18.5605 0.0206 21 0 C21 0.33 21 0.66 21 1 C17.6321 1.743 14.4331 2.1571 10.9883 2.2812 C10.066 2.3186 9.1436 2.356 8.1934 2.3945 C6.2611 2.4653 4.3288 2.5356 2.3965 2.6055 C1.478 2.6429 0.5596 2.6802 -0.3867 2.7188 C-0.8055 2.7339 -0.8055 2.7339 -2.9246 2.8105 C-5 3 -5 3 -7 4 C-7 3.01 -7 2.02 -7 1 C-3.375 -1.125 -3.375 -1.125 0 0 Z " fill="#EFD8BD" transform="translate(736,910)"/>
<path d="M0 0 C1.1619 3.4857 0.4974 5.2713 -0.4531 8.7266 C-1.346 12.4384 -1.666 16.2031 -2 20 C-2.99 19.34 -3.98 18.68 -5 18 C-3.9007 11.6888 -2.4186 5.9366 0 0 Z " fill="#E5E4E1" transform="translate(437,612)"/>
<path d="M0 0 C2.3604 3.5406 3.6978 7.0981 5.1875 11.0625 C5.473 11.7953 5.7586 12.5282 6.0527 13.2832 C6.7636 15.1666 7.3885 17.082 8 19 C7.67 19.66 7.34 20.32 7 21 C4.7062 17.5593 4 16.2771 4 12 C3.34 12 2.68 12 2 12 C0.4086 7.8226 -0.2128 4.4684 0 0 Z " fill="#F6E4CA" transform="translate(735,666)"/>
<path d="M0 0 C0 1.65 0 3.3 0 5 C-1.65 5.66 -3.3 6.32 -5 7 C-5.66 5.68 -6.32 4.36 -7 3 C-4.4996 -0.0005 -4.2621 0 0 0 Z " fill="#FAEAD0" transform="translate(460,218)"/>
<path d="M0 0 C0.99 0.33 1.98 0.66 3 1 C2.67 1.99 2.34 2.98 2 4 C2.66 4.33 3.32 4.66 4 5 C3.67 6.65 3.34 8.3 3 10 C2.01 10.33 1.02 10.66 0 11 C-0.1941 9.3549 -0.3801 7.7089 -0.5625 6.0625 C-0.6669 5.146 -0.7713 4.2295 -0.8789 3.2852 C-0.9189 2.5311 -0.9588 1.777 -1 1 C-0.67 0.67 -0.34 0.34 0 0 Z " fill="#F7E0BE" transform="translate(440,231)"/>
<path d="M0 0 C1.65 0.33 3.3 0.66 5 1 C5 2.65 5 4.3 5 6 C3.68 6 2.36 6 1 6 C0.34 5.34 -0.32 4.68 -1 4 C-0.625 1.875 -0.625 1.875 0 0 Z " fill="#FAEACE" transform="translate(567,219)"/>
<path d="M0 0 C0.33 1.98 0.66 3.96 1 6 C0.01 6.33 -0.98 6.66 -2 7 C-2.99 5.35 -3.98 3.7 -5 2 C-2 0 -2 0 0 0 Z " fill="#F6DFBB" transform="translate(586,236)"/>
<path d="M0 0 C1.5 1.375 1.5 1.375 3 3 C3 3.66 3 4.32 3 5 C1.68 4.67 0.36 4.34 -1 4 C-1 1 -1 1 0 0 Z " fill="#F9DCB4" transform="translate(598,199)"/>
<path d="M0 0 C0.99 0.33 1.98 0.66 3 1 C2.67 1.99 2.34 2.98 2 4 C1.01 3.67 0.02 3.34 -1 3 C-0.67 2.01 -0.34 1.02 0 0 Z " fill="#F6DCB4" transform="translate(437,217)"/>
<path d="M0 0 C0.495 0.33 0.495 0.33 3 2 C2.67 2.99 2.34 3.98 2 5 C1.34 5 0.68 5 0 5 C0 3.35 0 1.7 0 0 Z " fill="#FDE3B8" transform="translate(587,218)"/>
<path d="M0 0 C0.66 0 1.32 0 2 0 C2 1.32 2 2.64 2 4 C1.01 3.67 0.02 3.34 -1 3 C-0.67 2.01 -0.34 1.02 0 0 Z " fill="#FDE1B5" transform="translate(576,203)"/>
<path d="M0 0 C0.99 0 1.98 0 3 0 C2.67 1.32 2.34 2.64 2 4 C1.34 3.67 0.68 3.34 0 3 C0 2.01 0 1.02 0 0 Z " fill="#FADCB0" transform="translate(448,202)"/>
<path d="M0 0 C1.32 0 2.64 0 4 0 C4 0.66 4 1.32 4 2 C3.01 2.33 2.02 2.66 1 3 C0.67 2.01 0.34 1.02 0 0 Z " fill="#FBDCB3" transform="translate(450,206)"/>
<path d="M0 0 C0.99 0 1.98 0 3 0 C2.67 0.99 2.34 1.98 2 3 C1.34 3 0.68 3 0 3 C0 2.01 0 1.02 0 0 Z " fill="#FBDAAF" transform="translate(463,242)"/>
<path d="M0 0 C0.99 0 1.98 0 3 0 C2.67 0.99 2.34 1.98 2 3 C1.34 2.01 0.68 1.02 0 0 Z " fill="#F9DCAF" transform="translate(584,233)"/>
<path d="M0 0 C3 1 3 1 3 1 Z " fill="#FED9A8" transform="translate(572,208)"/>
<path d="" fill="#EBC59E" transform="translate(0,0)"/></g>

<g class="effects">
  <g class="sparkle s1"><polygon points="394.0,150.0 383.8,153.8 380.0,164.0 376.2,153.8 366.0,150.0 376.2,146.2 380.0,136.0 383.8,146.2" fill="#fff5cc"/></g>
  <g class="sparkle s2"><polygon points="662.0,170.0 653.2,173.2 650.0,182.0 646.8,173.2 638.0,170.0 646.8,166.8 650.0,158.0 653.2,166.8" fill="#fff5cc"/></g>
  <g class="sparkle s3"><polygon points="478.0,260.0 472.1,262.1 470.0,268.0 467.9,262.1 462.0,260.0 467.9,257.9 470.0,252.0 472.1,257.9" fill="#ffe799"/></g>
  <g class="sparkle s4"><polygon points="570.0,230.0 562.7,232.7 560.0,240.0 557.3,232.7 550.0,230.0 557.3,227.3 560.0,220.0 562.7,227.3" fill="#ffe799"/></g>
  <g class="sparkle s5"><polygon points="427.0,340.0 421.9,341.9 420.0,347.0 418.1,341.9 413.0,340.0 418.1,338.1 420.0,333.0 421.9,338.1" fill="#ffffff"/></g>
  <g class="sparkle s6"><polygon points="609.0,320.0 602.4,322.4 600.0,329.0 597.6,322.4 591.0,320.0 597.6,317.6 600.0,311.0 602.4,317.6" fill="#ffffff"/></g>
</g>

</svg>
