<?xml version="1.0" encoding="UTF-8"?>
<svg xmlns="http://www.w3.org/2000/svg" viewBox="0 0 1024 1024" preserveAspectRatio="xMidYMid meet">
<style>

.main { transform-origin: 512px 900px; animation: fountainIn 1.8s cubic-bezier(.2,1.3,.3,1) both, fountainPulse 2.4s 1.8s ease-in-out infinite; }
.drops-existing { animation: dropShimmer 2.6s 2s ease-in-out infinite; }
.rise-drop { opacity:0; }
@keyframes fountainIn {
  0%  { transform: scaleY(.1) translateY(40%); opacity:0; }
  60% { transform: scaleY(1.1) translateY(-10px); opacity:1; }
  100%{ transform: scaleY(1) translateY(0); opacity:1; }
}
@keyframes fountainPulse {
  0%,100% { transform: scaleY(1) translateY(0); }
  50%     { transform: scaleY(1.06) translateY(-14px); }
}
@keyframes dropShimmer {
  0%,100% { transform: translate(0,0); opacity:1; }
  50%     { transform: translate(10px,-20px); opacity:.6; }
}
@keyframes sprayUp {
  0%   { transform: translate(0,0) scale(.3); opacity:0; }
  20%  { opacity:1; }
  100% { transform: translate(var(--dx),-500px) scale(1); opacity:0; }
}

</style>

<g class="drops-existing"><path d="M0 0 C5.945 6.932 9.504 13.616 9.18 22.965 C8.441 31.328 5.31 37.119 -0.961 42.766 C-8.495 48.712 -15.494 49.969 -25 49 C-32.374 47.073 -39.197 42.334 -43.352 35.91 C-47.298 28.288 -48.326 20.683 -45.812 12.375 C-42.889 4.511 -38.194 -0.864 -30.688 -4.688 C-20.327 -8.375 -8.447 -7.663 0 0 Z " fill="#117CAE" transform="translate(420,465)"/>
<path d="M0 0 C7.142 3.589 11.77 9.644 14.301 17.156 C15.468 25.152 13.919 31.547 9.301 38.156 C4.94 42.954 0.534 45.865 -6.039 46.457 C-7.226 46.461 -8.414 46.465 -9.637 46.469 C-10.821 46.486 -12.006 46.502 -13.227 46.52 C-19.665 45.846 -23.454 42.849 -27.699 38.156 C-28.421 37.373 -29.143 36.589 -29.887 35.781 C-34.402 29.242 -34.057 22.677 -32.699 15.156 C-30.473 8.726 -25.669 3.931 -19.895 0.48 C-13.67 -2.099 -6.418 -2.006 0 0 Z " fill="#117EB0" transform="translate(630.69921875,454.84375)"/>
<path d="M0 0 C3.036 1.821 4.606 3.319 6.375 6.375 C7.173 9.727 7.03 11.703 6 15 C3.518 18.191 1.873 19.727 -2 20.938 C-6.657 21.035 -8.938 20.004 -12.312 16.812 C-14.469 13.219 -14.517 11.133 -14 7 C-12.745 4.177 -11.716 2.537 -9.25 0.688 C-5.979 -0.312 -3.403 -0.358 0 0 Z " fill="#18719F" transform="translate(671,441)"/>
<path d="M0 0 C2.204 2.544 4.156 5.185 6 8 C5.67 8.66 5.34 9.32 5 10 C4.34 8.68 3.68 7.36 3 6 C2.01 6 1.02 6 0 6 C-4 1.657 -4 1.657 -4 -1 C-7.5 -1.797 -10.714 -2.119 -14.301 -2.098 C-15.277 -2.094 -16.254 -2.091 -17.26 -2.088 C-17.763 -2.084 -17.763 -2.084 -20.312 -2.062 C-21.339 -2.058 -22.366 -2.053 -23.424 -2.049 C-25.949 -2.037 -28.475 -2.021 -31 -2 C-31.292 -1.384 -31.584 -0.768 -31.885 -0.134 C-33.232 2.444 -34.889 4.19 -36.938 6.25 C-37.627 6.956 -38.317 7.663 -39.027 8.391 C-41 10 -41 10 -44 10 C-42.598 5.539 -40.402 3.153 -37 0 C-36.773 -0.268 -36.773 -0.268 -35.625 -1.625 C-25.739 -9.99 -9.336 -8.197 0 0 Z " fill="#1B6C97" transform="translate(420,465)"/>
<path d="M0 0 C1.301 3.815 0.894 7.276 0.562 11.25 C0.461 12.513 0.359 13.777 0.254 15.078 C0.17 16.042 0.086 17.007 0 18 C0.66 18 1.32 18 2 18 C2 18.99 2 19.98 2 21 C2.66 21 3.32 21 4 21 C5.402 22.461 5.402 22.461 6.938 24.375 C10.166 28.388 12.839 30.296 18 31 C23.911 31.348 29.269 30.291 35 29 C35 28.34 35 27.68 35 27 C35.99 27 36.98 27 38 27 C37.835 26.505 37.835 26.505 37 24 C38.312 22.5 38.312 22.5 40 21 C40.99 21 41.98 21 43 21 C41.628 26.183 38.296 29.064 34 32 C29.97 34.029 26.55 34.298 22.062 34.312 C20.878 34.329 19.693 34.346 18.473 34.363 C12.034 33.69 8.246 30.693 4 26 C3.278 25.216 2.556 24.433 1.812 23.625 C-2.731 17.045 -2.192 10.564 -1 3 C-0.67 2.01 -0.34 1.02 0 0 Z " fill="#1A5F87" transform="translate(599,467)"/>
<path d="M0 0 C4.855 2.542 8.07 5.669 11.258 10.09 C10.928 10.75 10.598 11.41 10.258 12.09 C9.268 11.43 8.278 10.77 7.258 10.09 C7.258 9.43 7.258 8.77 7.258 8.09 C6.433 7.76 6.433 7.76 2.258 6.09 C2.258 5.43 2.258 4.77 2.258 4.09 C1.598 4.09 0.938 4.09 0.258 4.09 C0.258 3.43 0.258 2.77 0.258 2.09 C-1.062 2.09 -2.382 2.09 -3.742 2.09 C-3.742 1.43 -3.742 0.77 -3.742 0.09 C-10.497 0.33 -15.365 0.609 -20.742 5.09 C-21.67 5.791 -22.598 6.492 -23.555 7.215 C-25.742 9.09 -25.742 9.09 -26.742 11.09 C-28.805 11.715 -28.805 11.715 -30.742 12.09 C-29.319 8.758 -27.609 6.813 -24.867 4.465 C-24.189 3.874 -23.511 3.284 -22.812 2.676 C-16.307 -2.307 -7.711 -2.559 0 0 Z " fill="#195A82" transform="translate(630.7421875,454.91015625)"/>
<path d="M0 0 C0.165 0.33 0.165 0.33 1 2 C-3.539 8.774 -8.41 13.705 -15.75 17.375 C-21.825 18.543 -28.72 19.52 -34 16 C-28.72 16 -23.44 16 -18 16 C-18 15.34 -18 14.68 -18 14 C-11.375 11 -11.375 11 -8 11 C-8 10.01 -8 9.02 -8 8 C-7.01 8 -6.02 8 -5 8 C-4.67 6.68 -4.34 5.36 -4 4 C-3.34 4 -2.68 4 -2 4 C-2 3.01 -2 2.02 -2 1 C-1.34 0.67 -0.68 0.34 0 0 Z " fill="#18557E" transform="translate(426,496)"/>
<path d="M0 0 C0 0.33 0 0.66 0 1 C-7.59 1.33 -15.18 1.66 -23 2 C-22.67 1.34 -22.34 0.68 -22 0 C-14.41 -2.521 -7.631 -1.919 0 0 Z " fill="#19577E" transform="translate(412,460)"/>
<path d="M0 0 C2.333 -0.042 4.667 -0.041 7 0 C7.33 0.33 7.66 0.66 8 1 C10.35 1.235 12.706 1.414 15.062 1.562 C16.353 1.646 17.643 1.73 18.973 1.816 C19.472 1.847 19.472 1.847 22 2 C22 2.33 22 2.66 22 3 C17.846 4.042 14.14 4.022 9.875 3.75 C8.656 3.683 7.436 3.616 6.18 3.547 C2.938 2.989 1.911 2.595 0 0 Z " fill="#1F6E99" transform="translate(386,509)"/>
<path d="M0 0 C6.459 2.03 9.982 6.791 14 12 C13.67 12.66 13.34 13.32 13 14 C12.34 12.68 11.68 11.36 11 10 C10.01 10 9.02 10 8 10 C4 5.657 4 5.657 4 3 C2.35 2.67 0.7 2.34 -1 2 C-0.67 1.34 -0.34 0.68 0 0 Z " fill="#1C5D86" transform="translate(412,461)"/></g>
<circle class="rise-drop" cx="470" cy="300" r="8" fill="#A8D8F0" style="--dx:-80px; animation: sprayUp 3s 2.5s linear infinite;"/>
<circle class="rise-drop" cx="520" cy="280" r="10" fill="#C5E3F5" style="--dx:0px; animation: sprayUp 3s 3.0s linear infinite;"/>
<circle class="rise-drop" cx="560" cy="300" r="7" fill="#A8D8F0" style="--dx:80px; animation: sprayUp 3s 3.5s linear infinite;"/>
<circle class="rise-drop" cx="490" cy="320" r="9" fill="#89CAE5" style="--dx:-40px; animation: sprayUp 3s 4.0s linear infinite;"/>
<circle class="rise-drop" cx="540" cy="300" r="8" fill="#A8D8F0" style="--dx:40px; animation: sprayUp 3s 4.5s linear infinite;"/>
<circle class="rise-drop" cx="510" cy="260" r="11" fill="#C5E3F5" style="--dx:-20px; animation: sprayUp 3s 5.0s linear infinite;"/>

<g class="main"><path d="M0 0 C11.935 10.004 17.92 22.701 23.223 36.938 C23.368 36.532 23.368 36.532 24.105 34.48 C31.661 14.07 42.398 0.185 62.02 -9.434 C64.398 -10.442 66.757 -11.294 69.223 -12.062 C69.899 -12.286 70.576 -12.509 71.273 -12.738 C86.308 -16.9 103.392 -13.901 116.895 -6.523 C130.236 1.848 139.244 13.003 144.223 27.938 C144.744 32.902 144.753 36.816 142.598 41.375 C139.849 44.341 138.085 45.699 134.223 46.938 C129.399 46.988 125.463 46.269 121.223 43.938 C121.223 43.278 121.223 42.618 121.223 41.938 C120.563 41.938 119.903 41.938 119.223 41.938 C118.997 41.379 118.772 40.82 118.539 40.244 C112.866 26.395 107.92 15.242 93.543 8.867 C92.777 8.56 92.012 8.254 91.223 7.938 C90.15 7.504 89.078 7.071 87.973 6.625 C75.403 4.321 63.921 5.942 53.223 13.062 C52.542 13.56 51.861 14.058 51.16 14.57 C49.223 15.938 49.223 15.938 47.039 17 C44.648 18.234 44.293 19.51 43.223 21.938 C42.239 23.283 41.241 24.618 40.223 25.938 C40.84 25.6 41.458 25.262 42.094 24.914 C54.659 18.297 66.698 17.157 80.473 21.031 C90.13 24.214 97.458 29.435 102.66 38.312 C106.313 45.598 107.065 51.955 105.02 59.859 C103.492 63.843 101.063 66.803 97.391 69.066 C93.112 70.785 88.726 70.669 84.223 69.938 C80.436 67.93 78.012 65.329 75.91 61.625 C75.223 58.937 75.223 58.937 74.848 56.801 C73.844 51.381 72.791 48.444 68.223 44.938 C62.781 42.299 58.038 42.644 52.223 43.938 C49.92 45.049 47.942 46.277 45.879 47.781 C44.223 48.938 44.223 48.938 41.223 49.938 C40.191 51.699 40.191 51.699 39.223 53.938 C39.022 54.322 39.022 54.322 38.004 56.27 C37.581 57.088 37.158 57.907 36.723 58.75 C36.3 59.561 35.877 60.372 35.441 61.207 C32.869 66.97 31.836 72.611 31.535 78.875 C31.495 79.653 31.454 80.432 31.412 81.234 C30.87 94.783 31.67 108.398 32.223 121.938 C32.764 121.258 33.305 120.578 33.863 119.877 C34.22 119.43 34.22 119.43 36.027 117.164 C36.734 116.278 37.44 115.392 38.167 114.479 C47.961 102.368 62.641 93.943 78.223 91.938 C97.784 90.631 115.421 93.695 130.94 106.643 C143.394 117.671 151.076 132.407 153.223 148.938 C154.152 164.697 151.371 178.463 141.457 191.207 C136.535 196.473 131.432 199.04 124.16 199.312 C118.963 199.116 115.447 198.055 111.598 194.391 C107.719 190.176 105.263 186.46 105.195 180.551 C105.641 172.911 108.263 168.757 113.785 163.562 C119.059 158.368 120.358 153.372 120.723 146.062 C120.517 138.971 118.302 133.483 113.648 128.125 C106.21 121.19 97.274 118.61 87.223 118.938 C74.544 120.854 64.573 126.08 56.461 136.117 C48.139 148.569 47.632 163.49 47.717 177.929 C47.713 179.689 47.706 181.448 47.699 183.208 C47.682 187.998 47.691 192.788 47.703 197.579 C47.712 202.762 47.698 207.945 47.687 213.129 C47.67 222.096 47.668 231.064 47.676 240.032 C47.686 253.008 47.673 265.985 47.653 278.961 C47.622 300.032 47.607 321.104 47.604 342.175 C47.603 343.434 47.603 344.693 47.603 345.991 C47.603 347.252 47.602 348.513 47.602 349.812 C47.599 367.702 47.593 385.592 47.581 403.482 C47.58 404.742 47.579 406.002 47.579 407.299 C47.565 428.302 47.543 449.305 47.517 470.308 C47.502 483.253 47.495 496.198 47.498 509.144 C47.5 518.008 47.495 526.872 47.485 535.737 C47.48 540.85 47.478 545.963 47.485 551.076 C47.491 555.759 47.488 560.442 47.477 565.124 C47.475 566.816 47.477 568.507 47.482 570.199 C47.519 583.543 46.791 594.585 39.223 605.938 C39.932 606.194 40.641 606.451 41.371 606.715 C44.449 608.034 47.054 609.657 49.848 611.5 C57.338 616.436 64.56 617.256 73.434 615.5 C79.113 613.2 82.821 608.209 86.788 603.734 C92.981 596.807 99.465 592.455 108.957 591.602 C120.534 591.34 128.957 593.387 138.059 600.801 C141.315 604.016 143.803 607.662 146.301 611.484 C149.112 615.072 151.683 616.75 156.25 617.306 C156.801 617.307 156.801 617.307 159.59 617.309 C160.805 617.326 162.021 617.343 163.273 617.361 C165.815 617.37 168.357 617.376 170.898 617.377 C177.848 617.484 182.652 617.594 188.223 621.938 C192.363 627.276 193.672 631.197 193.223 637.938 C191.404 643.798 189.131 646.532 184.223 649.938 C181.074 650.998 178.138 651.066 174.831 651.072 C173.73 651.076 172.629 651.081 171.494 651.085 C170.285 651.085 169.076 651.085 167.83 651.085 C166.545 651.088 165.261 651.092 163.937 651.096 C160.368 651.106 156.799 651.11 153.23 651.112 C149.382 651.116 145.534 651.126 141.686 651.134 C132.392 651.154 123.099 651.164 113.806 651.173 C109.43 651.178 105.054 651.183 100.678 651.188 C86.134 651.205 71.589 651.22 57.044 651.227 C53.27 651.229 49.497 651.231 45.723 651.233 C44.785 651.233 43.847 651.234 42.881 651.234 C27.68 651.242 12.479 651.268 -2.723 651.3 C-18.327 651.333 -33.931 651.351 -49.536 651.355 C-58.298 651.357 -67.061 651.365 -75.823 651.391 C-83.283 651.413 -90.744 651.421 -98.204 651.411 C-102.011 651.406 -105.817 651.408 -109.623 651.428 C-113.75 651.449 -117.877 651.438 -122.004 651.425 C-122.605 651.431 -122.605 651.431 -125.648 651.458 C-132.243 651.407 -136.461 650.969 -141.777 646.938 C-145.891 641.633 -147.328 637.651 -146.777 630.938 C-145.113 625.352 -142.323 621.913 -137.354 618.955 C-132.032 616.854 -126.297 617.277 -120.652 617.312 C-118.171 617.312 -115.689 617.3 -113.207 617.273 C-112.662 617.276 -112.662 617.276 -109.902 617.291 C-106.272 616.88 -103.895 615.815 -100.777 613.938 C-98.977 611.484 -98.977 611.484 -97.465 608.688 C-92.755 600.868 -86.331 595.704 -77.711 592.598 C-67.982 590.408 -57.481 590.794 -48.777 595.938 C-43.663 599.206 -39.785 602.714 -36.215 607.625 C-32.952 611.981 -30.126 614.592 -24.777 615.938 C-12.206 617.614 -4.569 613.078 5.223 605.938 C5.883 605.938 6.543 605.938 7.223 605.938 C6.897 605.476 6.57 605.015 6.234 604.539 C5.797 603.887 5.36 603.235 4.91 602.562 C4.696 602.249 4.696 602.249 3.609 600.664 C-1.297 591.018 -1.205 581.326 -1.163 570.77 C-1.167 569.027 -1.172 567.284 -1.178 565.54 C-1.193 560.767 -1.188 555.994 -1.181 551.22 C-1.176 546.065 -1.189 540.911 -1.199 535.756 C-1.215 526.827 -1.22 517.899 -1.219 508.97 C-1.216 496.046 -1.232 483.122 -1.253 470.197 C-1.287 449.207 -1.308 428.217 -1.321 407.227 C-1.322 405.971 -1.323 404.716 -1.323 403.422 C-1.326 398.334 -1.33 393.247 -1.333 388.159 C-1.341 374.163 -1.352 360.166 -1.364 346.169 C-1.365 345.543 -1.365 345.543 -1.367 342.373 C-1.385 321.465 -1.411 300.557 -1.442 279.649 C-1.461 266.761 -1.472 253.873 -1.473 240.985 C-1.474 232.151 -1.482 223.316 -1.495 214.482 C-1.502 209.388 -1.507 204.295 -1.502 199.202 C-1.498 194.532 -1.503 189.862 -1.515 185.193 C-1.518 183.511 -1.517 181.828 -1.513 180.146 C-1.471 162.731 -2.037 144.308 -14.777 130.938 C-23.515 123.126 -32.577 119.866 -44.09 118.562 C-54.449 119.616 -63.033 122.798 -69.777 130.938 C-74.435 137.62 -74.751 145.018 -73.777 152.938 C-72.164 158.712 -68.64 162.309 -64.391 166.367 C-60.117 170.527 -59.119 174.575 -58.723 180.379 C-58.828 185.292 -60.051 189.024 -63.363 192.695 C-68.641 197.466 -73.303 199.463 -80.449 199.238 C-87.776 198.292 -92.361 193.932 -96.957 188.426 C-99.838 184.487 -101.918 180.438 -103.777 175.938 C-103.937 175.582 -103.937 175.582 -104.746 173.785 C-110.194 159.435 -107.301 142.122 -101.27 128.543 C-97.47 120.953 -92.8 114.886 -86.777 108.938 C-86.164 108.302 -85.55 107.666 -84.918 107.012 C-72.676 95.215 -56.288 91.419 -39.797 91.588 C-23.146 92.081 -7.824 98.255 4.223 109.938 C12.161 118.814 12.161 118.814 14.223 122.938 C14.299 115.857 14.351 108.778 14.387 101.697 C14.402 99.292 14.423 96.887 14.449 94.481 C14.486 91.011 14.502 87.541 14.516 84.07 C14.531 83.006 14.547 81.942 14.563 80.846 C14.565 69.915 11.905 59.217 4.402 50.926 C-0.955 45.915 -6.02 43.407 -13.277 42.5 C-17.632 43.044 -21.259 44.268 -24.777 46.938 C-27.352 50.483 -28.314 53.671 -29.152 57.938 C-30.374 63.166 -31.427 65.784 -35.777 68.938 C-41.346 70.794 -46.808 70.849 -52.152 68.375 C-57.157 63.728 -59.403 58.602 -60.09 51.875 C-59.36 42.682 -55.782 35.768 -49.402 29.168 C-39.788 20.999 -28.513 18.436 -16.199 18.609 C-8.686 19.33 -1.719 22.105 5.223 24.938 C-2.627 15.273 -11.28 8.395 -23.777 5.938 C-36.667 5.029 -47.665 7.537 -57.906 15.617 C-64.242 21.412 -67.79 28.586 -70.754 36.566 C-72.333 40.734 -73.572 43.3 -77.527 45.562 C-81.795 47.273 -85.447 47.594 -89.777 45.938 C-93.584 43.469 -96.325 41.296 -97.777 36.938 C-98.806 25.421 -93.199 14.515 -86 5.781 C-62.444 -19.268 -26.508 -19.686 0 0 Z " fill="#90C2D6" transform="translate(486.77734375,222.0625)"/>
<path d="M0 0 C5.114 3.268 8.992 6.776 12.562 11.688 C15.825 16.043 18.652 18.654 24 20 C36.27 21.636 44.084 17.408 53.699 10.332 C59.375 7.046 65.07 6.704 71.438 6.812 C72.15 6.813 72.862 6.814 73.596 6.814 C78.468 6.854 83.176 7.32 88 8 C88 8.66 88 9.32 88 10 C88.354 10.128 88.354 10.128 90.148 10.777 C93.226 12.097 95.832 13.719 98.625 15.562 C106.116 20.498 113.338 21.318 122.211 19.562 C127.89 17.262 131.598 12.272 135.565 7.797 C141.758 0.869 148.242 -3.482 157.734 -4.336 C169.311 -4.598 177.734 -2.55 186.836 4.863 C190.093 8.079 192.58 11.725 195.078 15.547 C197.889 19.135 200.461 20.812 205.027 21.369 C206.129 21.37 207.231 21.37 208.367 21.371 C208.975 21.38 208.975 21.38 212.051 21.424 C214.592 21.433 217.134 21.438 219.676 21.439 C226.625 21.546 231.429 21.657 237 26 C241.14 31.339 242.449 35.259 242 42 C240.181 47.86 237.908 50.594 233 54 C229.851 55.06 226.916 55.128 223.608 55.134 C222.507 55.139 221.406 55.143 220.272 55.148 C219.063 55.148 217.853 55.147 216.607 55.147 C215.323 55.151 214.038 55.155 212.714 55.158 C209.145 55.168 205.576 55.172 202.007 55.175 C198.159 55.179 194.311 55.188 190.463 55.197 C181.17 55.217 171.877 55.227 162.583 55.236 C158.207 55.24 153.832 55.245 149.456 55.251 C134.911 55.268 120.366 55.282 105.821 55.289 C102.048 55.291 98.274 55.293 94.5 55.295 C94.031 55.295 94.031 55.295 91.658 55.297 C76.457 55.305 61.256 55.33 46.055 55.363 C30.45 55.396 14.846 55.414 -0.759 55.417 C-9.521 55.419 -18.283 55.428 -27.045 55.453 C-34.506 55.475 -41.966 55.483 -49.427 55.474 C-53.234 55.469 -57.04 55.471 -60.846 55.49 C-64.973 55.511 -69.099 55.501 -73.227 55.488 C-74.429 55.499 -75.632 55.51 -76.871 55.521 C-83.465 55.47 -87.683 55.031 -93 51 C-97.114 45.695 -98.55 41.713 -98 35 C-96.336 29.415 -93.546 25.975 -88.577 23.017 C-83.255 20.917 -77.52 21.34 -71.875 21.375 C-69.393 21.375 -66.911 21.362 -64.43 21.336 C-63.884 21.339 -63.884 21.339 -61.125 21.353 C-57.494 20.943 -55.118 19.877 -52 18 C-50.199 15.547 -50.199 15.547 -48.688 12.75 C-43.978 4.931 -37.554 -0.233 -28.934 -3.34 C-19.204 -5.529 -8.704 -5.143 0 0 Z " fill="#0F7EB2" transform="translate(438,818)"/>
<path d="M0 0 C1.199 0.003 2.398 0.006 3.633 0.01 C4.252 0.014 4.252 0.014 7.383 0.035 C8.644 0.04 9.904 0.044 11.203 0.049 C14.305 0.061 17.406 0.077 20.508 0.098 C17.843 2.762 16.452 2.389 12.73 2.477 C11.577 2.511 10.424 2.545 9.236 2.58 C8.631 2.593 8.631 2.593 5.57 2.66 C3.186 2.72 0.802 2.784 -1.582 2.852 C-2.643 2.875 -3.704 2.899 -4.797 2.924 C-7.492 3.098 -7.492 3.098 -10.492 4.098 C-10.492 4.758 -10.492 5.418 -10.492 6.098 C-12.142 7.452 -13.81 8.784 -15.492 10.098 C-17.223 13.56 -16.97 17.312 -16.492 21.098 C-14.402 24.607 -12.382 26.801 -8.492 28.098 C-1.574 29.208 5.243 29.25 12.239 29.256 C13.511 29.261 14.784 29.266 16.095 29.271 C19.612 29.284 23.128 29.292 26.645 29.298 C30.443 29.306 34.241 29.32 38.039 29.333 C44.614 29.355 51.189 29.373 57.764 29.389 C67.271 29.411 76.777 29.439 86.284 29.469 C101.708 29.517 117.133 29.56 132.558 29.6 C147.539 29.64 162.52 29.681 177.501 29.725 C177.963 29.727 177.963 29.727 180.301 29.734 C184.935 29.747 189.57 29.761 194.205 29.775 C232.639 29.889 271.074 29.995 309.508 30.098 C309.508 29.108 309.508 28.118 309.508 27.098 C310.168 27.428 310.168 27.428 313.508 29.098 C307.002 32.65 301.057 32.522 293.755 32.485 C293.111 32.488 293.111 32.488 289.853 32.502 C286.291 32.516 282.729 32.512 279.167 32.504 C275.321 32.5 271.475 32.512 267.629 32.523 C260.099 32.54 252.569 32.541 245.039 32.535 C238.919 32.531 232.799 32.533 226.679 32.538 C226.243 32.538 226.243 32.538 224.039 32.54 C222.269 32.542 220.499 32.543 218.729 32.545 C202.134 32.559 185.539 32.553 168.945 32.542 C153.763 32.532 138.582 32.545 123.4 32.569 C107.809 32.593 92.218 32.603 76.627 32.596 C67.875 32.593 59.123 32.595 50.371 32.612 C42.921 32.627 35.472 32.628 28.022 32.61 C24.222 32.602 20.422 32.6 16.621 32.615 C12.501 32.631 8.381 32.617 4.261 32.599 C3.061 32.608 1.86 32.618 0.623 32.628 C-5.965 32.57 -10.18 32.122 -15.492 28.098 C-19.606 22.793 -21.042 18.811 -20.492 12.098 C-18.89 7.572 -16.938 3.32 -12.492 1.098 C-8.281 0.232 -4.293 -0.02 0 0 Z " fill="#1B5D85" transform="translate(360.4921875,840.90234375)"/>
<path d="M0 0 C4.1 3.044 7.593 6.13 10.535 10.352 C10.205 11.012 9.875 11.672 9.535 12.352 C7.494 10.736 5.494 9.066 3.535 7.352 C3.535 6.692 3.535 6.032 3.535 5.352 C2.977 5.074 2.419 4.797 1.844 4.512 C0.267 3.719 -1.303 2.914 -2.867 2.098 C-3.704 1.666 -4.54 1.234 -5.402 0.789 C-6.236 0.355 -7.07 -0.08 -7.93 -0.527 C-13.511 -2.995 -19.446 -3.218 -25.465 -2.648 C-28.84 -1.211 -28.84 -1.211 -31.465 0.352 C-32.798 0.685 -34.132 1.018 -35.465 1.352 C-40.974 3.355 -43.944 6.83 -47.633 11.195 C-49.175 13.01 -50.753 14.698 -52.465 16.352 C-52.465 11.389 -49.577 8.068 -46.465 4.352 C-43.333 1.627 -40.052 -0.567 -36.465 -2.648 C-35.851 -3.011 -35.238 -3.373 -34.605 -3.746 C-23.827 -8.873 -9.526 -6.371 0 0 Z " fill="#1B6089" transform="translate(440.46484375,819.6484375)"/>
<path d="M0 0 C0.699 -0.012 1.399 -0.024 2.119 -0.037 C6.533 -0.049 10.089 0.56 14.188 2.188 C14.188 2.518 14.188 2.847 14.188 3.188 C13.076 3.153 11.965 3.118 10.82 3.082 C-0.606 2.831 -10.735 3.183 -19.875 10.938 C-21.812 12.188 -21.812 12.188 -23.934 11.766 C-24.554 11.575 -25.174 11.384 -25.812 11.188 C-18.044 3.905 -10.773 0.01 0 0 Z " fill="#1A638C" transform="translate(599.8125,813.8125)"/>
<path d="M0 0 C0 0.66 0 1.32 0 2 C0.402 2.144 0.402 2.144 2.438 2.875 C5 4 5 4 6 6 C4 5.543 2 5.084 0 4.625 C-1.195 4.354 -2.39 4.084 -3.621 3.805 C-6.151 3.202 -8.584 2.518 -11.062 1.75 C-16.233 0.435 -21.83 0.859 -27 2 C-28.027 2.972 -29.03 3.971 -30 5 C-32.673 5.67 -35.238 5.774 -38 6 C-29.57 -4.629 -11.866 -1.655 0 0 Z " fill="#20759D" transform="translate(526,826)"/>
<path d="M0 0 C1.205 0.003 2.411 0.006 3.652 0.01 C4.907 0.018 6.161 0.027 7.453 0.035 C8.088 0.037 8.088 0.037 11.301 0.049 C14.435 0.061 17.569 0.077 20.703 0.098 C18.038 2.762 16.648 2.389 12.926 2.477 C11.773 2.511 10.62 2.545 9.432 2.58 C8.827 2.593 8.827 2.593 5.766 2.66 C3.381 2.72 0.997 2.784 -1.387 2.852 C-2.448 2.875 -3.508 2.899 -4.601 2.924 C-7.297 3.098 -7.297 3.098 -10.297 4.098 C-10.297 4.758 -10.297 5.418 -10.297 6.098 C-11.929 7.472 -13.599 8.804 -15.297 10.098 C-15.957 10.758 -16.617 11.418 -17.297 12.098 C-16.698 8.832 -15.638 6.924 -13.484 4.41 C-12.983 3.808 -12.481 3.206 -11.965 2.586 C-8.543 -0.468 -4.393 -0.021 0 0 Z " fill="#217BA8" transform="translate(360.296875,840.90234375)"/>
<path d="M0 0 C0.66 0.33 1.32 0.66 2 1 C1.783 1.183 1.783 1.183 0.688 2.109 C-2.207 4.923 -3.833 6.931 -4.469 10.996 C-4.546 18.913 -4.546 18.913 -2.906 22.176 C-2 24 -2 24 -3 27 C-6.856 21.402 -8.564 17.881 -8 11 C-6.351 6.344 -4.413 2.522 0 0 Z " fill="#1C5B82" transform="translate(348,842)"/>
<path d="M0 0 C2.318 0.869 4.545 1.719 6.656 3.023 C12.846 6.722 18.932 6.894 26 6 C29.207 4.975 32.089 3.685 35 2 C35 2.66 35 3.32 35 4 C34.34 4 33.68 4 33 4 C32.34 5.32 31.68 6.64 31 8 C27.417 8.029 23.833 8.047 20.25 8.062 C19.234 8.071 18.218 8.079 17.172 8.088 C16.192 8.091 15.212 8.094 14.203 8.098 C13.302 8.103 12.402 8.108 11.474 8.114 C9.166 8.008 7.209 7.651 5 7 C5 6.34 5 5.68 5 5 C4.361 4.732 3.721 4.464 3.062 4.188 C1 3 1 3 0 0 Z " fill="#155880" transform="translate(532,832)"/>
<path d="M0 0 C4.521 -0.117 9.041 -0.187 13.562 -0.25 C14.839 -0.284 16.116 -0.317 17.432 -0.352 C24.496 -0.425 29.339 -0.425 35 4 C36.938 6.25 36.938 6.25 38 8 C37.67 8.66 37.34 9.32 37 10 C36.01 9.67 35.02 9.34 34 9 C33.312 6.938 33.312 6.938 33 5 C32.423 4.876 31.845 4.753 31.25 4.625 C29 4 29 4 27.226 2.987 C24.437 1.75 22.186 1.679 19.141 1.586 C18.583 1.567 18.583 1.567 15.762 1.469 C14.603 1.438 13.444 1.407 12.25 1.375 C11.076 1.336 9.901 1.298 8.691 1.258 C5.794 1.164 2.897 1.078 0 1 C0 0.67 0 0.34 0 0 Z " fill="#16547C" transform="translate(640,840)"/>
<path d="M0 0 C0.66 0.33 1.32 0.66 2 1 C-0.564 5.369 -2.073 7.647 -7 9 C-9.668 8.983 -12.172 8.878 -14.812 8.625 C-15.159 8.597 -15.159 8.597 -16.912 8.453 C-18.609 8.313 -20.305 8.158 -22 8 C-22 7.67 -22 7.34 -22 7 C-21.661 6.993 -21.661 6.993 -19.945 6.957 C-12.917 6.597 -5.222 5.222 0 0 Z " fill="#14577F" transform="translate(486,832)"/>
<path d="M0 0 C1.32 0.66 2.64 1.32 4 2 C0.308 4.461 -2.466 4.256 -6.73 4.195 C-7.481 4.192 -8.231 4.19 -9.004 4.187 C-11.399 4.176 -13.793 4.15 -16.188 4.125 C-17.812 4.115 -19.436 4.106 -21.061 4.098 C-25.041 4.076 -29.02 4.041 -33 4 C-33 3.67 -33 3.34 -33 3 C-22.11 3 -11.22 3 0 3 C0 2.01 0 1.02 0 0 Z " fill="#226D98" transform="translate(670,868)"/>
<path d="M0 0 C0 5.622 -5.007 9.861 -8.562 13.938 C-11.147 16.125 -12.666 16.714 -16 17 C-14.68 16.34 -13.36 15.68 -12 15 C-12 14.01 -12 13.02 -12 12 C-11.691 11.959 -11.691 11.959 -10.125 11.75 C-7.304 10.754 -7.281 9.637 -6 7 C-4.996 5.72 -3.953 4.469 -2.875 3.25 C-2.336 2.636 -1.797 2.023 -1.242 1.391 C-1.037 1.161 -1.037 1.161 0 0 Z " fill="#197BAA" transform="translate(398,824)"/>
<path d="M0 0 C0 0.66 0 1.32 0 2 C8.25 2 16.5 2 25 2 C25 2.33 25 2.66 25 3 C20.583 3.087 16.167 3.14 11.75 3.188 C10.496 3.213 9.241 3.238 7.949 3.264 C6.744 3.273 5.539 3.283 4.297 3.293 C3.187 3.309 2.076 3.324 0.933 3.341 C-2.3 2.965 -3.639 2.178 -6 0 C-3.509 -1.245 -2.589 -0.777 0 0 Z " fill="#23719C" transform="translate(640,839)"/>
<path d="M0 0 C0.715 1.703 0.715 1.703 1 4 C-0.434 6.359 -0.434 6.359 -2.438 8.75 C-2.767 9.15 -2.767 9.15 -4.434 11.172 C-4.692 11.474 -4.692 11.474 -6 13 C-6.68 11.262 -6.68 11.262 -7 9 C-5.82 6.895 -5.82 6.895 -4.125 4.812 C-3.571 4.118 -3.016 3.423 -2.445 2.707 C-1.66 1.779 -0.86 0.86 0 0 Z " fill="#81A7BC" transform="translate(437,252)"/>
<path d="M0 0 C2.506 3.758 2.372 5.537 2 10 C0.806 14.063 -0.371 16.58 -4 19 C-4 17.68 -4 16.36 -4 15 C-3.34 15 -2.68 15 -2 15 C-1.34 10.05 -0.68 5.1 0 0 Z " fill="#1C5B82" transform="translate(678,850)"/></g>
</svg>