<?xml version="1.0" encoding="UTF-8"?>
<svg xmlns="http://www.w3.org/2000/svg" viewBox="0 0 1024 1024" preserveAspectRatio="xMidYMid meet">
<style>

.main { transform-origin: 50% 55%; animation: heartbeat 1.3s ease-in-out infinite; }
@keyframes heartbeat {
  0%, 100% { transform: scale(1); }
  15%      { transform: scale(1.1); }
  30%      { transform: scale(.98); }
  45%      { transform: scale(1.08); }
  60%      { transform: scale(1); }
}
.mini-heart { animation: miniHeart 4.2s ease-in-out infinite; opacity: 0; transform-origin: center; }
.mh1 { animation-delay: 0s; }
.mh2 { animation-delay: .7s; animation-duration: 5s; }
.mh3 { animation-delay: 1.4s; animation-duration: 4.4s; }
.mh4 { animation-delay: 2.0s; animation-duration: 4.8s; }
.mh5 { animation-delay: 2.6s; animation-duration: 4.0s; }
.mh6 { animation-delay: 3.2s; animation-duration: 5.2s; }
@keyframes miniHeart {
  0%   { transform: translateY(0) scale(.7); opacity: 0; }
  15%  { opacity: .95; }
  85%  { opacity: .85; }
  100% { transform: translateY(-380px) scale(1.2); opacity: 0; }
}

</style>
<g class="main"><path d="M0 0 C0.9446 0.1987 1.8891 0.3974 2.8623 0.6021 C39.0647 8.4555 70.2145 24.6678 98 49 C99.2907 50.0636 100.5822 51.1264 101.875 52.1875 C104.8447 54.7526 107.3964 57.5653 109.9297 60.5586 C111.5165 62.4298 113.124 64.2683 114.7578 66.0977 C124.5274 77.1229 132.4849 88.9319 139.625 101.8047 C141 104 141 104 143 105 C143.2243 104.3542 143.4486 103.7084 143.6797 103.043 C148.5446 91.8307 156.0295 81.1934 164 72 C164.9726 70.8461 165.9438 69.691 166.9141 68.5352 C177.3477 56.1608 177.3477 56.1608 183 51 C183.66 51 184.32 51 185 51 C185 50.34 185 49.68 185 49 C225.3203 10.8192 280.2587 -4.4888 334.5347 -3.1167 C382.8351 -1.4901 428.3409 21.0121 462 55 C465.1886 58.5365 468.118 62.2116 471 66 C471.368 66.4602 471.368 66.4602 473.2305 68.7891 C502.6478 106.3582 513.1088 155.0814 507.4409 201.8921 C500.4592 251.1043 473.777 297.6013 446 338 C445.4997 338.7285 444.9994 339.457 444.4839 340.2075 C438.1241 349.4293 431.4882 358.3591 424.4966 367.1089 C422.8533 369.1853 421.2354 371.2799 419.6211 373.3789 C410.2075 385.6144 400.3781 397.3493 390.0039 408.7812 C388.1869 410.7931 386.4006 412.8266 384.625 414.875 C381.1059 418.9228 377.4716 422.8616 373.8188 426.7886 C371.855 428.9125 369.9913 431.012 368.2969 433.3594 C367.8689 433.9008 367.4409 434.4422 367 435 C366.34 435 365.68 435 365 435 C364.7629 435.562 364.5259 436.1241 364.2816 436.7032 C362.7047 439.5292 360.7853 441.4616 358.4937 443.7493 C358.038 444.2068 357.5824 444.6643 357.113 445.1357 C355.6088 446.6435 354.0976 448.1441 352.5859 449.6445 C351.5314 450.6979 350.4773 451.7515 349.4235 452.8056 C347.2123 455.0152 344.9978 457.2214 342.7808 459.425 C339.9583 462.2306 337.1423 465.0426 334.3287 467.8571 C332.1498 470.0357 329.9683 472.2117 327.7859 474.3869 C326.748 475.4216 325.7108 476.4568 324.6741 477.4927 C319.486 482.6731 314.2749 487.783 308.6935 492.5434 C305.7698 495.0581 302.9922 497.7294 300.1875 500.375 C295.2385 505.0065 290.178 509.4038 284.8867 513.6445 C281.4844 516.4207 278.1806 519.2974 274.875 522.1875 C262.5939 532.8918 250.0027 543.185 237 553 C236.0525 553.7232 235.1051 554.4463 234.1289 555.1914 C225.5735 561.6805 216.822 567.8801 208 574 C207.6269 574.2603 207.6269 574.2603 205.7388 575.5776 C182.1664 591.9579 158.4644 602.9751 129.0547 599.5391 C113.6175 596.7532 100.7484 590.8803 87.8018 582.2065 C86.1989 581.1332 84.5809 580.0825 82.9609 579.0352 C63.4104 566.2977 44.9632 551.8661 27 537 C25.2293 535.5623 23.4585 534.1248 21.6875 532.6875 C16.8386 528.7215 12.0726 524.6661 7.3284 520.5762 C4.4962 518.1353 1.6578 515.705 -1.2188 513.3164 C-8.1288 507.5693 -14.7554 501.5837 -21.269 495.3894 C-24.5125 492.3084 -27.7871 489.2896 -31.168 486.3594 C-35.0814 482.963 -38.6986 479.3366 -42.3125 475.625 C-44.363 473.6222 -46.4216 471.7562 -48.5938 469.8945 C-53.6118 465.5427 -58.3092 460.8769 -63.0029 456.1824 C-64.52 454.6675 -66.045 453.1609 -67.5703 451.6543 C-68.5369 450.6906 -69.5031 449.7264 -70.4688 448.7617 C-70.9041 448.3284 -70.9041 448.3284 -73.1074 446.1355 C-75 444 -75 444 -75 442 C-75.66 442 -76.32 442 -77 442 C-78.4805 440.4961 -78.4805 440.4961 -80.1875 438.4375 C-83.1868 434.89 -86.34 431.6348 -89.7148 428.4453 C-91 427 -91 427 -91 425 C-91.66 425 -92.32 425 -93 425 C-94.4805 423.5312 -94.4805 423.5312 -96.1875 421.5 C-99.2992 417.8261 -102.4815 414.2314 -105.7148 410.6641 C-107 409 -107 409 -107 407 C-107.66 407 -108.32 407 -109 407 C-110.3749 405.4921 -111.6736 403.9146 -112.9375 402.3125 C-113.7419 401.3057 -114.5462 400.299 -115.375 399.2617 C-115.803 398.726 -116.2309 398.1902 -116.6719 397.6382 C-118.4286 395.4714 -120.2397 393.3542 -122.0554 391.2368 C-127.9638 384.3463 -133.5348 377.2452 -139 370 C-139.7154 369.059 -140.4309 368.118 -141.168 367.1484 C-151.5561 353.4111 -161.6405 339.4605 -171 325 C-171.4729 324.272 -171.9458 323.544 -172.4331 322.7939 C-208.789 266.6453 -234.8354 204.0578 -221.0859 136.3906 C-218.2167 123.0708 -214.0765 110.4257 -207.7344 98.3242 C-206.6515 96.2488 -205.612 94.1494 -204.6406 92.0195 C-200.6863 83.4015 -195.2215 76.2083 -189.3984 68.7891 C-188.2267 67.29 -187.0791 65.7721 -185.9375 64.25 C-172.582 46.7497 -155.0707 32.8112 -136 22 C-135.4038 21.6502 -134.8076 21.3004 -134.1934 20.9399 C-115.0162 9.7368 -93.7777 2.9764 -72 -1 C-71.6613 -1.0649 -71.6613 -1.0649 -69.9473 -1.3936 C-47.7864 -5.459 -21.9452 -4.663 0 0 Z " fill="#F14957" transform="translate(371,217)"/>
<path d="M0 0 C8.5097 0.3621 15.8573 2.2382 23 7 C25.3255 7.6936 27.6588 8.3615 30 9 C30.66 9.33 31.32 9.66 32 10 C32 10.66 32 11.32 32 12 C33.32 12 34.64 12 36 12 C36 12.66 36 13.32 36 14 C36.5259 13.9897 36.5259 13.9897 39.1875 13.9375 C46.114 14.7956 51.6099 19.8894 57 24 C57.4235 24.3165 57.4235 24.3165 59.5664 25.918 C70.9482 34.7121 81.2877 44.5477 90 56 C90.7361 56.9204 91.4721 57.8408 92.2305 58.7891 C121.6478 96.3582 132.1088 145.0814 126.4409 191.8921 C119.4592 241.1043 92.777 287.6013 65 328 C64.4997 328.7285 63.9994 329.457 63.4839 330.2075 C57.1241 339.4293 50.4882 348.3591 43.4966 357.1089 C41.8533 359.1853 40.2354 361.2799 38.6211 363.3789 C29.2075 375.6144 19.3781 387.3493 9.0039 398.7812 C7.1869 400.7931 5.4006 402.8266 3.625 404.875 C0.1059 408.9228 -3.5284 412.8616 -7.1812 416.7886 C-9.145 418.9125 -11.0087 421.012 -12.7031 423.3594 C-13.1311 423.9008 -13.5591 424.4422 -14 425 C-14.66 425 -15.32 425 -16 425 C-16.2371 425.562 -16.4741 426.1241 -16.7184 426.7032 C-18.2953 429.5292 -20.2147 431.4616 -22.5063 433.7493 C-22.962 434.2068 -23.4176 434.6643 -23.887 435.1357 C-25.3912 436.6435 -26.9024 438.1441 -28.4141 439.6445 C-29.4686 440.6979 -30.5227 441.7515 -31.5765 442.8056 C-33.7877 445.0152 -36.0022 447.2214 -38.2192 449.425 C-41.0417 452.2306 -43.8577 455.0426 -46.6713 457.8571 C-48.8502 460.0357 -51.0317 462.2117 -53.2141 464.3869 C-54.252 465.4216 -55.2892 466.4568 -56.3259 467.4927 C-61.514 472.6731 -66.7251 477.783 -72.3065 482.5434 C-75.2302 485.0581 -78.0078 487.7294 -80.8125 490.375 C-85.7615 495.0065 -90.822 499.4038 -96.1133 503.6445 C-99.5156 506.4207 -102.8194 509.2974 -106.125 512.1875 C-118.4061 522.8918 -130.9973 533.185 -144 543 C-144.4737 543.3616 -144.4737 543.3616 -146.8711 545.1914 C-155.4265 551.6805 -164.178 557.8801 -173 564 C-173.3731 564.2603 -173.3731 564.2603 -175.2612 565.5776 C-198.8336 581.9579 -222.5356 592.9751 -251.9453 589.5391 C-268.2221 586.6016 -281.3874 580.1255 -295 571 C-296.1292 570.2614 -297.2593 569.5243 -298.3906 568.7891 C-301.2841 566.8916 -304.1488 564.9602 -307 563 C-307.3919 562.7332 -307.3919 562.7332 -309.375 561.3828 C-313.6776 558.3299 -316.3172 555.5401 -319 551 C-319.66 550.34 -320.32 549.68 -321 549 C-320.3526 548.8904 -319.7053 548.7809 -319.0383 548.668 C-297.4119 544.9151 -278.3123 538.3399 -259 528 C-258.325 527.6478 -257.65 527.2955 -256.9546 526.9326 C-237.4023 516.7176 -219.1669 504.1595 -201.8833 490.4863 C-200.045 489.0355 -198.1948 487.6014 -196.3398 486.1719 C-185.6744 477.9241 -175.4099 469.2003 -165.4531 460.1094 C-164 459 -164 459 -162 459 C-162 458.34 -162 457.68 -162 457 C-160.3828 455.5671 -158.7038 454.2038 -157 452.875 C-152.6833 449.4261 -148.7379 445.8592 -144.8945 441.8984 C-142.3904 439.3892 -139.7155 437.1123 -137.0234 434.8086 C-134.0878 432.1847 -131.3788 429.3538 -128.6641 426.5039 C-127 425 -127 425 -125 425 C-124.67 424.01 -124.34 423.02 -124 422 C-122.5237 420.5427 -122.5237 420.5427 -120.5977 418.9648 C-115.2658 414.4387 -110.3699 409.516 -105.4375 404.5625 C-104.5306 403.6595 -103.6238 402.7565 -102.6895 401.8262 C-98.1045 397.2346 -93.6672 392.5844 -89.4417 387.6599 C-87.7174 385.6747 -85.8912 383.826 -84 382 C-80.8725 378.9142 -77.9662 375.7188 -75.1055 372.3867 C-72.8939 369.8798 -70.6199 367.4422 -68.3318 365.0054 C-63.0265 359.3548 -57.9487 353.6209 -53.1016 347.5664 C-51.02 345.0244 -48.8496 342.6047 -46.625 340.1875 C-41.619 334.68 -37.0728 328.8496 -32.5273 322.9644 C-30.9492 320.9346 -29.3517 318.9213 -27.75 316.9102 C6.958 273.1559 38.7232 220.6384 49.5942 165.0576 C49.8638 163.6906 50.1486 162.3265 50.4487 160.9658 C56.1308 134.8736 55.3237 104.5828 48 79 C47.8688 78.5354 47.8688 78.5354 47.2051 76.1841 C40.284 52.3463 28.4702 31.4997 12 13 C10.8929 11.6691 9.7881 10.3363 8.6875 9 C6.0771 5.9406 3.1211 3.5266 0 1 C0 0.67 0 0.34 0 0 Z " fill="#D92937" transform="translate(752,227)"/>
<path d="M0 0 C2.6457 0.0292 5.2895 0.0205 7.9353 0.0076 C21.3113 0.022 34.5401 0.8332 46.574 7.2791 C47.2275 7.5968 47.8811 7.9146 48.5544 8.2419 C53.9904 11.0368 57.9585 14.4952 59.949 20.4666 C60.3782 25.6174 60.3265 29.3056 57.3943 33.8064 C48.4616 44.0669 33.6155 46.2346 20.949 48.4666 C20.0051 48.6393 19.0613 48.812 18.0889 48.99 C-3.0412 52.197 -29.843 50.7845 -48.051 38.4666 C-52.6195 34.1892 -56.071 30.6695 -56.801 24.2791 C-56.5865 18.692 -53.5388 15.5169 -49.7151 11.6931 C-36.4743 0.6267 -16.4971 -0.1978 0 0 Z " fill="#FA9197" transform="translate(374.051025390625,515.533447265625)"/>
<path d="M0 0 C0.8386 -0.0057 1.6772 -0.0114 2.5411 -0.0173 C4.3093 -0.0267 6.0775 -0.0332 7.8457 -0.0371 C10.4964 -0.0467 13.1463 -0.0778 15.7969 -0.1094 C33.8642 -0.2213 53.2645 1.2062 67.0312 14.2031 C70.2321 17.8889 70.5636 21.254 70.375 26 C69.496 31.6334 65.2331 35.4086 60.9766 38.8281 C47.8254 48.1237 29.6255 48.8755 14.0901 48.7246 C11.466 48.7031 8.8447 48.7246 6.2207 48.75 C-9.3536 48.7759 -28.2366 47.2438 -40.2227 36.1094 C-44.2352 31.6347 -46.425 28.6556 -46.3008 22.4219 C-45.5558 17.4436 -42.802 13.8859 -39.1602 10.543 C-27.8732 2.2004 -13.6753 0.0742 0 0 Z " fill="#FA9299" transform="translate(634.96875,515.796875)"/>
<path d="M0 0 C4.8166 3.0015 7.3001 5.5044 9.457 10.8672 C11.5539 23.1443 6.9519 32.5268 0.082 42.3203 C-7.4693 52.6669 -15.1134 61.724 -27.543 65.8672 C-33.4236 66.4652 -36.8873 65.8027 -41.7812 62.4375 C-44.6028 59.9225 -45.935 57.2761 -47.543 53.8672 C-47.873 53.2072 -48.203 52.5472 -48.543 51.8672 C-49.9768 37.2804 -42.5889 25.7065 -33.793 14.6172 C-25.7104 5.2143 -13.1952 -5.878 0 0 Z " fill="#FCB0B7" transform="translate(261.54296875,285.1328125)"/>
<path d="M0 0 C5.4972 3.2185 8.8519 8.1514 10.7891 14.1602 C12.268 20.9316 11.765 26.9908 8.6641 33.2148 C5.1496 38.5012 0.3281 42.4263 -5.7383 44.3242 C-13.0062 45.1491 -20.0232 45.5172 -26.0586 40.9453 C-32.2107 35.0078 -35.6919 29.088 -36.1133 20.4492 C-35.9323 13.3502 -33.1887 8.6393 -28.4258 3.5117 C-20.0419 -4.2683 -10.114 -4.5251 0 0 Z " fill="#2B1824" transform="translate(397.73828125,471.67578125)"/>
<path d="M0 0 C6.4643 3.6755 9.5518 8.1143 11.9648 15.1172 C13.3792 23.0718 11.5501 29.5389 6.9648 36.1172 C2.4721 41.1637 -1.9946 43.7514 -8.7969 44.3672 C-16.4625 44.675 -22.0151 43.8167 -27.75 38.5391 C-33.141 32.6867 -35.6697 26.652 -35.3789 18.668 C-34.3199 10.8095 -30.2017 4.9381 -24.0352 0.1172 C-16.087 -4.5317 -8.0441 -4.0998 0 0 Z " fill="#2A1823" transform="translate(649.03515625,471.8828125)"/>
<path d="M0 0 C2.625 2.1875 2.625 2.1875 5 5 C11.7088 12.2528 18.1178 16.0379 28 16.4375 C36.5185 16.3419 43.3001 13.5646 49.457 7.6328 C50.8376 6.0756 52.1825 4.4853 53.4766 2.8555 C55.5399 0.3424 56.5686 0.0479 59.8125 -0.3125 C63.8521 0.0835 65.2973 0.9884 68 4 C69.385 8.3181 69.2918 10.3191 67.5 14.5 C60.4062 25.2854 49.9558 31.1277 37.6484 34.3047 C23.4402 37.0125 11.4691 33.9853 -0.4453 26.0078 C-4.9417 22.474 -9.4155 18.169 -12 13 C-12.6884 6.0013 -12.6884 6.0013 -9.9375 2 C-6.2219 -0.5298 -4.4118 -0.7878 0 0 Z " fill="#2B1723" transform="translate(484,517)"/>
<path d="M0 0 C5.3283 3.2763 8.3409 8.2719 9.9102 14.2227 C10.31 17.6008 10.4332 20.9476 10.4727 24.3477 C10.4874 25.1947 10.5021 26.0416 10.5173 26.9143 C10.412 33.3808 9.0094 39.0317 4.3923 43.7854 C-0.251 47.7572 -3.4111 48.7561 -9.4141 48.6953 C-14.2219 47.846 -17.0898 44.9222 -20.0898 41.2227 C-25.0241 33.1188 -25.1623 22.4336 -24.0898 13.2227 C-22.5753 7.9937 -20.295 4.4278 -16.4648 0.5977 C-11.0699 -1.6003 -5.5447 -2.0624 0 0 Z " fill="#FCB0B8" transform="translate(223.08984375,362.77734375)"/>
<path d="M0 0 C3.9467 2.2811 6.9416 4.6764 8.5664 9.043 C9.093 13.7827 9.1068 15.9831 6.9414 20.2305 C1.4898 26.6863 -3.9753 30.5187 -12.4023 31.3281 C-18.0461 31.4888 -22.7561 31.5511 -27.4336 28.043 C-30.6066 24.6195 -31.7627 21.7423 -32.1211 17.168 C-31.8847 12.0972 -30.1785 9.3309 -26.6094 5.8047 C-18.9304 -0.413 -9.6705 -3.803 0 0 Z " fill="#FCAEB6" transform="translate(339.43359375,259.95703125)"/>
<path d="M0 0 C0.9446 0.1987 1.8891 0.3974 2.8623 0.6021 C20.3057 4.3861 37.114 9.8019 53 18 C53 18.33 53 18.66 53 19 C46.25 18.125 46.25 18.125 44 17 C44 16.34 44 15.68 44 15 C43.01 15.33 42.02 15.66 41 16 C41 15.34 41 14.68 41 14 C40.1131 13.8969 39.2262 13.7937 38.3125 13.6875 C30.2411 12.5138 22.353 10.4124 14.5269 8.1543 C-4.8054 2.5988 -23.4962 0.9724 -43.5625 0.875 C-44.3783 0.8702 -45.1941 0.8655 -46.0347 0.8606 C-51.7542 0.8771 -51.7542 0.8771 -54 2 C-55.976 2.1833 -57.9563 2.3221 -59.9375 2.4375 C-65.1765 2.8022 -70.2209 3.4675 -75.3672 4.5 C-77.327 4.8722 -79.2984 5.1844 -81.2734 5.4648 C-86.2185 6.175 -91.1222 7.0796 -96.0352 7.9824 C-99.0657 8.5288 -101.9136 9 -105 9 C-105.33 9.99 -105.66 10.98 -106 12 C-109.1021 14.2335 -112.3233 14.2665 -116.0391 14.6602 C-119.4919 15.2586 -121.9831 16.9369 -124.375 19.4375 C-129.1719 24.0499 -136.2052 26.6045 -142.1328 29.4375 C-145 31 -145 31 -147.6172 33.25 C-150 35 -150 35 -152.3125 34.75 C-152.8694 34.5025 -153.4263 34.255 -154 34 C-112.5548 0.8248 -51.5422 -10.952 0 0 Z " fill="#D75E69" transform="translate(371,217)"/>
<path d="M0 0 C-1.4944 0.2817 -2.9963 0.5235 -4.5 0.75 C-5.3353 0.8892 -6.1706 1.0284 -7.0312 1.1719 C-10.0548 0.9968 -11.1916 0.5029 -13.7773 -0.9102 C-18.1769 -3.2774 -22.1278 -3.8219 -27.0625 -4.1875 C-27.8896 -4.2608 -28.7167 -4.3341 -29.5688 -4.4097 C-32.0449 -4.6237 -34.5217 -4.8141 -37 -5 C-38.3711 -5.113 -39.7422 -5.2262 -41.1133 -5.3398 C-49.0914 -5.9446 -57.0022 -6.1833 -65 -6 C-65.3938 -5.9937 -65.3938 -5.9937 -67.3867 -5.9619 C-78.5735 -5.7571 -89.194 -4.8624 -100.1294 -2.4468 C-105.6253 -1.2337 -110.9512 -0.4894 -116.5898 -0.2734 C-119.3626 0.0411 -121.4984 0.7731 -124 2 C-124.33 2.66 -124.66 3.32 -125 4 C-126.707 4.7812 -126.707 4.7812 -128.8125 5.5 C-131.0184 6.2744 -133.0074 7.004 -135.0625 8.125 C-137 9 -137 9 -140.25 9.375 C-144.1897 10.0316 -146.714 11.2547 -150.1055 13.2578 C-152.4587 14.1797 -153.656 13.8212 -156 13 C-117.6666 -7.9329 -40.2552 -26.8368 0 0 Z " fill="#DC727B" transform="translate(754,224)"/>
<path d="M0 0 C2.625 2.1875 2.625 2.1875 5 5 C11.7088 12.2528 18.1178 16.0379 28 16.4375 C36.5185 16.3419 43.3001 13.5646 49.457 7.6328 C50.8376 6.0756 52.1825 4.4853 53.4766 2.8555 C55.5399 0.3424 56.5686 0.0479 59.8125 -0.3125 C63.8521 0.0835 65.2973 0.9884 68 4 C69.385 8.3181 69.2918 10.3191 67.5 14.5 C60.4062 25.2854 49.9558 31.1277 37.6484 34.3047 C23.4402 37.0125 11.4691 33.9853 -0.4453 26.0078 C-4.9417 22.474 -9.4155 18.169 -12 13 C-12.6884 6.0013 -12.6884 6.0013 -9.9375 2 C-6.2219 -0.5298 -4.4118 -0.7878 0 0 Z M-10 4 C-9.8303 10.6661 -8.4771 15.8813 -4 21 C-3.34 21 -2.68 21 -2 21 C-2 21.66 -2 22.32 -2 23 C6.8502 29.7613 18.8515 34.3915 30 33 C31.2079 32.8917 32.4157 32.7834 33.6602 32.6719 C40.8818 31.9035 46.886 31.0352 53 27 C53.165 26.505 53.165 26.505 54 24 C54.99 23.67 55.98 23.34 57 23 C61.1724 19.2449 65.4839 14.8486 66 9 C65.4114 6.6458 64.7541 4.3066 64 2 C60.707 1.3292 59.1651 1.0597 56 2 C53.5938 4.3086 53.5938 4.3086 51.125 7.25 C45.2279 14.1715 40.7315 16.6479 31.7188 17.4336 C22.1453 17.9614 15.7594 17.0143 8 11 C7.3013 10.6803 6.6027 10.3606 5.8828 10.0312 C2.6272 8.2481 1.6733 5.2271 0 2 C-6.625 1.75 -6.625 1.75 -10 4 Z " fill="#4F0F1B" transform="translate(484,517)"/>
<path d="M0 0 C3.2312 1.7298 5.5511 3.8135 6.875 7.3125 C6.9162 7.8694 6.9575 8.4262 7 9 C7.99 9 8.98 9 10 9 C10 9.66 10 10.32 10 11 C11.6631 11.6756 13.3309 12.3393 15 13 C16.1756 13.5362 17.3512 14.0725 18.5625 14.625 C25.56 17.254 33.8053 16.5988 41 15 C41 14.34 41 13.68 41 13 C45.3529 9 45.3529 9 49 9 C49.2269 8.2575 49.4538 7.515 49.6875 6.75 C51.3325 3.3034 52.7016 1.936 56 0 C58.7613 -0.3227 61.2041 -0.1896 64 0 C64 0.66 64 1.32 64 2 C64.6187 2.1031 65.2375 2.2062 65.875 2.3125 C68 3 68 3 70 6 C70.6907 10.7383 70.8149 14.7354 68.1875 18.8125 C67.4656 19.5344 66.7437 20.2563 66 21 C65.5733 21.7863 65.1466 22.5727 64.707 23.3828 C59.6918 31.0721 48.775 36.0488 40 38 C37.1929 38.4048 34.3909 38.671 31.5625 38.875 C30.8758 38.9245 30.189 38.9741 29.4814 39.0251 C25.7755 39.1976 23.1375 39.0703 20 37 C20.8482 36.9742 21.6964 36.9484 22.5703 36.9219 C38.1792 36.1672 51.8993 32.569 63.0625 21.125 C65.6234 18.1001 67.5816 15.6098 68.375 11.6875 C68 8 68 8 65.9375 5 C63 3 63 3 60 2.375 C55.951 3.2186 54.7488 4.9239 52 8 C44.9482 14.9586 38.6697 19.1322 28.5625 19.5 C19.583 19.1958 12.3559 16.3559 6 10 C4.9664 8.3539 3.9594 6.6904 3 5 C-0.7206 2.5196 -2.598 2.5366 -7 3 C-9.4375 4.375 -9.4375 4.375 -11 7 C-11.3213 10.3606 -11.2311 13.6356 -11 17 C-11.66 17 -12.32 17 -13 17 C-15.5125 13.2312 -15.5302 11.4685 -15 7 C-11.3401 0.8911 -7.0455 -1.1764 0 0 Z " fill="#D0515E" transform="translate(484,515)"/>
<path d="M0 0 C14.5194 21.779 12.1738 64.2227 7.4146 89.0547 C6.1049 95.0791 4.5952 101.0454 3 107 C2.67 107 2.34 107 2 107 C2.1118 103.7077 2.2419 100.4165 2.375 97.125 C2.4059 96.2072 2.4369 95.2894 2.4688 94.3438 C2.6602 89.8128 3.0221 85.5332 4.0234 81.1055 C5.3156 75.136 5.2994 69.2747 5.25 63.1875 C5.2454 62.0062 5.2408 60.825 5.2361 59.6079 C5.1445 50.6154 4.5025 41.7714 3.5039 32.8398 C2.8949 27.3477 2.6131 21.8474 2.4299 16.3257 C2.2691 12.6783 1.755 10.1801 0 7 C-0.0777 4.668 -0.0897 2.3316 0 0 Z " fill="#B92F3B" transform="translate(870,336)"/>
<path d="M0 0 C1.1872 0.0039 2.3745 0.0077 3.5977 0.0117 C9.8855 0.578 12.6579 2.8134 16.9375 7.3125 C17.6387 7.725 18.34 8.1375 19.0625 8.5625 C24.0016 13.1723 24.2203 20.2999 24.5 26.6875 C24.3785 34.2302 22.118 39.1634 17.9375 45.3125 C17.7725 45.6425 17.7725 45.6425 16.9375 47.3125 C18.2279 47.3615 19.5182 47.4105 20.8477 47.4609 C22.5651 47.536 24.2826 47.6116 26 47.6875 C26.8476 47.7184 27.6951 47.7494 28.5684 47.7812 C33.6571 48.017 38.0567 48.7326 42.9375 50.3125 C43.9455 50.5587 44.9536 50.8049 45.9922 51.0586 C46.9229 51.2868 47.8536 51.5149 48.8125 51.75 C49.7587 51.9756 50.7048 52.2012 51.6797 52.4336 C52.4248 52.7236 53.1698 53.0137 53.9375 53.3125 C54.2675 54.3025 54.5975 55.2925 54.9375 56.3125 C54.3291 56.1307 53.7206 55.949 53.0938 55.7617 C36.9865 51.1427 21.6283 49.7096 4.9375 49.3125 C5.2366 49.1662 5.2366 49.1662 6.75 48.4258 C13.6097 44.9347 18.5378 40.693 21.3906 33.3867 C23.3795 25.8434 22.2787 19.2152 18.4922 12.4766 C14.8933 7.467 9.9391 4.607 3.9375 3.3125 C-2.9185 2.561 -8.4311 3.1385 -14.0625 7.3125 C-20.0978 12.9073 -23.0207 17.9021 -23.4375 26.1875 C-23.3753 30.7639 -22.2012 33.8388 -19.8398 37.7188 C-19.5833 38.2447 -19.3268 38.7706 -19.0625 39.3125 C-19.3925 39.9725 -19.7225 40.6325 -20.0625 41.3125 C-24.0219 38.073 -24.8996 33.9282 -25.3984 28.9805 C-25.4796 21.7465 -25.4864 15.3181 -21.0625 9.3125 C-15.0515 3.5062 -8.4541 -0.1196 0 0 Z " fill="#D1515F" transform="translate(638.0625,466.6875)"/>
<path d="M0 0 C5.4972 3.2185 8.8519 8.1514 10.7891 14.1602 C12.2669 20.9264 11.7733 26.9957 8.6602 33.2109 C5.4048 38.1303 1.4892 41.7276 -4.2383 43.2617 C-5.0633 43.2823 -5.8883 43.303 -6.7383 43.3242 C-5.4183 42.6642 -4.0983 42.0042 -2.7383 41.3242 C-2.7383 40.6642 -2.7383 40.0042 -2.7383 39.3242 C-1.7483 39.3242 -0.7583 39.3242 0.2617 39.3242 C0.2617 38.6642 0.2617 38.0042 0.2617 37.3242 C0.9011 37.0767 1.5405 36.8292 2.1992 36.5742 C4.2617 35.3242 4.2617 35.3242 4.8867 33.2617 C4.9486 32.942 4.9486 32.942 5.2617 31.3242 C5.9217 30.9942 6.5817 30.6642 7.2617 30.3242 C9.4434 24.2546 9.1853 16.5562 6.7617 10.6992 C6.2667 9.9155 5.7717 9.1317 5.2617 8.3242 C5.2617 7.6642 5.2617 7.0042 5.2617 6.3242 C3.9417 6.3242 2.6217 6.3242 1.2617 6.3242 C1.0967 5.9942 1.0967 5.9942 0.2617 4.3242 C-5.1289 0.8491 -9.9995 -0.267 -16.3125 0.7148 C-23.5784 2.5401 -27.9256 5.6634 -31.8203 12.1172 C-34.0903 17.5748 -33.605 25.0011 -31.4258 30.4492 C-29.7383 33.3242 -29.7383 33.3242 -26.7383 35.3242 C-26.7383 35.9842 -26.7383 36.6442 -26.7383 37.3242 C-25.7483 37.3242 -24.7583 37.3242 -23.7383 37.3242 C-23.7383 38.3142 -23.7383 39.3042 -23.7383 40.3242 C-21.7583 40.6542 -19.7783 40.9842 -17.7383 41.3242 C-17.7383 41.9842 -17.7383 42.6442 -17.7383 43.3242 C-17.0783 43.6542 -16.4183 43.9842 -15.7383 44.3242 C-21.5846 43.7674 -25.4276 41.9045 -29.3789 37.4922 C-34.2944 31.2523 -36.25 25.8148 -36.0469 17.8438 C-35.1354 10.4017 -30.4414 4.8915 -24.7383 0.3242 C-16.6677 -4.3963 -8.3344 -3.7289 0 0 Z " fill="#50111D" transform="translate(397.73828125,471.67578125)"/>
<path d="M0 0 C0.33 0 0.66 0 1 0 C1.0271 1.9166 1.0465 3.8333 1.0625 5.75 C1.0741 6.8173 1.0857 7.8847 1.0977 8.9844 C1.0151 11.5337 0.7462 13.5793 0 16 C-0.66 16 -1.32 16 -2 16 C-2.0467 23.4681 -2.0821 30.9362 -2.1036 38.4044 C-2.114 41.8736 -2.128 45.3426 -2.1509 48.8118 C-2.1771 52.8159 -2.1865 56.82 -2.1953 60.8242 C-2.2056 62.0477 -2.216 63.2711 -2.2266 64.5317 C-2.2276 72.482 -1.6843 80.2109 0 88 C0.33 88.33 0.66 88.66 1 89 C1.1412 91.6706 1.0425 94.3243 1 97 C1.66 97 2.32 97 3 97 C3.8448 99.3715 4.6759 101.7463 5.5 104.125 C5.7385 104.7902 5.977 105.4553 6.2227 106.1406 C7.6271 110.2335 8.2734 113.6113 8 118 C4.7636 114.7636 3.9884 110.4895 2.625 106.1875 C2.3148 105.2108 2.0046 104.2341 1.6851 103.2278 C-8.7286 69.3684 -8.2489 34.2827 0 0 Z " fill="#D97E88" transform="translate(152,344)"/>
<path d="M0 0 C0 0.66 0 1.32 0 2 C-0.99 2.33 -1.98 2.66 -3 3 C-4.6887 4.6443 -6.3531 6.3138 -8 8 C-8.7838 8.5981 -9.5675 9.1963 -10.375 9.8125 C-12.704 11.7533 -14.3945 13.615 -16.3125 15.9375 C-18.6361 18.6668 -20.6966 20.6097 -23.8125 22.375 C-29.5138 25.6281 -36.0344 31.0687 -39 37 C-39.66 37 -40.32 37 -41 37 C-41.2475 37.5981 -41.495 38.1963 -41.75 38.8125 C-43 41 -43 41 -44.8945 42.2695 C-47.5941 44.4883 -48.5088 46.701 -49.9375 49.875 C-52.1794 54.5915 -54.2038 57.5201 -58 61 C-59.3125 63.8125 -59.3125 63.8125 -60 66 C-60.99 65.67 -61.98 65.34 -63 65 C-61.3923 60.2682 -58.8187 56.4509 -56 52.375 C-55.5131 51.6686 -55.0261 50.9622 -54.5244 50.2344 C-50.1448 43.998 -45.2573 38.5175 -40 33 C-38.7 31.5282 -37.4075 30.0496 -36.125 28.5625 C-31.3421 23.0819 -31.3421 23.0819 -29 21 C-28.34 21 -27.68 21 -27 21 C-27 20.34 -27 19.68 -27 19 C-21.3102 13.6121 -14.7841 9.0214 -8.4375 4.4375 C-7.8302 3.996 -7.2229 3.5545 -6.5972 3.0996 C-2.2422 0 -2.2422 0 0 0 Z " fill="#DE7982" transform="translate(583,247)"/>
<path d="M0 0 C0.99 0.33 1.98 0.66 3 1 C2.3851 1.941 1.7702 2.882 1.1367 3.8516 C0.3201 5.1093 -0.4962 6.3671 -1.3125 7.625 C-1.7166 8.2425 -2.1207 8.8599 -2.5371 9.4961 C-8.1451 18.1588 -11.0988 25.5535 -10 36 C-8.6658 40.8948 -6.3978 44.0851 -2.25 47 C1.8005 49.2087 5.4544 49.9108 10 49 C16.9327 46.9287 21.9423 43.0577 27 38 C27.6587 37.3413 28.3174 36.6826 28.9961 36.0039 C34.7092 29.9345 38.8294 23.1765 43 16 C43.7975 18.32 44.1143 19.6198 43.3984 22 C43.0607 22.66 42.723 23.32 42.375 24 C42.0527 24.66 41.7305 25.32 41.3984 26 C39.6226 28.5397 37.4229 30.0754 35 32 C33.5198 33.7353 32.0832 35.5085 30.6875 37.3125 C23.8066 45.7639 19.452 50.689 8.2109 51.9336 C3.7866 52.0251 0.2236 51.2886 -4 50 C-4 49.34 -4 48.68 -4 48 C-4.66 48 -5.32 48 -6 48 C-7.2891 46.5391 -7.2891 46.5391 -8.625 44.625 C-9.071 43.9985 -9.517 43.372 -9.9766 42.7266 C-11 41 -11 41 -11 39 C-11.66 39 -12.32 39 -13 39 C-13.533 27.8663 -12.8974 17.6283 -5.4961 8.8242 C-3.2532 6.0894 -1.6814 3.1042 0 0 Z " fill="#DF5361" transform="translate(224,301)"/>
<path d="M0 0 C0 3 0 3 -1.8602 5.221 C-2.7307 6.0848 -3.6012 6.9486 -4.498 7.8386 C-4.737 8.0778 -4.737 8.0778 -5.9463 9.2882 C-7.5301 10.8699 -9.1243 12.4407 -10.7188 14.0117 C-11.818 15.1054 -12.9166 16.1997 -14.0145 17.2946 C-16.908 20.1766 -19.8103 23.0495 -22.7145 25.9205 C-25.6758 28.8511 -28.6285 31.7902 -31.582 34.7285 C-37.3798 40.494 -43.1869 46.25 -49 52 C-49.66 51.67 -50.32 51.34 -51 51 C-50.3606 50.4225 -49.7213 49.845 -49.0625 49.25 C-47.0178 47.0194 -46.4179 45.9256 -46 43 C-45.01 43 -44.02 43 -43 43 C-43 42.01 -43 41.02 -43 40 C-42.34 40 -41.68 40 -41 40 C-40.7319 39.4019 -40.4638 38.8038 -40.1875 38.1875 C-39.0008 36.0015 -37.904 34.5867 -36 33 C-35.34 33 -34.68 33 -34 33 C-34 32.34 -34 31.68 -34 31 C-33.34 31 -32.68 31 -32 31 C-32 30.34 -32 29.68 -32 29 C-31.34 29 -30.68 29 -30 29 C-30 28.34 -30 27.68 -30 27 C-27 25 -27 25 -24 25 C-23.67 23.35 -23.34 21.7 -23 20 C-22.01 19.67 -21.02 19.34 -20 19 C-20 18.01 -20 17.02 -20 16 C-18.3637 14.9511 -16.6951 13.9509 -15 13 C-14.67 12.34 -14.34 11.68 -14 11 C-13.01 11 -12.02 11 -11 11 C-11 9.68 -11 8.36 -11 7 C-10.01 7 -9.02 7 -8 7 C-7.7525 6.3606 -7.505 5.7213 -7.25 5.0625 C-6 3 -6 3 -4 2.375 C-3.34 2.2513 -2.68 2.1275 -2 2 C-1.34 1.34 -0.68 0.68 0 0 Z " fill="#CC606C" transform="translate(735,652)"/>
<path d="M0 0 C-0.66 0.33 -1.32 0.66 -2 1 C-2 1.66 -2 2.32 -2 3 C-6.8477 4.7726 -11.6203 5.7681 -16.6875 6.625 C-17.4461 6.7591 -18.2047 6.8931 -18.9863 7.0312 C-22.0275 7.5573 -24.9078 8 -28 8 C-28.33 8.99 -28.66 9.98 -29 11 C-32.1021 13.2335 -35.3233 13.2665 -39.0391 13.6602 C-42.4919 14.2586 -44.9831 15.9369 -47.375 18.4375 C-52.1719 23.0499 -59.2052 25.6045 -65.1328 28.4375 C-68 30 -68 30 -70.6172 32.25 C-73 34 -73 34 -75.3125 33.75 C-75.8694 33.5025 -76.4263 33.255 -77 33 C-58.6124 18.2815 -24.5643 -2.0176 0 0 Z " fill="#DD838C" transform="translate(294,218)"/>
<path d="M0 0 C1 2 1 2 0.5469 4.0586 C0.2839 4.8436 0.0209 5.6287 -0.25 6.4375 C-0.5027 7.22 -0.7553 8.0024 -1.0156 8.8086 C-2.0546 11.1215 -3.029 12.4201 -5 14 C-5.66 14 -6.32 14 -7 14 C-6.9433 14.7283 -6.8866 15.4566 -6.8281 16.207 C-7.0314 19.5109 -7.9251 20.9547 -9.75 23.6875 C-11.9059 27.0825 -13.6126 30.2884 -15 34.0625 C-16.649 38.4714 -18.9059 41.9823 -21.6055 45.8164 C-23.6742 49.0556 -24.8075 52.3563 -26 56 C-28.1519 49.5442 -23.1844 40.385 -20.3164 34.3203 C-19.1476 31.9827 -17.9574 29.6557 -16.7461 27.3398 C-15.6319 25.2086 -14.5569 23.056 -13.5352 20.8789 C-9.8872 13.108 -5.3346 6.686 0 0 Z " fill="#E28892" transform="translate(180,288)"/>
<path d="M0 0 C7.0296 0.4962 13.5901 1.6758 20.375 3.5625 C21.316 3.8214 22.257 4.0802 23.2266 4.3469 C35.2031 7.7604 46.9333 12.2716 58 18 C58 18.33 58 18.66 58 19 C51.25 18.125 51.25 18.125 49 17 C49 16.34 49 15.68 49 15 C48.01 15.33 47.02 15.66 46 16 C46 15.34 46 14.68 46 14 C45.1131 13.8969 44.2262 13.7937 43.3125 13.6875 C31.3206 11.9437 19.6341 8.3035 8 5 C8 4.34 8 3.68 8 3 C6.8656 2.8762 5.7312 2.7525 4.5625 2.625 C3.3869 2.4187 2.2113 2.2125 1 2 C0.67 1.34 0.34 0.68 0 0 Z " fill="#DD737E" transform="translate(366,217)"/>
<path d="M0 0 C0 0.66 0 1.32 0 2 C0.5943 2.2514 1.1885 2.5027 1.8008 2.7617 C6.3281 5.3109 9.4411 10.0839 10.875 15 C10.9162 15.66 10.9575 16.32 11 17 C11.66 17 12.32 17 13 17 C13.5685 29.8237 13.5685 29.8237 10 36 C9.67 36.165 9.67 36.165 8 37 C8.33 35.8863 8.66 34.7725 9 33.625 C10.936 25.7418 10.8488 18.2594 7 11 C3.2324 5.0632 -1.2296 2.7542 -8 1 C-13.892 0.1291 -18.894 0.6362 -24.1133 3.5898 C-28.6013 6.9442 -31.9155 11.3733 -35 16 C-34.5905 10.7785 -33.8126 7.7005 -30 4 C-29.01 4 -28.02 4 -27 4 C-27 3.34 -27 2.68 -27 2 C-26.01 2 -25.02 2 -24 2 C-24 1.34 -24 0.68 -24 0 C-16.6606 -3.2619 -7.3394 -3.2619 0 0 Z " fill="#D05160" transform="translate(398,469)"/>
<path d="M0 0 C3.7769 3.0929 5.3833 5.6797 6.6875 10.375 C6.2461 12.5859 6.2461 12.5859 5.6875 14.375 C5.5418 14.0373 5.5418 14.0373 4.8047 12.3281 C0.377 2.6929 0.377 2.6929 -5.3125 0.375 C-10.1251 -0.2275 -14.5337 -0.1664 -19.1875 1.25 C-24.9121 6.9746 -26.785 13.2446 -26.8125 21.25 C-26.6978 28.2241 -25.43 34.7201 -23.3125 41.375 C-23.9725 41.375 -24.6325 41.375 -25.3125 41.375 C-29.6463 28.3735 -31.5769 17.7612 -25.7969 4.8633 C-23.2751 0.636 -21.2364 -1.3016 -16.5625 -2.9375 C-10.1533 -4.2312 -5.3825 -3.6802 0 0 Z " fill="#E05663" transform="translate(226.3125,362.625)"/>
<path d="M0 0 C12.1355 18.2032 11.0549 51.0022 9.5 72.1875 C9.4072 73.4804 9.3144 74.7734 9.2188 76.1055 C9.1466 77.0607 9.0744 78.0159 9 79 C8.67 79 8.34 79 8 79 C7.67 67.12 7.34 55.24 7 43 C6.67 43 6.34 43 6 43 C5.8672 42.2523 5.7345 41.5047 5.5977 40.7344 C5.5094 40.242 5.5094 40.242 5.0625 37.75 C4.8885 36.7755 4.7145 35.8009 4.5352 34.7969 C4.232 33.2124 3.9008 31.6311 3.4819 30.0732 C2.5111 25.8969 2.6313 21.4779 2.4824 17.1992 C2.3005 13.2789 1.946 10.4074 0 7 C-0.0777 4.668 -0.0897 2.3316 0 0 Z " fill="#D28088" transform="translate(870,336)"/>
<path d="M0 0 C0 1.32 0 2.64 0 4 C-2.1875 5.5 -2.1875 5.5 -5 7 C-9.8087 10.1694 -9.8087 10.1694 -10.6289 13.7305 C-11.0013 17.0119 -11.1678 20.1979 -11.1875 23.5 C-11.2017 24.5828 -11.2159 25.6656 -11.2305 26.7812 C-10.9857 30.1993 -10.3526 32.8546 -9 36 C-6.375 37.375 -6.375 37.375 -4 38 C-4 38.66 -4 39.32 -4 40 C-3.6391 40.0619 -3.6391 40.0619 -1.8125 40.375 C1 41 1 41 3.4375 42 C6.2795 43.1091 8.9859 43.5794 12 44 C12 44.33 12 44.66 12 45 C5.0746 45.5109 -0.2756 45.1856 -6 41 C-11.6532 35.8211 -15.0653 29.8941 -15.4375 22.125 C-15.1309 13.706 -11.6057 7.9906 -5.5859 2.3125 C-3.6434 0.7049 -2.548 0 0 0 Z " fill="#511522" transform="translate(629,471)"/>
<path d="M0 0 C0.66 0.33 1.32 0.66 2 1 C-1.0927 4.7885 -4.1101 8.1875 -7.875 11.3125 C-11.8685 14.694 -14.9754 18.5152 -18.1406 22.668 C-19.9807 24.9758 -21.7719 27.0615 -24 29 C-24.99 29 -25.98 29 -27 29 C-27.2269 29.5981 -27.4538 30.1963 -27.6875 30.8125 C-29.3381 33.5635 -31.1972 34.5248 -34 36 C-27.4138 21.7299 -12.4409 9.2303 0 0 Z " fill="#DF7580" transform="translate(215,252)"/>
<path d="M0 0 C8.7133 -0.6549 14.3255 1.2378 21.75 5.625 C26.5458 10.6872 29.2777 16.5038 29.625 23.5 C29.2246 31.1504 26.1042 37.4331 20.4375 42.5625 C18.0236 44.5305 16.0579 45.4045 13 46 C13 45.34 13 44.68 13 44 C13.825 43.835 13.825 43.835 18 43 C18 42.01 18 41.02 18 40 C18.66 39.34 19.32 38.68 20 38 C20.99 38 21.98 38 23 38 C23.1237 37.4431 23.2475 36.8863 23.375 36.3125 C24 34 24 34 25.0625 31.875 C27.3161 24.9638 26.4865 18.4254 23.2734 11.9766 C20.5415 7.7362 16.6459 4.9193 12 3 C9.9257 2.7152 7.8393 2.5113 5.75 2.375 C4.6723 2.3002 3.5947 2.2255 2.4844 2.1484 C1.6645 2.0995 0.8447 2.0505 0 2 C0 1.34 0 0.68 0 0 Z " fill="#55101D" transform="translate(632,469)"/>
<path d="M0 0 C0 0.66 0 1.32 0 2 C0.5981 2.1237 1.1963 2.2475 1.8125 2.375 C4 3 4 3 7 5 C7 5.99 7 6.98 7 8 C7.66 8 8.32 8 9 8 C12.0203 14.7957 11.9506 23.0166 10.1875 30.1875 C9.7956 31.1156 9.4038 32.0437 9 33 C8.01 33.33 7.02 33.66 6 34 C6.33 33.1338 6.66 32.2675 7 31.375 C8.926 24.5363 9.713 15.3699 6.4375 8.875 C2.9596 4.7729 -0.0762 2.5209 -5.3242 1.5859 C-14.1543 1.0592 -20.8343 4.9423 -27.375 10.5625 C-29.9796 12.9773 -32.5399 15.4374 -35 18 C-35 17.01 -35 16.02 -35 15 C-34.34 15 -33.68 15 -33 15 C-32.7525 14.2575 -32.505 13.515 -32.25 12.75 C-30.8865 9.7503 -29.5413 8.0792 -27 6 C-26.01 6 -25.02 6 -24 6 C-24 5.34 -24 4.68 -24 4 C-15.9733 -0.1428 -8.9298 -0.4632 0 0 Z " fill="#DE5361" transform="translate(262,283)"/>
<path d="M0 0 C5.5 -0.3667 5.5 -0.3667 7.875 1.375 C9 3 9 3 9 5 C9.99 5.33 10.98 5.66 12 6 C12 6.66 12 7.32 12 8 C12.7013 8.2062 13.4025 8.4125 14.125 8.625 C16.8211 9.9144 17.9515 10.8257 19.9375 12.9375 C22.6426 15.8112 25.3454 17.4337 29 19 C29 19.66 29 20.32 29 21 C29.5569 21.1856 30.1137 21.3713 30.6875 21.5625 C34.0675 23.6636 35.8514 26.7067 38 30 C35.1725 28.6724 32.7534 27.178 30.2773 25.2773 C29.5791 24.743 28.8808 24.2087 28.1614 23.6582 C27.4275 23.0904 26.6936 22.5225 25.9375 21.9375 C25.1811 21.3555 24.4246 20.7735 23.6453 20.1738 C17.6698 15.5589 11.8003 10.8336 6 6 C5.34 5.4638 4.68 4.9275 4 4.375 C2.6476 3.273 1.3195 2.1412 0 1 C0 0.67 0 0.34 0 0 Z " fill="#DE7C87" transform="translate(392,748)"/>
<path d="M0 0 C-6.0644 3.1547 -11.6069 4.6292 -18.3984 5.4102 C-21.3198 6.0725 -22.042 6.8391 -24 9 C-25.9023 9.8789 -25.9023 9.8789 -27.9375 10.5625 C-30.108 11.3163 -32.042 12.0229 -34.0625 13.125 C-36 14 -36 14 -39.25 14.375 C-43.1897 15.0316 -45.714 16.2547 -49.1055 18.2578 C-51.4587 19.1797 -52.656 18.8212 -55 18 C-13.6843 -4.5614 -13.6843 -4.5614 0 0 Z " fill="#DD7F87" transform="translate(653,219)"/>
<path d="M0 0 C6.7486 -0.3191 12.594 0.8694 19.125 2.5 C31.3699 5.5325 31.3699 5.5325 36 5 C36.66 4.34 37.32 3.68 38 3 C41.1172 2.5156 41.1172 2.5156 44.875 2.25 C46.1099 2.152 47.3448 2.0541 48.6172 1.9531 C51.8341 1.9977 53.3543 2.2717 56 4 C36.8729 9.1662 18.5997 7.8525 0 1 C0 0.67 0 0.34 0 0 Z " fill="#CA6C75" transform="translate(480,810)"/>
<path d="M0 0 C4.5733 2.3963 7.6834 5.4926 11.125 9.25 C11.4059 9.5545 11.4059 9.5545 12.8276 11.0955 C19.8782 18.8832 27.1607 27.6384 32 37 C31.67 37.66 31.34 38.32 31 39 C30.34 38.67 29.68 38.34 29 38 C29 37.01 29 36.02 29 35 C28.01 35 27.02 35 26 35 C25.67 33.02 25.34 31.04 25 29 C24.6184 28.9691 24.6184 28.9691 22.6875 28.8125 C20 28 20 28 18.1875 25.625 C17 23 17 23 17 20 C16.398 19.942 15.796 19.884 15.1758 19.8242 C12.0225 18.6297 11.5945 16.8172 10.1875 13.8125 C7.4765 8.4737 4.678 5.6488 0 2 C0 1.34 0 0.68 0 0 Z " fill="#D3727A" transform="translate(822,263)"/>
<path d="M0 0 C0.66 0 1.32 0 2 0 C2 0.66 2 1.32 2 2 C2.6188 2.0412 3.2375 2.0825 3.875 2.125 C4.5762 2.4138 5.2775 2.7025 6 3 C7.25 6.0625 7.25 6.0625 8 9 C8.99 9 9.98 9 11 9 C13.1519 12.2279 13.2009 13.284 13 17 C13.66 17 14.32 17 15 17 C15 17.66 15 18.32 15 19 C15.99 19.33 16.98 19.66 18 20 C18.33 21.65 18.66 23.3 19 25 C19.99 25 20.98 25 22 25 C24.426 27.9806 25.9133 30.0032 26.25 33.875 C26.1675 34.5762 26.085 35.2775 26 36 C21.5949 31.8891 18.1708 27.3411 14.6875 22.4375 C14.1201 21.6448 13.5526 20.8521 12.968 20.0354 C0 1.8411 0 1.8411 0 0 Z " fill="#E07F8A" transform="translate(202,544)"/>
<path d="M0 0 C1.2278 2.4556 0.9704 3.8356 0.8125 6.5625 C0.7524 13.5057 3.2072 18.8989 7.375 24.375 C10.089 27.089 12.4779 28.5256 16 30 C16 30.33 16 30.66 16 31 C15.3859 31.0198 14.7718 31.0396 14.1392 31.0601 C11.3007 31.1565 8.4629 31.2657 5.625 31.375 C4.6595 31.4059 3.694 31.4369 2.6992 31.4688 C-2.9398 31.6958 -8.2353 32.2914 -13.7329 33.5845 C-16.1981 34.0363 -18.4992 34.0679 -21 34 C-18.4021 31.4021 -16.6654 31.4572 -13.0625 30.9375 C-9.8845 30.4703 -7.0508 30.0169 -4 29 C-2.1053 28.9315 -0.2083 28.9152 1.6875 28.9375 C2.6814 28.9465 3.6752 28.9555 4.6992 28.9648 C5.0788 28.9706 5.0788 28.9706 7 29 C6.5063 28.3245 6.0126 27.6491 5.5039 26.9531 C4.8632 26.0611 4.2226 25.1691 3.5625 24.25 C2.9244 23.3683 2.2863 22.4866 1.6289 21.5781 C-1.2658 16.9965 -1.1362 13.1951 -1.125 7.8125 C-1.1263 7.1867 -1.1263 7.1867 -1.1328 4.0195 C-1 1 -1 1 0 0 Z " fill="#D75661" transform="translate(362,485)"/>
<path d="M0 0 C0 3 0 3 -1 5 C-0.3548 5.0245 -0.3548 5.0245 2.9102 5.1484 C4.6276 5.2235 6.3451 5.2991 8.0625 5.375 C8.9101 5.4059 9.7576 5.4369 10.6309 5.4688 C15.7196 5.7045 20.1192 6.4201 25 8 C26.008 8.2462 27.0161 8.4924 28.0547 8.7461 C28.9854 8.9743 29.9161 9.2024 30.875 9.4375 C31.3481 9.5503 31.3481 9.5503 33.7422 10.1211 C34.1147 10.2661 34.1147 10.2661 36 11 C36.165 11.495 36.165 11.495 37 14 C36.3916 13.8182 35.7831 13.6365 35.1562 13.4492 C19.049 8.8302 3.6908 7.3971 -13 7 C-12.6943 6.8483 -12.6943 6.8483 -11.1475 6.0806 C-8.8118 4.9053 -6.5324 3.6504 -4.25 2.375 C-3.4508 1.929 -2.6516 1.483 -1.8281 1.0234 C-1.2248 0.6857 -0.6216 0.348 0 0 Z " fill="#E15864" transform="translate(656,509)"/>
<path d="M0 0 C0.5852 0.1818 1.1705 0.3635 1.7734 0.5508 C25.036 7.3619 49.1267 7.7712 73 4 C70.6676 6.7713 69.1352 7.4277 65.5547 7.7656 C65.1044 7.8086 65.1044 7.8086 62.8254 8.0264 C61.8518 8.1002 60.8781 8.174 59.875 8.25 C58.8698 8.3315 57.8645 8.4131 56.8289 8.4971 C48.9712 9.0468 41.1812 9.043 33.3125 8.75 C32.2444 8.7117 31.1762 8.6733 30.0757 8.6338 C25.4535 8.4055 22.1051 8.2182 18 6 C16.0523 5.6094 14.0916 5.2802 12.125 5 C7.8996 4.3491 4.0035 3.5569 0 2 C0 1.34 0 0.68 0 0 Z " fill="#E3525E" transform="translate(333,558)"/>
<path d="M0 0 C-4.3016 3.7423 -8.6102 7.4763 -12.9253 11.2031 C-14.8843 12.8998 -16.8352 14.6054 -18.7852 16.3125 C-19.9398 17.3129 -21.0947 18.3129 -22.25 19.3125 C-22.7858 19.786 -23.3217 20.2595 -23.8738 20.7473 C-27.6589 24 -27.6589 24 -31 24 C-30.67 22.68 -30.34 21.36 -30 20 C-29.01 20 -28.02 20 -27 20 C-27 19.01 -27 18.02 -27 17 C-24 15 -24 15 -20 15 C-20 14.34 -20 13.68 -20 13 C-19.01 13 -18.02 13 -17 13 C-17.33 12.01 -17.66 11.02 -18 10 C-16.68 10 -15.36 10 -14 10 C-14 8.68 -14 7.36 -14 6 C-12.68 6 -11.36 6 -10 6 C-10 5.01 -10 4.02 -10 3 C-9.01 3 -8.02 3 -7 3 C-6.67 2.01 -6.34 1.02 -6 0 C-3.4253 -0.9967 -2.5107 -1.2554 0 0 Z " fill="#D06F7A" transform="translate(666,722)"/>
<path d="M0 0 C1.227 3.681 0.6318 4.6667 -0.7305 8.2266 C-1.1217 9.2591 -1.5129 10.2916 -1.916 11.3555 C-2.3356 12.4344 -2.7552 13.5134 -3.1875 14.625 C-3.5878 15.6807 -3.988 16.7365 -4.4004 17.8242 C-6.75 23.9706 -9.2491 30.0224 -12 36 C-12.33 36 -12.66 36 -13 36 C-12.835 34.515 -12.835 34.515 -12 27 C-11.34 27 -10.68 27 -10 27 C-9.8969 25.7419 -9.7938 24.4837 -9.6875 23.1875 C-9.0739 17.6737 -7.9431 12.2064 -6 7 C-5.34 6.67 -4.68 6.34 -4 6 C-4 7.65 -4 9.3 -4 11 C-2.68 7.37 -1.36 3.74 0 0 Z " fill="#D16E78" transform="translate(871,445)"/>
<path d="M0 0 C0.33 0.165 0.33 0.165 2 1 C2.5977 3.9062 2.5977 3.9062 3.0625 7.5 C3.9049 13.9049 3.9049 13.9049 5 15 C5.1412 17.6706 5.0425 20.3243 5 23 C5.66 23 6.32 23 7 23 C7.8448 25.3715 8.6759 27.7463 9.5 30.125 C9.7385 30.7902 9.977 31.4553 10.2227 32.1406 C11.6271 36.2335 12.2734 39.6113 12 44 C9.7771 41.7771 9.3276 40.4421 8.3789 37.4844 C8.0844 36.5691 7.79 35.6539 7.4866 34.7109 C7.1816 33.7338 6.8767 32.7567 6.5625 31.75 C6.4065 31.2537 6.4065 31.2537 5.6169 28.7422 C-0.247 9.7655 -0.247 9.7655 0 0 Z " fill="#E498A1" transform="translate(148,418)"/>
<path d="M0 0 C0.66 0 1.32 0 2 0 C2.33 1.65 2.66 3.3 3 5 C4.32 5.33 5.64 5.66 7 6 C7 6.66 7 7.32 7 8 C7.6394 8.2681 8.2788 8.5362 8.9375 8.8125 C11 10 11 10 12 13 C13.1344 13.5569 14.2688 14.1137 15.4375 14.6875 C17.8191 15.932 18.8004 16.5519 19.9062 19.0352 C20.4375 21.25 20.4375 21.25 21 25 C20.34 25 19.68 25 19 25 C17.5195 23.4961 17.5195 23.4961 15.8125 21.4375 C12.8132 17.89 9.66 14.6348 6.2852 11.4453 C5 10 5 10 5 8 C4.34 8 3.68 8 3 8 C1.6106 6.0385 0.274 4.0383 -1 2 C-0.67 1.34 -0.34 0.68 0 0 Z " fill="#E07E88" transform="translate(275,634)"/>
<path d="M0 0 C5.4469 3.1884 8.9684 7.1973 13 12 C14.4742 13.6711 15.9533 15.3378 17.4375 17 C18.1168 17.7631 18.7962 18.5263 19.4961 19.3125 C19.9924 19.8694 20.4887 20.4262 21 21 C20.67 21.66 20.34 22.32 20 23 C19.01 23 18.02 23 17 23 C17 22.34 17 21.68 17 21 C16.34 21 15.68 21 15 21 C12 16.6154 12 16.6154 12 14 C11.3606 13.7319 10.7212 13.4638 10.0625 13.1875 C8 12 8 12 7 9 C5.35 8.67 3.7 8.34 2 8 C1.34 5.36 0.68 2.72 0 0 Z " fill="#DC7882" transform="translate(470,268)"/>
<path d="M0 0 C2.4175 2.1457 2.9591 2.6424 3.3438 6.0039 C3.1184 11.1031 1.7461 16.0103 0.5 20.9375 C0.2615 21.9075 0.023 22.8775 -0.2227 23.877 C-0.8079 26.2532 -1.4005 28.6273 -2 31 C-2.33 31 -2.66 31 -3 31 C-2.8882 27.7077 -2.7581 24.4165 -2.625 21.125 C-2.5941 20.2072 -2.5631 19.2894 -2.5312 18.3438 C-2.2658 12.0615 -1.4169 6.1255 0 0 Z " fill="#CC646D" transform="translate(875,412)"/>
<path d="M0 0 C7.3899 0.1864 14.3576 1.6609 21.5 3.4375 C22.3846 3.6549 23.2692 3.8724 24.1807 4.0964 C27.9811 5.0692 30.6947 5.7965 34 8 C27.777 9.1732 23.9395 9.3798 18.4922 6.125 C12.7702 3.542 6.1624 2.9872 0 2 C0 1.34 0 0.68 0 0 Z " fill="#DD818B" transform="translate(720,216)"/>
<path d="M0 0 C4.4885 0.6746 8.4402 2.302 12.5625 4.125 C12.9115 4.2781 12.9115 4.2781 14.6777 5.053 C21.0698 7.9185 27.0526 11.2941 33 15 C30.5091 16.2455 29.5892 15.7768 27 15 C27 14.34 27 13.68 27 13 C26.0512 12.8556 25.1025 12.7113 24.125 12.5625 C21 12 21 12 19 11 C19 10.34 19 9.68 19 9 C18.01 8.9175 17.02 8.835 16 8.75 C10.349 7.9575 5.685 5.1233 1 2 C0.67 1.34 0.34 0.68 0 0 Z " fill="#D17D83" transform="translate(761,226)"/>
<path d="M0 0 C1.9451 2.9177 2.4528 4.6254 3 8 C3.66 8 4.32 8 5 8 C5.1212 8.6149 5.2423 9.2298 5.3672 9.8633 C5.5348 10.6715 5.7023 11.4798 5.875 12.3125 C5.9562 12.7128 5.9562 12.7128 6.3672 14.7383 C7 17 7 17 9 20 C9.125 23.1875 9.125 23.1875 9 26 C5.7994 22.2759 4.1114 18.0474 2.25 13.5625 C1.9213 12.8116 1.5926 12.0607 1.2539 11.2871 C-0.4591 7.1781 -1.5759 4.4039 0 0 Z " fill="#DF7D88" transform="translate(161,460)"/>
<path d="M0 0 C0.33 0 0.66 0 1 0 C1.0606 0.3983 1.0606 0.3983 1.3672 2.4141 C3.2918 14.5836 3.2918 14.5836 5 18 C7.625 19.375 7.625 19.375 10 20 C10 20.66 10 21.32 10 22 C10.7219 22.1237 11.4438 22.2475 12.1875 22.375 C15 23 15 23 17.4375 24 C20.2795 25.1091 22.9859 25.5794 26 26 C26 26.33 26 26.66 26 27 C19.0826 27.5103 13.7136 27.1933 8 23 C3.4818 18.7629 0.2337 14.4631 -0.1953 8.1055 C-0.1721 7.1425 -0.1489 6.1796 -0.125 5.1875 C-0.107 4.2117 -0.0889 3.2359 -0.0703 2.2305 C-0.0471 1.4944 -0.0239 0.7584 0 0 Z " fill="#460C18" transform="translate(615,489)"/>
<path d="M0 0 C0 0.33 0 0.66 0 1 C-6.93 1.165 -6.93 1.165 -42 2 C-42 2.66 -42 3.32 -42 4 C-46.62 4 -51.24 4 -56 4 C-56 3.67 -56 3.34 -56 3 C-37.303 -0.3921 -18.9213 -0.325 0 0 Z " fill="#EFAEB4" transform="translate(350,214)"/>
<path d="M0 0 C1.3333 0.6667 2.6667 1.3333 4 2 C5.0519 2.4744 6.1037 2.9488 7.1875 3.4375 C10 5 10 5 11 8 C11.99 8.33 12.98 8.66 14 9 C14 9.66 14 10.32 14 11 C14.5775 11.0619 15.155 11.1237 15.75 11.1875 C19.6099 12.5814 21.3586 15.8134 23.25 19.3125 C23.4975 19.8694 23.745 20.4262 24 21 C20.0766 19.3839 17.2857 16.687 14.25 13.8125 C13.1882 12.8208 12.1257 11.8299 11.0625 10.8398 C10.5443 10.3563 10.0261 9.8727 9.4922 9.3745 C6.8332 6.9252 4.0829 4.5826 1.3281 2.2422 C0.8898 1.8323 0.4516 1.4223 0 1 C0 0.67 0 0.34 0 0 Z " fill="#E38E96" transform="translate(348,710)"/>
<path d="M0 0 C0.66 0.99 1.32 1.98 2 3 C0.7544 7.8683 -2.4463 12.1143 -5.125 16.3125 C-5.5929 17.0531 -6.0609 17.7936 -6.543 18.5566 C-7.6916 20.3734 -8.8453 22.187 -10 24 C-12 21 -12 21 -12 18 C-11.34 18 -10.68 18 -10 18 C-9.67 17.01 -9.34 16.02 -9 15 C-8.34 15 -7.68 15 -7 15 C-6.67 13.02 -6.34 11.04 -6 9 C-4.68 8.67 -3.36 8.34 -2 8 C-2 6.35 -2 4.7 -2 3 C-1.34 3 -0.68 3 0 3 C0 2.01 0 1.02 0 0 Z " fill="#CC6470" transform="translate(835,519)"/>
<path d="M0 0 C0 5.4754 -2.8746 9.8478 -6.625 13.6875 C-7.0169 14.0691 -7.0169 14.0691 -9 16 C-10.3125 18.8125 -10.3125 18.8125 -11 21 C-11.99 20.67 -12.98 20.34 -14 20 C-12.4902 15.6501 -10.1868 12.056 -7.5625 8.3125 C-7.365 8.0221 -7.365 8.0221 -6.3652 6.5527 C-4.403 3.7285 -2.896 1.9307 0 0 Z " fill="#DD7982" transform="translate(534,292)"/>
<path d="M0 0 C0.99 0.66 1.98 1.32 3 2 C3.3633 4.6445 3.3633 4.6445 3.3125 7.8125 C3.3086 8.8502 3.3048 9.8879 3.3008 10.957 C2.6269 17.7751 -0.4395 20.89 -5.4922 25.1953 C-10.8422 29.0453 -16.4201 30.5061 -23 30 C-23 29.67 -23 29.34 -23 29 C-22.3709 28.8414 -21.7419 28.6829 -21.0938 28.5195 C-12.0309 26.0491 -5.5985 22.6343 0 15 C1.1697 12.6606 1.1336 11.2263 1.125 8.625 C1.1276 7.8541 1.1302 7.0833 1.1328 6.2891 C1.0039 4.0672 0.6138 2.1338 0 0 Z " fill="#E4525F" transform="translate(703,531)"/>
<path d="M0 0 C2.8953 1.5717 5.0638 3.0655 7.375 5.4375 C12.4387 10.3807 17.9792 13.1517 25.1094 13.0977 C25.4864 13.096 25.4864 13.096 27.3945 13.0879 C28.1718 13.0795 28.9491 13.0711 29.75 13.0625 C30.1464 13.0602 30.1464 13.0602 32.1523 13.0488 C34.1016 13.0371 36.0508 13.0192 38 13 C32.3678 16.7548 23.6116 15.9239 17 15 C13.1371 13.5211 10.2304 11.5386 7 9 C6.1157 8.505 5.2314 8.01 4.3203 7.5 C1.2124 5.4909 0.8575 3.5078 0 0 Z " fill="#470D18" transform="translate(485,520)"/>
<path d="M0 0 C3.7995 3.5467 6.6426 7.2141 9.3125 11.6875 C9.6715 12.2682 10.0305 12.8489 10.4004 13.4473 C13 17.7304 13 17.7304 13 20 C11.68 20.33 10.36 20.66 9 21 C9 19.35 9 17.7 9 16 C8.01 15.67 7.02 15.34 6 15 C4.6484 12.8906 4.6484 12.8906 3.375 10.25 C2.9496 9.3889 2.5242 8.5278 2.0859 7.6406 C1.0337 5.0819 0.441 2.7242 0 0 Z " fill="#DD7C86" transform="translate(495,296)"/>
<path d="M0 0 C0 3 0 3 -1.377 4.7175 C-2.0054 5.3302 -2.6338 5.9429 -3.2812 6.5742 C-3.958 7.2413 -4.6348 7.9084 -5.332 8.5957 C-6.0475 9.286 -6.7629 9.9763 -7.5 10.6875 C-7.8577 11.0384 -7.8577 11.0384 -9.668 12.8145 C-11.4388 14.5499 -13.2162 16.2779 -15 18 C-15.625 16.1875 -15.625 16.1875 -16 14 C-15.34 13.01 -14.68 12.02 -14 11 C-13.01 11 -12.02 11 -11 11 C-11 9.68 -11 8.36 -11 7 C-10.01 7 -9.02 7 -8 7 C-7.8763 6.6803 -7.8763 6.6803 -7.25 5.0625 C-6 3 -6 3 -4 2.375 C-3.67 2.3131 -3.67 2.3131 -2 2 C-1.34 1.34 -0.68 0.68 0 0 Z " fill="#CF6B75" transform="translate(735,652)"/>
<path d="M0 0 C1 2 1 2 0.5469 4.0586 C0.2839 4.8436 0.0209 5.6287 -0.25 6.4375 C-0.5027 7.22 -0.7553 8.0024 -1.0156 8.8086 C-2.0546 11.1215 -3.029 12.4201 -5 14 C-5.66 14 -6.32 14 -7 14 C-6.8969 14.66 -6.7937 15.32 -6.6875 16 C-7.1473 20.4143 -9.5074 23.4125 -12 27 C-12.6875 25.25 -12.6875 25.25 -13 23 C-12.0477 21.6322 -11.0383 20.3038 -10 19 C-9.1569 16.8949 -8.369 14.7672 -7.625 12.625 C-5.7165 7.468 -3.8747 3.8747 0 0 Z " fill="#DE6773" transform="translate(180,288)"/>
<path d="M0 0 C0 0.66 0 1.32 0 2 C-2.9695 3.7028 -5.0808 4.2467 -8.4932 4.2271 C-9.3738 4.2269 -10.2544 4.2267 -11.1617 4.2266 C-11.6326 4.2214 -11.6326 4.2214 -14.0156 4.1953 C-14.9866 4.1925 -15.9576 4.1897 -16.9579 4.1867 C-20.0554 4.1756 -23.1526 4.1505 -26.25 4.125 C-28.3516 4.115 -30.4531 4.1058 -32.5547 4.0977 C-37.7032 4.0756 -42.8516 4.0411 -48 4 C-48 3.67 -48 3.34 -48 3 C-46.9921 2.9802 -45.9842 2.9604 -44.9458 2.9399 C-41.1622 2.8632 -37.379 2.7746 -33.5957 2.6826 C-31.9665 2.6446 -30.3373 2.6097 -28.708 2.5781 C-12.3062 2.2561 -12.3062 2.2561 -4.8433 0.4155 C-3 0 -3 0 0 0 Z " fill="#EB5D69" transform="translate(680,561)"/>
<path d="M0 0 C-8.906 5.9374 -21.7266 4.2034 -32 4 C-32 3.67 -32 3.34 -32 3 C-31.157 2.951 -30.3139 2.902 -29.4453 2.8516 C-28.3496 2.7768 -27.2539 2.702 -26.125 2.625 C-25.5797 2.5902 -25.5797 2.5902 -22.8203 2.4141 C-20 2 -20 2 -18 0 C-12.0334 -1.0272 -5.9147 -1.4787 0 0 Z " fill="#DA838D" transform="translate(536,813)"/>
<path d="M0 0 C0.66 0 1.32 0 2 0 C3.332 1.4258 3.332 1.4258 4.8125 3.3125 C6.6948 5.605 7.874 6.9307 10.5 8.375 C14.4896 10.9682 16.5538 14.9903 19 19 C14.4452 16.8991 11.0185 13.8217 7.25 10.5625 C6.5526 9.9766 5.8552 9.3907 5.1367 8.7871 C4.478 8.2193 3.8193 7.6514 3.1406 7.0664 C2.5377 6.5502 1.9347 6.034 1.3135 5.5022 C-0.3618 3.5862 0 2.4912 0 0 Z " fill="#E1868E" transform="translate(373,729)"/>
<path d="M0 0 C1.8125 0.125 1.8125 0.125 4 1 C7.888 7.3786 8.2084 13.7242 7 21 C4.4613 25.15 0.9824 27.345 -3 30 C-5.1875 29.625 -5.1875 29.625 -7 29 C-6.4689 28.7203 -5.9378 28.4405 -5.3906 28.1523 C-0.0509 25.122 2.6671 22.7351 5 17 C6.1649 10.8481 4.3628 7.0951 1 2 C0.67 1.34 0.34 0.68 0 0 Z " fill="#E65661" transform="translate(428,527)"/>
<path d="M0 0 C0.33 0 0.66 0 1 0 C1.0271 1.9166 1.0465 3.8333 1.0625 5.75 C1.0741 6.8173 1.0857 7.8847 1.0977 8.9844 C1.0151 11.5337 0.7462 13.5793 0 16 C-0.66 16 -1.32 16 -2 16 C-2 19.96 -2 23.92 -2 28 C-2.66 28 -3.32 28 -4 28 C-4 29.98 -4 31.96 -4 34 C-4.33 34 -4.66 34 -5 34 C-5.2441 27.3537 -4.3214 21.2666 -3.0625 14.75 C-2.9713 14.2602 -2.9713 14.2602 -2.5098 11.7812 C-1.7666 7.8252 -1.0115 3.8974 0 0 Z " fill="#E3949B" transform="translate(152,344)"/>
<path d="M0 0 C1.32 0.33 2.64 0.66 4 1 C-0.5663 5.8707 -5.7498 9.8916 -11 14 C-13 13 -13 13 -14 10 C-13.01 10 -12.02 10 -11 10 C-10.7654 9.3761 -10.5308 8.7522 -10.2891 8.1094 C-8.6318 5.3974 -7.3858 5.1102 -4.375 4.25 C-3.5577 4.0077 -2.7405 3.7653 -1.8984 3.5156 C-1.272 3.3455 -0.6455 3.1753 0 3 C0 2.01 0 1.02 0 0 Z " fill="#D16973" transform="translate(615,759)"/>
<path d="M0 0 C0.66 0 1.32 0 2 0 C2.66 1.65 3.32 3.3 4 5 C4.66 5 5.32 5 6 5 C7.4102 6.4336 7.4102 6.4336 9.0625 8.4375 C14.1811 14.4556 19.5524 20.3863 26 25 C25.67 25.99 25.34 26.98 25 28 C21.4301 24.5041 17.87 20.9986 14.3188 17.4836 C13.109 16.2889 11.8964 15.0968 10.6812 13.9075 C8.9366 12.1992 7.2019 10.4816 5.4688 8.7617 C4.9219 8.2304 4.3751 7.699 3.8116 7.1515 C2.4829 5.8234 1.2337 4.4168 0 3 C0 2.01 0 1.02 0 0 Z " fill="#D15460" transform="translate(295,655)"/>
<path d="M0 0 C1.8672 0.1875 1.8672 0.1875 4 1 C5.1953 3.25 5.1953 3.25 6.125 6 C7.8113 10.9057 7.8113 10.9057 10 12 C10 12.99 10 13.98 10 15 C10.66 15.33 11.32 15.66 12 16 C14.1795 18.3472 14.9667 19.5111 15.1875 22.75 C15.1256 23.4925 15.0637 24.235 15 25 C11.2284 20.5729 8.2629 15.7667 5.25 10.8125 C4.7434 9.9933 4.2368 9.1741 3.7148 8.3301 C3.2366 7.547 2.7584 6.7639 2.2656 5.957 C1.8302 5.2452 1.3949 4.5334 0.9463 3.8 C0 2 0 2 0 0 Z " fill="#E08B95" transform="translate(187,519)"/>
<path d="M0 0 C0.6806 0.7012 1.3612 1.4025 2.0625 2.125 C3.0381 3.087 4.0175 4.0451 5 5 C5.4847 5.4808 5.9694 5.9616 6.4688 6.457 C13.2666 12.7717 21.9808 16.9502 31 19 C31 19.33 31 19.66 31 20 C22.674 19.7178 16.3748 16.7273 9 13 C9 12.34 9 11.68 9 11 C8.4431 10.8144 7.8863 10.6287 7.3125 10.4375 C3.9687 8.3589 1.9519 5.3919 0 2 C0 1.34 0 0.68 0 0 Z " fill="#D15360" transform="translate(473,532)"/>
<path d="M0 0 C0.33 0.99 0.66 1.98 1 3 C-10.0687 8.2781 -17.1126 9.9625 -29 6 C-29 5.01 -29 4.02 -29 3 C-28.6288 3.165 -28.6288 3.165 -26.75 4 C-17.5638 6.4496 -9.3908 5.3801 -1 1 C-0.67 0.67 -0.34 0.34 0 0 Z " fill="#DE5360" transform="translate(341,285)"/>
<path d="M0 0 C0 3.3625 -0.3654 3.8364 -2.3711 6.3555 C-2.8629 6.9774 -3.3546 7.5994 -3.8613 8.2402 C-4.3815 8.8828 -4.9016 9.5254 -5.4375 10.1875 C-5.9538 10.8417 -6.47 11.4959 -7.002 12.1699 C-8.3053 13.8038 -9.6494 15.405 -11 17 C-11.33 17 -11.66 17 -12 17 C-11.67 14.69 -11.34 12.38 -11 10 C-10.01 10 -9.02 10 -8 10 C-8 8.68 -8 7.36 -8 6 C-7.01 5.34 -6.02 4.68 -5 4 C-4.67 3.01 -4.34 2.02 -4 1 C-1.9375 0.3125 -1.9375 0.3125 0 0 Z " fill="#CC646F" transform="translate(801,574)"/>
<path d="M0 0 C0 3 0 3 -2.4375 5.625 C-3.2831 6.4088 -4.1288 7.1925 -5 8 C-5.33 8.33 -5.66 8.66 -6 9 C-5.5256 8.9588 -5.5256 8.9588 -3.125 8.75 C2.008 8.7078 6.3986 10.9261 11 13 C11 13.66 11 14.32 11 15 C10.273 14.8066 9.5459 14.6133 8.7969 14.4141 C1.575 12.5438 -5.6242 11.1116 -13 10 C-11.0336 8.689 -9.0546 7.3966 -7.0625 6.125 C-4.3717 4.2579 -2.2197 2.3904 0 0 Z " fill="#D95761" transform="translate(405,506)"/>
<path d="M0 0 C4 2.6667 8 5.3333 12 8 C10.8656 8.1818 9.7313 8.3635 8.5625 8.5508 C7.0416 8.8043 5.5208 9.0582 4 9.3125 C3.2562 9.4304 2.5124 9.5484 1.7461 9.6699 C-2.1598 10.3322 -5.6931 11.187 -9.375 12.668 C-13 14 -13 14 -16 13 C-9.4166 10.1145 -3.0988 8.1479 4 7 C3.67 6.01 3.34 5.02 3 4 C2.34 4 1.68 4 1 4 C0.67 2.68 0.34 1.36 0 0 Z " fill="#D85560" transform="translate(619,508)"/>
<path d="M0 0 C0.66 0 1.32 0 2 0 C2.33 0.99 2.66 1.98 3 3 C-6.41 11.4465 -6.41 11.4465 -11 15 C-11.66 14.67 -12.32 14.34 -13 14 C-13 13.01 -13 12.02 -13 11 C-12.01 11 -11.02 11 -10 11 C-10 10.01 -10 9.02 -10 8 C-8.35 7.67 -6.7 7.34 -5 7 C-5 6.01 -5 5.02 -5 4 C-3.02 3.67 -1.04 3.34 1 3 C0.67 2.01 0.34 1.02 0 0 Z " fill="#CF6B75" transform="translate(632,745)"/>
<path d="M0 0 C-1.5446 3.4413 -3.5827 6.187 -5.9375 9.125 C-6.6271 9.9938 -7.3168 10.8627 -8.0273 11.7578 C-10 14 -10 14 -13 16 C-13.33 14.35 -13.66 12.7 -14 11 C-12.35 10.67 -10.7 10.34 -9 10 C-8.7525 9.0925 -8.505 8.185 -8.25 7.25 C-6.5515 2.8339 -4.9659 0 0 0 Z " fill="#CE6670" transform="translate(789,591)"/>
<path d="M0 0 C0.66 0.33 1.32 0.66 2 1 C-9.407 14.9736 -9.407 14.9736 -17 16 C-12.0499 9.712 -6.2822 4.9296 0 0 Z " fill="#DF8A92" transform="translate(215,252)"/>
<path d="M0 0 C5.6018 0.5873 10.1855 2.6299 15.25 4.9375 C16.0647 5.2978 16.8794 5.6581 17.7188 6.0293 C23.7325 8.7325 23.7325 8.7325 26 11 C19.25 10.125 19.25 10.125 17 9 C17 8.34 17 7.68 17 7 C16.01 7.33 15.02 7.66 14 8 C14 7.34 14 6.68 14 6 C12.9481 5.8762 11.8963 5.7525 10.8125 5.625 C7.5404 5.0886 4.9946 4.3612 2 3 C2 2.34 2 1.68 2 1 C1.34 0.67 0.68 0.34 0 0 Z " fill="#DF9098" transform="translate(398,225)"/>
<path d="M0 0 C4 0 4 0 5.4844 1.4258 C5.902 2.0484 6.3197 2.671 6.75 3.3125 C7.178 3.9274 7.6059 4.5423 8.0469 5.1758 C9 7 9 7 9 10 C9.99 10 10.98 10 12 10 C12 10.66 12 11.32 12 12 C12.66 12 13.32 12 14 12 C14 13.32 14 14.64 14 16 C14.66 16.33 15.32 16.66 16 17 C13 17 13 17 11.5737 15.7625 C11.0931 15.195 10.6124 14.6276 10.1172 14.043 C9.59 13.4249 9.0627 12.8068 8.5195 12.1699 C7.9768 11.5157 7.4341 10.8615 6.875 10.1875 C6.3246 9.5449 5.7741 8.9023 5.207 8.2402 C1.1393 3.4179 1.1393 3.4179 0 0 Z " fill="#E08690" transform="translate(237,592)"/>
<path d="M0 0 C2.8069 3.3733 4.5375 7.0598 6.25 11.0625 C6.531 11.6871 6.812 12.3116 7.1016 12.9551 C9.1207 17.638 9.1207 17.638 8 21 C7.34 21 6.68 21 6 21 C6 19.68 6 18.36 6 17 C5.34 17 4.68 17 4 17 C3.3264 14.9189 2.6613 12.835 2 10.75 C1.6287 9.5898 1.2575 8.4297 0.875 7.2344 C0 4 0 4 0 0 Z " fill="#CB6C75" transform="translate(861,315)"/>
<path d="M0 0 C1.1382 1.7021 1.1382 1.7021 2 4 C1.2173 6.29 1.2173 6.29 -0.2109 8.7656 C-0.7137 9.6551 -1.2164 10.5445 -1.7344 11.4609 C-2.2758 12.3813 -2.8172 13.3017 -3.375 14.25 C-3.9087 15.1859 -4.4423 16.1217 -4.9922 17.0859 C-6.3141 19.3992 -7.6502 21.7029 -9 24 C-9.33 24 -9.66 24 -10 24 C-10 22.35 -10 20.7 -10 19 C-9.34 19 -8.68 19 -8 19 C-8 18.01 -8 17.02 -8 16 C-7.34 16 -6.68 16 -6 16 C-6.33 14.35 -6.66 12.7 -7 11 C-6.34 11 -5.68 11 -5 11 C-5 10.01 -5 9.02 -5 8 C-4.34 8 -3.68 8 -3 8 C-2.67 7.01 -2.34 6.02 -2 5 C-1.34 5 -0.68 5 0 5 C0 3.35 0 1.7 0 0 Z " fill="#D1767F" transform="translate(847,498)"/>
<path d="M0 0 C0.33 0 0.66 0 1 0 C1.9205 13.4192 1.9205 13.4192 -2.5039 19.3477 C-5.7376 22.9191 -8.9687 26.4195 -14 27 C-14 26.34 -14 25.68 -14 25 C-12.35 24.67 -10.7 24.34 -9 24 C-9 23.01 -9 22.02 -9 21 C-8.34 20.34 -7.68 19.68 -7 19 C-6.01 19 -5.02 19 -4 19 C-3.8763 18.4431 -3.7525 17.8863 -3.625 17.3125 C-3 15 -3 15 -2 12.875 C-0.5381 8.6721 -0.326 4.4184 0 0 Z " fill="#4A0E19" transform="translate(659,488)"/>
<path d="M0 0 C5.0338 1.6482 9.026 4.6065 13.3125 7.625 C14.0531 8.1406 14.7936 8.6562 15.5566 9.1875 C17.3742 10.4539 19.1885 11.7249 21 13 C20.67 13.165 20.67 13.165 19 14 C16.6402 13.0642 14.3037 12.0665 12 11 C12 10.34 12 9.68 12 9 C10.68 8.67 9.36 8.34 8 8 C8 7.34 8 6.68 8 6 C5.03 5.01 2.06 4.02 -1 3 C-0.67 2.01 -0.34 1.02 0 0 Z " fill="#DF8D94" transform="translate(435,242)"/>
<path d="M0 0 C0.33 1.32 0.66 2.64 1 4 C0.34 4 -0.32 4 -1 4 C-1.0516 4.5569 -1.0516 4.5569 -1.3125 7.375 C-1.5394 8.5713 -1.7663 9.7675 -2 11 C-5 13 -5 13 -7.6875 12.625 C-8.4506 12.4187 -9.2138 12.2125 -10 12 C-10.33 9.36 -10.66 6.72 -11 4 C-9 6 -7 8 -5 10 C-4.7319 9.2781 -4.4638 8.5562 -4.1875 7.8125 C-3.0102 5.0241 -1.6085 2.559 0 0 Z " fill="#E18D94" transform="translate(519,312)"/>
<path d="M0 0 C3 1 3 1 4 3 C6.3141 3.7308 8.6483 4.4014 11 5 C11.33 6.32 11.66 7.64 12 9 C12.66 9 13.32 9 14 9 C14.33 9.99 14.66 10.98 15 12 C8.7358 10.5164 4.0849 6.7584 -1 3 C-0.67 2.01 -0.34 1.02 0 0 Z " fill="#CD6670" transform="translate(457,794)"/>
<path d="M0 0 C1.32 0 2.64 0 4 0 C4 4.2055 1.6326 6.1671 -1 9.1875 C-1.477 9.7463 -1.9539 10.3051 -2.4453 10.8809 C-3.6237 12.2595 -4.811 13.6305 -6 15 C-7 13 -7 13 -6.25 9.9375 C-5.8375 8.9681 -5.425 7.9987 -5 7 C-4.01 6.67 -3.02 6.34 -2 6 C-1.375 4.0625 -1.375 4.0625 -1 2 C-0.67 1.34 -0.34 0.68 0 0 Z " fill="#D16973" transform="translate(771,607)"/>
<path d="M0 0 C0.2307 0.2166 0.2307 0.2166 1.3984 1.3125 C6.1642 5.3813 9.4434 6.7308 15.7227 6.3438 C18.373 5.9437 20.6314 5.2633 23 4 C21.25 7.875 21.25 7.875 19 9 C12.9091 9.5175 7.0426 9.8789 2 6 C0.625 2.8125 0.625 2.8125 0 0 Z " fill="#DF5A65" transform="translate(203,404)"/>
<path d="M0 0 C0 0.66 0 1.32 0 2 C0.66 2 1.32 2 2 2 C2 2.66 2 3.32 2 4 C1.4573 3.8402 0.9146 3.6803 0.3555 3.5156 C-7.7002 1.7522 -15.4876 2.8129 -23 6 C-23.33 5.34 -23.66 4.68 -24 4 C-22.68 4 -21.36 4 -20 4 C-20 3.34 -20 2.68 -20 2 C-13.3819 -0.4625 -6.9956 -0.1894 0 0 Z " fill="#E15661" transform="translate(339,257)"/>
<path d="M0 0 C1.32 0.33 2.64 0.66 4 1 C1.0574 4.1448 -2.0006 6.4923 -5.625 8.8125 C-6.5866 9.4377 -7.5483 10.0629 -8.5391 10.707 C-9.3512 11.1337 -10.1633 11.5604 -11 12 C-11.66 11.67 -12.32 11.34 -13 11 C-13 10.01 -13 9.02 -13 8 C-9.629 6.5018 -7.7956 6 -4 6 C-4 5.01 -4 4.02 -4 3 C-3.01 3 -2.02 3 -1 3 C-0.67 2.01 -0.34 1.02 0 0 Z " fill="#D0717A" transform="translate(572,791)"/>
<path d="M0 0 C3.716 -0.2009 4.7721 -0.1519 8 2 C8 2.66 8 3.32 8 4 C8.5569 4.1856 9.1137 4.3713 9.6875 4.5625 C13.0675 6.6636 14.8514 9.7067 17 13 C12.9854 11.261 9.6797 8.6021 6.25 5.9375 C5.648 5.4779 5.046 5.0184 4.4258 4.5449 C2.9297 3.3898 1.462 2.1979 0 1 C0 0.67 0 0.34 0 0 Z " fill="#DF878F" transform="translate(413,765)"/>
<path d="M0 0 C0 3 0 3 -1.9336 5.1914 C-2.7599 5.9739 -3.5862 6.7563 -4.4375 7.5625 C-8.9148 11.8296 -8.9148 11.8296 -10 14 C-10.66 13.67 -11.32 13.34 -12 13 C-11.67 11.35 -11.34 9.7 -11 8 C-10.01 8 -9.02 8 -8 8 C-7.9381 7.6906 -7.9381 7.6906 -7.625 6.125 C-7 4 -7 4 -5 2 C-3.3501 1.2929 -1.6844 0.6206 0 0 Z " fill="#D06C75" transform="translate(748,638)"/>
<path d="M0 0 C-2.8641 1.9094 -5.6231 3.2044 -8.75 4.625 C-14.5595 7.4733 -18.2392 10.7825 -22 16 C-23 13 -23 13 -21.75 10.3125 C-21.1725 9.5494 -20.595 8.7862 -20 8 C-19.01 8 -18.02 8 -17 8 C-17 7.34 -17 6.68 -17 6 C-15.1108 4.9876 -13.2133 3.9905 -11.3125 3 C-10.2568 2.4431 -9.201 1.8863 -8.1133 1.3125 C-5.0777 0.0328 -3.2397 -0.2885 0 0 Z " fill="#E4515F" transform="translate(341,519)"/>
<path d="M0 0 C0.66 0.33 1.32 0.66 2 1 C0.0039 7.7187 -2.7291 13.8073 -6 20 C-6.33 20 -6.66 20 -7 20 C-6.125 12.25 -6.125 12.25 -5 10 C-4.34 10 -3.68 10 -3 10 C-3 8.35 -3 6.7 -3 5 C-2.34 5 -1.68 5 -1 5 C-0.67 3.35 -0.34 1.7 0 0 Z " fill="#CD707A" transform="translate(856,480)"/>
<path d="M0 0 C0.66 0 1.32 0 2 0 C2.33 0.99 2.66 1.98 3 3 C-0.3 6.3 -3.6 9.6 -7 13 C-7.66 12.67 -8.32 12.34 -9 12 C-8.34 11.34 -7.68 10.68 -7 10 C-7.33 9.01 -7.66 8.02 -8 7 C-7.01 7 -6.02 7 -5 7 C-5 6.34 -5 5.68 -5 5 C-4.34 5 -3.68 5 -3 5 C-2.67 4.01 -2.34 3.02 -2 2 C-1.34 2 -0.68 2 0 2 C0 1.34 0 0.68 0 0 Z " fill="#D16771" transform="translate(681,702)"/>
<path d="M0 0 C4.5245 1.0522 7.1067 2.5476 9.9648 6.2695 C11.64 9.0699 12.3009 11.8224 13 15 C11.3333 13.3333 9.6667 11.6667 8 10 C7.0719 9.1131 6.1438 8.2263 5.1875 7.3125 C3 5 3 5 3 3 C2.34 3 1.68 3 1 3 C0.67 2.01 0.34 1.02 0 0 Z " fill="#E28791" transform="translate(261,621)"/>
<path d="M0 0 C-1.5372 3.2973 -3.4207 6.2052 -5.5 9.1875 C-6.1084 10.0679 -6.7169 10.9484 -7.3438 11.8555 C-9 14 -9 14 -11 15 C-11.33 13.68 -11.66 12.36 -12 11 C-11.01 11 -10.02 11 -9 11 C-8.34 8.69 -7.68 6.38 -7 4 C-6.34 4 -5.68 4 -5 4 C-5 3.01 -5 2.02 -5 1 C-3 0 -3 0 0 0 Z " fill="#CF6C76" transform="translate(813,559)"/>
<path d="M0 0 C1.32 0 2.64 0 4 0 C8.155 5.5833 8.4666 10.1321 8.5312 17.0117 C7.8983 20.5722 6.7581 21.7508 4 24 C3.01 23.67 2.02 23.34 1 23 C1.6394 22.2163 2.2788 21.4325 2.9375 20.625 C5.806 16.9741 6.3356 14.7926 6.293 10.1016 C5.6987 5.8384 2.9431 2.9431 0 0 Z " fill="#DF5561" transform="translate(341,261)"/>
<path d="M0 0 C0 0.66 0 1.32 0 2 C-0.99 2.33 -1.98 2.66 -3 3 C-4.6893 4.6437 -6.3526 6.3143 -8 8 C-9.94 9.89 -11.7838 11.3968 -14 13 C-16.1836 12.6328 -16.1836 12.6328 -18 12 C-3.2621 0 -3.2621 0 0 0 Z " fill="#DE8B93" transform="translate(583,247)"/>
<path d="M0 0 C0.33 0.66 0.66 1.32 1 2 C-3.0604 2.9631 -6.894 3.1652 -11.0625 3.1875 C-11.6664 3.1946 -11.6664 3.1946 -14.7227 3.2305 C-17.7874 3.0149 -19.44 2.6152 -22 1 C-14.6562 0.4224 -7.369 -0.1474 0 0 Z " fill="#601B25" transform="translate(522,549)"/>
<path d="M0 0 C0.99 0.33 1.98 0.66 3 1 C2.4947 1.4615 1.9894 1.923 1.4688 2.3984 C-2.2504 6.1324 -4.5114 8.7754 -4.625 14.1875 C-4.3461 18.1225 -3.5121 20.8599 -1 24 C-2.9375 23.625 -2.9375 23.625 -5 23 C-6.4612 20.0775 -6.2478 17.4415 -6.3125 14.1875 C-6.3499 12.9642 -6.3873 11.7409 -6.4258 10.4805 C-5.9313 6.4387 -4.8886 4.8135 -2 2 C-1.34 2 -0.68 2 0 2 C0 1.34 0 0.68 0 0 Z " fill="#DF5863" transform="translate(313,263)"/>
<path d="M0 0 C0.66 0.33 1.32 0.66 2 1 C1.2407 1.6149 0.4815 2.2298 -0.3008 2.8633 C-1.2946 3.6715 -2.2885 4.4798 -3.3125 5.3125 C-4.2986 6.113 -5.2848 6.9135 -6.3008 7.7383 C-8.321 9.4311 -10.1648 11.1211 -12 13 C-13.6553 14.3474 -15.3201 15.6833 -17 17 C-17.66 16.67 -18.32 16.34 -19 16 C-18.3129 15.3967 -17.6259 14.7934 -16.918 14.1719 C-16.0169 13.3727 -15.1159 12.5734 -14.1875 11.75 C-13.7408 11.3555 -13.7408 11.3555 -11.4805 9.3594 C-9 7 -9 7 -7.3398 4.7773 C-5.5721 2.4324 -3.7323 1.9347 -1 1 C-0.67 0.67 -0.34 0.34 0 0 Z " fill="#E2505D" transform="translate(223,249)"/>
<path d="M0 0 C0.66 0 1.32 0 2 0 C2 0.66 2 1.32 2 2 C2.5917 2.0425 3.1834 2.0851 3.793 2.1289 C7.1594 3.4576 7.7814 5.7423 9.3125 8.9375 C9.8449 10.019 10.3773 11.1005 10.9258 12.2148 C11.2803 13.1339 11.6348 14.053 12 15 C11.67 15.66 11.34 16.32 11 17 C7.0398 11.4713 3.2491 5.9784 0 0 Z " fill="#E08893" transform="translate(202,544)"/>
<path d="M0 0 C4.1515 1.442 7.2998 3.501 10.8125 6.125 C11.7883 6.8495 12.7641 7.5739 13.7695 8.3203 C14.5056 8.8746 15.2416 9.4289 16 10 C14.1875 11.0625 14.1875 11.0625 12 12 C11.01 11.67 10.02 11.34 9 11 C8.5462 10.0306 8.0925 9.0613 7.625 8.0625 C5.7232 4.4783 4.6896 4.2622 1 3 C0.67 2.01 0.34 1.02 0 0 Z " fill="#D1717A" transform="translate(797,244)"/>
<path d="M0 0 C-8.12 4.35 -15.9714 5.1581 -25 6 C-21.0445 3.363 -17.0654 2.503 -12.5 1.3125 C-12.0662 1.1936 -12.0662 1.1936 -9.8711 0.5918 C-9.0371 0.372 -8.203 0.1522 -7.3438 -0.0742 C-6.5826 -0.2762 -5.8214 -0.4782 -5.0371 -0.6863 C-3 -1 -3 -1 0 0 Z " fill="#E397A0" transform="translate(653,219)"/>
<path d="M0 0 C1.973 2.9595 2.9866 5.4604 4.125 8.8125 C4.4782 9.8296 4.8314 10.8466 5.1953 11.8945 C6.0167 15.0644 6.1461 17.7411 6 21 C2.0338 17.0338 0.3468 10.1576 -0.2578 4.6523 C-0.25 2.75 -0.25 2.75 0 0 Z " fill="#DB838B" transform="translate(154,441)"/>
<path d="M0 0 C0 0.99 0 1.98 0 3 C-9.2255 8.5558 -9.2255 8.5558 -15 9 C-11.6215 5.0339 -5.4606 0 0 0 Z " fill="#DD848D" transform="translate(598,238)"/>
<path d="M0 0 C2.3492 2.1534 3.8244 4.2167 5.25 7.0625 C5.6058 7.7547 5.9616 8.447 6.3281 9.1602 C6.5498 9.7673 6.7716 10.3745 7 11 C6.67 11.66 6.34 12.32 6 13 C4 13 4 13 2.4375 11.6875 C-0.5792 8.1461 -0.0835 4.427 0 0 Z " fill="#CC656E" transform="translate(854,302)"/>
<path d="M0 0 C1.32 0.33 2.64 0.66 4 1 C3.01 1.33 2.02 1.66 1 2 C-0.0625 3.8125 -0.0625 3.8125 -1 6 C-1.1753 6.2888 -1.1753 6.2888 -2.0625 7.75 C-3.4598 11.1035 -3.639 14.3903 -4 18 C-4.66 17.34 -5.32 16.68 -6 16 C-5.5212 9.656 -4.0138 4.9261 0 0 Z " fill="#E3515F" transform="translate(593,526)"/>
<path d="M0 0 C-0.5466 0.2991 -0.5466 0.2991 -3.3125 1.8125 C-5.416 2.9989 -6.9146 3.9077 -8.5625 5.6875 C-10.7607 7.6946 -13.1197 7.68 -16 8 C-15 5 -15 5 -12.3828 3.3594 C-11.3077 2.8283 -10.2327 2.2972 -9.125 1.75 C-8.0551 1.2086 -6.9852 0.6672 -5.8828 0.1094 C-3 -1 -3 -1 0 0 Z " fill="#E08D96" transform="translate(255,231)"/>
<path d="M0 0 C5.3515 0.3243 8.2828 3.497 12 7 C11.67 8.32 11.34 9.64 11 11 C9.1637 9.3574 7.3309 7.7112 5.5 6.0625 C4.9754 5.5939 4.4507 5.1254 3.9102 4.6426 C2.5878 3.449 1.2917 2.2267 0 1 C0 0.67 0 0.34 0 0 Z " fill="#E0858E" transform="translate(336,699)"/>
<path d="M0 0 C0.66 0 1.32 0 2 0 C4.1519 3.2279 4.2009 4.284 4 8 C4.66 8 5.32 8 6 8 C6 8.66 6 9.32 6 10 C6.99 10.33 7.98 10.66 9 11 C9.33 12.65 9.66 14.3 10 16 C6.5833 14.5862 5.0127 13.0833 3 10 C2.0508 7.4219 2.0508 7.4219 1.3125 4.75 C1.0611 3.858 0.8098 2.9659 0.5508 2.0469 C0.369 1.3714 0.1873 0.6959 0 0 Z " fill="#DD6D79" transform="translate(211,553)"/>
<path d="M0 0 C1.0413 3.1518 0.9927 4.7754 -0.3125 7.8125 C-1.8207 11.5 -2.9588 15.1555 -4 19 C-4.33 19 -4.66 19 -5 19 C-5.5072 12.1522 -3.991 7.1622 -1 1 C-0.67 0.67 -0.34 0.34 0 0 Z " fill="#D5515F" transform="translate(158,333)"/>
<path d="M0 0 C0.99 0 1.98 0 3 0 C3 0.66 3 1.32 3 2 C3.2784 2.1134 3.2784 2.1134 4.6875 2.6875 C7.6804 4.3862 9.7353 6.4207 12 9 C12 9.99 12 10.98 12 12 C11.34 12 10.68 12 10 12 C10 11.34 10 10.68 10 10 C9.01 9.67 8.02 9.34 7 9 C3.9543 6.2515 1.5588 3.8262 0 0 Z " fill="#BB313D" transform="translate(819,263)"/>
<path d="M0 0 C4.1217 3.7684 7.6307 7.889 10 13 C9.67 13.66 9.34 14.32 9 15 C8.34 14.67 7.68 14.34 7 14 C7 13.01 7 12.02 7 11 C6.01 11 5.02 11 4 11 C3.67 9.02 3.34 7.04 3 5 C2.01 4.67 1.02 4.34 0 4 C0 2.68 0 1.36 0 0 Z " fill="#D28289" transform="translate(844,287)"/>
<path d="M0 0 C0.33 1.32 0.66 2.64 1 4 C0.34 4 -0.32 4 -1 4 C-1.2449 4.593 -1.4898 5.1859 -1.7422 5.7969 C-3.2095 8.367 -4.7229 9.5453 -7.125 11.25 C-7.8495 11.7708 -8.5739 12.2916 -9.3203 12.8281 C-9.8746 13.2148 -10.4289 13.6016 -11 14 C-9.4222 10.2895 -7.093 7.7009 -4.375 4.75 C-3.5577 3.858 -2.7405 2.9659 -1.8984 2.0469 C-1.272 1.3714 -0.6455 0.6959 0 0 Z " fill="#E28E96" transform="translate(543,280)"/>
<path d="M0 0 C1.4374 -0.0271 2.8749 -0.0465 4.3125 -0.0625 C4.7128 -0.0683 4.7128 -0.0683 6.7383 -0.0977 C9 0 9 0 12 1 C12 1.66 12 2.32 12 3 C12.66 3.33 13.32 3.66 14 4 C9.2029 4.1919 5.4387 3.9023 1 2 C0.67 1.34 0.34 0.68 0 0 Z " fill="#C5525C" transform="translate(749,224)"/></g>
<g class="effects"><path class="mini-heart mh1" d="M 180,825.4 C 162.0,809.2 162.0,796.6 173.7,802.0 C 180,807.4 180,807.4 186.3,802.0 C 198.0,796.6 198.0,809.2 180,825.4 Z" fill="#ff7a9a"/>
<path class="mini-heart mh2" d="M 300,906.6 C 278.0,886.8 278.0,871.4 292.3,878.0 C 300,884.6 300,884.6 307.7,878.0 C 322.0,871.4 322.0,886.8 300,906.6 Z" fill="#ff5577"/>
<path class="mini-heart mh3" d="M 500,874.8 C 484.0,860.4 484.0,849.2 494.4,854.0 C 500,858.8 500,858.8 505.6,854.0 C 516.0,849.2 516.0,860.4 500,874.8 Z" fill="#ff99aa"/>
<path class="mini-heart mh4" d="M 680,927.2 C 656.0,905.6 656.0,888.8 671.6,896.0 C 680,903.2 680,903.2 688.4,896.0 C 704.0,888.8 704.0,905.6 680,927.2 Z" fill="#ff5577"/>
<path class="mini-heart mh5" d="M 820,835.4 C 802.0,819.2 802.0,806.6 813.7,812.0 C 820,817.4 820,817.4 826.3,812.0 C 838.0,806.6 838.0,819.2 820,835.4 Z" fill="#ff7a9a"/>
<path class="mini-heart mh6" d="M 400,954.2 C 386.0,941.6 386.0,931.8 395.1,936.0 C 400,940.2 400,940.2 404.9,936.0 C 414.0,931.8 414.0,941.6 400,954.2 Z" fill="#ffb3c2"/></g>
</svg>
