<?xml version="1.0" encoding="UTF-8"?>
<svg xmlns="http://www.w3.org/2000/svg" viewBox="0 0 1024 1024" preserveAspectRatio="xMidYMid meet">
<style>

.main { transform-origin: 50% 85%; animation: heelsBounce 3.2s ease-in-out infinite; }
@keyframes heelsBounce {
  0%,100% { transform: rotate(-1deg) translateY(0); }
  50%     { transform: rotate(1.5deg) translateY(-8px); }
}
.sparkle { transform-origin: center; animation: twinkle 2.6s ease-in-out infinite; }
.sparkle.s1 { animation-delay: .0s; animation-duration: 2.2s; }
.sparkle.s2 { animation-delay: .6s; animation-duration: 2.8s; }
.sparkle.s3 { animation-delay: 1.1s; animation-duration: 2.3s; }
.sparkle.s4 { animation-delay: 1.7s; animation-duration: 3.1s; }
.sparkle.s5 { animation-delay: .3s;  animation-duration: 2.0s; }
.sparkle.s6 { animation-delay: 1.4s; animation-duration: 2.6s; }
.sparkle.s7 { animation-delay: .8s;  animation-duration: 2.4s; }
.sparkle.s8 { animation-delay: 2.0s; animation-duration: 2.9s; }
@keyframes twinkle {
  0%,100% { opacity: 0.15; transform: scale(.5) rotate(0); }
  50%     { opacity: 1;    transform: scale(1.35) rotate(45deg); }
}

</style>
<g class="main"><path d="M0 0 C8.9225 5.704 16.0262 13.6244 22.375 22 C22.9366 22.7406 23.4983 23.4811 24.0769 24.2441 C44.3622 51.4033 57.985 85.5659 53.5312 119.9727 C51.9821 129.1848 48.9067 135.6529 43.4531 143.1172 C39.5783 148.57 37.4586 153.9453 35.3398 160.2812 C33.9858 164.0393 32.3763 167.5365 30.625 171.125 C24.3423 184.1033 19.9101 198.1385 16 212 C15.6759 213.1444 15.3518 214.2889 15.0178 215.468 C9.7684 236.7603 11.6831 260.8943 11.7393 282.6794 C11.7509 287.2309 11.7439 291.7822 11.7321 296.3337 C11.7249 299.8689 11.7272 303.404 11.7324 306.9392 C11.7337 308.6206 11.7321 310.302 11.7274 311.9833 C11.7224 314.3055 11.73 316.6273 11.7412 318.9495 C11.7428 320.267 11.7444 321.5846 11.746 322.942 C12 326 12 326 14 328 C14.2803 332.6762 14.0852 337.3122 14 342 C6.41 342 -1.18 342 -9 342 C-8.9936 338.3365 -8.9871 334.673 -8.9805 330.8984 C-8.974 315.3135 -9.0685 299.7297 -9.2357 284.1457 C-9.2805 279.9544 -9.3199 275.7632 -9.3464 271.5718 C-9.7166 214.7275 -9.7166 214.7275 -21 200 C-21 199.34 -21 198.68 -21 198 C-21.6187 197.6906 -22.2375 197.3813 -22.875 197.0625 C-24.25 196.375 -25.625 195.6875 -27 195 C-60.1229 219.8171 -82.3307 268.0543 -100.0789 304.2478 C-106.1756 316.6577 -112.7919 328.5949 -122 339 C-122.312 339.359 -122.312 339.359 -123.8906 341.1758 C-136.7784 355.0851 -154.9879 357.6981 -173 359 C-176.57 359.1263 -180.135 359.1372 -183.707 359.1294 C-184.7211 359.1311 -185.7351 359.1328 -186.7798 359.1346 C-190.1241 359.1389 -193.4683 359.136 -196.8125 359.1328 C-199.1939 359.1339 -201.5753 359.1353 -203.9567 359.1369 C-210.3215 359.1397 -216.6863 359.1354 -223.0511 359.1288 C-227.0049 359.125 -230.9587 359.1229 -234.9124 359.1213 C-276.7572 359.101 -318.5913 358.8573 -360.4288 358.0664 C-363.8501 358.0028 -367.2714 357.9439 -370.6929 357.8867 C-375.4737 357.8061 -380.2541 357.716 -385.0345 357.6142 C-386.6274 357.5808 -388.2204 357.5497 -389.8134 357.5213 C-402.9664 357.277 -414.3929 357.0219 -424.4375 347.75 C-427.6783 342.0461 -427.5612 335.6202 -425.9023 329.375 C-416.2475 303.963 -384.5428 288.9906 -361.9961 277.0859 C-360 276 -360 276 -357 274 C-358.7364 273.4212 -360.4768 272.8536 -362.2266 272.3164 C-362.6223 272.192 -362.6223 272.192 -364.625 271.5625 C-365.4216 271.3163 -366.2183 271.0701 -367.0391 270.8164 C-369 270 -369 270 -370 268 C-370.5869 262.6713 -368.8807 259.0839 -366.3125 254.5625 C-366.1293 254.231 -366.1293 254.231 -365.2019 252.5532 C-361.4796 245.9057 -357.4895 240.3523 -352 235 C-351.1129 233.9686 -350.238 232.9266 -349.375 231.875 C-345.7872 227.5319 -345.7872 227.5319 -344 226 C-343.34 226 -342.68 226 -342 226 C-342 225.34 -342 224.68 -342 224 C-339.7695 222.0195 -339.7695 222.0195 -336.8125 219.8125 C-335.8496 219.0764 -334.8866 218.3404 -333.8945 217.582 C-331 216 -331 216 -328.2812 216.0469 C-324.407 217.6656 -323.7598 220.2849 -322 224 C-322 224.66 -322 225.32 -322 226 C-321.34 226 -320.68 226 -320 226 C-319.3291 227.6233 -318.6634 229.2487 -318 230.875 C-317.6287 231.7799 -317.2575 232.6848 -316.875 233.6172 C-316 236 -316 236 -316 238 C-315.34 238 -314.68 238 -314 238 C-314 239.32 -314 240.64 -314 242 C-312.9894 241.9381 -311.9787 241.8763 -310.9375 241.8125 C-306.3595 242.0305 -304.0181 242.8728 -300 245 C-299.34 245.99 -298.68 246.98 -298 248 C-285.3129 244.4908 -285.3129 244.4908 -279.5 241.875 C-276.4436 240.8053 -273.5463 240.5173 -270.332 240.2188 C-268.1675 240.0157 -266.0277 239.7385 -263.875 239.4375 C-258.5952 238.8414 -253.1138 238.2954 -248 240 C-246.1875 242.0625 -246.1875 242.0625 -245 244 C-244.0087 243.7138 -243.0174 243.4277 -241.9961 243.1328 C-239.3905 242.3861 -236.7828 241.6805 -234.1602 240.9922 C-220.0788 237.215 -207.025 231.7537 -196 222 C-195.6023 221.6674 -195.6023 221.6674 -193.5898 219.9844 C-171.8935 201.3396 -158.0839 174.2533 -143.9375 149.875 C-130.1393 126.112 -115.7744 103.0154 -98 82 C-97.7321 81.6806 -97.7321 81.6806 -96.3765 80.0645 C-91.3108 74.0292 -86.25 68.0403 -80.5703 62.5664 C-78.8047 60.8052 -77.1878 58.9538 -75.5625 57.0625 C-71.927 52.8595 -68.2097 48.6387 -64 45 C-63.34 45 -62.68 45 -62 45 C-61.67 44.01 -61.34 43.02 -61 42 C-59.6094 40.5977 -59.6094 40.5977 -57.75 39.0625 C-54.537 36.3438 -51.4208 33.5539 -48.3486 30.679 C-42.1084 24.8414 -35.7102 19.2975 -29 14 C-28.7369 13.7897 -28.7369 13.7897 -27.4053 12.7256 C-7.9158 -2.8271 -7.9158 -2.8271 0 0 Z " fill="#FEFEFD" transform="translate(832,357)"/>
<path d="M0 0 C11.2067 4.416 20.0824 12.3656 29.1318 20.0889 C31.117 21.7821 33.1132 23.4612 35.1133 25.1367 C41.0795 30.1598 46.7936 35.2886 52.2383 40.8828 C54.0863 42.7345 55.9867 44.4371 57.9805 46.1289 C66.0692 53.0829 73.6888 60.8197 80.582 68.957 C81.7563 70.3261 82.9634 71.6673 84.1914 72.9883 C91.4754 80.8244 97.8457 89.3099 104.2305 97.8789 C104.6647 98.4559 105.099 99.0329 105.5464 99.6274 C116.8736 114.7258 126.4066 131.1007 136.0432 147.3054 C146.1043 164.2202 156.2683 180.9857 169.2305 195.8789 C169.933 196.7258 170.6355 197.5727 171.3594 198.4453 C186.0685 215.6805 207.0417 225.5593 229.2305 228.8789 C229.2305 229.5389 229.2305 230.1989 229.2305 230.8789 C232.2305 229.8789 232.2305 229.8789 234.2305 227.8789 C247.1661 224.5621 261.9543 227.3934 274.2305 231.8789 C277.617 232.782 279.9709 233.305 283.2305 231.8789 C284.0348 231.0333 284.8392 230.1877 285.668 229.3164 C288.2305 226.8789 288.2305 226.8789 290.8555 226.8164 C291.6392 226.837 292.423 226.8577 293.2305 226.8789 C296.1688 223.729 297.5553 220.0146 299.168 216.0664 C304.8425 202.5321 304.8425 202.5321 308.3555 200.8789 C310.2305 200.8789 310.2305 200.8789 312.2305 201.8789 C312.2305 202.5389 312.2305 203.1989 312.2305 203.8789 C312.7964 203.9846 313.3623 204.0903 313.9453 204.1992 C316.6142 204.9931 318.4932 206.1896 320.793 207.7539 C321.5574 208.267 322.3218 208.78 323.1094 209.3086 C325.0184 210.7219 326.6078 212.1531 328.2305 213.8789 C332.0019 217.7646 332.0019 217.7646 334.2305 218.8789 C334.5605 219.8689 334.8905 220.8589 335.2305 221.8789 C336.2205 222.2089 337.2105 222.5389 338.2305 222.8789 C338.2305 223.8689 338.2305 224.8589 338.2305 225.8789 C338.8905 225.8789 339.5505 225.8789 340.2305 225.8789 C343.7621 230.3387 347.2305 236.0616 347.2305 241.8789 C348.2205 242.2089 349.2105 242.5389 350.2305 242.8789 C349.9005 245.1889 349.5705 247.4989 349.2305 249.8789 C345.5825 251.1514 342.0368 252.2072 338.2305 252.8789 C339.2305 255.8789 339.2305 255.8789 341.5686 257.3459 C342.5927 257.8531 343.6168 258.3603 344.6719 258.8828 C345.2388 259.1683 345.2388 259.1683 348.1079 260.613 C348.409 260.7622 348.409 260.7622 349.9324 261.5173 C353.0436 263.0626 356.136 264.6444 359.2266 266.2305 C359.8365 266.5434 360.4464 266.8563 361.0748 267.1786 C371.8131 272.7259 381.9165 279.1589 391.2305 286.8789 C391.6397 287.1863 391.6397 287.1863 393.7109 288.7422 C400.3862 294.4032 406.3613 302.9754 407.6445 311.6914 C408.023 317.2987 407.7804 321.0347 404.1055 325.4414 C398.3442 331.04 392.3348 332.8839 384.4528 333.1376 C383.5175 333.1697 382.5823 333.2018 381.6187 333.2349 C380.6025 333.2656 379.5863 333.2963 378.5393 333.3279 C377.4568 333.3639 376.3743 333.3998 375.259 333.4369 C371.6572 333.5556 368.0552 333.6684 364.4531 333.7812 C361.9148 333.8638 359.3764 333.9467 356.838 334.03 C350.7547 334.2286 344.6712 334.4235 338.5876 334.6164 C331.603 334.838 324.6186 335.0633 317.6341 335.2889 C314.1635 335.4011 310.6928 335.513 307.2222 335.625 C306.5397 335.647 305.8572 335.669 305.1541 335.6917 C300.3572 335.8463 295.5602 335.9999 290.7633 336.1531 C276.4001 336.6122 262.0375 337.0833 247.6758 337.5859 C139.3414 341.3634 139.3414 341.3634 120.2305 324.8789 C119.5486 324.295 118.8666 323.711 118.1641 323.1094 C105.2542 311.109 97.7748 294.1944 89.6353 278.877 C79.6481 260.1126 69.2333 241.6899 56.5181 224.6152 C55.1195 222.7293 53.7434 220.8281 52.3672 218.9258 C45.3088 209.2509 37.7011 200.3496 29.2305 191.8789 C26.8577 192.1081 25.5499 192.6175 23.7031 194.1289 C14.4158 205.6544 13.0627 222.0935 13.1169 236.334 C13.1168 237.3495 13.1167 238.3651 13.1165 239.4114 C13.1172 242.7443 13.125 246.0772 13.1328 249.4102 C13.1347 251.7304 13.1361 254.0507 13.1371 256.371 C13.1409 262.4602 13.1507 268.5494 13.1618 274.6387 C13.1721 280.8594 13.1766 287.0801 13.1816 293.3008 C13.1923 305.4935 13.2094 317.6862 13.2305 329.8789 C8.5596 330.7109 4.1689 331.0132 -0.582 331.0039 C-1.262 331.0078 -1.942 331.0116 -2.6426 331.0156 C-7.6428 331.0057 -7.6428 331.0057 -8.7695 329.8789 C-8.8687 327.735 -8.8992 325.5876 -8.8945 323.4414 C-8.8971 322.2671 -8.8997 321.0927 -8.9023 319.8828 C-8.7695 316.8789 -8.7695 316.8789 -7.7695 314.8789 C-7.6736 313.1216 -7.6416 311.3607 -7.6401 309.6008 C-7.6386 309.0474 -7.6386 309.0474 -7.6306 306.2468 C-7.6326 305.0387 -7.6346 303.8306 -7.6367 302.5859 C-7.6358 301.3337 -7.6348 300.0816 -7.6338 298.7914 C-7.6331 296.1222 -7.6345 293.4531 -7.6392 290.7839 C-7.6458 286.7811 -7.6393 282.7783 -7.6328 278.7754 C-7.629 266.8745 -7.6993 254.9857 -8.1914 243.0938 C-8.227 242.2014 -8.2626 241.309 -8.2993 240.3896 C-8.902 227.6941 -10.9058 215.0017 -14.7695 202.8789 C-14.9822 202.1867 -15.1949 201.4945 -15.4141 200.7812 C-17.0393 195.6964 -18.9155 190.6964 -20.7695 185.6914 C-21.0187 185.0138 -21.2679 184.3361 -21.5247 183.6379 C-23.0455 179.5759 -24.8008 175.7497 -26.7695 171.8789 C-27.2465 170.7626 -27.7234 169.6463 -28.2148 168.4961 C-29.8936 164.5902 -31.733 160.7995 -33.6445 157.0039 C-33.9989 156.2999 -34.3534 155.5959 -34.7185 154.8706 C-38.2429 147.9021 -41.7379 141.2313 -46.3945 134.9414 C-56.5812 120.6801 -55.3166 99.1524 -52.582 82.5664 C-50.3428 70.1175 -46.4737 58.1778 -40.7695 46.8789 C-40.2062 45.7304 -39.6429 44.5818 -39.0625 43.3984 C-34.2397 33.8057 -28.3271 25.356 -21.7695 16.8789 C-21.0438 15.916 -20.318 14.953 -19.5703 13.9609 C-7.4168 -1.8219 -7.4168 -1.8219 0 0 Z " fill="#FEFDFD" transform="translate(173.76953125,550.12109375)"/>
<path d="M0 0 C9.6883 5.5554 14.9705 14.7463 18.25 25.25 C21.5005 41.3682 17.3565 55.8046 8.875 69.4375 C6.7106 72.5818 4.5507 75.7053 1.875 78.4375 C1.215 78.4375 0.555 78.4375 -0.125 78.4375 C-0.241 78.7211 -0.241 78.7211 -0.8281 80.1562 C-4.4912 86.5997 -11.8461 91.6371 -18.125 95.4375 C-16.4085 97.154 -14.0235 97.0592 -11.6836 97.4531 C38.1868 106.0928 38.1868 106.0928 51.25 123.625 C53.8623 128.1464 54.5716 132.2767 53.875 137.4375 C51.0505 142.9778 46.9218 147.2179 41.0938 149.5508 C30.5773 152.4479 21.313 150.3949 11.875 145.4375 C10.8644 144.918 9.8537 144.3985 8.8125 143.8633 C1.5861 139.909 -4.1841 135.0969 -10.125 129.4375 C-11.5136 128.2001 -12.909 126.9704 -14.3125 125.75 C-14.8836 125.2511 -15.4546 124.7523 -16.043 124.2383 C-19.0614 121.6276 -22.0933 119.0327 -25.125 116.4375 C-25.8958 116.7602 -26.6666 117.083 -27.4607 117.4155 C-30.3601 118.6254 -33.2622 119.8285 -36.1663 121.0273 C-38.0251 121.797 -39.8807 122.5742 -41.7363 123.3516 C-48.1709 126.0021 -54.2691 128.2098 -61.125 129.4375 C-61.101 129.7635 -61.101 129.7635 -60.9797 131.4131 C-60.6367 136.0781 -60.6367 136.0781 -61.125 138.4375 C-65.1079 142.7935 -70.2485 144.0537 -75.75 145.625 C-76.1961 145.7541 -76.1961 145.7541 -78.4534 146.4077 C-94.5002 150.9074 -94.5002 150.9074 -100.25 147.6875 C-102.125 145.4375 -102.125 145.4375 -103.125 142.4375 C-111.0676 142.9428 -118.7094 144.5268 -126.4667 146.2199 C-194.8964 161.0439 -194.8964 161.0439 -208.125 153.4375 C-209.4362 151.0094 -210.3095 149.0259 -211.125 146.4375 C-211.3429 145.7685 -211.5607 145.0995 -211.7852 144.4102 C-213.0127 140.1746 -213.8577 136.6325 -212.125 132.4375 C-179.2893 99.3356 -89.7322 96.2794 -45.9785 88.8518 C-44.125 88.4375 -44.125 88.4375 -43.125 87.4375 C-43.0737 85.4759 -43.0899 83.5126 -43.1328 81.5508 C-43.1519 80.3128 -43.171 79.0748 -43.1907 77.7993 C-43.1959 77.469 -43.1959 77.469 -43.2223 75.7977 C-43.5446 51.9556 -42.7983 24.1959 -25.8125 5.5625 C-18.5944 -1.1479 -9.29 -4.1348 0 0 Z " fill="#FCF7F6" transform="translate(856.125,216.5625)"/>
<path d="M0 0 C9.051 5.2478 13.8569 13.84 16.875 23.5625 C19.7039 34.2427 21.8699 44.9585 22.1914 56.0273 C22.2122 56.7055 22.233 57.3837 22.2544 58.0824 C22.3191 60.2215 22.3784 62.3607 22.4375 64.5 C22.4808 65.9616 22.5244 67.4232 22.5684 68.8848 C22.6747 72.4439 22.7762 76.0031 22.875 79.5625 C23.4429 79.6549 23.4429 79.6549 26.3167 80.1223 C166.5016 103.0301 166.5016 103.0301 182.6406 119.3477 C185.0949 123.7514 183.0257 128.8989 181.875 133.5625 C181.0733 136.1757 180.2149 138.1507 178.875 140.5625 C150.4874 150.025 103.7774 135.8365 75.875 128.5625 C75.6069 129.5113 75.3388 130.46 75.0625 131.4375 C73.875 134.5625 73.875 134.5625 70.875 136.5625 C64.9172 137.0793 59.5973 135.773 53.875 134.3125 C53.0113 134.1075 52.1477 133.9026 51.2578 133.6914 C45.8867 132.3445 41.2393 131.0403 36.875 127.5625 C36.3423 125.4399 36.3423 125.4399 36.0391 123.0547 C35.6729 120.6709 35.6729 120.6709 34.875 118.5625 C31.921 116.4691 28.7175 115.63 25.25 114.6875 C23.4868 114.149 21.7238 113.6099 19.9609 113.0703 C19.1085 112.8231 18.2562 112.576 17.3779 112.3213 C13.805 111.2381 10.3533 109.9165 6.875 108.5625 C6.4887 108.9698 6.1024 109.377 5.7043 109.7966 C-7.0377 123.1332 -22.9165 139.0704 -42.5625 139.875 C-49.3096 139.7026 -55.3732 137.4501 -60.125 132.5625 C-62.5323 128.6021 -63.4622 125.6643 -62.75 121.125 C-60.3489 112.6564 -53.5956 107.5657 -46.3047 103.2188 C-33.5138 96.5562 -16.6335 90.5625 -2.125 90.5625 C-2.0037 87.6522 -2.0014 86.2008 -3.125 83.5625 C-5.6023 81.2119 -8.1944 79.2451 -10.9727 77.2617 C-11.6829 76.701 -12.3932 76.1402 -13.125 75.5625 C-13.125 74.9025 -13.125 74.2425 -13.125 73.5625 C-14.115 73.2325 -15.105 72.9025 -16.125 72.5625 C-27.8649 60.0531 -34.579 47.4424 -34.4023 30.1133 C-33.4959 18.5088 -28.9959 9.7806 -20.4375 2.125 C-14.7631 -2.6623 -6.7243 -2.9294 0 0 Z " fill="#FCF7F5" transform="translate(168.125,420.4375)"/>
<path d="M0 0 C1.7275 9.9812 -3.2267 17.6511 -8 26 C-8.562 26.9836 -9.1241 27.9671 -9.7031 28.9805 C-14.0783 36.1698 -19.3192 42.6773 -24.5781 49.228 C-28.7666 54.4478 -32.8987 59.7115 -37 65 C-37.562 65.724 -38.1241 66.4479 -38.7031 67.1938 C-55.2899 88.662 -69.7097 111.1723 -81.7305 135.5078 C-87.4056 146.768 -92.0897 152.6701 -103 159 C-123.3664 174.0304 -137.8798 194.3636 -152.4023 214.7695 C-158.8964 223.884 -165.6144 232.5916 -173 241 C-173.6458 241.7567 -174.2916 242.5134 -174.957 243.293 C-179.044 248.0626 -183.2425 252.8878 -188 257 C-188.66 257 -189.32 257 -190 257 C-190 257.66 -190 258.32 -190 259 C-191.9347 259.6336 -193.873 260.2563 -195.8125 260.875 C-196.8914 261.223 -197.9704 261.5711 -199.082 261.9297 C-207.9455 264.4912 -216.5515 265.3032 -225.75 265.1875 C-226.7387 265.1869 -227.7274 265.1862 -228.7461 265.1855 C-233.9317 265.1544 -238.8903 264.8921 -244 264 C-243.4421 256.9848 -242.8155 249.9902 -242 243 C-238.3942 241.959 -234.7906 240.945 -231.1602 239.9922 C-217.0788 236.215 -204.025 230.7537 -193 221 C-192.2046 220.3348 -191.4093 219.6697 -190.5898 218.9844 C-168.8935 200.3396 -155.0839 173.2533 -140.9375 148.875 C-127.1393 125.112 -112.7744 102.0154 -95 81 C-94.7321 80.6806 -94.7321 80.6806 -93.3765 79.0645 C-88.3108 73.0292 -83.25 67.0403 -77.5703 61.5664 C-75.8047 59.8052 -74.1878 57.9538 -72.5625 56.0625 C-68.927 51.8595 -65.2097 47.6387 -61 44 C-60.34 44 -59.68 44 -59 44 C-58.67 43.01 -58.34 42.02 -58 41 C-56.6094 39.5977 -56.6094 39.5977 -54.75 38.0625 C-51.537 35.3438 -48.4208 32.5539 -45.3486 29.679 C-39.1084 23.8413 -32.7093 18.2987 -26 13 C-25.4684 12.5741 -24.9368 12.1483 -24.3892 11.7095 C-6.6443 -2.4916 -6.6443 -2.4916 0 0 Z " fill="#706362" transform="translate(829,358)"/>
<path d="M0 0 C11.2502 0.7796 21.9823 12.4478 30.1709 19.4365 C32.156 21.1298 34.1522 22.8089 36.1523 24.4844 C42.1186 29.5075 47.8327 34.6362 53.2773 40.2305 C55.1254 42.0821 57.0258 43.7848 59.0195 45.4766 C67.1082 52.4306 74.7279 60.1673 81.6211 68.3047 C82.7954 69.6737 84.0024 71.0149 85.2305 72.3359 C92.5144 80.1721 98.8848 88.6575 105.2695 97.2266 C105.7038 97.8036 106.138 98.3806 106.5854 98.9751 C117.9126 114.0734 127.4456 130.4484 137.0823 146.6531 C147.1434 163.5679 157.3074 180.3333 170.2695 195.2266 C170.9721 196.0735 171.6746 196.9204 172.3984 197.793 C187.1076 215.0282 208.0808 224.907 230.2695 228.2266 C230.774 230.8091 231.2733 233.3924 231.7695 235.9766 C231.9126 236.7062 232.0557 237.4358 232.2031 238.1875 C232.8584 241.62 233.2695 244.7183 233.2695 248.2266 C221.2161 251.9353 210.2421 251.891 197.8945 249.9141 C197.5261 249.8553 197.5261 249.8553 195.6616 249.5581 C186.7976 247.9932 180.6409 245.413 174.1445 239.1016 C173.5027 238.4883 172.8609 237.875 172.1997 237.2432 C160.8301 226.1383 151.4907 213.3753 142.3047 200.4609 C138.1197 194.5885 133.7091 188.908 129.2695 183.2266 C128.6766 182.4273 128.0836 181.6281 127.4727 180.8047 C116.4431 166.2613 102.2731 152.3417 86.1641 143.5273 C82.0606 140.2656 80.3869 136.3915 78.1445 131.7266 C77.1884 129.8244 76.2273 127.9247 75.2617 126.0273 C75.016 125.5443 75.016 125.5443 73.7725 123.1001 C63.3274 103.1295 50.0982 84.9466 36.2695 67.2266 C35.7898 66.6104 35.3101 65.9942 34.8159 65.3594 C30.6647 60.0319 26.4915 54.7238 22.2344 49.4805 C13.8376 39.1287 5.8899 28.771 -0.293 16.9141 C-0.64 16.2683 -0.9871 15.6226 -1.3447 14.9573 C-3.7298 10.1817 -4.1432 6.557 -3.7305 1.2266 C-2.7305 0.2266 -2.7305 0.2266 0 0 Z " fill="#6F6362" transform="translate(172.73046875,550.7734375)"/>
<path d="M0 0 C0.33 0.66 0.66 1.32 1 2 C0.0218 3.6795 -0.9829 5.3437 -2 7 C-2.7954 9.1084 -3.5419 11.2357 -4.25 13.375 C-6.0184 18.4789 -8.006 23.2595 -10.375 28.125 C-16.6564 41.1044 -21.0897 55.138 -25 69 C-25.3241 70.1444 -25.6482 71.2889 -25.9822 72.468 C-31.2316 93.7603 -29.3169 117.8943 -29.2607 139.6794 C-29.2491 144.2309 -29.2561 148.7822 -29.2679 153.3337 C-29.2751 156.8689 -29.2728 160.404 -29.2676 163.9392 C-29.2663 165.6206 -29.2679 167.302 -29.2726 168.9833 C-29.2776 171.3055 -29.27 173.6273 -29.2588 175.9495 C-29.2572 177.267 -29.2556 178.5846 -29.254 179.942 C-29 183 -29 183 -27 185 C-26.7197 189.6762 -26.9148 194.3122 -27 199 C-34.59 199 -42.18 199 -50 199 C-49.9936 195.3365 -49.9871 191.673 -49.9805 187.8984 C-49.974 172.3135 -50.0685 156.7297 -50.2357 141.1457 C-50.2805 136.9544 -50.3199 132.7632 -50.3464 128.5718 C-50.7166 71.7275 -50.7166 71.7275 -62 57 C-62 56.34 -62 55.68 -62 55 C-62.6187 54.6906 -63.2375 54.3813 -63.875 54.0625 C-65.25 53.375 -66.625 52.6875 -68 52 C-101.1229 76.8171 -123.3307 125.0543 -141.0789 161.2478 C-147.1756 173.6577 -153.7919 185.5949 -163 196 C-163.6239 196.718 -164.2478 197.436 -164.8906 198.1758 C-177.7784 212.0851 -195.9879 214.6981 -214 216 C-217.57 216.1263 -221.135 216.1372 -224.707 216.1294 C-225.7211 216.1311 -226.7351 216.1328 -227.7798 216.1346 C-231.1241 216.1389 -234.4683 216.136 -237.8125 216.1328 C-240.1939 216.1339 -242.5753 216.1353 -244.9567 216.1369 C-251.3215 216.1397 -257.6863 216.1354 -264.0511 216.1288 C-268.0049 216.125 -271.9587 216.1229 -275.9124 216.1213 C-317.7572 216.101 -359.5913 215.8573 -401.4288 215.0664 C-404.8501 215.0028 -408.2714 214.9439 -411.6929 214.8867 C-416.4737 214.8061 -421.2541 214.716 -426.0345 214.6142 C-427.6274 214.5808 -429.2204 214.5497 -430.8134 214.5213 C-455.0911 214.0704 -455.0911 214.0704 -463 207 C-463 206.34 -463 205.68 -463 205 C-461.2288 205.1413 -459.458 205.2882 -457.6875 205.4375 C-457.1944 205.4781 -457.1944 205.4781 -454.6992 205.6836 C-452 206 -452 206 -449 207 C-446.027 207.0964 -443.0777 207.1346 -440.1046 207.127 C-439.1837 207.1285 -438.2628 207.1301 -437.314 207.1317 C-434.2144 207.1357 -431.1149 207.1325 -428.0154 207.1294 C-425.7979 207.1307 -423.5804 207.1325 -421.3628 207.1347 C-415.3248 207.1393 -409.2868 207.1375 -403.2488 207.1343 C-396.923 207.1318 -390.5973 207.1341 -384.2716 207.1357 C-372.9489 207.1377 -361.6262 207.1345 -350.3035 207.1295 C-340.0708 207.125 -329.838 207.1257 -319.6052 207.1304 C-307.7072 207.1357 -295.8091 207.1377 -283.9111 207.1348 C-277.6194 207.1332 -271.3278 207.133 -265.0361 207.1363 C-259.1043 207.1392 -253.1724 207.1371 -247.2406 207.1314 C-245.076 207.1301 -242.9115 207.1304 -240.7469 207.1327 C-230.8559 207.1419 -220.9788 207.0992 -211.0984 206.6013 C-210.7487 206.5851 -210.7487 206.5851 -208.9787 206.5029 C-194.1179 205.6347 -179.4123 201.0073 -169 190 C-160.2424 180.1338 -154.9111 167.6638 -149 156 C-135.3338 129.0384 -120.4486 103.2578 -101 80 C-100.569 79.4749 -100.1379 78.9497 -99.6938 78.4087 C-90.4061 67.1087 -80.6818 57.3682 -68.668 48.9297 C-66.0811 47.0586 -63.6776 45.0719 -61.25 43 C-55.569 38.2877 -49.5578 34.0875 -43.5 29.875 C-43.0193 29.5405 -43.0193 29.5405 -40.5869 27.8477 C-34.1542 23.4059 -27.6114 19.1697 -21 15 C-13.7318 10.3298 -6.7219 5.4318 0 0 Z " fill="#D7D1CB" transform="translate(873,500)"/>
<path d="M0 0 C-9.1824 8.4151 -20.1594 14.0276 -31 20 C-30.2098 20.5711 -29.4196 21.1421 -28.6055 21.7305 C-25.9688 24.0272 -25.2249 25.0408 -24.3125 28.3125 C-24.0856 29.1027 -23.8587 29.8929 -23.625 30.707 C-23.4188 31.4637 -23.2125 32.2204 -23 33 C-22.8041 33.5775 -22.8041 33.5775 -21.8125 36.5 C-20.8614 40.597 -19.9078 44.8681 -21 49 C-25.0329 53.3356 -30.1019 54.6101 -35.625 56.1875 C-36.5171 56.4458 -37.4092 56.7041 -38.3284 56.9702 C-54.3752 61.4699 -54.3752 61.4699 -60.125 58.25 C-62 56 -62 56 -63 53 C-70.9426 53.5053 -78.5844 55.0893 -86.3417 56.7824 C-154.7714 71.6064 -154.7714 71.6064 -168 64 C-169.3112 61.5719 -170.1845 59.5884 -171 57 C-171.1089 56.6655 -171.1089 56.6655 -171.6602 54.9727 C-172.8877 50.7371 -173.7327 47.195 -172 43 C-141.3943 12.1462 -59.442 9.1369 -19.0078 1.7417 C-16.5179 1.2856 -14.0371 0.8069 -11.5547 0.3091 C-10.5776 0.1156 -9.6005 -0.078 -8.5938 -0.2773 C-7.7862 -0.4436 -6.9786 -0.6098 -6.1465 -0.781 C-3.836 -1.0167 -2.1999 -0.7002 0 0 Z " fill="#726665" transform="translate(816,306)"/>
<path d="M0 0 C0 0.66 0 1.32 0 2 C0.5659 2.1057 1.1318 2.2114 1.7148 2.3203 C4.3838 3.1141 6.2628 4.3107 8.5625 5.875 C9.3269 6.388 10.0913 6.9011 10.8789 7.4297 C12.7879 8.843 14.3773 10.2741 16 12 C19.7714 15.8857 19.7714 15.8857 22 17 C22.165 17.495 22.165 17.495 23 20 C23.495 20.165 23.495 20.165 26 21 C26 21.99 26 22.98 26 24 C26.66 24 27.32 24 28 24 C31.5316 28.4598 35 34.1827 35 40 C35.495 40.165 35.495 40.165 38 41 C37.67 43.31 37.34 45.62 37 48 C33.3521 49.2725 29.8063 50.3283 26 51 C26 51.99 26 52.98 26 54 C18.074 54.4536 11.703 54.0618 4.3398 50.9727 C2.1987 50.0826 0.2973 49.3225 -2 49 C-2.6187 49.6187 -3.2375 50.2375 -3.875 50.875 C-6.533 53.533 -8.3513 53.5327 -12 54 C-12.0793 54.4963 -12.0793 54.4963 -12.4805 57.0078 C-15.2203 73.3153 -20.5016 89.8933 -31 103 C-36.053 102.51 -39.598 100.7732 -43.75 98 C-44.3613 97.5963 -44.9725 97.1926 -45.6023 96.7766 C-60.9392 86.4254 -74.6524 70.7351 -78.4375 52.125 C-78.647 50.7532 -78.8443 49.379 -79 48 C-79.99 47.67 -80.98 47.34 -82 47 C-81.34 47 -80.68 47 -80 47 C-80.2166 46.2034 -80.4331 45.4067 -80.6562 44.5859 C-80.9347 43.5263 -81.2131 42.4667 -81.5 41.375 C-81.7784 40.3309 -82.0569 39.2867 -82.3438 38.2109 C-82.9912 35.0431 -83.1161 32.2226 -83 29 C-82.01 28.67 -81.02 28.34 -80 28 C-79.34 27.34 -78.68 26.68 -78 26 C-65.0643 22.6832 -50.2762 25.5145 -38 30 C-34.6134 30.9031 -32.2596 31.4261 -29 30 C-28.1956 29.1544 -27.3913 28.3088 -26.5625 27.4375 C-24 25 -24 25 -21.375 24.9375 C-20.5913 24.9581 -19.8075 24.9787 -19 25 C-16.0617 21.8501 -14.6752 18.1357 -13.0625 14.1875 C-6.3526 -1.9058 -6.3526 -1.9058 0 0 Z " fill="#FDFDFC" transform="translate(486,752)"/>
<path d="M0 0 C9.4518 -0.4266 18.4236 1.1792 27.6875 2.8125 C28.5546 2.9632 29.4217 3.1138 30.3151 3.2691 C149.0912 23.9484 149.0912 23.9484 163.7656 38.7852 C166.2199 43.1889 164.1507 48.3364 163 53 C162.1983 55.6132 161.3399 57.5882 160 60 C131.6124 69.4625 84.9024 55.274 57 48 C56.7319 48.9488 56.4638 49.8975 56.1875 50.875 C55 54 55 54 52 56 C46.0422 56.5168 40.7223 55.2105 35 53.75 C34.1363 53.545 33.2727 53.3401 32.3828 53.1289 C26.9975 51.7785 22.6349 50.0817 18 47 C15.4482 41.8964 17.3072 35.6353 18.625 30.375 C18.9266 29.104 19.2283 27.833 19.5391 26.5234 C21.3561 22.1412 23.1954 20.7205 27 18 C26.5019 17.7337 26.0037 17.4675 25.4905 17.1931 C5.9625 6.701 5.9625 6.701 0 1 C0 0.67 0 0.34 0 0 Z " fill="#726664" transform="translate(187,501)"/>
<path d="M0 0 C17.6507 5.451 32.3146 25.3887 42.8594 39.6367 C43.3629 40.3065 43.8665 40.9764 44.3853 41.6665 C60.3028 62.8719 72.7953 85.7073 85.1528 109.0835 C93.3348 124.4421 102.6169 133.9395 119.1211 139.875 C124.6472 141.4122 130.1268 141.7637 135.8403 141.782 C136.5113 141.7853 137.1822 141.7886 137.8735 141.792 C140.1214 141.8014 142.3693 141.8033 144.6172 141.8047 C146.2605 141.8087 147.9037 141.8128 149.547 141.8171 C154.0722 141.8266 158.5974 141.8275 163.1225 141.8254 C165.9909 141.8242 168.8593 141.8248 171.7277 141.8254 C208.6633 141.8236 245.5899 141.3283 282.5198 140.7328 C284.6065 140.6993 286.6932 140.6661 288.7799 140.6331 C296.8024 140.5061 304.8248 140.3745 312.8471 140.2361 C315.298 140.1941 317.7488 140.1529 320.1997 140.1128 C331.6688 139.9229 343.1311 139.687 354.5908 139.1697 C355.4367 139.133 356.2827 139.0963 357.1542 139.0585 C362.4662 138.7965 367.6008 138.2088 372.8008 137.0391 C374.8594 136.6367 374.8594 136.6367 378.8594 136.6367 C377.6191 140.4952 375.2508 141.8631 371.8086 143.8047 C368.0327 145.4165 364.151 145.7644 360.0817 145.8954 C359.6141 145.9114 359.6141 145.9114 357.2476 145.9928 C356.7395 146.0081 356.7395 146.0081 354.1682 146.0857 C353.0857 146.1217 352.0032 146.1577 350.888 146.1947 C347.2861 146.3135 343.6841 146.4263 340.082 146.5391 C337.5437 146.6216 335.0053 146.7045 332.4669 146.7878 C326.3836 146.9864 320.3001 147.1813 314.2165 147.3742 C307.232 147.5958 300.2475 147.8211 293.263 148.0467 C289.7924 148.1589 286.3217 148.2709 282.8511 148.3828 C282.1686 148.4048 281.4861 148.4268 280.783 148.4495 C275.9861 148.6041 271.1891 148.7577 266.3922 148.9109 C252.029 149.37 237.6664 149.8411 223.3047 150.3438 C114.9703 154.1212 114.9703 154.1212 95.8594 137.6367 C95.1775 137.0528 94.4955 136.4688 93.793 135.8672 C80.8831 123.8668 73.4037 106.9522 65.2642 91.6348 C55.277 72.8704 44.8623 54.4477 32.147 37.373 C30.7484 35.4871 29.3723 33.5859 27.9961 31.6836 C20.9377 22.0087 13.3301 13.1074 4.8594 4.6367 C2.4866 4.8659 1.1788 5.3753 -0.668 6.8867 C-9.9553 18.4122 -11.3084 34.8513 -11.2542 49.0918 C-11.2543 50.1073 -11.2544 51.1229 -11.2546 52.1692 C-11.2539 55.5021 -11.2461 58.835 -11.2383 62.168 C-11.2364 64.4882 -11.235 66.8085 -11.234 69.1288 C-11.2302 75.218 -11.2204 81.3072 -11.2093 87.3965 C-11.199 93.6172 -11.1945 99.8379 -11.1895 106.0586 C-11.1787 118.2513 -11.1617 130.444 -11.1406 142.6367 C-15.8115 143.4687 -20.2022 143.771 -24.9531 143.7617 C-25.2931 143.7637 -25.2931 143.7637 -27.0137 143.7734 C-32.0139 143.7635 -32.0139 143.7635 -33.1406 142.6367 C-33.2396 140.4719 -33.2703 138.3038 -33.2656 136.1367 C-33.2682 134.9508 -33.2708 133.7648 -33.2734 132.543 C-33.1406 129.6367 -33.1406 129.6367 -32.1406 128.6367 C-30.121 128.5643 -28.099 128.5529 -26.0781 128.5742 C-24.9734 128.5832 -23.8687 128.5923 -22.7305 128.6016 C-22.3031 128.6074 -22.3031 128.6074 -20.1406 128.6367 C-20.1532 127.578 -20.1657 126.5193 -20.1786 125.4286 C-20.2982 115.2988 -20.4159 105.1691 -20.5318 95.0393 C-20.5914 89.8353 -20.6516 84.6314 -20.7134 79.4275 C-20.8422 68.5439 -20.9623 57.6603 -21.0608 46.7764 C-21.1084 41.6048 -21.1693 36.4336 -21.2455 31.2623 C-21.2858 28.347 -21.3141 25.4316 -21.3386 22.5161 C-21.3587 20.5803 -21.394 18.6448 -21.4298 16.7092 C-21.4369 15.5697 -21.4439 14.4302 -21.4512 13.2561 C-21.4637 12.2823 -21.4762 11.3085 -21.4891 10.3052 C-20.9639 6.2833 -19.1763 3.6503 -16.3125 0.8477 C-11.5128 -1.8285 -5.2628 -0.8931 0 0 Z " fill="#3C3433" transform="translate(198.140625,737.36328125)"/>
<path d="M0 0 C3.8742 1.6187 4.5215 4.238 6.2812 7.9531 C6.2812 8.6131 6.2812 9.2731 6.2812 9.9531 C6.9412 9.9531 7.6012 9.9531 8.2812 9.9531 C8.9521 11.5764 9.6178 13.2018 10.2812 14.8281 C10.6525 15.733 11.0237 16.638 11.4062 17.5703 C12.2812 19.9531 12.2812 19.9531 12.2812 21.9531 C12.9412 21.9531 13.6013 21.9531 14.2812 21.9531 C14.2812 23.2731 14.2812 24.5931 14.2812 25.9531 C15.2919 25.8913 16.3025 25.8294 17.3438 25.7656 C21.9218 25.9836 24.2632 26.8259 28.2812 28.9531 C28.6113 29.4481 28.6113 29.4481 30.2812 31.9531 C42.9684 28.4439 42.9684 28.4439 48.7812 25.8281 C51.8376 24.7584 54.7349 24.4704 57.9492 24.1719 C60.1138 23.9688 62.2535 23.6916 64.4062 23.3906 C75.3134 22.1592 75.3134 22.1592 80.2812 23.9531 C83.125 27.1892 83.7541 30.1469 83.5625 34.418 C80.7596 59.683 70.3992 80.7397 51.1953 97.6445 C39.3261 107.0476 39.3261 107.0476 34.1406 106.8867 C26.7468 103.1743 23.0836 91.7091 19.8594 84.4688 C18.8646 82.2528 17.8127 80.0608 16.6836 77.9102 C15.1848 74.7498 14.3547 71.8007 13.5938 68.3906 C13.3424 67.2962 13.091 66.2018 12.832 65.0742 C12.3388 62.279 12.1707 59.7809 12.2812 56.9531 C15.1533 57.2636 16.8045 57.4573 18.8438 59.5781 C20.7155 62.6705 22.5048 65.8056 24.2812 68.9531 C29.8442 78.7882 29.8442 78.7882 33.1562 81.8281 C33.8575 82.5294 34.5588 83.2306 35.2812 83.9531 C35.2812 85.2731 35.2812 86.5931 35.2812 87.9531 C36.2713 87.2931 37.2613 86.6331 38.2812 85.9531 C40.6132 85.8741 42.9496 85.8651 45.2812 85.9531 C45.5081 85.2313 45.735 84.5094 45.9688 83.7656 C47.5446 80.3888 49.49 78.3955 52.2812 75.9531 C52.9412 75.9531 53.6012 75.9531 54.2812 75.9531 C54.5081 75.2931 54.735 74.6331 54.9688 73.9531 C56.0171 71.5569 57.0542 69.6793 58.4688 67.5156 C60.8693 63.7576 62.9559 59.8664 64.9688 55.8906 C65.5501 54.7446 66.1315 53.5987 66.7305 52.418 C68.2917 48.9298 69.2766 45.6278 70.2812 41.9531 C70.6113 41.6231 70.9412 41.2931 71.2812 40.9531 C71.3533 39.267 71.3651 37.5781 71.3438 35.8906 C71.3347 34.9715 71.3257 34.0524 71.3164 33.1055 C71.3048 32.3952 71.2932 31.6849 71.2812 30.9531 C69.8239 30.7582 68.3653 30.5724 66.9062 30.3906 C66.0941 30.2862 65.282 30.1818 64.4453 30.0742 C62.2812 29.9531 62.2812 29.9531 60.2812 30.9531 C58.4327 31.2785 56.5769 31.563 54.7188 31.8281 C53.5573 32.0112 52.3959 32.1942 51.1992 32.3828 C48.443 32.784 45.7241 33.1188 42.957 33.3984 C35.4955 34.2682 30.2609 34.9534 25.0312 40.8281 C23.7561 42.5177 22.5024 44.2241 21.2812 45.9531 C19.6334 47.6384 17.9712 49.3101 16.2812 50.9531 C15.8894 51.4275 15.8894 51.4275 13.9062 53.8281 C11.2812 55.9531 11.2812 55.9531 7.5938 55.8906 C4.2812 54.9531 4.2812 54.9531 2.2812 52.9531 C-2.3291 53.1727 -5.7417 54.8186 -9.6914 57.0156 C-13.9628 58.9909 -18.2563 59.1117 -22.9062 59.1406 C-23.9517 59.1548 -24.9971 59.169 -26.0742 59.1836 C-28.7188 58.9531 -28.7188 58.9531 -30.7188 56.9531 C-33.0075 56.3767 -35.2976 56.0024 -37.625 55.6133 C-39.7188 54.9531 -39.7188 54.9531 -41.7188 51.9531 C-42.4113 46.6484 -40.5863 43.0139 -38.0312 38.5156 C-37.6648 37.8526 -37.2983 37.1895 -36.9207 36.5063 C-33.1984 29.8589 -29.2083 24.3054 -23.7188 18.9531 C-22.8317 17.9217 -21.9568 16.8798 -21.0938 15.8281 C-17.506 11.485 -17.506 11.485 -15.7188 9.9531 C-15.0587 9.9531 -14.3988 9.9531 -13.7188 9.9531 C-13.7188 9.2931 -13.7188 8.6331 -13.7188 7.9531 C-11.4883 5.9727 -11.4883 5.9727 -8.5312 3.7656 C-7.5683 3.0296 -6.6054 2.2935 -5.6133 1.5352 C-2.7188 -0.0469 -2.7188 -0.0469 0 0 Z " fill="#CBC7C4" transform="translate(503.71875,573.046875)"/>
<path d="M0 0 C0.66 0.33 1.32 0.66 2 1 C1.5501 1.4151 1.1002 1.8302 0.6367 2.2578 C-5.4631 8.1009 -10.5328 14.5634 -15.6504 21.2534 C-16.8548 22.8121 -18.0895 24.3473 -19.3281 25.8789 C-39.7809 51.4449 -55.7106 80.9469 -70.0789 110.2478 C-76.1756 122.6577 -82.7919 134.5949 -92 145 C-92.6239 145.718 -93.2478 146.436 -93.8906 147.1758 C-106.7784 161.0851 -124.9879 163.6981 -143 165 C-146.57 165.1263 -150.135 165.1372 -153.707 165.1294 C-154.7211 165.1311 -155.7351 165.1328 -156.7798 165.1346 C-160.1241 165.1389 -163.4683 165.136 -166.8125 165.1328 C-169.1939 165.1339 -171.5753 165.1353 -173.9567 165.1369 C-180.3215 165.1397 -186.6863 165.1354 -193.0511 165.1288 C-197.0049 165.125 -200.9587 165.1229 -204.9124 165.1213 C-246.7572 165.101 -288.5913 164.8573 -330.4288 164.0664 C-333.8501 164.0028 -337.2714 163.9439 -340.6929 163.8867 C-345.4737 163.8061 -350.2541 163.716 -355.0345 163.6142 C-356.6274 163.5808 -358.2204 163.5497 -359.8134 163.5213 C-384.0911 163.0704 -384.0911 163.0704 -392 156 C-392 155.34 -392 154.68 -392 154 C-390.2288 154.1413 -388.458 154.2882 -386.6875 154.4375 C-386.1944 154.4781 -386.1944 154.4781 -383.6992 154.6836 C-381 155 -381 155 -378 156 C-375.027 156.0964 -372.0777 156.1346 -369.1046 156.127 C-368.1837 156.1285 -367.2628 156.1301 -366.314 156.1317 C-363.2144 156.1357 -360.1149 156.1325 -357.0154 156.1294 C-354.7979 156.1307 -352.5804 156.1325 -350.3628 156.1347 C-344.3248 156.1393 -338.2868 156.1375 -332.2488 156.1343 C-325.923 156.1318 -319.5973 156.1341 -313.2716 156.1357 C-301.9489 156.1377 -290.6262 156.1345 -279.3035 156.1295 C-269.0708 156.125 -258.838 156.1257 -248.6052 156.1304 C-236.7072 156.1357 -224.8091 156.1377 -212.9111 156.1348 C-206.6194 156.1332 -200.3278 156.133 -194.0361 156.1363 C-188.1043 156.1392 -182.1724 156.1371 -176.2406 156.1314 C-174.076 156.1301 -171.9115 156.1304 -169.7469 156.1327 C-159.8559 156.1419 -149.9788 156.0992 -140.0984 155.6013 C-139.7487 155.5851 -139.7487 155.5851 -137.9787 155.5029 C-123.1179 154.6347 -108.4123 150.0073 -98 139 C-89.2424 129.1338 -83.9111 116.6638 -78 105 C-64.3338 78.0384 -49.4486 52.2578 -30 29 C-29.569 28.4749 -29.1379 27.9497 -28.6938 27.4087 C-20.1943 17.0677 -11.3578 7.2703 0 0 Z " fill="#3C3535" transform="translate(802,551)"/>
<path d="M0 0 C8.4897 5.2682 12.69 12.6051 15.6016 21.9258 C17.9616 34.2121 15.2959 46.9716 8.9375 57.625 C1.1713 68.8926 -8.9177 79.395 -21 86 C-23.125 85.9375 -23.125 85.9375 -25 85 C-26 83.6667 -27 82.3333 -28 81 C-30.0938 80.375 -30.0938 80.375 -32 80 C-32.0756 75.5933 -32.1293 71.187 -32.1648 66.7798 C-32.1796 65.2885 -32.1999 63.7973 -32.2263 62.3062 C-32.5608 42.8786 -30.2406 19.421 -16.5586 4.4766 C-11.9295 0.0911 -6.1702 -1.6711 0 0 Z " fill="#EEBDBA" transform="translate(852,222)"/>
<path d="M0 0 C3.3342 1.9555 6.5171 4.0249 9.6602 6.2734 C14.8114 9.9057 20.0975 13.2792 25.4375 16.625 C40.0304 25.8463 54.3345 35.444 68 46 C67.835 46.33 67.835 46.33 67 48 C66.4625 47.8414 65.9249 47.6829 65.3711 47.5195 C59.4879 46.2305 53.1059 45.8025 47.8125 48.8125 C45.0604 52.1341 44.8754 54.7917 44.8797 58.9544 C44.8784 59.9766 44.877 60.9989 44.8756 62.0521 C44.8792 63.1727 44.8828 64.2934 44.8865 65.448 C44.8863 66.6286 44.8862 67.8092 44.886 69.0256 C44.8866 72.263 44.8916 75.5003 44.8986 78.7376 C44.9049 82.1209 44.9054 85.5041 44.9066 88.8874 C44.9097 95.2941 44.9179 101.7007 44.928 108.1074 C44.9392 115.4011 44.9447 122.6949 44.9497 129.9886 C44.9601 144.9924 44.9779 159.9962 45 175 C41.04 175 37.08 175 33 175 C33.0052 173.3029 33.0105 171.6057 33.0159 169.8572 C33.0322 164.1457 33.0436 158.4341 33.0518 152.7226 C33.057 149.2717 33.0639 145.8208 33.0754 142.3699 C33.119 128.9664 33.14 115.5702 32.582 102.1758 C32.5462 101.2858 32.5103 100.3958 32.4734 99.4789 C31.8642 86.7951 29.8602 74.1118 26 62 C25.7873 61.3078 25.5746 60.6155 25.3555 59.9023 C23.7302 54.8174 21.8541 49.8175 20 44.8125 C19.7508 44.1349 19.5016 43.4572 19.2449 42.759 C17.724 38.697 15.9687 34.8708 14 31 C13.5256 29.8875 13.0513 28.7751 12.5625 27.6289 C10.8496 23.6507 8.9553 19.8003 7 15.9375 C6.8286 15.5969 6.8286 15.5969 5.9609 13.873 C5.6232 13.2021 5.2855 12.5311 4.9375 11.8398 C4.6114 11.1913 4.2852 10.5427 3.9492 9.8745 C3.0609 8.1202 2.156 6.3742 1.25 4.6289 C0 2 0 2 0 0 Z " fill="#D8D2CC" transform="translate(133,691)"/>
<path d="M0 0 C6.8184 2.2728 11.1611 7.5303 14.4492 13.7344 C20.9943 28.5934 22.162 43.5097 22.0625 59.5 C22.0575 60.9089 22.0529 62.3177 22.0488 63.7266 C22.0371 67.1511 22.0207 70.5755 22 74 C20.8862 73.9381 19.7725 73.8763 18.625 73.8125 C18.0269 73.8434 18.0269 73.8434 15 74 C14.34 74.99 13.68 75.98 13 77 C8.7058 76.4905 5.9559 73.7879 2.8125 71.0625 C2.2373 70.5645 1.6622 70.0665 1.0696 69.5535 C-10.7511 59.1615 -20.8425 46.8005 -22.2031 30.5781 C-22.4293 19.3435 -19.0501 11.5783 -11.5234 3.3945 C-7.7889 -0.1702 -5.028 -0.7183 0 0 Z " fill="#EEBDBA" transform="translate(162,425)"/>
<path d="M0 0 C0 0.66 0 1.32 0 2 C0.5659 2.1057 1.1318 2.2114 1.7148 2.3203 C4.3838 3.1141 6.2628 4.3107 8.5625 5.875 C9.3269 6.388 10.0913 6.9011 10.8789 7.4297 C12.7879 8.843 14.3773 10.2741 16 12 C19.7714 15.8857 19.7714 15.8857 22 17 C22.165 17.495 22.165 17.495 23 20 C23.99 20.33 24.98 20.66 26 21 C26 21.99 26 22.98 26 24 C26.66 24 27.32 24 28 24 C31.5316 28.4598 35 34.1827 35 40 C35.495 40.165 35.495 40.165 38 41 C37.67 43.31 37.34 45.62 37 48 C33.3521 49.2725 29.8063 50.3283 26 51 C26 51.99 26 52.98 26 54 C18.074 54.4536 11.703 54.0618 4.3398 50.9727 C2.1985 50.0825 0.2984 49.3184 -2 49 C-2.5981 49.6394 -3.1963 50.2787 -3.8125 50.9375 C-6 53 -6 53 -9.1406 53.625 C-15.6328 52.5736 -18.7588 47.537 -22.9512 42.7754 C-28.656 36.6058 -28.656 36.6058 -33.3164 36.1211 C-34.532 36.0811 -35.7476 36.0412 -37 36 C-37.99 35.34 -38.98 34.68 -40 34 C-40 33.01 -40 32.02 -40 31 C-35.25 29.875 -35.25 29.875 -33 31 C-29.7248 30.7741 -28.8819 29.8759 -26.5625 27.4375 C-24 25 -24 25 -21.375 24.9375 C-20.5913 24.9581 -19.8075 24.9787 -19 25 C-16.0617 21.8501 -14.6752 18.1357 -13.0625 14.1875 C-6.3526 -1.9058 -6.3526 -1.9058 0 0 Z " fill="#CBC6C3" transform="translate(486,752)"/>
<path d="M0 0 C3.0501 1.3239 4.6674 2.5838 6.625 5.25 C14.2088 14.3923 26.5414 18.5956 38 20 C40.3257 20.092 42.6535 20.1378 44.981 20.1453 C45.3164 20.1469 45.3164 20.1469 47.0141 20.1553 C49.262 20.1647 51.5099 20.1666 53.7578 20.168 C55.4011 20.1719 57.0444 20.1761 58.6877 20.1804 C63.2128 20.1899 67.738 20.1907 72.2632 20.1887 C75.1315 20.1875 77.9999 20.188 80.8683 20.1887 C117.8039 20.1869 154.7305 19.6916 191.6604 19.0961 C193.7471 19.0625 195.8338 19.0294 197.9206 18.9964 C205.9431 18.8694 213.9654 18.7377 221.9877 18.5994 C224.4386 18.5574 226.8894 18.5162 229.3403 18.4761 C240.8094 18.2862 252.2718 18.0503 263.7314 17.533 C264.5774 17.4963 265.4233 17.4596 266.2949 17.4218 C271.6068 17.1597 276.7414 16.5721 281.9414 15.4023 C284 15 284 15 288 15 C286.7598 18.8585 284.3914 20.2264 280.9492 22.168 C277.1733 23.7797 273.2916 24.1277 269.2223 24.2587 C268.287 24.2908 267.3518 24.3229 266.3882 24.356 C265.372 24.3867 264.3558 24.4174 263.3088 24.449 C262.7676 24.467 262.7676 24.467 260.0286 24.558 C256.4267 24.6767 252.8247 24.7895 249.2227 24.9023 C246.6843 24.9849 244.1459 25.0678 241.6076 25.1511 C235.5242 25.3497 229.4407 25.5445 223.3572 25.7375 C216.3726 25.9591 209.3881 26.1844 202.4036 26.41 C198.933 26.5221 195.4624 26.6341 191.9917 26.7461 C191.3092 26.7681 190.6267 26.7901 189.9236 26.8128 C185.1267 26.9674 180.3298 27.121 175.5328 27.2742 C161.1696 27.7333 146.807 28.2044 132.4453 28.707 C23.9145 32.4913 23.9145 32.4913 5 16 C2.2364 13.4177 -0.4245 10.7697 -3 8 C-2.34 7.67 -1.68 7.34 -1 7 C-0.5927 4.6784 -0.2556 2.3431 0 0 Z " fill="#3D3635" transform="translate(289,859)"/>
<path d="M0 0 C0.1212 0.8572 0.2423 1.7145 0.3672 2.5977 C1.2386 8.543 2.1382 14.2815 4 20 C2.9855 19.972 1.971 19.9441 0.9258 19.9153 C-2.8762 19.9973 -6.1128 20.5133 -9.8125 21.3555 C-11.1341 21.6491 -12.4558 21.9426 -13.7776 22.2358 C-14.4658 22.3912 -15.154 22.5466 -15.8631 22.7067 C-28.2044 25.4833 -40.5672 27.904 -53.0625 29.875 C-54.3445 30.0776 -55.6264 30.2802 -56.9473 30.489 C-60.2961 31.008 -63.6469 31.5093 -67 32 C-67.7415 32.1142 -68.4829 32.2283 -69.2468 32.3459 C-74.8883 33.1523 -80.5014 33.1837 -86.1875 33.1875 C-87.1588 33.1997 -88.1301 33.212 -89.1309 33.2246 C-90.0712 33.2265 -91.0116 33.2285 -91.9805 33.2305 C-92.825 33.2346 -93.6696 33.2387 -94.5398 33.2429 C-97.3844 32.962 -99.4597 32.309 -102 31 C-105.1717 25.1264 -107 18.6902 -107 12 C-106.2996 12.1586 -105.5991 12.3173 -104.8774 12.4807 C-82.1962 16.574 -58.2018 11.5085 -36 7 C-34.3913 6.6762 -32.7826 6.3524 -31.1738 6.0288 C-24.9394 4.7705 -18.7072 3.5031 -12.4851 2.1853 C-11.7941 2.0391 -11.103 1.893 -10.3911 1.7424 C-8.5245 1.3462 -6.6586 0.9469 -4.7927 0.5474 C-2 0 -2 0 0 0 Z " fill="#FBFAF9" transform="translate(750,339)"/>
<path d="M0 0 C-6.6805 17.3272 -16.7508 33.5831 -27 49 C-27.7646 50.1769 -28.5289 51.354 -29.293 52.5312 C-44.8447 75.873 -69.1342 101.5211 -97.6875 107.8125 C-98.4506 107.8744 -99.2138 107.9362 -100 108 C-97.593 105.5802 -95.1806 103.1723 -92.7109 100.8164 C-86.25 94.5823 -80.7649 87.8879 -75.3394 80.7539 C-74.0736 79.0964 -72.7925 77.4523 -71.5039 75.8125 C-66.8426 69.8461 -62.3976 63.7699 -58.0625 57.5625 C-49.1893 44.8943 -39.6757 33.1906 -29 22 C-28.349 21.2846 -27.698 20.5691 -27.0273 19.832 C-21.7272 14.1825 -8.0474 0 0 0 Z " fill="#EEBCB9" transform="translate(739,508)"/>
<path d="M0 0 C6.408 1.1288 12.7957 2.3451 19.1758 3.6211 C79.775 15.725 79.775 15.725 105 11 C103.136 24.3553 103.136 24.3553 100 30 C71.6124 39.4625 24.9024 25.274 -3 18 C-2.8672 17.3709 -2.7345 16.7419 -2.5977 16.0938 C-1.4925 10.7374 -0.604 5.4356 0 0 Z " fill="#FDFBFA" transform="translate(247,531)"/>
<path d="M0 0 C20.9231 9.7857 37.9965 30.5007 51 49 C53.1177 51.9844 55.2435 54.9629 57.375 57.9375 C57.91 58.6844 58.4449 59.4314 58.9961 60.2009 C64.9554 68.4439 71.396 76.2683 78 84 C78.4489 84.5263 78.8978 85.0525 79.3604 85.5947 C84.1916 91.2167 89.2751 96.2891 95 101 C89.6679 102.7774 84.8659 99.3272 80 97 C71.1019 92.4544 62.5565 87.5906 55 81 C54.1698 80.2781 53.3397 79.5562 52.4844 78.8125 C49.9581 76.5737 47.4742 74.296 45 72 C44.7029 71.7357 44.7029 71.7357 43.1992 70.3984 C28.055 56.3024 17.8296 35.9417 8 18 C7.6147 17.3033 7.2295 16.6065 6.8325 15.8887 C5.6933 13.8256 4.5637 11.7576 3.4375 9.6875 C3.0906 9.059 2.7437 8.4305 2.3862 7.783 C0.8713 4.9663 0 3.2512 0 0 Z " fill="#EDBDBA" transform="translate(259,694)"/>
<path d="M0 0 C3.7822 2.3156 4.4775 3.7554 6.0625 7.875 C6.4899 11.0169 6.5001 14.124 6.4949 17.2915 C6.5051 18.2228 6.5153 19.154 6.5258 20.1135 C6.5559 23.1929 6.5652 26.272 6.5742 29.3516 C6.5911 31.5179 6.6093 33.6843 6.6286 35.8507 C6.6762 41.5708 6.7059 47.2909 6.7321 53.0111 C6.7615 58.7275 6.8084 64.4438 6.8535 70.1602 C7.0196 92.0648 7.1244 113.9697 7.0625 135.875 C7.5259 135.8692 7.5259 135.8692 9.8711 135.8398 C10.4699 135.8353 10.4699 135.8353 13.5 135.8125 C14.695 135.8009 15.8899 135.7893 17.1211 135.7773 C20.0625 135.875 20.0625 135.875 21.0625 136.875 C21.2068 141.5435 21.1046 146.2037 21.0625 150.875 C13.4725 150.875 5.8825 150.875 -1.9375 150.875 C-1.9311 147.2115 -1.9246 143.548 -1.918 139.7734 C-1.9115 124.1885 -2.006 108.6047 -2.1732 93.0207 C-2.218 88.8294 -2.2574 84.6382 -2.2839 80.4468 C-2.6541 23.6025 -2.6541 23.6025 -13.9375 8.875 C-13.9375 8.215 -13.9375 7.555 -13.9375 6.875 C-14.515 6.5862 -15.0925 6.2975 -15.6875 6 C-17.7708 4.9583 -19.8542 3.9167 -21.9375 2.875 C-20.6042 2.2083 -19.2708 1.5417 -17.9375 0.875 C-17.3304 0.5282 -16.7232 0.1815 -16.0977 -0.1758 C-11.1784 -2.3374 -4.9932 -1.7954 0 0 Z " fill="#D08181" transform="translate(824.9375,548.125)"/>
<path d="M0 0 C0 3.3 0 6.6 0 10 C1.1885 10.0748 2.377 10.1495 3.6016 10.2266 C25.7236 11.8774 52.5006 16.7433 68 34 C69.5694 37.1387 69.352 39.5386 69 43 C66.0893 46.7423 63.4537 48.5453 59 50 C50.7672 50.9171 44.1327 50.2046 37 46 C36.1621 45.5256 35.3242 45.0512 34.4609 44.5625 C23.3731 37.9162 13.8544 29.2704 5.1211 19.8008 C3 18 3 18 -1 18 C-1.66 19.65 -2.32 21.3 -3 23 C-3.66 23 -4.32 23 -5 23 C-4.6914 20.2287 -4.3783 17.458 -4.0625 14.6875 C-3.9755 13.9018 -3.8885 13.1161 -3.7988 12.3066 C-3.7118 11.5493 -3.6248 10.792 -3.5352 10.0117 C-3.4959 9.6635 -3.4959 9.6635 -3.2971 7.9011 C-3 6 -3 6 -2 3 C-3.1627 3.4963 -4.3255 3.9926 -5.5234 4.5039 C-13.9834 8.101 -22.4626 11.653 -31 15.0625 C-31.7585 15.3732 -32.5169 15.684 -33.2983 16.0042 C-38.6531 18.1156 -38.6531 18.1156 -42 17 C-33.0029 12.7075 -23.9326 8.5867 -14.8125 4.5625 C-14.3107 4.338 -14.3107 4.338 -11.7712 3.2017 C-10.8219 2.7858 -9.8726 2.3699 -8.8945 1.9414 C-8.0474 1.567 -7.2002 1.1926 -6.3274 0.8069 C-4 0 -4 0 0 0 Z " fill="#EEBEBB" transform="translate(834,310)"/>
<path d="M0 0 C5.0045 9.6755 2.9615 18.9354 0 29 C-7.2742 50.3376 -20.499 67.3986 -40.1016 78.8047 C-43 80 -43 80 -45.168 79.9453 C-52.5409 76.141 -56.1851 64.7841 -59.4219 57.5156 C-60.4166 55.2996 -61.4685 53.1076 -62.5977 50.957 C-64.0964 47.7967 -64.9266 44.8475 -65.6875 41.4375 C-65.9389 40.3431 -66.1902 39.2487 -66.4492 38.1211 C-66.9425 35.3259 -67.1106 32.8278 -67 30 C-64.128 30.3105 -62.4767 30.5042 -60.4375 32.625 C-58.5658 35.7174 -56.7765 38.8525 -55 42 C-49.4371 51.835 -49.4371 51.835 -46.125 54.875 C-45.4238 55.5762 -44.7225 56.2775 -44 57 C-44 58.32 -44 59.64 -44 61 C-43.01 60.34 -42.02 59.68 -41 59 C-38.668 58.9209 -36.3317 58.912 -34 59 C-33.8866 58.6391 -33.8866 58.6391 -33.3125 56.8125 C-31.7366 53.4357 -29.7912 51.4423 -27 49 C-26.34 49 -25.68 49 -25 49 C-24.7731 48.34 -24.5462 47.68 -24.3125 47 C-23.2642 44.6038 -22.2271 42.7262 -20.8125 40.5625 C-18.4119 36.8045 -16.3254 32.9132 -14.3125 28.9375 C-13.7311 27.7915 -13.1498 26.6455 -12.5508 25.4648 C-10.9896 21.9767 -10.0047 18.6747 -9 15 C-8.67 14.67 -8.34 14.34 -8 14 C-7.9279 12.3139 -7.9161 10.625 -7.9375 8.9375 C-7.9465 8.0184 -7.9555 7.0993 -7.9648 6.1523 C-7.9764 5.4421 -7.988 4.7318 -8 4 C-6.02 4 -4.04 4 -2 4 C-1.34 2.68 -0.68 1.36 0 0 Z " fill="#C9C8C5" transform="translate(583,600)"/>
<path d="M0 0 C2.64 0 5.28 0 8 0 C9.8799 3.7598 9.2286 8.0024 8.3125 12 C7.8968 15.9909 9.2788 18.5247 11 22 C11.388 22.8959 11.776 23.7918 12.1758 24.7148 C14.3345 29.6939 16.4066 33.8742 20 38 C20 38.66 20 39.32 20 40 C19.505 40.165 19.505 40.165 17 41 C17.7425 41.1031 18.485 41.2062 19.25 41.3125 C22.2237 42.0559 23.767 42.9265 26 45 C26.33 45.99 26.66 46.98 27 48 C28.9844 49.6037 31.0682 50.9831 33.1875 52.4023 C35.2574 54.2269 35.6283 55.3111 36 58 C41.3591 58.4393 41.3591 58.4393 44 58 C45.875 55.5625 45.875 55.5625 47 53 C49 52 49 52 51 52 C50.67 51.01 50.34 50.02 50 49 C51.2149 47.4896 52.4385 45.9841 53.7305 44.5391 C55.3978 42.5178 56.1381 40.4625 57 38 C59.6667 32.3333 59.6667 32.3333 62 30 C63.32 30 64.64 30 66 30 C65.5414 41.6475 61.9 51.339 57.0625 61.8125 C56.7389 62.5178 56.4152 63.2231 56.0818 63.9497 C53.8243 68.6977 51.1593 72.7968 48 77 C42.947 76.51 39.402 74.7732 35.25 72 C34.6387 71.5963 34.0275 71.1926 33.3977 70.7766 C18.0608 60.4254 4.3476 44.7351 0.5625 26.125 C0.353 24.7532 0.1557 23.379 0 22 C-0.99 21.67 -1.98 21.34 -3 21 C-2.34 21 -1.68 21 -1 21 C-1.2166 20.2034 -1.4331 19.4067 -1.6562 18.5859 C-1.9347 17.5263 -2.2131 16.4667 -2.5 15.375 C-2.6392 14.8529 -2.6392 14.8529 -3.3438 12.2109 C-3.9912 9.0431 -4.1161 6.2226 -4 3 C-3.01 2.67 -2.02 2.34 -1 2 C-0.67 1.34 -0.34 0.68 0 0 Z " fill="#CDCBC6" transform="translate(407,778)"/>
<path d="M0 0 C6.744 0 6.744 0 10.7227 2.0117 C11.5854 2.4378 12.4481 2.8638 13.3369 3.3027 C13.7866 3.5312 13.7866 3.5312 16.0625 4.6875 C23.2125 8.2239 30.2594 11.434 37.7969 14.0625 C40 15 40 15 41 17 C32.6746 14.9643 24.8605 12.1228 16.9375 8.875 C15.8115 8.42 14.6855 7.9649 13.5254 7.4961 C5.4311 4.2155 5.4311 4.2155 3 3 C3.66 9.27 4.32 15.54 5 22 C3.35 22.99 1.7 23.98 0 25 C-1.7067 26.6684 -3.3705 28.3812 -5 30.125 C-13.256 38.6454 -22.614 45.3072 -34 49 C-34.495 49.165 -34.495 49.165 -37 50 C-42.8872 50.5772 -47.1794 49.3134 -52 46 C-54.5755 42.1368 -54.752 40.587 -54 36 C-44.7035 21.1966 -22.1665 17.4149 -6.7004 13.5156 C-4 13 -4 13 1 13 C0.67 8.71 0.34 4.42 0 0 Z " fill="#EDBDB9" transform="translate(166,504)"/>
<path d="M0 0 C3.9716 1.6468 4.7447 4.2249 6.5625 8.0625 C6.5625 8.7225 6.5625 9.3825 6.5625 10.0625 C7.2225 10.0625 7.8825 10.0625 8.5625 10.0625 C9.2334 11.6858 9.8991 13.3112 10.5625 14.9375 C10.9338 15.8424 11.305 16.7473 11.6875 17.6797 C12.5625 20.0625 12.5625 20.0625 12.5625 22.0625 C13.2225 22.0625 13.8825 22.0625 14.5625 22.0625 C14.5625 23.3825 14.5625 24.7025 14.5625 26.0625 C16.8725 26.0625 19.1825 26.0625 21.5625 26.0625 C21.5625 28.3725 21.5625 30.6825 21.5625 33.0625 C20.5725 32.7325 19.5825 32.4025 18.5625 32.0625 C18.5625 30.7425 18.5625 29.4225 18.5625 28.0625 C17.2425 28.3925 15.9225 28.7225 14.5625 29.0625 C14.2325 30.3825 13.9025 31.7025 13.5625 33.0625 C13.2325 32.4025 12.9025 31.7425 12.5625 31.0625 C6.2939 35.9381 3.5566 40.7911 0.5625 48.0625 C-4.1875 47.1875 -4.1875 47.1875 -6.4375 46.0625 C-6.7675 46.7225 -7.0975 47.3825 -7.4375 48.0625 C-7.4375 47.4025 -7.4375 46.7425 -7.4375 46.0625 C-8.7575 46.0625 -10.0775 46.0625 -11.4375 46.0625 C-11.1075 47.7125 -10.7775 49.3625 -10.4375 51.0625 C-11.0975 49.7425 -11.7575 48.4225 -12.4375 47.0625 C-19.0625 46.9375 -19.0625 46.9375 -22.4375 48.0625 C-25.9375 48.375 -25.9375 48.375 -29.4375 48.0625 C-31.1875 46.1875 -31.1875 46.1875 -32.4375 44.0625 C-33.4275 43.4025 -34.4175 42.7425 -35.4375 42.0625 C-33.4575 42.0625 -31.4775 42.0625 -29.4375 42.0625 C-29.355 41.0312 -29.2725 40 -29.1875 38.9375 C-28.3648 34.6868 -27.0249 32.4869 -24.4375 29.0625 C-23.9013 28.2787 -23.365 27.495 -22.8125 26.6875 C-22.5856 26.4194 -22.5856 26.4194 -21.4375 25.0625 C-20.7775 25.0625 -20.1175 25.0625 -19.4375 25.0625 C-19.3344 24.4438 -19.2312 23.825 -19.125 23.1875 C-18.4375 21.0625 -18.4375 21.0625 -15.4375 19.0625 C-15.1075 18.0725 -14.7775 17.0825 -14.4375 16.0625 C-12.7893 15.0324 -11.1225 14.0314 -9.4375 13.0625 C-9.1075 12.4025 -8.7775 11.7425 -8.4375 11.0625 C-7.4475 10.7325 -6.4575 10.4025 -5.4375 10.0625 C-5.4375 9.2994 -5.4375 8.5362 -5.4375 7.75 C-5.4375 5.8542 -5.4375 3.9583 -5.4375 2.0625 C-2.4375 0.0625 -2.4375 0.0625 0 0 Z " fill="#FAFAF9" transform="translate(503.4375,572.9375)"/>
<path d="M0 0 C0 3.5329 -0.411 3.6593 -2.6875 6.125 C-5.944 10.2767 -7.3688 14.5015 -8.8125 19.5 C-9.019 20.2117 -9.2255 20.9234 -9.4382 21.6567 C-11.6975 29.914 -12.146 37.9364 -12.1135 46.4551 C-12.1137 47.4706 -12.1138 48.4862 -12.114 49.5325 C-12.1133 52.8654 -12.1055 56.1983 -12.0977 59.5312 C-12.0958 61.8515 -12.0944 64.1718 -12.0934 66.4921 C-12.0896 72.5813 -12.0797 78.6705 -12.0687 84.7598 C-12.0584 90.9805 -12.0539 97.2012 -12.0488 103.4219 C-12.0381 115.6146 -12.0211 127.8073 -12 140 C-12.33 140 -12.66 140 -13 140 C-13 135.05 -13 130.1 -13 125 C-14.98 125 -16.96 125 -19 125 C-21.1081 122.8919 -20.1861 118.1984 -20.2053 115.2837 C-20.2152 114.368 -20.2251 113.4522 -20.2353 112.5088 C-20.2671 109.4564 -20.2918 106.404 -20.3164 103.3516 C-20.337 101.2237 -20.358 99.0959 -20.3794 96.9681 C-20.4348 91.3365 -20.484 85.7049 -20.5322 80.0733 C-20.5721 75.5323 -20.6162 70.9913 -20.6607 66.4504 C-20.7141 60.9799 -20.7655 55.5095 -20.8164 50.0391 C-20.826 49.0171 -20.8355 47.9952 -20.8454 46.9423 C-20.8545 45.9437 -20.8637 44.9451 -20.8732 43.9162 C-20.8822 42.9371 -20.8913 41.9581 -20.9006 40.9493 C-20.9161 39.0355 -20.928 37.1216 -20.9363 35.2077 C-20.9562 30.6754 -21.019 26.1541 -21.187 21.6247 C-21.2099 20.7696 -21.2329 19.9145 -21.2565 19.0335 C-21.2997 17.45 -21.362 15.8669 -21.4488 14.2852 C-21.5707 8.5578 -19.8748 4.2825 -16 0 C-10.4252 -2.9018 -5.7747 -1.8562 0 0 Z " fill="#CE807F" transform="translate(199,740)"/>
<path d="M0 0 C1.65 0.66 1.65 0.66 10 4 C10 2.68 10 1.36 10 0 C13.7472 1.7487 16.1037 4.1037 19 7 C18.01 7.33 17.02 7.66 16 8 C15.67 8.99 15.34 9.98 15 11 C15.66 11 16.32 11 17 11 C17 10.34 17 9.68 17 9 C17.66 9 18.32 9 19 9 C18.67 10.65 18.34 12.3 18 14 C18.66 14.33 19.32 14.66 20 15 C21.0344 16.6456 22.0276 18.3171 23 20 C23.6806 20.99 24.3612 21.98 25.0625 23 C26.7885 25.6726 28.0956 27.958 29 31 C28.67 31.99 28.34 32.98 28 34 C26.02 34 24.04 34 22 34 C21.835 34.33 21.835 34.33 21 36 C21 35.34 21 34.68 21 34 C20.01 34 19.02 34 18 34 C17.67 35.98 17.34 37.96 17 40 C15.35 39.67 13.7 39.34 12 39 C12 38.01 12 37.02 12 36 C13.32 36 14.64 36 16 36 C16 35.34 16 34.68 16 34 C14.02 34 12.04 34 10 34 C9.67 35.65 9.34 37.3 9 39 C8.34 39 7.68 39 7 39 C7 38.01 7 37.02 7 36 C6.34 35.67 5.68 35.34 5 35 C4.67 35.66 4.34 36.32 4 37 C4 36.34 4 35.68 4 35 C3.6081 35.0928 3.6081 35.0928 1.625 35.5625 C-1 36 -1 36 -3 35 C-3.6531 33.7536 -4.2501 32.4774 -4.8125 31.1875 C-6.6071 27.4094 -8.5979 25.4826 -12 23 C-13 20 -13 20 -12 17 C-11.34 17 -10.68 17 -10 17 C-9.7937 16.1956 -9.5875 15.3913 -9.375 14.5625 C-7.2828 9.1418 -4.1216 4.1216 0 0 Z " fill="#F8F7F7" transform="translate(486,760)"/>
<path d="M0 0 C3.2862 7.144 4.1351 13.167 4 21 C-4.9973 25.2844 -14.9518 28.8039 -25 28 C-25.99 25.03 -26.98 22.06 -28 19 C-24 17 -24 17 -21 17 C-21 15.68 -21 14.36 -21 13 C-22.485 13.165 -22.485 13.165 -30 14 C-30 11.69 -30 9.38 -30 7 C-20.4526 3.1811 -10.4111 -0.8329 0 0 Z " fill="#ECEAEA" transform="translate(785,332)"/>
<path d="M0 0 C6.4112 4.6659 7.4572 11.5977 9 19 C9.5156 22.3896 9.5022 24.5401 9 28 C4.9168 32.3142 -0.08 33.6038 -5.625 35.1875 C-6.5171 35.4458 -7.4092 35.7041 -8.3284 35.9702 C-22.1528 39.8467 -22.1528 39.8467 -27 39 C-30.6966 36.8674 -31.8437 35.4139 -33.3633 31.3906 C-33.6993 30.0151 -34.0153 28.6345 -34.3125 27.25 C-34.4807 26.572 -34.6489 25.8939 -34.8223 25.1953 C-35.9472 20.3648 -36.5447 15.9483 -36 11 C-32.2233 5.1169 -26.0979 4.2242 -19.6875 2.6875 C-18.6801 2.4239 -17.6727 2.1603 -16.6348 1.8887 C-10.9965 0.4745 -5.7991 -0.7778 0 0 Z M-19.9375 7.9375 C-20.8946 8.2153 -21.8518 8.4931 -22.8379 8.7793 C-29.8424 10.8424 -29.8424 10.8424 -31 12 C-31.0409 14.333 -31.0424 16.6671 -31 19 C-29.515 18.835 -29.515 18.835 -22 18 C-22 19.32 -22 20.64 -22 22 C-22.7838 22.1444 -23.5675 22.2887 -24.375 22.4375 C-27 23 -27 23 -29 24 C-28.01 26.97 -27.02 29.94 -26 33 C-19.3042 33.3672 -13.9201 32.0919 -7.5625 30.0625 C-6.6531 29.7847 -5.7436 29.5069 -4.8066 29.2207 C1.839 27.161 1.839 27.161 3 26 C3.5284 18.9986 2.0639 12.6837 0 6 C-1 5 -1 5 -4.3789 4.7539 C-9.8203 4.8231 -14.7638 6.3707 -19.9375 7.9375 Z " fill="#3B3332" transform="translate(786,327)"/>
<path d="M0 0 C21.0961 1.7601 21.0961 1.7601 25.418 6.082 C25.543 9.207 25.543 9.207 25.418 12.082 C22.448 11.752 19.478 11.422 16.418 11.082 C16.418 12.402 16.418 13.722 16.418 15.082 C18.728 15.742 21.038 16.402 23.418 17.082 C22.758 20.052 22.098 23.022 21.418 26.082 C11.8393 26.7858 1.5554 25.507 -6.582 20.082 C-7.7114 14.3382 -6.4598 7.5645 -4.582 2.082 C-2.582 0.082 -2.582 0.082 0 0 Z " fill="#EEECEC" transform="translate(216.58203125,524.91796875)"/>
<path d="M0 0 C4.0667 0.7919 8.021 1.8512 12 3 C12.9616 3.263 13.9233 3.5259 14.9141 3.7969 C21.7186 5.7186 21.7186 5.7186 24 8 C24.2571 10.5324 24.3805 12.9031 24.375 15.4375 C24.3746 15.7953 24.3746 15.7953 24.3723 17.606 C24.2352 23.8203 23.1275 29.5399 20 35 C15.8274 37.7818 12.5567 37.4526 7.6719 36.5879 C5.099 36.0276 2.5513 35.4012 0 34.75 C-0.8637 34.545 -1.7273 34.3401 -2.6172 34.1289 C-8.0025 32.7785 -12.3651 31.0817 -17 28 C-19.585 22.83 -17.6426 16.6099 -16.25 11.3125 C-16.0927 10.6622 -15.9355 10.0118 -15.7734 9.3418 C-13.3051 0.0286 -8.7342 -1.0078 0 0 Z M-9.875 7.125 C-11.0795 10.2032 -11.6832 12.7052 -12 16 C-12.0761 16.7515 -12.1521 17.503 -12.2305 18.2773 C-12.2782 19.0727 -12.3259 19.868 -12.375 20.6875 C-12.424 21.4339 -12.473 22.1802 -12.5234 22.9492 C-12 25 -12 25 -9.8281 26.6641 C-1.555 30.5721 6.9524 31.4809 16 31 C16.66 28.03 17.32 25.06 18 22 C15.69 21.34 13.38 20.68 11 20 C11 18.68 11 17.36 11 16 C13.97 16.33 16.94 16.66 20 17 C20.125 14.125 20.125 14.125 20 11 C17.7749 8.7749 16.8894 8.5647 13.8945 7.9297 C13.0753 7.7557 12.2561 7.5816 11.4121 7.4023 C10.5542 7.2283 9.6964 7.0543 8.8125 6.875 C7.974 6.6932 7.1354 6.5115 6.2715 6.3242 C-6.7776 3.6146 -6.7776 3.6146 -9.875 7.125 Z " fill="#3A3534" transform="translate(222,520)"/>
<path d="M0 0 C0.33 0 0.66 0 1 0 C1.1702 0.7966 1.3403 1.5933 1.5156 2.4141 C3.2242 9.8845 4.6339 15.4754 11 20.25 C13.3061 21.5952 15.5775 22.8819 18 24 C14.2712 26.8339 14.2712 26.8339 12.3164 28.0312 C5.888 32.1233 3.607 37.264 1.75 44.5 C1.5025 45.655 1.255 46.81 1 48 C0.34 48 -0.32 48 -1 48 C-1.0864 47.4431 -1.1727 46.8863 -1.2617 46.3125 C-2.5892 39.1025 -5.1513 33.7063 -10.5 28.625 C-12.9438 27.0365 -15.2477 25.9437 -18 25 C-16.7377 22.4753 -15.8013 22.3434 -13.25 21.25 C-8.1528 18.7928 -5.3716 15.7432 -2.8125 10.625 C-1.7253 7.1125 -0.849 3.5779 0 0 Z " fill="#FDF8F6" transform="translate(899,736)"/>
<path d="M0 0 C0.4538 0.165 0.4538 0.165 2.75 1 C2.42 1.66 2.09 2.32 1.75 3 C1.0487 2.8324 0.3475 2.6648 -0.375 2.4922 C-6.6724 1.1403 -11.2623 0.3738 -17.25 3 C-21.5979 8.7937 -21.7571 13.4433 -21.5137 20.5256 C-21.496 21.5345 -21.4783 22.5434 -21.4601 23.5828 C-21.4225 25.6877 -21.377 27.7924 -21.3236 29.8969 C-21.2327 33.7292 -21.2027 37.5604 -21.1773 41.3935 C-21.1445 46.1258 -21.0854 50.8578 -21.0312 55.5898 C-21.0087 57.6421 -20.9863 59.6943 -20.964 61.7465 C-20.9059 67.0612 -20.8463 72.3759 -20.7864 77.6906 C-20.7252 83.1485 -20.6654 88.6065 -20.6055 94.0645 C-20.4884 104.7097 -20.3697 115.3548 -20.25 126 C-18.27 126.33 -16.29 126.66 -14.25 127 C-14.25 131.95 -14.25 136.9 -14.25 142 C-18.6303 142.8761 -22.5778 143.1506 -27 143.125 C-27.3422 143.1269 -27.3422 143.1269 -29.0742 143.1367 C-34.1233 143.1267 -34.1233 143.1267 -35.25 142 C-35.3489 139.8352 -35.3797 137.6671 -35.375 135.5 C-35.3776 134.3141 -35.3802 133.1281 -35.3828 131.9062 C-35.25 129 -35.25 129 -34.25 128 C-32.2304 127.9276 -30.2083 127.9162 -28.1875 127.9375 C-27.0828 127.9465 -25.978 127.9555 -24.8398 127.9648 C-24.4125 127.9706 -24.4125 127.9706 -22.25 128 C-22.2625 126.9413 -22.2751 125.8826 -22.288 124.7919 C-22.4076 114.6621 -22.5253 104.5323 -22.6412 94.4025 C-22.7007 89.1986 -22.761 83.9947 -22.8228 78.7908 C-22.9516 67.9072 -23.0717 57.0236 -23.1702 46.1397 C-23.2178 40.968 -23.2786 35.7969 -23.3549 30.6256 C-23.3952 27.7103 -23.4234 24.7949 -23.448 21.8794 C-23.4681 19.9436 -23.5034 18.008 -23.5392 16.0725 C-23.5462 14.933 -23.5533 13.7934 -23.5605 12.6194 C-23.5731 11.6456 -23.5856 10.6718 -23.5985 9.6685 C-23.0733 5.6471 -21.2828 3.0151 -18.4258 0.207 C-13.2056 -2.6889 -5.5882 -1.5885 0 0 Z " fill="#B48C89" transform="translate(200.25,738)"/>
<path d="M0 0 C2.9375 0.8125 2.9375 0.8125 6 2 C6.33 2.99 6.66 3.98 7 5 C7.99 5.33 8.98 5.66 10 6 C10 6.99 10 7.98 10 9 C10.66 9 11.32 9 12 9 C15.5316 13.4598 19 19.1827 19 25 C19.99 25.33 20.98 25.66 22 26 C21.67 28.31 21.34 30.62 21 33 C17.3521 34.2725 13.8063 35.3283 10 36 C10 36.99 10 37.98 10 39 C1.5439 39.484 -6.5022 39.4249 -14 35 C-15.3008 32.8594 -15.3008 32.8594 -16 31 C-15.34 31 -14.68 31 -14 31 C-14 30.01 -14 29.02 -14 28 C-12.02 28 -10.04 28 -8 28 C-8.33 29.32 -8.66 30.64 -9 32 C-8.34 31.67 -7.68 31.34 -7 31 C-6.375 28.9375 -6.375 28.9375 -6 27 C-4.02 27 -2.04 27 0 27 C0 27.66 0 28.32 0 29 C-1.32 29 -2.64 29 -4 29 C-4 29.99 -4 30.98 -4 32 C-2.35 31.67 -0.7 31.34 1 31 C1.33 29.68 1.66 28.36 2 27 C5.3 27 8.6 27 12 27 C11.3491 21.7926 9.222 16.1157 5.3672 12.4453 C4 11 4 11 4 8 C3.01 7.67 2.02 7.34 1 7 C1.66 5.35 2.32 3.7 3 2 C2.34 2 1.68 2 1 2 C1 2.66 1 3.32 1 4 C0.34 4 -0.32 4 -1 4 C-0.67 2.68 -0.34 1.36 0 0 Z " fill="#BAB9B5" transform="translate(502,767)"/>
<path d="M0 0 C21.0928 7.5385 36.725 33.4794 49 51 C46.375 55.875 46.375 55.875 43 57 C42.4173 56.0306 41.8347 55.0612 41.2344 54.0625 C35.0539 43.9084 28.2984 34.3773 21 25 C20.2665 24.0512 19.533 23.1025 18.7773 22.125 C14.748 16.9982 10.4902 12.1251 6.0781 7.3242 C3.9563 4.9511 1.9666 2.5025 0 0 Z " fill="#3F3635" transform="translate(202,740)"/>
<path d="M0 0 C1.6859 2.5289 2.7405 4.6575 3.875 7.4375 C6.406 13.2001 9.5128 15.9515 15 19 C14.4431 19.4125 13.8863 19.825 13.3125 20.25 C12.5494 20.8275 11.7862 21.405 11 22 C10.175 22.5156 9.35 23.0312 8.5 23.5625 C5.3715 26.6128 4.3332 29.589 2.8945 33.6602 C2 36 2 36 0 39 C-0.1586 38.3477 -0.3171 37.6955 -0.4805 37.0234 C-2.0527 31.134 -3.5615 27.232 -8 23 C-11.3125 21.125 -11.3125 21.125 -14 20 C-12.1236 17.9151 -10.5569 16.7549 -8.0625 15.375 C-3.0748 11.507 -1.3836 6.0274 0 0 Z " fill="#FDF6F5" transform="translate(910,280)"/>
<path d="M0 0 C3.6101 4.108 3.2639 7.8104 3 13 C1.4543 10.6814 0.2038 8.4936 -1 6 C-1.66 6.66 -2.32 7.32 -3 8 C-4.9531 8.0117 -4.9531 8.0117 -7.25 7.6875 C-8.0505 7.5805 -8.851 7.4735 -9.6758 7.3633 C-11.601 7.0624 -13.5203 6.7236 -15.4375 6.375 C-18 6 -18 6 -20 7 C-21.9946 7.345 -23.996 7.6516 -26 7.9375 C-30.9744 8.6693 -35.8741 9.5405 -40.7812 10.6328 C-43.221 11.0366 -45.5314 11.0608 -48 11 C-48 9.68 -48 8.36 -48 7 C-47.5462 6.8763 -47.5462 6.8763 -45.25 6.25 C-41.8211 5.2852 -38.4849 4.119 -35.125 2.9375 C-30.6664 1.4308 -26.5594 0.4998 -21.875 0.1484 C-20 0 -20 0 -17.5625 -0.5625 C-12.2123 -1.476 -5.0982 -2.0084 0 0 Z " fill="#B5B0AD" transform="translate(584,597)"/>
<path d="M0 0 C1.32 0 2.64 0 4 0 C5.3943 2.7886 5.2566 4.9208 5 8 C2 10 2 10 -2 10 C-2.33 11.32 -2.66 12.64 -3 14 C-3.99 14 -4.98 14 -6 14 C-5.67 15.32 -5.34 16.64 -5 18 C-6.32 17.67 -7.64 17.34 -9 17 C-9 18.65 -9 20.3 -9 22 C-11.125 23.25 -11.125 23.25 -14 24 C-17.3125 22.125 -17.3125 22.125 -20 20 C-18.8997 13.1535 -16.3891 8.5129 -11 4 C-10.01 4 -9.02 4 -8 4 C-7.67 3.01 -7.34 2.02 -7 1 C-5.68 1 -4.36 1 -3 1 C-2.8763 1.6394 -2.7525 2.2787 -2.625 2.9375 C-2.4188 3.6181 -2.2125 4.2988 -2 5 C-1.34 5.33 -0.68 5.66 0 6 C-0.1856 5.1956 -0.3713 4.3913 -0.5625 3.5625 C-0.7069 2.7169 -0.8513 1.8713 -1 1 C-0.67 0.67 -0.34 0.34 0 0 Z " fill="#7D7A78" transform="translate(525,600)"/>
<path d="M0 0 C0 0.66 0 1.32 0 2 C0.5362 2.0825 1.0725 2.165 1.625 2.25 C4.9575 3.3024 7.299 4.7901 10 7 C10.375 9.75 10.375 9.75 10 12 C6.4422 11.3901 3.3171 10.4216 0 9 C-4.2812 13.7751 -7.0376 19.3616 -10 25 C-10.66 25 -11.32 25 -12 25 C-12.33 26.32 -12.66 27.64 -13 29 C-14.98 28.34 -16.96 27.68 -19 27 C-18.7396 26.5011 -18.4792 26.0023 -18.2109 25.4883 C-16.2361 21.4303 -14.5051 17.2611 -12.7422 13.1074 C-6.2753 -1.8826 -6.2753 -1.8826 0 0 Z " fill="#DAD5CE" transform="translate(486,752)"/>
<path d="M0 0 C6.93 0 13.86 0 21 0 C21 4.29 21 8.58 21 13 C14.07 13 7.14 13 0 13 C0 8.71 0 4.42 0 0 Z " fill="#2F2828" transform="translate(824,685)"/>
<path d="M0 0 C6.27 0 12.54 0 19 0 C19 4.29 19 8.58 19 13 C12.73 13 6.46 13 0 13 C0 8.71 0 4.42 0 0 Z " fill="#302828" transform="translate(167,867)"/>
<path d="M0 0 C0.3094 0.33 0.3094 0.33 1.875 2 C4 4 4 4 6 4 C6 4.99 6 5.98 6 7 C5.3194 7.5362 4.6387 8.0725 3.9375 8.625 C1.2811 10.7728 -0.3056 12.6013 -2.3125 15.3125 C-5.7341 19.8621 -9.6128 23.4047 -14 27 C-14.33 27.33 -14.66 27.66 -15 28 C-21.6 27.4 -21.6 27.4 -24 25 C-27.1882 25.3392 -29.9578 25.9859 -33 27 C-33.33 25.68 -33.66 24.36 -34 23 C-33.3606 22.8763 -32.7212 22.7525 -32.0625 22.625 C-31.3819 22.4188 -30.7013 22.2125 -30 22 C-29.67 21.34 -29.34 20.68 -29 20 C-26.75 19.1875 -26.75 19.1875 -24 19 C-22.3226 19.9819 -20.6553 20.9813 -19 22 C-16.6875 21.6875 -16.6875 21.6875 -15 21 C-14.67 18.69 -14.34 16.38 -14 14 C-13.67 14.99 -13.34 15.98 -13 17 C-12.01 17 -11.02 17 -10 17 C-10.66 15.35 -11.32 13.7 -12 12 C-10.68 12 -9.36 12 -8 12 C-7.67 11.01 -7.34 10.02 -7 9 C-3.4375 7.8125 -3.4375 7.8125 0 7 C0 4.69 0 2.38 0 0 Z " fill="#D1CECC" transform="translate(530,601)"/>
<path d="M0 0 C0.2475 0.5156 0.495 1.0312 0.75 1.5625 C0.9562 1.9647 0.9562 1.9647 2 4 C2.5775 5.1756 3.155 6.3512 3.75 7.5625 C5.79 11.1635 8.1176 12.5 12 14 C12 14.66 12 15.32 12 16 C11.0925 16.33 10.185 16.66 9.25 17 C4.963 19.6381 3.9004 22.4996 2 27 C1.3417 28.3375 0.6773 29.6721 0 31 C-0.3635 30.1686 -0.727 29.3371 -1.1016 28.4805 C-1.3529 27.9371 -1.3529 27.9371 -2.625 25.1875 C-3.1123 24.1086 -3.5995 23.0296 -4.1016 21.918 C-6.3289 18.4944 -8.2562 17.4944 -12 16 C-12 15.34 -12 14.68 -12 14 C-11.5463 13.8144 -11.5463 13.8144 -9.25 12.875 C-4.0777 9.891 -1.9448 5.5103 0 0 Z " fill="#FDF5F4" transform="translate(115,479)"/>
<path d="M0 0 C3.0944 3.0944 2.3087 6.8067 2.3188 10.9624 C2.3239 11.4277 2.3239 11.4277 2.3493 13.7826 C2.3803 16.8837 2.3972 19.9847 2.4141 23.0859 C2.4328 25.258 2.4524 27.4301 2.4727 29.6022 C2.5243 35.3552 2.5637 41.1083 2.6009 46.8615 C2.6403 52.6043 2.692 58.3471 2.7422 64.0898 C2.9288 86.0597 3.0747 108.0292 3 130 C3.4634 129.9942 3.4634 129.9942 5.8086 129.9648 C7.0061 129.9558 8.2037 129.9468 9.4375 129.9375 C10.6325 129.9259 11.8274 129.9143 13.0586 129.9023 C16 130 16 130 17 131 C17.1443 135.6685 17.0421 140.3287 17 145 C9.41 145 1.82 145 -6 145 C-6 139.06 -6 133.12 -6 127 C-4.02 127.33 -2.04 127.66 0 128 C0 85.76 0 43.52 0 0 Z M-5 131 C-5 135.29 -5 139.58 -5 144 C1.93 144 8.86 144 16 144 C16 139.71 16 135.42 16 131 C9.07 131 2.14 131 -5 131 Z " fill="#B58583" transform="translate(829,554)"/>
<path d="M0 0 C5.2309 7.6222 5.6575 16.1881 5.1875 25.1875 C3.2075 25.8475 1.2275 26.5075 -0.8125 27.1875 C-0.7777 26.5327 -0.7429 25.8778 -0.707 25.2031 C-0.4863 17.7619 -1.7234 11.3128 -3.8125 4.1875 C-11.1617 3.7552 -17.7147 5.3698 -24.8125 7.1875 C-24.5469 4.7969 -24.5469 4.7969 -23.8125 2.1875 C-22.1406 1.0781 -22.1406 1.0781 -20.0625 0.4375 C-19.699 0.3234 -19.699 0.3234 -17.8594 -0.2539 C-17.1839 -0.4382 -16.5084 -0.6226 -15.8125 -0.8125 C-14.9875 -1.0394 -14.1625 -1.2663 -13.3125 -1.5 C-4.1121 -2.65 -4.1121 -2.65 0 0 Z " fill="#302E2C" transform="translate(788.8125,328.8125)"/>
<path d="M0 0 C0.66 0.33 1.32 0.66 2 1 C1.7751 1.2075 1.7751 1.2075 0.6367 2.2578 C-5.9891 8.6048 -11.4441 15.7307 -17 23 C-18.4109 24.8401 -19.8225 26.6798 -21.2349 28.5188 C-22.1012 29.6485 -22.9656 30.7798 -23.8276 31.9128 C-25.4692 34.0624 -27.0847 36.0847 -29 38 C-29.4331 37.505 -29.8663 37.01 -30.3125 36.5 C-32 35 -32 35 -35 35 C-13.0932 8.7288 -13.0932 8.7288 0 0 Z " fill="#403736" transform="translate(802,551)"/>
<path d="M0 0 C0.33 0 0.66 0 1 0 C1 0.9281 1 1.8563 1 2.8125 C1.33 3.8644 1.66 4.9162 2 6 C4.7993 7.3751 7.0375 8.2231 10 9 C11.2581 9.3713 12.5163 9.7425 13.8125 10.125 C18.8022 11.3201 23.8935 11.6433 29 12 C29.33 10.02 29.66 8.04 30 6 C30.165 6.33 30.165 6.33 31 8 C33.0625 9.125 33.0625 9.125 35 10 C33.375 15.75 33.375 15.75 30 18 C24.0422 18.5168 18.7223 17.2105 13 15.75 C12.1363 15.545 11.2727 15.3401 10.3828 15.1289 C4.9906 13.7768 0.6936 11.9845 -4 9 C-3.5256 8.6287 -3.0513 8.2575 -2.5625 7.875 C-0.4779 5.3735 -0.3538 3.1841 0 0 Z " fill="#51403E" transform="translate(209,539)"/>
<path d="M0 0 C0.2475 0.5362 0.495 1.0725 0.75 1.625 C5.3333 10.3333 5.3333 10.3333 10 12 C10 12.66 10 13.32 10 14 C9.2369 14.4331 8.4737 14.8662 7.6875 15.3125 C3.5379 17.9181 2.1257 21.7396 0 26 C-0.3029 25.3129 -0.6059 24.6259 -0.918 23.918 C-5.0791 14.9684 -5.0791 14.9684 -10 13 C-9.2369 12.4225 -8.4737 11.845 -7.6875 11.25 C-3.7009 7.9124 -1.7605 4.8751 0 0 Z " fill="#FDF4F3" transform="translate(307,376)"/>
<path d="M0 0 C11.3439 4.0542 19.7815 14.5496 28 23 C27.01 24.98 26.02 26.96 25 29 C21.9357 26.1214 19.2968 23.1607 16.75 19.8125 C13.4213 15.4495 9.8274 11.3967 6.1133 7.3594 C3.9779 4.9754 1.9766 2.5165 0 0 Z " fill="#443A39" transform="translate(202,740)"/>
<path d="M0 0 C-0.486 7.3621 -0.9767 14.691 -2 22 C-2.99 22.33 -3.98 22.66 -5 23 C-4.6914 20.2287 -4.3783 17.458 -4.0625 14.6875 C-3.9755 13.9018 -3.8885 13.1161 -3.7988 12.3066 C-3.7118 11.5493 -3.6248 10.792 -3.5352 10.0117 C-3.4959 9.6635 -3.4959 9.6635 -3.2971 7.9011 C-3 6 -3 6 -2 3 C-3.1627 3.4963 -4.3255 3.9926 -5.5234 4.5039 C-13.9834 8.101 -22.4626 11.653 -31 15.0625 C-31.7585 15.3732 -32.5169 15.684 -33.2983 16.0042 C-38.6531 18.1156 -38.6531 18.1156 -42 17 C-33.0029 12.7075 -23.9326 8.5867 -14.8125 4.5625 C-14.3107 4.338 -14.3107 4.338 -11.7712 3.2017 C-10.8219 2.7858 -9.8726 2.3699 -8.8945 1.9414 C-8.0474 1.567 -7.2002 1.1926 -6.3274 0.8069 C-4 0 -4 0 0 0 Z " fill="#7B7776" transform="translate(834,310)"/>
<path d="M0 0 C0.5917 0.3236 1.1834 0.6471 1.793 0.9805 C1.793 1.6405 1.793 2.3005 1.793 2.9805 C2.783 3.3105 3.773 3.6405 4.793 3.9805 C4.793 4.6405 4.793 5.3005 4.793 5.9805 C4.133 5.9805 3.473 5.9805 2.793 5.9805 C2.793 6.9705 2.793 7.9605 2.793 8.9805 C1.5761 8.7948 0.3592 8.6092 -0.8945 8.418 C-4.2368 7.9905 -6.9267 8.0579 -10.207 8.9805 C-12.3208 6.6976 -13.207 5.5837 -13.207 2.418 C-12.207 -0.0195 -12.207 -0.0195 -10.207 -2.082 C-5.9986 -3.3972 -3.8185 -1.9248 0 0 Z " fill="#656462" transform="translate(472.20703125,780.01953125)"/>
<path d="M0 0 C6.2377 -0.7707 10.6725 1.949 16.0625 4.6875 C23.2125 8.2239 30.2594 11.434 37.7969 14.0625 C40 15 40 15 41 17 C32.6746 14.9643 24.8605 12.1228 16.9375 8.875 C15.8115 8.42 14.6855 7.9649 13.5254 7.4961 C5.4311 4.2155 5.4311 4.2155 3 3 C3.66 8.94 4.32 14.88 5 21 C4.01 20.67 3.02 20.34 2 20 C1.9394 19.2291 1.8788 18.4583 1.8164 17.6641 C1.7326 16.6612 1.6488 15.6583 1.5625 14.625 C1.4813 13.6273 1.4001 12.6295 1.3164 11.6016 C1 9 1 9 0 7 C-0.0402 4.667 -0.0432 2.3329 0 0 Z " fill="#807B79" transform="translate(166,504)"/>
<path d="M0 0 C0 1.32 0 2.64 0 4 C1.32 4.33 2.64 4.66 4 5 C3.67 5.66 3.34 6.32 3 7 C0.4102 7.5625 0.4102 7.5625 -2.9375 8 C-7.9429 8.6923 -12.85 9.5351 -17.7812 10.6328 C-20.221 11.0366 -22.5314 11.0608 -25 11 C-25 9.68 -25 8.36 -25 7 C-24.5462 6.8763 -24.5462 6.8763 -22.25 6.25 C-17.7043 4.9579 -13.2426 3.424 -8.7695 1.9023 C-2.9307 0 -2.9307 0 0 0 Z " fill="#BCB6B3" transform="translate(561,597)"/>
<path d="M0 0 C0.5569 0.2475 1.1137 0.495 1.6875 0.75 C1.6875 2.4 1.6875 4.05 1.6875 5.75 C1.3781 5.7912 1.3781 5.7912 -0.1875 6 C-2.3125 6.75 -2.3125 6.75 -3.3125 8.75 C-4.3125 10.75 -4.3125 10.75 -6.4375 11.5 C-6.7469 11.5412 -6.7469 11.5412 -8.3125 11.75 C-8.4156 12.3894 -8.5188 13.0287 -8.625 13.6875 C-8.8519 14.3681 -9.0788 15.0488 -9.3125 15.75 C-10.3025 16.08 -11.2925 16.41 -12.3125 16.75 C-12.6425 17.74 -12.9725 18.73 -13.3125 19.75 C-13.9725 19.75 -14.6325 19.75 -15.3125 19.75 C-15.3125 19.09 -15.3125 18.43 -15.3125 17.75 C-15.9725 17.75 -16.6325 17.75 -17.3125 17.75 C-16.5725 12.7547 -13.0438 8.9725 -9.3125 5.75 C-8.6525 5.75 -7.9925 5.75 -7.3125 5.75 C-7.3125 5.09 -7.3125 4.43 -7.3125 3.75 C-3.1096 -0.3362 -3.1096 -0.3362 0 0 Z " fill="#C1BBB8" transform="translate(497.3125,577.25)"/>
<path d="M0 0 C2.9375 0.8125 2.9375 0.8125 6 2 C6.33 2.99 6.66 3.98 7 5 C7.99 5.33 8.98 5.66 10 6 C10 6.99 10 7.98 10 9 C10.66 9 11.32 9 12 9 C16 15.75 16 15.75 16 18 C15.01 18 14.02 18 13 18 C13.33 18.66 13.66 19.32 14 20 C14.99 20 15.98 20 17 20 C16.67 20.99 16.34 21.98 16 23 C13.75 23 13.75 23 11 22 C9.7612 20.0682 8.8748 18.1245 7.9922 16.0078 C7 14 7 14 5.3828 12.4297 C4 11 4 11 4 8 C3.01 7.67 2.02 7.34 1 7 C1.66 5.35 2.32 3.7 3 2 C2.34 2 1.68 2 1 2 C1 2.66 1 3.32 1 4 C0.34 4 -0.32 4 -1 4 C-0.67 2.68 -0.34 1.36 0 0 Z " fill="#AFAAA8" transform="translate(502,767)"/>
<path d="M0 0 C8.0704 0.6146 16.0139 1.6923 24 3 C22.68 4.32 21.36 5.64 20 7 C27.59 7.33 35.18 7.66 43 8 C43 8.33 43 8.66 43 9 C39.2292 9.059 35.4586 9.0939 31.6875 9.125 C30.635 9.1418 29.5825 9.1585 28.498 9.1758 C18.469 9.2375 7.8736 9.0389 0 2 C0 1.34 0 0.68 0 0 Z " fill="#433939" transform="translate(410,705)"/>
<path d="M0 0 C0.9075 0.33 1.815 0.66 2.75 1 C2.42 1.66 2.09 2.32 1.75 3 C1.0487 2.8324 0.3475 2.6648 -0.375 2.4922 C-6.6724 1.1403 -11.2623 0.3738 -17.25 3 C-21.7879 8.9556 -21.7863 14.094 -21.6406 21.4023 C-21.635 22.48 -21.6293 23.5577 -21.6235 24.6681 C-21.6012 28.0917 -21.551 31.5142 -21.5 34.9375 C-21.4799 37.2663 -21.4617 39.595 -21.4453 41.9238 C-21.4013 47.6162 -21.3345 53.308 -21.25 59 C-21.58 59 -21.91 59 -22.25 59 C-22.9865 47.2024 -23.3954 35.4039 -23.4822 23.5838 C-23.494 22.1993 -23.5111 20.8149 -23.5334 19.4306 C-23.5635 17.4643 -23.5712 15.4978 -23.5781 13.5312 C-23.5875 12.3924 -23.5968 11.2535 -23.6064 10.0801 C-23.1106 5.7953 -21.4678 3.197 -18.4258 0.207 C-13.2056 -2.6889 -5.5882 -1.5885 0 0 Z " fill="#C28988" transform="translate(200.25,738)"/>
<path d="M0 0 C-0.238 1.8936 -0.238 1.8936 -1 4 C-2.8225 5.0049 -2.8225 5.0049 -5.1914 5.7031 C-6.0544 5.9609 -6.9175 6.2188 -7.8066 6.4844 C-8.7161 6.737 -9.6255 6.9897 -10.5625 7.25 C-11.4449 7.5181 -12.3272 7.7862 -13.2363 8.0625 C-18.6705 9.6369 -23.3486 10.2902 -29 10 C-29.33 9.01 -29.66 8.02 -30 7 C-29.0332 6.7461 -28.0664 6.4921 -27.0703 6.2305 C-25.7551 5.8831 -24.44 5.5355 -23.125 5.1875 C-22.4426 5.0074 -21.7602 4.8272 -21.0571 4.6416 C-16.3762 3.3955 -11.7497 2.0332 -7.1484 0.5156 C-4.7067 -0.0704 -2.5021 -0.0878 0 0 Z " fill="#E6C7C7" transform="translate(789,350)"/>
<path d="M0 0 C2.4433 0.1788 4.8246 0.4303 7.25 0.75 C7.919 0.8248 8.588 0.8995 9.2773 0.9766 C13.4934 1.5232 16.6208 2.383 20 5 C20.33 5.99 20.66 6.98 21 8 C14.5603 8.1263 14.5603 8.1263 11.7812 7.5 C8.0794 6.8345 4.4332 6.894 0.6875 6.9375 C0.3172 6.9398 0.3172 6.9398 -1.5566 6.9512 C-3.3711 6.9629 -5.1856 6.9808 -7 7 C-7 6.34 -7 5.68 -7 5 C-6.175 5.165 -6.175 5.165 -2 6 C-1.8556 5.1956 -1.7113 4.3913 -1.5625 3.5625 C-1 1 -1 1 0 0 Z " fill="#B6B1AE" transform="translate(424,777)"/>
<path d="M0 0 C2.5226 1.9742 2.993 2.9675 3.6875 6.1875 C3.7906 7.1156 3.8937 8.0438 4 9 C4.66 9 5.32 9 6 9 C6 10.32 6 11.64 6 13 C8.31 13 10.62 13 13 13 C13 15.31 13 17.62 13 20 C12.01 19.67 11.02 19.34 10 19 C10 17.68 10 16.36 10 15 C8.68 15.33 7.36 15.66 6 16 C5.67 17.32 5.34 18.64 5 20 C4.67 19.34 4.34 18.68 4 18 C3.34 17.67 2.68 17.34 2 17 C2 15.68 2 14.36 2 13 C1.34 13 0.68 13 0 13 C0.33 11.35 0.66 9.7 1 8 C-0.32 8.33 -1.64 8.66 -3 9 C-6 4.25 -6 4.25 -6 2 C-4.02 1.34 -2.04 0.68 0 0 Z " fill="#BBB6B3" transform="translate(512,586)"/>
<path d="M0 0 C1.875 0.3125 1.875 0.3125 4 1 C6.2901 4.4352 6.1784 5.9853 6 10 C3.25 11.625 3.25 11.625 0 13 C-2.125 12.3125 -2.125 12.3125 -4 11 C-4.7425 10.6287 -5.485 10.2575 -6.25 9.875 C-6.5387 9.7306 -6.5387 9.7306 -8 9 C-8 7.68 -8 6.36 -8 5 C-7.34 5 -6.68 5 -6 5 C-6 4.34 -6 3.68 -6 3 C-5.5978 3.0825 -5.5978 3.0825 -3.5625 3.5 C-1 4 -1 4 0 4 C0 2.68 0 1.36 0 0 Z " fill="#63615F" transform="translate(477,788)"/>
<path d="M0 0 C0.33 0.99 0.66 1.98 1 3 C2.32 2.67 3.64 2.34 5 2 C7 7.75 7 7.75 7 10 C7.99 10.33 8.98 10.66 10 11 C9.67 13.31 9.34 15.62 9 18 C5.1768 19.4226 2.0872 20.2404 -2 20 C-2.33 19.34 -2.66 18.68 -3 18 C-2.67 17.34 -2.34 16.68 -2 16 C-2.99 15.67 -3.98 15.34 -5 15 C-5 14.67 -5 14.34 -5 14 C-2.6875 13.8125 -2.6875 13.8125 0 14 C1 15 2 16 3 17 C5.1875 16.6875 5.1875 16.6875 7 16 C7.33 14.35 7.66 12.7 8 11 C7.34 11 6.68 11 6 11 C6 12.65 6 14.3 6 16 C4.35 15.67 2.7 15.34 1 15 C0.67 13.02 0.34 11.04 0 9 C0.6394 8.7112 1.2787 8.4225 1.9375 8.125 C4 7 4 7 5 5 C4.3606 5.1856 3.7213 5.3713 3.0625 5.5625 C2.3819 5.7069 1.7012 5.8513 1 6 C0 5 0 5 -0.0625 2.4375 C-0.0419 1.6331 -0.0213 0.8288 0 0 Z " fill="#D6D1CE" transform="translate(514,782)"/>
<path d="M0 0 C0.5672 0.1341 0.5672 0.1341 3.4375 0.8125 C9.0004 2.0606 14.6125 3.0065 20.2341 3.9465 C25.7879 4.8939 25.7879 4.8939 28 6 C28 6.99 28 7.98 28 9 C18.4213 9.7037 8.1374 8.4249 0 3 C0 2.01 0 1.02 0 0 Z " fill="#D6B7B5" transform="translate(210,542)"/>
<path d="M0 0 C1.0931 0.1031 2.1862 0.2062 3.3125 0.3125 C2.6525 1.6325 1.9925 2.9525 1.3125 4.3125 C1.6425 4.8075 1.6425 4.8075 3.3125 7.3125 C2.9375 10.5 2.9375 10.5 2.3125 13.3125 C-3.1029 14.5433 -3.1029 14.5433 -6.0625 13.375 C-6.5987 13.0244 -7.135 12.6738 -7.6875 12.3125 C-6.5347 0.5538 -6.5347 0.5538 0 0 Z " fill="#CCC8C4" transform="translate(469.6875,611.6875)"/>
<path d="M0 0 C1.32 0.33 2.64 0.66 4 1 C4 1.66 4 2.32 4 3 C4.5362 3.0825 5.0725 3.165 5.625 3.25 C8.9575 4.3024 11.299 5.7901 14 8 C14.375 10.75 14.375 10.75 14 13 C10.4517 12.3618 7.1372 11.4873 3.75 10.25 C3.3143 10.0979 3.3143 10.0979 1.1094 9.3281 C-1 8 -1 8 -1.9219 5.5469 C-2 3 -2 3 0 0 Z " fill="#B8B4AF" transform="translate(482,751)"/>
<path d="M0 0 C2.31 0 4.62 0 7 0 C6.835 1.0931 6.67 2.1862 6.5 3.3125 C6 7 6 7 6 10 C5.34 10 4.68 10 4 10 C3.67 10.99 3.34 11.98 3 13 C1.3518 14.0301 -0.315 15.0311 -2 16 C-2.33 16.66 -2.66 17.32 -3 18 C-3.66 18 -4.32 18 -5 18 C-4.5294 14.8938 -3.7665 12.4648 -2.5 9.5625 C-1.1205 6.2862 -0.4279 3.5087 0 0 Z " fill="#8B8A88" transform="translate(573,616)"/>
<path d="M0 0 C0.33 0 0.66 0 1 0 C1.7678 7.9854 1.7678 7.9854 -0.75 11.3125 C-5.6018 13.8317 -10.6688 15.7621 -16 17 C-16.99 16.67 -17.98 16.34 -19 16 C-18.67 14.35 -18.34 12.7 -18 11 C-13.71 9.68 -9.42 8.36 -5 7 C-4.67 7.66 -4.34 8.32 -4 9 C-2.68 8.67 -1.36 8.34 0 8 C0 5.36 0 2.72 0 0 Z " fill="#503E3C" transform="translate(794,346)"/>
<path d="M0 0 C0.33 0.66 0.66 1.32 1 2 C2.32 2 3.64 2 5 2 C5 2.99 5 3.98 5 5 C5.99 5.33 6.98 5.66 8 6 C8 7.65 8 9.3 8 11 C5.875 12.25 5.875 12.25 3 13 C-0.3125 11.125 -0.3125 11.125 -3 9 C-2.6918 7.6865 -2.3783 6.3742 -2.0625 5.0625 C-1.8885 4.3316 -1.7145 3.6007 -1.5352 2.8477 C-1 1 -1 1 0 0 Z " fill="#85817F" transform="translate(508,611)"/>
<path d="M0 0 C0.66 0 1.32 0 2 0 C2.33 0.99 2.66 1.98 3 3 C3.66 3.33 4.32 3.66 5 4 C5 4.66 5 5.32 5 6 C4.01 6 3.02 6 2 6 C1.34 7.98 0.68 9.96 0 12 C-2.31 11.67 -4.62 11.34 -7 11 C-7.3806 8.6739 -7.7127 6.3394 -8 4 C-7 3 -7 3 -3.9375 2.9375 C-3.4528 2.9478 -3.4528 2.9478 -1 3 C-0.67 2.01 -0.34 1.02 0 0 Z " fill="#C0BFBB" transform="translate(452,833)"/>
<path d="M0 0 C2.9745 0.3216 4.5934 0.6214 6.8125 2.6875 C8.3082 5.6002 8.2202 7.77 8 11 C7.67 11.165 7.67 11.165 6 12 C6.33 12.99 6.66 13.98 7 15 C5.68 15 4.36 15 3 15 C2.4912 13.4403 1.9934 11.8771 1.5 10.3125 C1.2216 9.4424 0.9431 8.5723 0.6562 7.6758 C0.0015 5.0061 -0.1183 2.736 0 0 Z " fill="#CACAC7" transform="translate(516,630)"/>
<path d="M0 0 C2.25 0.0625 2.25 0.0625 5 1 C7.9592 4.5926 9 7.3243 9 12 C7.02 12.66 5.04 13.32 3 14 C2.67 13.01 2.34 12.02 2 11 C1.34 10.67 0.68 10.34 0 10 C0.66 7.69 1.32 5.38 2 3 C1.01 2.67 0.02 2.34 -1 2 C-0.67 1.34 -0.34 0.68 0 0 Z " fill="#B6B2AE" transform="translate(501,573)"/>
<path d="M0 0 C0.66 0.33 1.32 0.66 2 1 C1.5269 1.4499 1.0538 1.8998 0.5664 2.3633 C-5.1017 7.8767 -10.0857 13.8117 -15 20 C-15.33 19.01 -15.66 18.02 -16 17 C-15.34 17 -14.68 17 -14 17 C-14.33 16.34 -14.66 15.68 -15 15 C-15.99 15 -16.98 15 -18 15 C-16.1297 13.2447 -14.2541 11.4958 -12.375 9.75 C-12.114 9.5044 -12.114 9.5044 -10.793 8.2617 C-7.3865 5.1075 -3.928 2.4771 0 0 Z " fill="#534543" transform="translate(802,551)"/>
<path d="M0 0 C0.66 0 1.32 0 2 0 C-0.3154 6.0535 -3.3843 11.6966 -6.375 17.4375 C-6.9525 18.5571 -7.53 19.6766 -8.125 20.8301 C-10.8518 26.0751 -13.5557 31.1898 -17 36 C-17.33 35.34 -17.66 34.68 -18 34 C-17.0763 31.9636 -16.0559 29.971 -15 28 C-14.3376 26.6639 -13.6803 25.3252 -13.0273 23.9844 C-12.3308 22.5729 -11.6342 21.1614 -10.9375 19.75 C-10.5862 19.0307 -10.235 18.3114 -9.873 17.5703 C-7.2258 12.2258 -7.2258 12.2258 -5 10 C-4.6906 9.0512 -4.3813 8.1025 -4.0625 7.125 C-3.054 4.159 -2.1109 2.2868 0 0 Z " fill="#E4C3C2" transform="translate(737,508)"/>
<path d="M0 0 C-0.33 3.63 -0.66 7.26 -1 11 C-1.99 11 -2.98 11 -4 11 C-4.33 11.495 -4.33 11.495 -6 14 C-8.028 9.9441 -8.236 7.3735 -7 3 C-4.7383 -0.231 -4.1969 0 0 0 Z " fill="#B4B4B1" transform="translate(473,808)"/>
<path d="M0 0 C0.33 0.66 0.66 1.32 1 2 C3.0625 3.125 3.0625 3.125 5 4 C3.375 9.75 3.375 9.75 0 12 C-2.332 12.0791 -4.6683 12.088 -7 12 C-6.01 11.67 -5.02 11.34 -4 11 C-5 8 -5 8 -7 6 C-5.02 6 -3.04 6 -1 6 C-0.67 4.02 -0.34 2.04 0 0 Z " fill="#554442" transform="translate(239,545)"/>
<path d="M0 0 C3.125 -0.1875 3.125 -0.1875 6 0 C6.33 1.98 6.66 3.96 7 6 C5.25 7.5625 5.25 7.5625 3 9 C0.75 8.6875 0.75 8.6875 -1 8 C-1.625 5.6875 -1.625 5.6875 -2 3 C-1.34 2.01 -0.68 1.02 0 0 Z " fill="#A4A29D" transform="translate(409,778)"/>
<path d="M0 0 C1.98 0 3.96 0 6 0 C6.2539 0.5427 6.5079 1.0854 6.7695 1.6445 C7.1137 2.36 7.4579 3.0754 7.8125 3.8125 C8.1489 4.5202 8.4854 5.2279 8.832 5.957 C10 8 10 8 11.6367 9.6367 C13 11 13 11 13 13 C11.02 13.66 9.04 14.32 7 15 C6.9175 14.4225 6.835 13.845 6.75 13.25 C5.7973 10.392 4.1395 9.0705 2 7 C2 6.34 2 5.68 2 5 C2.66 5 3.32 5 4 5 C4 5.99 4 6.98 4 8 C4.66 8 5.32 8 6 8 C5.34 6.02 4.68 4.04 4 2 C2.68 2 1.36 2 0 2 C0 1.34 0 0.68 0 0 Z " fill="#86837E" transform="translate(414,805)"/>
<path d="M0 0 C1.65 0 3.3 0 5 0 C5.1237 0.7219 5.2475 1.4438 5.375 2.1875 C6 5 6 5 7.0625 7.5625 C8 10 8 10 8 14 C6.35 14 4.7 14 3 14 C2.34 12.35 1.68 10.7 1 9 C1.99 9 2.98 9 4 9 C4 7.68 4 6.36 4 5 C2.68 5 1.36 5 0 5 C0 3.35 0 1.7 0 0 Z " fill="#979590" transform="translate(410,790)"/>
<path d="M0 0 C1 2 1 2 1 6 C1.825 6.33 1.825 6.33 6 8 C5.2172 9.3386 4.4235 10.6707 3.625 12 C3.1841 12.7425 2.7433 13.485 2.2891 14.25 C1.8637 14.8275 1.4383 15.405 1 16 C0.34 16 -0.32 16 -1 16 C-1 15.01 -1 14.02 -1 13 C-1.99 12.67 -2.98 12.34 -4 12 C-3.34 10.68 -2.68 9.36 -2 8 C-2.66 7.67 -3.32 7.34 -4 7 C-2.68 4.69 -1.36 2.38 0 0 Z " fill="#C4BFBA" transform="translate(480,752)"/>
<path d="M0 0 C0.99 0.99 1.98 1.98 3 3 C2.01 3.33 1.02 3.66 0 4 C0 4.66 0 5.32 0 6 C0.66 6.33 1.32 6.66 2 7 C1.67 7.66 1.34 8.32 1 9 C0.01 8.34 -0.98 7.68 -2 7 C-4.3239 6.6061 -6.6579 6.2651 -9 6 C-9 6.66 -9 7.32 -9 8 C-12.875 6.25 -12.875 6.25 -14 4 C-11.5428 2.4529 -10.3677 1.9552 -7.4375 2.3125 C-5.611 2.8277 -3.8004 3.3999 -2 4 C-2 3.01 -2 2.02 -2 1 C-1.34 0.67 -0.68 0.34 0 0 Z " fill="#AAA8A5" transform="translate(477,785)"/>
<path d="M0 0 C0.33 0.99 0.66 1.98 1 3 C3.64 2.67 6.28 2.34 9 2 C8.67 3.32 8.34 4.64 8 6 C4.875 7.25 4.875 7.25 1 8 C-2.4375 6.125 -2.4375 6.125 -5 4 C-4.67 3.34 -4.34 2.68 -4 2 C-3.34 2.33 -2.68 2.66 -2 3 C-2 2.34 -2 1.68 -2 1 C-1.34 0.67 -0.68 0.34 0 0 Z " fill="#999894" transform="translate(474,793)"/>
<path d="M0 0 C2.97 0 5.94 0 9 0 C8.505 0.495 8.505 0.495 6 3 C13.59 3.33 21.18 3.66 29 4 C29 4.33 29 4.66 29 5 C25.2292 5.059 21.4586 5.0939 17.6875 5.125 C16.635 5.1418 15.5825 5.1585 14.498 5.1758 C7.4422 5.2192 0.8901 4.5224 -6 3 C-3.9245 2.4465 -2.1563 2 0 2 C0 1.34 0 0.68 0 0 Z " fill="#725F5E" transform="translate(424,709)"/>
<path d="M0 0 C0.6291 0.1444 0.6291 0.1444 3.8125 0.875 C9.181 2.0718 14.5834 3.0483 20 4 C20 4.33 20 4.66 20 5 C17.6047 5.2501 15.2112 5.4755 12.8125 5.6875 C12.4757 5.7239 12.4757 5.7239 10.7715 5.9082 C7.3815 6.1893 5.1528 6.0661 2.0117 4.707 C1.3479 4.1437 0.684 3.5804 0 3 C0 2.01 0 1.02 0 0 Z " fill="#DCBFBD" transform="translate(210,542)"/>
<path d="M0 0 C0.33 0.66 0.66 1.32 1 2 C-4.5707 3.5916 -9.211 4.2067 -15 4 C-15.33 3.01 -15.66 2.02 -16 1 C-10.5225 -0.9812 -5.715 -1.5207 0 0 Z " fill="#D9BBBA" transform="translate(775,356)"/>
<path d="M0 0 C0.99 0.66 1.98 1.32 3 2 C3 2.99 3 3.98 3 5 C0.625 7.0625 0.625 7.0625 -2 9 C-2.66 9.66 -3.32 10.32 -4 11 C-6 8 -6 8 -5.9375 5.5 C-4.7067 2.2177 -3.0826 1.5018 0 0 Z " fill="#8D8884" transform="translate(465,777)"/>
<path d="M0 0 C2.9375 1.75 2.9375 1.75 3.875 3.9375 C3.8956 4.5356 3.9162 5.1337 3.9375 5.75 C3.2775 5.75 2.6175 5.75 1.9375 5.75 C1.6384 5.4303 1.6384 5.4303 0.125 3.8125 C-2.4645 1.371 -3.529 0.9106 -7.0625 0.75 C-9.7771 1.2576 -12.4098 1.9875 -15.0625 2.75 C-17.9375 3.5 -17.9375 3.5 -20.0625 3.75 C-20.7225 3.09 -21.3825 2.43 -22.0625 1.75 C-14.7675 -1.4922 -7.7017 -2.8723 0 0 Z " fill="#C08787" transform="translate(825.0625,548.25)"/>
<path d="M0 0 C4.0422 1.3959 6.9415 3.3056 10.25 6 C11.1214 6.7012 11.9928 7.4025 12.8906 8.125 C15 10 15 10 16 12 C15.67 12.165 15.67 12.165 14 13 C13.67 13.66 13.34 14.32 13 15 C11.5816 13.4391 10.1653 11.8762 8.75 10.3125 C7.9611 9.4424 7.1722 8.5723 6.3594 7.6758 C4.155 5.1758 2.0587 2.6205 0 0 Z " fill="#544443" transform="translate(202,740)"/>
<path d="M0 0 C0.66 0 1.32 0 2 0 C1.67 2.31 1.34 4.62 1 7 C0.01 7 -0.98 7 -2 7 C-2.33 8.32 -2.66 9.64 -3 11 C-7 11 -7 11 -9 10 C-8.67 8.35 -8.34 6.7 -8 5 C-7.01 5.33 -6.02 5.66 -5 6 C-5.33 6.495 -5.33 6.495 -7 9 C-6.5462 8.505 -6.0925 8.01 -5.625 7.5 C-4 6 -4 6 -2 6 C-1.8556 5.1956 -1.7112 4.3913 -1.5625 3.5625 C-1 1 -1 1 0 0 Z " fill="#868582" transform="translate(573,631)"/>
<path d="M0 0 C-1.0534 3.2772 -2.6376 4.6046 -5.5 6.3125 C-6.655 6.8694 -7.81 7.4262 -9 8 C-9.66 7.67 -10.32 7.34 -11 7 C-10.67 5.68 -10.34 4.36 -10 3 C-11.65 3 -13.3 3 -15 3 C-15 2.67 -15 2.34 -15 2 C-13.2509 1.6622 -11.5006 1.33 -9.75 1 C-8.7755 0.8144 -7.8009 0.6287 -6.7969 0.4375 C-4 0 -4 0 0 0 Z " fill="#554947" transform="translate(577,874)"/>
<path d="M0 0 C0 1.32 0 2.64 0 4 C-9 4 -9 4 -12 3 C-11.67 1.68 -11.34 0.36 -11 -1 C-3.5714 -2.4286 -3.5714 -2.4286 0 0 Z " fill="#D7D2CE" transform="translate(573,598)"/>
<path d="M0 0 C3.3 0 6.6 0 10 0 C10 1.98 10 3.96 10 6 C9.34 6 8.68 6 8 6 C7.67 6.66 7.34 7.32 7 8 C7 7.34 7 6.68 7 6 C6.6081 5.9278 6.6081 5.9278 4.625 5.5625 C2 5 2 5 0 4 C0 2.68 0 1.36 0 0 Z " fill="#484747" transform="translate(233,536)"/>
<path d="M0 0 C0.66 1.65 1.32 3.3 2 5 C1.3606 5.2681 0.7212 5.5362 0.0625 5.8125 C-2 7 -2 7 -3 10 C-3.66 10 -4.32 10 -5 10 C-5 9.34 -5 8.68 -5 8 C-5.66 8 -6.32 8 -7 8 C-6.4441 4.109 -4.3412 0 0 0 Z " fill="#9E9894" transform="translate(487,587)"/>
<path d="M0 0 C1.4175 0.1151 2.834 0.2425 4.25 0.375 C5.0389 0.4446 5.8278 0.5142 6.6406 0.5859 C9.0859 1.0151 10.8484 1.786 13 3 C12.67 3.99 12.34 4.98 12 6 C9.36 6 6.72 6 4 6 C4 5.34 4 4.68 4 4 C3.01 4 2.02 4 1 4 C0.67 2.68 0.34 1.36 0 0 Z " fill="#3E2C2A" transform="translate(223,550)"/>
<path d="M0 0 C2.6636 -0.3917 4.3922 -0.4056 6.668 1.1133 C8.1511 2.3639 9.5795 3.6786 11 5 C11 4.34 11 3.68 11 3 C11.99 3 12.98 3 14 3 C14 3.66 14 4.32 14 5 C13.34 5 12.68 5 12 5 C12 5.99 12 6.98 12 8 C9.9375 8.4375 9.9375 8.4375 7 8 C4.4001 5.9051 2.1348 3.5655 0 1 C0 0.67 0 0.34 0 0 Z " fill="#D6D4D3" transform="translate(457,788)"/>
<path d="M0 0 C3.5359 3.1732 5.5858 5.1674 6 10 C4.02 10 2.04 10 0 10 C-0.99 7.69 -1.98 5.38 -3 3 C-2.01 3 -1.02 3 0 3 C0 2.01 0 1.02 0 0 Z " fill="#AFAEAA" transform="translate(524,638)"/>
<path d="M0 0 C2.31 0 4.62 0 7 0 C7.66 1.32 8.32 2.64 9 4 C5.1701 5.8023 2.2188 6.1962 -2 6 C-2.33 4.68 -2.66 3.36 -3 2 C-2.01 2 -1.02 2 0 2 C0 1.34 0 0.68 0 0 Z " fill="#B9B9B7" transform="translate(492,619)"/>
<path d="M0 0 C-0.33 1.65 -0.66 3.3 -1 5 C-4.3 5.33 -7.6 5.66 -11 6 C-11 4.68 -11 3.36 -11 2 C-7.1232 0.8071 -4.0838 0 0 0 Z " fill="#ACA3A0" transform="translate(547,602)"/>
<path d="M0 0 C0.825 0.165 0.825 0.165 5 1 C4.01 1.33 3.02 1.66 2 2 C2.2166 3.204 2.4331 4.408 2.6562 5.6484 C2.9376 7.2239 3.2188 8.7995 3.5 10.375 C3.5715 10.772 3.5715 10.772 3.9336 12.7812 C5 18.7734 5 18.7734 5 21 C4.01 20.67 3.02 20.34 2 20 C1.9394 19.2291 1.8788 18.4583 1.8164 17.6641 C1.7326 16.6612 1.6488 15.6583 1.5625 14.625 C1.4813 13.6273 1.4001 12.6295 1.3164 11.6016 C1 9 1 9 0 7 C-0.0402 4.667 -0.0432 2.3329 0 0 Z " fill="#786966" transform="translate(166,504)"/>
<path d="M0 0 C2.31 0 4.62 0 7 0 C6.835 1.0931 6.67 2.1862 6.5 3.3125 C6 7 6 7 6 10 C4.68 9.34 3.36 8.68 2 8 C2 7.34 2 6.68 2 6 C1.34 6 0.68 6 0 6 C0 4.02 0 2.04 0 0 Z " fill="#A3A3A0" transform="translate(573,616)"/>
<path d="M0 0 C0.7709 0.0722 1.5417 0.1444 2.3359 0.2188 C3.3388 0.3116 4.3417 0.4044 5.375 0.5 C5.8739 0.5464 5.8739 0.5464 8.3984 0.7812 C11 1 11 1 13 1 C13 3.31 13 5.62 13 8 C12.01 7.67 11.02 7.34 10 7 C10 5.68 10 4.36 10 3 C8.68 3.33 7.36 3.66 6 4 C5.67 5.32 5.34 6.64 5 8 C4.67 7.34 4.34 6.68 4 6 C3.34 5.67 2.68 5.34 2 5 C2 3.68 2 2.36 2 1 C1.34 0.67 0.68 0.34 0 0 Z " fill="#D9D4D1" transform="translate(512,598)"/>
<path d="M0 0 C1.32 0.33 2.64 0.66 4 1 C4.8125 2.6875 4.8125 2.6875 5 5 C2.8125 7.8125 2.8125 7.8125 0 10 C-2.3102 9.8717 -3.3661 9.6339 -5 8 C-5.25 5.5625 -5.25 5.5625 -5 3 C-4.01 2.34 -3.02 1.68 -2 1 C-2.33 2.98 -2.66 4.96 -3 7 C-1.68 7 -0.36 7 1 7 C1.625 4.625 1.625 4.625 2 2 C1.34 1.34 0.68 0.68 0 0 Z " fill="#767470" transform="translate(543,660)"/>
<path d="M0 0 C4.6718 1.5113 9.2465 3.2003 13.8125 5 C14.4925 5.2604 15.1725 5.5208 15.873 5.7891 C20.8837 7.7673 20.8837 7.7673 22 10 C13.7294 7.9614 5.8989 5.1771 -2 2 C-1.34 1.34 -0.68 0.68 0 0 Z " fill="#8F8E8E" transform="translate(185,511)"/>
<path d="M0 0 C0.99 0.33 1.98 0.66 3 1 C3.1962 5.2188 2.8023 8.1701 1 12 C-0.32 11.34 -1.64 10.68 -3 10 C-2.67 8.35 -2.34 6.7 -2 5 C-1.34 5 -0.68 5 0 5 C0 4.01 0 3.02 0 2 C-0.66 1.67 -1.32 1.34 -2 1 C-1.34 0.67 -0.68 0.34 0 0 Z " fill="#312D2F" transform="translate(243,537)"/>
<path d="M0 0 C2.97 0 5.94 0 9 0 C8.67 1.98 8.34 3.96 8 6 C6.35 5.67 4.7 5.34 3 5 C2.67 5.66 2.34 6.32 2 7 C1.34 4.69 0.68 2.38 0 0 Z " fill="#E2DAD5" transform="translate(414,777)"/>
<path d="M0 0 C0 1.32 0 2.64 0 4 C-1.65 4.495 -1.65 4.495 -10 7 C-10.33 5.68 -10.66 4.36 -11 3 C-10.3606 2.8763 -9.7212 2.7525 -9.0625 2.625 C-8.7222 2.5219 -8.7222 2.5219 -7 2 C-6.67 1.34 -6.34 0.68 -6 0 C-3 -1 -3 -1 0 0 Z " fill="#DBD9D7" transform="translate(507,621)"/>
<path d="M0 0 C0.9075 0.1031 1.815 0.2062 2.75 0.3125 C2.2517 4 1.6493 5.9174 -1.25 8.3125 C-1.6831 7.8175 -2.1163 7.3225 -2.5625 6.8125 C-4.25 5.3125 -4.25 5.3125 -7.25 5.3125 C-4.05 0.3894 -4.05 0.3894 0 0 Z " fill="#463D3C" transform="translate(774.25,580.6875)"/>
<path d="M0 0 C0.99 0.33 1.98 0.66 3 1 C0.9269 2.5368 -1.1565 4.054 -3.25 5.5625 C-3.8365 6.0001 -4.423 6.4378 -5.0273 6.8887 C-9.4104 10.0159 -9.4104 10.0159 -12.3125 9.9375 C-14.8281 8.5399 -15.7139 6.5079 -17 4 C-16.175 4.33 -16.175 4.33 -12 6 C-12 6.66 -12 7.32 -12 8 C-4.7384 4.0267 -4.7384 4.0267 -2 1 C-1.34 0.67 -0.68 0.34 0 0 Z " fill="#E7C8C5" transform="translate(841,298)"/>
<path d="M0 0 C1.32 0.66 2.64 1.32 4 2 C3.25 4.9375 3.25 4.9375 2 8 C-0.125 8.875 -0.125 8.875 -2 9 C-2.6875 7.3125 -2.6875 7.3125 -3 5 C-1.5625 2.25 -1.5625 2.25 0 0 Z " fill="#ACAAA5" transform="translate(475,767)"/>
<path d="M0 0 C0.99 0 1.98 0 3 0 C3.7995 3.287 4.0966 4.7102 3 8 C0.1875 8.625 0.1875 8.625 -3 9 C-3.99 8.34 -4.98 7.68 -6 7 C-5.67 5.35 -5.34 3.7 -5 2 C-4.01 2 -3.02 2 -2 2 C-2.33 3.65 -2.66 5.3 -3 7 C-1.68 6.67 -0.36 6.34 1 6 C1.33 4.35 1.66 2.7 2 1 C1.34 0.67 0.68 0.34 0 0 Z " fill="#868480" transform="translate(469,617)"/>
<path d="M0 0 C0.66 0 1.32 0 2 0 C0.445 3.8168 -2.036 6.192 -5 9 C-3.758 5.5607 -2.4426 2.7479 0 0 Z M-6 9 C-5.34 9.66 -4.68 10.32 -4 11 C-5.98 13.31 -7.96 15.62 -10 18 C-10.66 17.67 -11.32 17.34 -12 17 C-10.02 14.36 -8.04 11.72 -6 9 Z " fill="#E0B8B7" transform="translate(684,561)"/>
<path d="M0 0 C-0.5569 0.2681 -1.1137 0.5362 -1.6875 0.8125 C-2.0691 1.0084 -2.0691 1.0084 -4 2 C-4.4022 2.2063 -4.4022 2.2063 -6.4375 3.25 C-8.7353 4.8192 -9.9838 6.0579 -11.6875 8.1875 C-12.0691 8.6516 -12.0691 8.6516 -14 11 C-14.66 11 -15.32 11 -16 11 C-14.3885 5.3597 -10.6588 2.7204 -5.875 -0.375 C-3.5568 -1.1477 -2.2701 -0.8108 0 0 Z " fill="#E8C6C4" transform="translate(847,223)"/>
<path d="M0 0 C2.9152 1.074 4.7781 1.7781 7 4 C7.125 6.625 7.125 6.625 7 9 C3.6254 8.4528 1.9177 7.9451 -1 6 C-0.34 6 0.32 6 1 6 C0.67 4.02 0.34 2.04 0 0 Z " fill="#C4BFBA" transform="translate(489,755)"/>
<path d="M0 0 C1.32 1.65 2.64 3.3 4 5 C2.4008 5.6991 0.7954 6.3839 -0.8125 7.0625 C-1.7058 7.4454 -2.5991 7.8282 -3.5195 8.2227 C-6 9 -6 9 -9 8 C-8.4341 7.5063 -7.8682 7.0126 -7.2852 6.5039 C-6.5517 5.8632 -5.8182 5.2226 -5.0625 4.5625 C-4.3316 3.9244 -3.6007 3.2863 -2.8477 2.6289 C-1.8786 1.7746 -0.9135 0.9135 0 0 Z " fill="#E2BFBD" transform="translate(648,607)"/>
<path d="M0 0 C0.99 0.33 1.98 0.66 3 1 C0.7534 2.7961 -1.497 4.5869 -3.75 6.375 C-4.0671 6.6289 -4.0671 6.6289 -5.6719 7.9141 C-6.2906 8.4039 -6.9094 8.8937 -7.5469 9.3984 C-8.1125 9.8488 -8.678 10.2992 -9.2607 10.7632 C-11.0964 12.0685 -12.9636 13.0442 -15 14 C-15.33 13.34 -15.66 12.68 -16 12 C-11.25 9 -11.25 9 -9 9 C-8.67 8.01 -8.34 7.02 -8 6 C-7.01 6 -6.02 6 -5 6 C-5 5.34 -5 4.68 -5 4 C-4.34 4 -3.68 4 -3 4 C-2.67 3.01 -2.34 2.02 -2 1 C-1.34 0.67 -0.68 0.34 0 0 Z " fill="#E8C5C3" transform="translate(681,590)"/>
<path d="M0 0 C2.0625 0.4375 2.0625 0.4375 4 1 C3.01 1.33 2.02 1.66 1 2 C1 3.65 1 5.3 1 7 C2.65 7 4.3 7 6 7 C5.67 5.35 5.34 3.7 5 2 C5.99 2.33 6.98 2.66 8 3 C8.0427 4.6661 8.0406 6.3338 8 8 C7.67 8.33 7.34 8.66 7 9 C4.6606 8.7127 2.3261 8.3806 0 8 C-0.3806 5.6739 -0.7127 3.3394 -1 1 C-0.67 0.67 -0.34 0.34 0 0 Z " fill="#75736F" transform="translate(445,836)"/>
<path d="M0 0 C1.65 0 3.3 0 5 0 C5 0.99 5 1.98 5 3 C4.34 3 3.68 3 3 3 C3 3.66 3 4.32 3 5 C1.0407 6.7144 -0.9588 8.3841 -3 10 C-3.66 9.67 -4.32 9.34 -5 9 C-3.25 4.125 -3.25 4.125 -1 3 C-0.67 2.01 -0.34 1.02 0 0 Z " fill="#D6D4D1" transform="translate(483,795)"/>
<path d="M0 0 C1.1344 0.0206 2.2687 0.0412 3.4375 0.0625 C2.7775 0.3925 2.7775 0.3925 -0.5625 2.0625 C-0.5625 3.0525 -0.5625 4.0425 -0.5625 5.0625 C-0.8687 6.4023 -1.197 7.7376 -1.5625 9.0625 C-2.8825 8.7325 -4.2025 8.4025 -5.5625 8.0625 C-4.5465 0.0798 -4.5465 0.0798 0 0 Z " fill="#DBDAD6" transform="translate(545.5625,658.9375)"/>
<path d="M0 0 C2.64 0 5.28 0 8 0 C7.67 2.31 7.34 4.62 7 7 C6.01 7 5.02 7 4 7 C4 6.01 4 5.02 4 4 C2.68 4 1.36 4 0 4 C0 2.68 0 1.36 0 0 Z " fill="#595857" transform="translate(509,609)"/>
<path d="M0 0 C0.4641 0.1134 0.4641 0.1134 2.8125 0.6875 C2.625 2.5625 2.625 2.5625 1.8125 4.6875 C-0.75 5.9375 -0.75 5.9375 -3.1875 6.6875 C-3.5175 5.6975 -3.8475 4.7075 -4.1875 3.6875 C-4.8475 3.3575 -5.5075 3.0275 -6.1875 2.6875 C-4.1499 -0.1425 -3.5907 -0.352 0 0 Z " fill="#BAB4B0" transform="translate(491.1875,583.3125)"/>
<path d="M0 0 C2.625 0.375 2.625 0.375 5 1 C5.7308 2.9775 6.3942 4.9807 7 7 C6.67 7.66 6.34 8.32 6 9 C5.34 9 4.68 9 4 9 C4.33 7.68 4.66 6.36 5 5 C3.35 5.33 1.7 5.66 0 6 C-0.33 5.01 -0.66 4.02 -1 3 C0.32 3 1.64 3 3 3 C1.35 2.67 -0.3 2.34 -2 2 C-1.34 1.34 -0.68 0.68 0 0 Z " fill="#807E7A" transform="translate(427,821)"/></g>

<g class="effects">
  <g class="sparkle s1"><polygon points="194.0,280.0 183.8,283.8 180.0,294.0 176.2,283.8 166.0,280.0 176.2,276.2 180.0,266.0 183.8,276.2" fill="#ffffff"/></g>
  <g class="sparkle s2"><polygon points="876.0,230.0 864.3,234.3 860.0,246.0 855.7,234.3 844.0,230.0 855.7,225.7 860.0,214.0 864.3,225.7" fill="#ffffff"/></g>
  <g class="sparkle s3"><polygon points="141.0,540.0 133.0,543.0 130.0,551.0 127.0,543.0 119.0,540.0 127.0,537.0 130.0,529.0 133.0,537.0" fill="#fff0f5"/></g>
  <g class="sparkle s4"><polygon points="933.0,510.0 923.5,513.5 920.0,523.0 916.5,513.5 907.0,510.0 916.5,506.5 920.0,497.0 923.5,506.5" fill="#fff0f5"/></g>
  <g class="sparkle s5"><polygon points="510.0,120.0 502.7,122.7 500.0,130.0 497.3,122.7 490.0,120.0 497.3,117.3 500.0,110.0 502.7,117.3" fill="#ffffff"/></g>
  <g class="sparkle s6"><polygon points="282.0,820.0 273.2,823.2 270.0,832.0 266.8,823.2 258.0,820.0 266.8,816.8 270.0,808.0 273.2,816.8" fill="#ffffff"/></g>
  <g class="sparkle s7"><polygon points="791.0,820.0 783.0,823.0 780.0,831.0 777.0,823.0 769.0,820.0 777.0,817.0 780.0,809.0 783.0,817.0" fill="#fff0f5"/></g>
  <g class="sparkle s8"><polygon points="609.0,900.0 602.4,902.4 600.0,909.0 597.6,902.4 591.0,900.0 597.6,897.6 600.0,891.0 602.4,897.6" fill="#ffffff"/></g>
</g>

</svg>
