<?xml version="1.0" encoding="UTF-8"?>
<svg xmlns="http://www.w3.org/2000/svg" viewBox="0 0 1024 1024" preserveAspectRatio="xMidYMid meet">
<style>

.glow { animation: glowPulse 3s 1.8s ease-in-out infinite; transform-origin: 512px 450px;}
.main { transform-origin: 512px 600px; animation: ringIn 2s cubic-bezier(.2,1.4,.3,1) both, ringShimmer 3.2s 2s ease-in-out infinite; }
.sparkles-existing { transform-origin: 512px 250px; animation: sparkleBlink 1.6s 1s ease-in-out infinite; }
.star { opacity:0; animation: starTwinkle 2.5s ease-in-out infinite; }
@keyframes ringIn {
  0%  { transform: translateY(40%) scale(.4) rotate(-30deg); opacity:0; }
  60% { transform: translateY(-16px) scale(1.1) rotate(6deg); opacity:1; }
  100%{ transform: translateY(0) scale(1) rotate(0); opacity:1; }
}
@keyframes ringShimmer {
  0%,100% { transform: translateY(0) rotate(0); }
  50%     { transform: translateY(-14px) rotate(2deg); }
}
@keyframes sparkleBlink {
  0%,100% { opacity:.4; transform: scale(1); }
  50%     { opacity:1; transform: scale(1.25); }
}
@keyframes starTwinkle {
  0%,100% { opacity:0; transform: scale(.5) rotate(0); }
  50%     { opacity:1; transform: scale(1.2) rotate(180deg); }
}
@keyframes glowPulse {
  0%,100% { opacity:.3; transform: scale(1); }
  50%     { opacity:.7; transform: scale(1.2); }
}

</style>

<g class="sparkles-existing"><path d="M0 0 C2.426 0.566 2.426 0.566 3.832 2 C4.013 2.331 4.013 2.331 4.926 4.004 C5.332 4.727 5.738 5.45 6.156 6.195 C6.575 6.978 6.994 7.76 7.426 8.566 C7.896 9.38 8.367 10.193 8.852 11.031 C12.426 17.243 12.426 17.243 12.426 19.566 C13.416 19.896 14.406 20.226 15.426 20.566 C15.426 21.226 15.426 21.886 15.426 22.566 C16.746 22.566 18.066 22.566 19.426 22.566 C19.426 23.226 19.426 23.886 19.426 24.566 C19.979 24.685 20.532 24.804 21.102 24.926 C23.755 25.657 26.119 26.652 28.613 27.816 C29.494 28.213 30.374 28.61 31.281 29.02 C33.426 30.566 33.426 30.566 34.227 33.238 C34.292 34.007 34.358 34.775 34.426 35.566 C30.65 38.817 26.695 41.146 22.238 43.316 C21.61 43.632 20.981 43.948 20.334 44.273 C15.693 46.566 15.693 46.566 13.426 46.566 C13.3 46.899 13.3 46.899 12.664 48.582 C11.141 52.252 9.422 55.78 7.613 59.316 C7.448 59.659 7.448 59.659 6.611 61.391 C5.038 64.441 4.048 66.291 0.852 67.707 C-1.574 67.566 -1.574 67.566 -3.084 66.29 C-4.591 64.546 -5.706 62.85 -6.836 60.844 C-7.232 60.141 -7.629 59.437 -8.037 58.713 C-8.441 57.984 -8.845 57.255 -9.262 56.504 C-9.677 55.771 -10.093 55.038 -10.521 54.283 C-13.574 48.824 -13.574 48.824 -13.574 46.566 C-14.424 46.31 -15.273 46.053 -16.148 45.789 C-19.787 44.49 -23 42.858 -26.387 41.004 C-27.528 40.384 -28.668 39.764 -29.844 39.125 C-32.574 37.566 -32.574 37.566 -33.574 36.566 C-34.137 34.316 -34.137 34.316 -33.574 31.566 C-31.174 29.454 -28.389 28.057 -25.574 26.566 C-23.594 25.505 -21.615 24.443 -19.637 23.379 C-18.7 22.89 -17.762 22.402 -16.797 21.898 C-14.574 20.566 -14.574 20.566 -13.574 18.566 C-12.914 18.566 -12.254 18.566 -11.574 18.566 C-11.443 18.137 -11.443 18.137 -10.781 15.965 C-9.545 12.483 -8.058 9.418 -6.262 6.191 C-5.688 5.132 -5.114 4.072 -4.523 2.98 C-2.574 0.566 -2.574 0.566 0 0 Z " fill="#19100F" transform="translate(514.57421875,143.43359375)"/>
<path d="M0 0 C2.461 1.713 2.461 1.713 4.888 4.143 C5.805 5.048 6.722 5.953 7.668 6.885 C8.65 7.885 9.632 8.886 10.613 9.887 C11.633 10.907 12.653 11.926 13.674 12.945 C15.81 15.08 17.934 17.225 20.051 19.379 C22.762 22.135 25.495 24.869 28.236 27.596 C30.344 29.698 32.443 31.81 34.538 33.925 C35.542 34.937 36.549 35.946 37.559 36.952 C38.969 38.362 40.364 39.785 41.759 41.21 C42.556 42.016 43.353 42.822 44.174 43.652 C46.166 46.213 46.812 47.777 47 51 C45.438 53.375 45.438 53.375 43 55 C38.005 54.756 35.701 53.33 32.204 49.851 C31.307 48.969 30.409 48.088 29.485 47.18 C28.524 46.21 27.565 45.24 26.605 44.27 C25.608 43.276 24.61 42.283 23.612 41.29 C21.525 39.211 19.448 37.123 17.376 35.028 C14.726 32.349 12.053 29.693 9.373 27.043 C7.309 24.997 5.258 22.94 3.209 20.879 C2.229 19.894 1.244 18.914 0.256 17.938 C-1.125 16.569 -2.488 15.183 -3.851 13.796 C-4.63 13.013 -5.409 12.23 -6.212 11.423 C-8.327 8.556 -8.782 6.531 -9 3 C-6.871 -0.758 -3.987 -0.412 0 0 Z " fill="#1E1211" transform="translate(303,288)"/>
<path d="M0 0 C2.417 1.583 2.905 2.548 3.5 5.375 C2.923 8.402 1.835 9.322 -0.332 11.398 C-2.346 13.332 -4.297 15.322 -6.252 17.315 C-10.223 21.35 -14.203 25.376 -18.189 29.396 C-20.591 31.82 -22.99 34.247 -25.38 36.682 C-28.149 39.502 -30.933 42.306 -33.719 45.109 C-34.146 45.547 -34.146 45.547 -36.311 47.764 C-37.115 48.568 -37.919 49.373 -38.748 50.202 C-39.45 50.913 -40.152 51.624 -40.876 52.357 C-43.315 54.244 -44.939 54.778 -48 55 C-50.312 53.562 -50.312 53.562 -52 52 C-51.633 46.138 -50.333 43.591 -46.16 39.504 C-45.678 39.025 -45.196 38.547 -44.699 38.054 C-43.685 37.053 -42.663 36.059 -41.635 35.073 C-40.056 33.557 -38.501 32.02 -36.947 30.479 C-29.328 23 -29.328 23 -27 23 C-26.801 22.462 -26.603 21.925 -26.398 21.371 C-24.385 17.957 -21.578 15.668 -18.625 13.062 C-14.693 9.573 -11.269 6.14 -8 2 C-4.767 -0.155 -3.748 -0.469 0 0 Z " fill="#1C0F0F" transform="translate(731,288)"/>
<path d="M0 0 C4.107 1.027 5.747 2.516 8 6 C9.475 8.956 10.8 11.974 12.125 15 C12.917 16.793 13.71 18.586 14.504 20.379 C14.911 21.302 15.319 22.225 15.739 23.176 C16.997 25.993 18.288 28.793 19.59 31.59 C20.004 32.486 20.418 33.383 20.845 34.307 C21.642 36.029 22.445 37.748 23.256 39.463 C26.649 46.852 26.649 46.852 26 51 C24.812 52.812 24.812 52.812 23 54 C20.562 54.5 20.562 54.5 18 54 C14.872 50.59 12.898 47.066 10.977 42.879 C10.43 41.695 9.883 40.511 9.32 39.291 C8.755 38.048 8.19 36.805 7.625 35.562 C7.073 34.367 6.522 33.171 5.953 31.939 C4.565 28.918 3.198 25.889 1.84 22.854 C0.973 20.941 0.077 19.043 -0.821 17.144 C-1.395 15.897 -1.967 14.65 -2.539 13.402 C-3.059 12.292 -3.58 11.182 -4.116 10.039 C-5 7 -5 7 -4.341 4.225 C-3 2 -3 2 0 0 Z " fill="#1E1110" transform="translate(408,209)"/>
<path d="M0 0 C2.496 2.276 4.066 4.607 5.688 7.562 C6.124 8.348 6.561 9.133 7.012 9.941 C8 12 8 12 8 14 C8.846 14.248 9.691 14.495 10.562 14.75 C14.384 16.14 17.519 17.911 21 20 C19.524 22.951 17.335 23.148 14.312 24.375 C7.057 27.834 4.705 32.667 2 40 C-1 39 -1 39 -2.219 36.707 C-2.642 35.752 -3.064 34.797 -3.5 33.812 C-6.865 27.254 -11.361 24.8 -18 22 C-18 21.01 -18 20.02 -18 19 C-17.287 18.718 -16.574 18.435 -15.84 18.145 C-6.757 13.976 -3.86 8.879 0 0 Z " fill="#EBEBEB" transform="translate(514,157)"/>
<path d="M0 0 C2.25 1.562 2.25 1.562 3.069 4.054 C3.319 8.899 1.949 12.715 0.391 17.266 C0.086 18.185 -0.219 19.104 -0.534 20.05 C-1.18 21.986 -1.832 23.919 -2.491 25.85 C-3.499 28.811 -4.482 31.779 -5.461 34.75 C-6.092 36.631 -6.725 38.511 -7.359 40.391 C-7.653 41.28 -7.947 42.17 -8.25 43.086 C-8.533 43.908 -8.817 44.729 -9.108 45.575 C-9.353 46.299 -9.599 47.022 -9.851 47.768 C-10.75 49.562 -10.75 49.562 -13.75 51.562 C-16.25 51.938 -16.25 51.938 -18.75 51.562 C-20.625 50 -20.625 50 -21.75 47.562 C-21.287 41.98 -19.753 36.946 -17.984 31.672 C-17.709 30.845 -17.434 30.019 -17.15 29.168 C-16.569 27.432 -15.983 25.697 -15.395 23.964 C-14.5 21.312 -13.631 18.653 -12.762 15.992 C-12.192 14.302 -11.62 12.611 -11.047 10.922 C-10.791 10.128 -10.536 9.334 -10.273 8.517 C-9.011 4.889 -8.261 2.976 -5.216 0.513 C-2.75 -0.438 -2.75 -0.438 0 0 Z " fill="#1F1312" transform="translate(605.75,208.4375)"/></g>
<g class="star" transform="translate(200,200) scale(1.0)" style="animation-delay:0.0s;"><path d="M0,-20 L4,-4 L20,0 L4,4 L0,20 L-4,4 L-20,0 L-4,-4 Z" fill="#FFF"/></g>
<g class="star" transform="translate(850,220) scale(0.8)" style="animation-delay:0.5s;"><path d="M0,-20 L4,-4 L20,0 L4,4 L0,20 L-4,4 L-20,0 L-4,-4 Z" fill="#FFF9E0"/></g>
<g class="star" transform="translate(180,500) scale(0.6)" style="animation-delay:1.0s;"><path d="M0,-20 L4,-4 L20,0 L4,4 L0,20 L-4,4 L-20,0 L-4,-4 Z" fill="#FFF"/></g>
<g class="star" transform="translate(860,520) scale(1.0)" style="animation-delay:1.5s;"><path d="M0,-20 L4,-4 L20,0 L4,4 L0,20 L-4,4 L-20,0 L-4,-4 Z" fill="#FFF9E0"/></g>
<g class="star" transform="translate(160,780) scale(0.7)" style="animation-delay:2.0s;"><path d="M0,-20 L4,-4 L20,0 L4,4 L0,20 L-4,4 L-20,0 L-4,-4 Z" fill="#FFF"/></g>
<g class="star" transform="translate(880,780) scale(0.9)" style="animation-delay:2.5s;"><path d="M0,-20 L4,-4 L20,0 L4,4 L0,20 L-4,4 L-20,0 L-4,-4 Z" fill="#FFF9E0"/></g>
<g class="star" transform="translate(512,150) scale(1.1)" style="animation-delay:0.3s;"><path d="M0,-20 L4,-4 L20,0 L4,4 L0,20 L-4,4 L-20,0 L-4,-4 Z" fill="#FFF"/></g>

<g class="main"><path d="M0 0 C0.476 -0.01 0.476 -0.01 2.883 -0.059 C11.681 -0.228 20.481 -0.324 29.281 -0.4 C35.195 -0.451 41.107 -0.526 47.02 -0.656 C52.734 -0.782 58.445 -0.848 64.16 -0.874 C66.336 -0.893 68.511 -0.934 70.686 -0.995 C87.272 -1.445 87.272 -1.445 91.715 1.466 C94.999 4.598 96.929 8.253 98.941 12.304 C100.035 13.865 101.153 15.409 102.312 16.921 C103.336 18.34 104.358 19.759 105.379 21.179 C105.927 21.939 106.475 22.7 107.039 23.483 C112.026 30.409 116.988 37.353 121.941 44.304 C122.424 44.889 122.906 45.473 123.402 46.076 C124.759 47.774 125.942 49.374 126.941 51.304 C126.364 56.365 121.589 60.645 118.379 64.429 C117.111 65.947 115.842 67.465 114.574 68.984 C113.363 70.424 112.152 71.864 110.941 73.304 C109.205 75.382 107.478 77.466 105.754 79.554 C105.08 80.363 104.406 81.173 103.711 82.007 C101.91 84.344 100.45 86.772 98.941 89.304 C98.281 89.964 97.621 90.624 96.941 91.304 C97.271 91.964 97.601 92.624 97.941 93.304 C100.106 93.931 102.3 94.458 104.504 94.929 C105.701 95.189 106.899 95.45 108.133 95.718 C109.06 95.911 109.986 96.105 110.941 96.304 C111.104 86.165 111.104 86.165 110.316 81.991 C109.819 78.43 110.427 76.567 111.941 73.304 C114.751 71.322 114.751 71.322 118.305 69.62 C118.934 69.316 119.563 69.011 120.211 68.697 C121.538 68.06 122.871 67.433 124.208 66.815 C126.249 65.869 128.27 64.887 130.291 63.9 C141.233 58.694 141.233 58.694 145.941 60.304 C148.088 61.237 148.088 61.237 150.25 62.386 C150.66 62.602 150.66 62.602 152.732 63.694 C153.169 63.929 153.169 63.929 155.379 65.116 C156.29 65.601 157.2 66.085 158.139 66.583 C161.077 68.15 164.009 69.726 166.941 71.304 C167.948 71.842 168.955 72.38 169.993 72.934 C172.979 74.53 175.961 76.134 178.941 77.741 C179.866 78.237 180.791 78.732 181.744 79.243 C193.289 85.519 193.289 85.519 194.612 89.139 C195.18 91.518 195.575 93.885 195.941 96.304 C196.109 97.229 196.276 98.154 196.449 99.107 C196.977 102.083 197.433 105.064 197.879 108.054 C197.967 108.561 197.967 108.561 198.412 111.128 C199.49 118.553 199.49 118.553 196.707 122.363 C195.794 123.003 194.882 123.644 193.941 124.304 C192.89 125.067 191.838 125.83 190.754 126.616 C187.941 128.304 187.941 128.304 185.941 128.304 C185.941 128.964 185.941 129.624 185.941 130.304 C185.281 130.634 184.621 130.964 183.941 131.304 C185.941 133.304 185.941 133.304 188.566 134.804 C188.958 135.051 188.958 135.051 190.941 136.304 C190.941 136.964 190.941 137.624 190.941 138.304 C191.48 138.535 192.019 138.765 192.574 139.003 C195.636 140.686 198.18 142.85 200.816 145.116 C201.378 145.596 201.94 146.076 202.518 146.571 C211.839 154.6 221.165 162.737 228.941 172.304 C229.902 173.441 230.863 174.578 231.824 175.714 C263.565 213.575 282.444 258.434 288.941 307.304 C289.045 308.053 289.148 308.802 289.254 309.573 C290.28 318.149 290.185 326.804 290.191 335.429 C290.192 336.273 290.193 337.116 290.193 337.986 C290.176 351.953 289.436 365.533 286.941 379.304 C286.78 380.225 286.619 381.147 286.454 382.096 C278.459 426.532 258.116 468.717 227.941 502.304 C227.471 502.83 227 503.355 226.515 503.897 C223.365 507.406 220.17 510.867 216.941 514.304 C216.635 514.632 216.635 514.632 215.082 516.292 C210.957 520.565 206.434 524.281 201.805 527.995 C199.991 529.458 198.194 530.943 196.422 532.456 C162.391 561.365 119.567 577.964 75.879 585.054 C75.167 585.17 74.454 585.285 73.72 585.405 C8.01 595.333 -59.041 575.421 -111.961 536.46 C-120.26 530.194 -127.858 523.17 -135.339 515.96 C-136.906 514.451 -138.483 512.955 -140.062 511.46 C-146.594 505.143 -152.23 498.382 -157.679 491.136 C-159.056 489.307 -160.45 487.491 -161.844 485.675 C-185.25 454.861 -200.275 418.287 -207.059 380.304 C-207.14 379.88 -207.14 379.88 -207.55 377.737 C-212.59 350.742 -212.217 320.239 -207.059 293.304 C-206.898 292.403 -206.737 291.501 -206.571 290.573 C-196.881 237.052 -168.498 184.126 -126.059 149.304 C-124.992 148.389 -123.927 147.472 -122.863 146.554 C-121.699 145.554 -120.535 144.554 -119.371 143.554 C-118.824 143.081 -118.277 142.608 -117.713 142.121 C-114.636 139.504 -111.516 137.372 -108.059 135.304 C-107.729 134.644 -107.399 133.984 -107.059 133.304 C-106.069 132.974 -105.079 132.644 -104.059 132.304 C-104.059 131.644 -104.059 130.984 -104.059 130.304 C-107.024 128.481 -110.005 126.736 -113.082 125.109 C-115.011 123.975 -116.536 122.945 -118.059 121.304 C-118.528 118.201 -118.473 116.339 -118.059 113.304 C-118.016 112.812 -118.016 112.812 -117.801 110.322 C-117.489 106.927 -117.064 103.559 -116.621 100.179 C-116.563 99.602 -116.563 99.602 -116.271 96.683 C-115.163 88.503 -115.163 88.503 -112.275 85.366 C-109.944 83.764 -107.61 82.525 -105.059 81.304 C-104.201 80.839 -103.343 80.374 -102.46 79.895 C-99.702 78.402 -96.918 76.973 -94.121 75.554 C-88.273 72.564 -82.447 69.574 -76.77 66.269 C-75.96 65.8 -75.15 65.331 -74.316 64.848 C-72.809 63.967 -71.309 63.072 -69.819 62.162 C-69.144 61.77 -68.469 61.377 -67.773 60.972 C-67.197 60.624 -66.621 60.276 -66.027 59.918 C-61.076 58.374 -56.405 60.872 -52.004 63.027 C-50.895 63.565 -49.787 64.103 -48.645 64.657 C-47.502 65.221 -46.36 65.785 -45.184 66.366 C-44.018 66.934 -42.853 67.502 -41.652 68.087 C-38.784 69.486 -35.92 70.892 -33.059 72.304 C-34.684 68.911 -36.607 66.222 -38.996 63.304 C-40.353 61.64 -41.708 59.973 -43.059 58.304 C-43.658 57.644 -44.257 56.984 -44.875 56.304 C-46.059 54.304 -46.059 54.304 -46.105 52.066 C-44.53 47.91 -41.966 44.652 -39.309 41.116 C-38.121 39.506 -36.933 37.895 -35.746 36.284 C-35.135 35.461 -34.524 34.638 -33.895 33.79 C-31.552 30.618 -29.251 27.419 -26.951 24.217 C-9.68 0.163 -9.68 0.163 0 0 Z M-31.059 73.304 C-30.059 75.304 -30.059 75.304 -30.059 75.304 Z M-30.059 75.304 C-30.396 78.033 -30.728 80.762 -31.059 83.491 C-31.154 84.26 -31.249 85.029 -31.348 85.822 C-31.811 89.673 -32.183 93.416 -32.059 97.304 C-26.008 96.138 -20.024 94.851 -14.059 93.304 C-16.049 90.63 -18.051 87.965 -20.059 85.304 C-20.801 84.314 -21.544 83.324 -22.309 82.304 C-22.886 81.644 -23.464 80.984 -24.059 80.304 C-24.719 80.304 -25.379 80.304 -26.059 80.304 C-26.719 78.654 -27.379 77.004 -28.059 75.304 C-28.719 75.304 -29.379 75.304 -30.059 75.304 Z M22.448 148.518 C4.42 150.271 -12.638 153.882 -29.746 159.804 C-30.567 160.076 -31.388 160.349 -32.234 160.629 C-34.321 161.392 -36.188 162.105 -38.059 163.304 C-39.078 166.023 -39.078 166.023 -39.059 168.304 C-39.61 168.183 -40.161 168.062 -40.729 167.938 C-47.307 166.805 -50.956 168.061 -56.559 171.491 C-57.329 171.943 -58.1 172.394 -58.893 172.859 C-104.482 200.06 -138.252 241.512 -151.469 293.335 C-163.371 342.603 -156.365 395.345 -130.376 439.139 C-116.324 461.797 -98.181 483.169 -76.059 498.304 C-75.737 498.526 -75.737 498.526 -74.111 499.649 C-64.179 506.451 -53.985 512.262 -43.059 517.304 C-41.922 517.836 -40.785 518.369 -39.613 518.917 C8.054 540.318 62.906 540.425 111.57 522.398 C135.318 513.284 156.52 499.847 174.941 482.304 C175.533 481.745 176.125 481.185 176.735 480.609 C215.378 443.871 234.088 395.704 237.129 343.058 C237.197 340.119 237.103 337.24 236.941 334.304 C236.921 333.915 236.921 333.915 236.817 331.946 C234.114 284.816 215.901 242.935 183.941 208.304 C183.474 207.796 183.006 207.289 182.524 206.766 C168.978 192.244 152.412 181.138 135.379 171.116 C134.724 170.717 134.07 170.318 133.395 169.907 C129.114 167.46 126.687 167.098 121.941 168.304 C119.941 167.304 119.941 167.304 119.316 165.452 C117.124 162.027 113.627 161.222 109.941 159.929 C109.111 159.632 108.281 159.336 107.426 159.03 C90.17 153.106 72.149 149.41 53.941 148.304 C53.006 148.242 52.07 148.18 51.105 148.116 C48.941 148.304 48.941 148.304 46.129 150.679 C43.941 153.304 43.941 153.304 43.941 155.304 C41.316 155.741 41.316 155.741 37.941 155.304 C36.304 153.589 35.017 151.824 33.727 149.835 C31.498 147.924 29.956 147.958 27.085 148.109 C25.54 148.25 23.994 148.385 22.448 148.518 Z M-200.059 304.304 C-199.059 306.304 -199.059 306.304 -199.059 306.304 Z M-202.059 329.304 C-202.059 331.284 -202.059 333.264 -202.059 335.304 C-201.729 335.304 -201.399 335.304 -201.059 335.304 C-201.059 333.324 -201.059 331.344 -201.059 329.304 C-201.389 329.304 -201.719 329.304 -202.059 329.304 Z M-166.059 334.304 C-166.059 338.594 -166.059 342.884 -166.059 347.304 C-165.729 347.304 -165.399 347.304 -165.059 347.304 C-165.059 343.014 -165.059 338.724 -165.059 334.304 C-165.389 334.304 -165.719 334.304 -166.059 334.304 Z M-202.059 338.304 C-202.059 340.284 -202.059 342.264 -202.059 344.304 C-201.729 344.304 -201.399 344.304 -201.059 344.304 C-201.059 342.324 -201.059 340.344 -201.059 338.304 C-201.389 338.304 -201.719 338.304 -202.059 338.304 Z M279.941 357.304 C280.941 359.304 280.941 359.304 280.941 359.304 Z M37.941 543.304 C37.941 543.634 37.941 543.964 37.941 544.304 C40.581 544.304 43.221 544.304 45.941 544.304 C45.941 543.974 45.941 543.644 45.941 543.304 C43.301 543.304 40.661 543.304 37.941 543.304 Z " fill="#170F0C" transform="translate(474.05859375,301.696044921875)"/>
<path d="M0 0 C5.216 0.504 9.001 3.19 13.312 5.938 C13.683 6.165 13.683 6.165 15.557 7.318 C19.608 9.868 19.608 9.868 21 11 C21 11.66 21 12.32 21 13 C21.99 13 22.98 13 24 13 C24 13.66 24 14.32 24 15 C24.589 15.122 25.178 15.245 25.784 15.371 C28.017 16.005 29.523 16.798 31.453 18.066 C32.072 18.469 32.691 18.872 33.328 19.287 C33.962 19.708 34.597 20.129 35.25 20.562 C35.9 20.987 36.549 21.412 37.219 21.85 C38.816 22.895 40.408 23.947 42 25 C39.843 26.667 37.898 28.05 35.438 29.25 C29.646 32.198 23.932 35.654 18.852 39.719 C17 41 17 41 14 41 C14 41.66 14 42.32 14 43 C13.68 43.052 13.68 43.052 12.062 43.312 C11.382 43.539 10.701 43.766 10 44 C9.67 44.99 9.34 45.98 9 47 C7.441 48.387 7.441 48.387 5.562 49.688 C4.945 50.124 4.328 50.561 3.691 51.012 C2 52 2 52 0 52 C-0.237 52.572 -0.474 53.145 -0.719 53.734 C-2.276 56.488 -4.125 58.168 -6.5 60.25 C-7.294 60.956 -8.088 61.663 -8.906 62.391 C-11 64 -11 64 -13 64 C-13.244 64.565 -13.487 65.129 -13.738 65.711 C-15.235 68.427 -17.056 70.373 -19.188 72.625 C-23.121 76.889 -26.429 81.306 -29.59 86.164 C-30.055 86.77 -30.521 87.376 -31 88 C-31.66 88 -32.32 88 -33 88 C-33.248 88.681 -33.495 89.361 -33.75 90.062 C-35.242 93.569 -37.068 96.716 -39 100 C-39.66 100 -40.32 100 -41 100 C-41.33 101.65 -41.66 103.3 -42 105 C-42.66 105 -43.32 105 -44 105 C-44.098 105.703 -44.196 106.405 -44.297 107.129 C-45.119 110.488 -46.516 112.948 -48.25 115.938 C-51.997 122.718 -54.592 129.633 -57 137 C-57.562 138.688 -58.125 140.375 -58.688 142.062 C-58.916 142.762 -59.144 143.462 -59.379 144.184 C-59.894 145.689 -60.498 147.163 -61.125 148.625 C-62.26 151.706 -62.552 154.751 -63 158 C-63.308 159.043 -63.616 160.086 -63.934 161.16 C-65.123 165.442 -65.886 169.676 -66.562 174.062 C-66.692 174.897 -66.821 175.731 -66.954 176.59 C-69.958 196.634 -69.958 216.715 -65.695 236.559 C-65.099 239.509 -64.669 242.382 -64.375 245.375 C-64 249 -64 249 -63 250 C-62.876 251.011 -62.752 252.021 -62.625 253.062 C-62.07 256.561 -61.134 259.472 -59.865 262.759 C-58.977 265.061 -58.125 267.373 -57.281 269.691 C-56.989 270.491 -56.696 271.291 -56.395 272.115 C-55.797 273.75 -55.201 275.386 -54.605 277.021 C-52.448 282.91 -50.206 288.676 -47.312 294.25 C-46 297 -46 297 -46 300 C-45.34 300 -44.68 300 -44 300 C-43.159 301.433 -42.327 302.872 -41.5 304.312 C-41.036 305.113 -40.572 305.914 -40.094 306.738 C-39 309 -39 309 -39 312 C-38.34 312 -37.68 312 -37 312 C-37 312.99 -37 313.98 -37 315 C-36.34 315 -35.68 315 -35 315 C-33 318 -33 318 -33 321 C-32.34 321 -31.68 321 -31 321 C-27 326.412 -27 326.412 -27 329 C-26.01 329.33 -25.02 329.66 -24 330 C-23.667 331.333 -23.333 332.667 -23 334 C-22.01 334.33 -21.02 334.66 -20 335 C-17 338.444 -17 338.444 -17 341 C-16.421 341.251 -15.842 341.503 -15.246 341.762 C-12.717 343.156 -11.066 344.738 -9.062 346.812 C-8.368 347.524 -7.673 348.236 -6.957 348.969 C-6.311 349.639 -5.665 350.309 -5 351 C-0.388 355.717 -0.388 355.717 2.312 357.688 C2.869 358.121 3.426 358.554 4 359 C4 359.66 4 360.32 4 361 C5.65 361.66 7.3 362.32 9 363 C9 363.66 9 364.32 9 365 C10.32 365.33 11.64 365.66 13 366 C13 366.66 13 367.32 13 368 C13.598 368.124 14.196 368.247 14.812 368.375 C17 369 17 369 20 371 C20 371.66 20 372.32 20 373 C20.577 373.124 21.155 373.247 21.75 373.375 C24.023 374.006 25.925 374.889 28 376 C28 376.66 28 377.32 28 378 C28.737 378.118 29.474 378.235 30.233 378.357 C32.992 378.998 34.844 379.856 37.266 381.293 C38.065 381.756 38.864 382.218 39.687 382.695 C40.11 382.941 40.11 382.941 42.25 384.188 C50.641 388.938 58.917 392.573 68.117 395.417 C69.857 395.956 71.585 396.529 73.312 397.105 C84.929 400.895 97.21 404.103 109.445 404.824 C111.52 404.967 113.587 405.209 115.648 405.48 C132.027 407.58 149.531 408.164 165.699 404.469 C168.198 403.96 170.647 403.713 173.188 403.5 C177.329 403.132 181.017 402.231 185 401 C186.436 400.7 187.874 400.409 189.312 400.125 C193.487 399.22 197.233 397.775 201.16 396.117 C204.416 394.836 207.718 393.839 211.062 392.812 C217.969 390.643 224.156 387.493 230.453 383.947 C235.721 381 235.721 381 239 381 C239 380.34 239 379.68 239 379 C245.625 375 245.625 375 249 375 C249 374.34 249 373.68 249 373 C249.99 373 250.98 373 252 373 C252 372.34 252 371.68 252 371 C254.561 368.704 255.48 368 259 368 C259.33 367.01 259.66 366.02 260 365 C260.99 365 261.98 365 263 365 C263.33 364.01 263.66 363.02 264 362 C266.215 359.957 266.215 359.957 268.938 357.812 C269.833 357.097 270.729 356.382 271.652 355.645 C274 354 274 354 276 354 C276.26 353.412 276.521 352.824 276.789 352.219 C278.075 349.863 279.446 348.354 281.375 346.5 C281.996 345.895 282.618 345.291 283.258 344.668 C283.833 344.118 284.408 343.567 285 343 C287.091 340.967 288.918 339.113 290.625 336.75 C290.852 336.461 290.852 336.461 292 335 C292.66 335 293.32 335 294 335 C294.247 334.278 294.495 333.556 294.75 332.812 C296.123 329.724 297.724 327.49 300 325 C300.66 325 301.32 325 302 325 C302.123 324.41 302.246 323.82 302.373 323.211 C303.366 319.71 305.501 316.876 307.5 313.875 C311.928 307.144 311.928 307.144 313 305 C313.66 305 314.32 305 315 305 C315.12 304.273 315.24 303.547 315.364 302.798 C316.001 299.997 316.907 297.802 318.18 295.234 C318.614 294.344 319.049 293.453 319.496 292.535 C319.951 291.616 320.406 290.697 320.875 289.75 C324.087 283.262 326.841 276.91 329 270 C329.658 268.205 330.323 266.413 331 264.625 C334.319 255.491 336.353 246.619 337.57 236.969 C338 234 338 234 339 231 C340.156 221.34 340.241 211.592 340.25 201.875 C340.251 201.151 340.252 200.427 340.253 199.68 C340.242 188.192 339.449 177.238 337 166 C336.694 164.463 336.389 162.925 336.086 161.387 C333.68 149.555 330.739 137.535 324.945 126.859 C323.882 124.767 323.113 122.644 322.312 120.438 C320.192 114.926 317.152 110.058 313.997 105.09 C311 100.304 311 100.304 311 97 C310.34 97 309.68 97 309 97 C307.406 94.968 305.942 92.948 304.5 90.812 C304.097 90.234 303.693 89.656 303.277 89.061 C301.509 86.478 300.026 84.067 298.906 81.137 C298.757 80.784 298.757 80.784 298 79 C297.01 78.67 296.02 78.34 295 78 C293.492 76.504 293.492 76.504 291.875 74.562 C291.57 74.204 291.57 74.204 290.027 72.391 C289.358 71.602 288.689 70.813 288 70 C279.513 60.259 279.513 60.259 275.438 57 C275.035 56.67 275.035 56.67 273 55 C273 54.34 273 53.68 273 53 C272.216 52.752 271.433 52.505 270.625 52.25 C267.535 50.779 267.463 49.927 266 47 C263.562 45.875 263.562 45.875 261 45 C260.01 44.34 259.02 43.68 258 43 C258 42.34 258 41.68 258 41 C257.01 41 256.02 41 255 41 C255 40.34 255 39.68 255 39 C254.01 39 253.02 39 252 39 C252 38.34 252 37.68 252 37 C251.01 37 250.02 37 249 37 C249 36.34 249 35.68 249 35 C248.464 34.897 247.928 34.794 247.375 34.688 C244.375 33.819 241.762 32.444 239 31 C239 30.34 239 29.68 239 29 C238.237 28.897 237.474 28.794 236.688 28.688 C233.774 27.942 232.97 27.155 231 25 C232.598 23.825 234.204 22.66 235.812 21.5 C236.706 20.85 237.599 20.201 238.52 19.531 C241 18 241 18 244 18 C244 17.34 244 16.68 244 16 C244.99 16 245.98 16 247 16 C247 15.34 247 14.68 247 14 C248.645 12.711 248.645 12.711 250.812 11.375 C251.166 11.152 251.166 11.152 252.957 10.023 C255 9 255 9 258 9 C258 8.34 258 7.68 258 7 C260.266 5.238 260.266 5.238 263.25 3.312 C264.225 2.669 265.199 2.026 266.203 1.363 C269 0 269 0 271 0.047 C273.822 1.392 276.228 3.093 278.75 4.938 C279.735 5.648 280.72 6.358 281.734 7.09 C282.482 7.72 283.23 8.351 284 9 C284 9.66 284 10.32 284 11 C284.639 11.103 285.279 11.206 285.938 11.312 C286.618 11.539 287.299 11.766 288 12 C288.33 12.99 288.66 13.98 289 15 C289.413 15.165 289.413 15.165 291.5 16 C291.913 16.165 291.913 16.165 294 17 C294.33 17.99 294.66 18.98 295 20 C296.327 20.679 297.662 21.342 299 22 C301.019 23.67 302.955 25.349 304.875 27.125 C305.409 27.616 305.943 28.106 306.492 28.612 C310.01 31.91 313.01 35.31 315.758 39.285 C317 41 317 41 319.812 43.812 C322 46 322 46 323 49 C323.99 49.33 324.98 49.66 326 50 C326.333 51.333 326.667 52.667 327 54 C327.99 54.33 328.98 54.66 330 55 C330 55.99 330 56.98 330 58 C330.66 58 331.32 58 332 58 C333.289 59.426 333.289 59.426 334.625 61.312 C335.071 61.927 335.517 62.542 335.977 63.176 C337 65 337 65 337 68 C337.66 68 338.32 68 339 68 C339 68.99 339 69.98 339 71 C339.66 71 340.32 71 341 71 C341.33 72.65 341.66 74.3 342 76 C342.66 76 343.32 76 344 76 C344.508 77.027 345.016 78.055 345.539 79.113 C348.673 85.428 351.799 91.725 355.25 97.875 C357.959 102.773 360.016 107.775 362 113 C362.351 113.835 362.701 114.671 363.062 115.531 C365.057 120.282 366.508 124.812 367.504 129.863 C367.992 131.967 368.674 133.82 369.5 135.812 C371.242 140.182 371.838 144.624 372.531 149.258 C373 152 373 152 374.062 155 C375.269 158.86 375.436 162.583 375.656 166.609 C375.93 169.307 376.382 171.603 377.016 174.215 C378.523 181.496 378.298 188.873 378.261 196.276 C378.25 198.797 378.261 201.317 378.273 203.838 C378.28 212.117 377.985 220.062 376.471 228.233 C375.966 231.201 375.739 234.12 375.562 237.125 C375.196 241.966 374.262 246.315 372.883 250.961 C372.031 253.894 371.284 256.843 370.564 259.811 C365.194 281.918 356.191 301.729 346 322 C345.34 322 344.68 322 344 322 C343.67 323.65 343.34 325.3 343 327 C342.34 327 341.68 327 341 327 C341 327.99 341 328.98 341 330 C340.34 330 339.68 330 339 330 C338.897 330.557 338.794 331.114 338.688 331.688 C337.858 334.477 336.657 336.614 335 339 C334.34 339 333.68 339 333 339 C332.896 339.572 332.791 340.145 332.684 340.734 C331.888 343.37 330.721 345.06 329.062 347.25 C328.8 347.603 328.8 347.603 327.473 349.391 C326.987 349.922 326.501 350.453 326 351 C325.34 351 324.68 351 324 351 C323.34 352.65 322.68 354.3 322 356 C321.34 356 320.68 356 320 356 C319.866 356.289 319.866 356.289 319.188 357.75 C317.971 360.056 316.697 362.021 315 364 C314.34 364 313.68 364 313 364 C312.763 364.562 312.526 365.124 312.281 365.703 C310.711 368.519 308.785 370.48 306.5 372.75 C305.706 373.549 304.912 374.348 304.094 375.172 C302 377 302 377 300 377 C299.887 377.286 299.887 377.286 299.312 378.734 C297.64 381.621 295.619 383.195 293 385.25 C292.113 385.956 291.226 386.663 290.312 387.391 C288 389 288 389 286 389 C285.67 389.99 285.34 390.98 285 392 C282.419 394.323 281.548 395 278 395 C278 395.66 278 396.32 278 397 C276.68 397.33 275.36 397.66 274 398 C274 398.66 274 399.32 274 400 C273.01 400 272.02 400 271 400 C271 400.66 271 401.32 271 402 C270.01 402 269.02 402 268 402 C268 402.66 268 403.32 268 404 C267.01 404 266.02 404 265 404 C265 404.66 265 405.32 265 406 C261.501 407.919 258.001 409.835 254.5 411.75 C253.518 412.289 252.535 412.828 251.523 413.383 C229.359 425.499 205.502 434.392 180.527 438.574 C178.919 438.845 177.312 439.122 175.707 439.406 C163.395 441.583 151.441 442.451 138.944 442.336 C136.171 442.312 133.4 442.316 130.627 442.322 C120.225 442.306 110.285 441.639 100 440 C98.585 439.835 97.17 439.676 95.754 439.527 C90.743 438.823 85.863 437.708 80.938 436.562 C79.983 436.345 79.028 436.128 78.045 435.904 C69.69 433.984 61.66 431.603 53.625 428.625 C53.225 428.479 53.225 428.479 51.203 427.742 C42.331 424.469 33.873 420.513 25.438 416.25 C24.62 415.839 23.802 415.428 22.959 415.004 C20.972 414.004 18.985 413.003 17 412 C17 411.34 17 410.68 17 410 C16.326 409.927 15.652 409.853 14.957 409.777 C11.015 408.741 8.069 406.788 4.688 404.562 C4.042 404.155 3.397 403.747 2.732 403.326 C1.115 402.277 -0.448 401.144 -2 400 C-2 399.34 -2 398.68 -2 398 C-2.572 397.896 -3.145 397.791 -3.734 397.684 C-6.37 396.888 -8.06 395.721 -10.25 394.062 C-10.956 393.538 -11.663 393.013 -12.391 392.473 C-12.656 392.23 -12.656 392.23 -14 391 C-14 390.34 -14 389.68 -14 389 C-15.65 388.34 -17.3 387.68 -19 387 C-19 386.34 -19 385.68 -19 385 C-19.361 384.887 -19.361 384.887 -21.188 384.312 C-24.599 382.72 -26.379 380.711 -29 378 C-30.05 376.946 -31.102 375.894 -32.156 374.844 C-38.844 368.156 -38.844 368.156 -40.462 366.534 C-41.866 365.133 -43.282 363.744 -44.699 362.355 C-46.748 360.258 -48.557 358.157 -50.312 355.812 C-50.824 355.138 -51.336 354.464 -51.863 353.77 C-53 352 -53 352 -53 350 C-53.99 349.67 -54.98 349.34 -56 349 C-57.605 347.258 -57.605 347.258 -59.188 345.125 C-59.717 344.426 -60.247 343.728 -60.793 343.008 C-62 341 -62 341 -62 338 C-62.66 338 -63.32 338 -64 338 C-64 337.01 -64 336.02 -64 335 C-64.66 335 -65.32 335 -66 335 C-66 334.01 -66 333.02 -66 332 C-66.66 332 -67.32 332 -68 332 C-69.516 329.762 -69.516 329.762 -71.25 326.688 C-71.875 325.58 -72.5 324.473 -73.145 323.332 C-73.757 322.232 -74.369 321.133 -75 320 C-75.499 319.138 -75.998 318.275 -76.512 317.387 C-87.543 297.954 -95.028 276.724 -100 255 C-100.276 253.929 -100.552 252.858 -100.836 251.754 C-102.831 243.841 -103.781 235.974 -104.57 227.871 C-105 224 -105 224 -105.519 222.001 C-106.355 218.525 -106.142 214.951 -106.133 211.395 C-106.134 210.556 -106.135 209.717 -106.136 208.853 C-106.136 207.079 -106.135 205.304 -106.13 203.53 C-106.125 200.84 -106.13 198.149 -106.137 195.459 C-106.136 193.729 -106.135 191.999 -106.133 190.27 C-106.135 189.475 -106.137 188.681 -106.139 187.863 C-106.111 181.123 -105.687 174.542 -104 168 C-103.83 166.633 -103.684 165.263 -103.559 163.891 C-103.022 158.778 -102.082 153.785 -101.062 148.75 C-100.893 147.879 -100.723 147.007 -100.549 146.109 C-99.697 141.86 -98.725 137.992 -97 134 C-96.518 132.277 -96.061 130.548 -95.625 128.812 C-94.41 124.262 -92.902 119.983 -91.086 115.641 C-89.895 112.745 -88.829 109.814 -87.75 106.875 C-84.736 98.967 -80.884 91.507 -77 84 C-76.34 84 -75.68 84 -75 84 C-74.856 83.216 -74.711 82.433 -74.562 81.625 C-74 79 -74 79 -73 77 C-72.34 77 -71.68 77 -71 77 C-70.896 76.274 -70.791 75.549 -70.684 74.801 C-69.937 71.74 -68.825 69.785 -67.062 67.188 C-66.538 66.397 -66.013 65.607 -65.473 64.793 C-64.987 64.201 -64.501 63.61 -64 63 C-63.34 63 -62.68 63 -62 63 C-61.906 62.438 -61.812 61.876 -61.715 61.297 C-60.824 58.435 -59.411 56.602 -57.562 54.25 C-56.945 53.451 -56.328 52.652 -55.691 51.828 C-55.133 51.225 -54.575 50.622 -54 50 C-53.34 50 -52.68 50 -52 50 C-51.34 48.35 -50.68 46.7 -50 45 C-49.34 45 -48.68 45 -48 45 C-47.907 44.66 -47.907 44.66 -47.438 42.938 C-45.409 38.792 -42.331 36.135 -39 33 C-38.175 32.175 -37.35 31.35 -36.5 30.5 C-36.087 30.087 -36.087 30.087 -34 28 C-33.443 27.408 -32.886 26.817 -32.312 26.207 C-28.983 22.727 -26.562 20.694 -22 19 C-21.317 17.675 -20.649 16.342 -20 15 C-18.674 14.638 -17.341 14.303 -16 14 C-15.67 13.01 -15.34 12.02 -15 11 C-13.667 10.667 -12.333 10.333 -11 10 C-10.67 9.01 -10.34 8.02 -10 7 C-5.667 4 -5.667 4 -3 4 C-3 3.34 -3 2.68 -3 2 C-2.01 2 -1.02 2 0 2 C0 1.34 0 0.68 0 0 Z " fill="#F1C979" transform="translate(378,438)"/>
<path d="M0 0 C19.14 0 38.28 0 58 0 C56.758 5.591 55.575 10.657 53.793 16.02 C53.689 16.332 53.689 16.332 53.165 17.913 C52.729 19.221 52.291 20.53 51.851 21.837 C51.193 23.796 50.544 25.758 49.896 27.721 C47.955 33.553 45.929 39.309 43.508 44.965 C40.466 52.081 38.09 59.401 35.688 66.75 C35.229 68.141 34.77 69.531 34.311 70.922 C33.202 74.28 32.099 77.639 31 81 C30.01 81 29.02 81 28 81 C25.528 73.983 23.059 66.966 20.591 59.948 C19.445 56.686 18.298 53.425 17.148 50.164 C15.815 46.381 14.486 42.597 13.156 38.812 C12.958 38.251 12.958 38.251 11.956 35.41 C7.829 23.65 3.943 11.829 0 0 Z " fill="#F0F1F0" transform="translate(485,358)"/>
<path d="M0 0 C0.079 5.131 -0.153 9.953 -0.875 15.047 C-1.779 21.773 -2.435 28.503 -3 35.266 C-3.082 36.241 -3.165 37.217 -3.25 38.223 C-3.589 42.265 -3.924 46.308 -4.25 50.351 C-4.493 53.344 -4.746 56.336 -5 59.328 C-5.071 60.242 -5.142 61.155 -5.215 62.096 C-5.288 62.945 -5.362 63.794 -5.438 64.669 C-5.468 65.04 -5.468 65.04 -5.621 66.918 C-6.041 69.228 -6.861 70.959 -8 73 C-17.165 67.478 -26.279 61.916 -35.148 55.928 C-41.476 51.658 -47.885 47.515 -54.3 43.377 C-55.113 42.852 -55.925 42.327 -56.762 41.785 C-57.483 41.32 -58.205 40.855 -58.948 40.375 C-63.077 37.608 -63.077 37.608 -65 36 C-65 35.34 -65 34.68 -65 34 C-64.085 33.518 -63.17 33.035 -62.228 32.538 C-57.943 30.277 -53.659 28.014 -49.375 25.75 C-48.603 25.342 -47.831 24.934 -47.035 24.513 C-36.582 18.985 -26.156 13.417 -15.802 7.706 C-1.803 0 -1.803 0 0 0 Z " fill="#F0F0F0" transform="translate(435,386)"/>
<path d="M0 0 C3.824 0.721 6.957 2.395 10.398 4.176 C11.022 4.497 11.645 4.819 12.287 5.15 C14.319 6.2 16.347 7.256 18.375 8.312 C19.776 9.039 21.177 9.765 22.578 10.491 C31.796 15.279 40.956 20.166 50.046 25.193 C54.977 27.918 59.943 30.515 65 33 C63.864 36.408 63.382 36.674 60.449 38.461 C59.698 38.926 58.947 39.391 58.173 39.869 C57.353 40.366 56.533 40.863 55.688 41.375 C53.943 42.453 52.2 43.533 50.457 44.613 C49.554 45.171 48.651 45.729 47.721 46.303 C43.401 48.997 39.138 51.778 34.875 54.562 C34.053 55.098 33.231 55.633 32.384 56.184 C28.26 58.868 24.143 61.562 20.031 64.266 C18.479 65.281 16.927 66.297 15.375 67.312 C15.017 67.55 15.017 67.55 13.203 68.75 C8.226 72 8.226 72 6 72 C5.214 63.646 4.431 55.292 3.653 46.938 C3.292 43.058 2.929 39.178 2.563 35.299 C2.211 31.552 1.861 27.804 1.513 24.056 C1.38 22.63 1.246 21.204 1.111 19.778 C0.921 17.773 0.736 15.767 0.551 13.761 C0.444 12.622 0.338 11.483 0.228 10.309 C-0.009 6.863 -0.039 3.454 0 0 Z " fill="#EFF0EF" transform="translate(594,387)"/>
<path d="M0 0 C1.049 0.298 2.099 0.596 3.18 0.902 C4.311 1.21 5.443 1.519 6.609 1.836 C7.746 2.167 8.883 2.499 10.055 2.84 C12.138 3.382 14.221 3.924 16.305 4.465 C20.92 5.705 20.92 5.705 22.055 6.84 C22.268 8.501 22.425 10.17 22.555 11.84 C22.638 12.845 22.722 13.851 22.809 14.887 C22.89 15.861 22.971 16.836 23.055 17.84 C23.462 22.013 23.956 26.163 24.562 30.312 C25.706 38.227 26.323 45.844 26.055 53.84 C19.344 52.468 12.982 50.575 6.492 48.402 C-7.46 43.858 -21.407 41.615 -35.945 39.84 C-35.615 38.85 -35.285 37.86 -34.945 36.84 C-34.285 36.84 -33.625 36.84 -32.945 36.84 C-32.832 36.489 -32.832 36.489 -32.258 34.715 C-30.607 31.099 -28.654 28.752 -25.945 25.84 C-25.285 25.84 -24.625 25.84 -23.945 25.84 C-23.677 25.035 -23.409 24.231 -23.133 23.402 C-22.741 22.557 -22.349 21.711 -21.945 20.84 C-20.955 20.51 -19.965 20.18 -18.945 19.84 C-18.78 19.18 -18.615 18.52 -18.445 17.84 C-18.28 17.18 -18.115 16.52 -17.945 15.84 C-16.955 15.51 -15.965 15.18 -14.945 14.84 C-14.615 14.015 -14.285 13.19 -13.945 12.34 C-13.615 11.515 -13.285 10.69 -12.945 9.84 C-11.955 9.51 -10.965 9.18 -9.945 8.84 C-9.657 8.077 -9.368 7.314 -9.07 6.527 C-7.275 2.239 -4.798 -0.261 0 0 Z " fill="#F1C977" transform="translate(565.9453125,402.16015625)"/>
<path d="M0 0 C0.052 0.32 0.052 0.32 0.312 1.938 C0.426 2.278 0.426 2.278 1 4 C1.99 4.33 2.98 4.66 4 5 C6.191 7.328 6.191 7.328 8.562 10.25 C9.348 11.204 10.133 12.158 10.941 13.141 C13 16 13 16 14.09 18.797 C14.39 19.524 14.691 20.251 15 21 C15.99 21.33 16.98 21.66 18 22 C19.605 23.777 19.605 23.777 21.188 25.938 C21.717 26.648 22.247 27.358 22.793 28.09 C24 30 24 30 24 32 C24.99 32.33 25.98 32.66 27 33 C27.333 34.333 27.667 35.667 28 37 C28.99 37.33 29.98 37.66 31 38 C27.781 39.892 25.395 40.217 21.688 40.312 C3.436 41.483 -14.75 47.179 -32 53 C-31.558 43.495 -30.833 34.165 -29.477 24.738 C-28.683 18.512 -28.338 12.266 -28 6 C-22.848 3.632 -17.83 2.029 -12.312 0.75 C-11.94 0.657 -11.94 0.657 -10.053 0.188 C-6.319 -0.692 -3.663 -1.129 0 0 Z " fill="#F0C97A" transform="translate(468,403)"/>
<path d="M0 0 C0.99 0.33 1.98 0.66 3 1 C3.025 1.777 3.05 2.554 3.076 3.355 C3.192 6.862 3.314 10.368 3.438 13.875 C3.477 15.098 3.516 16.322 3.557 17.582 C3.578 18.165 3.578 18.165 3.684 21.117 C3.72 22.196 3.757 23.275 3.795 24.386 C4 27 4 27 5 29 C5.213 30.969 5.42 32.94 5.594 34.913 C10.235 87.268 35.111 135.051 75.383 168.918 C86.449 177.64 98.54 185.43 111 192 C110.375 194.438 110.375 194.438 109 197 C106.106 198.048 104.038 198.395 101.11 197.28 C98.967 196.147 96.924 194.919 94.875 193.625 C94.127 193.167 93.378 192.71 92.607 192.239 C86.098 188.199 79.991 183.776 74 179 C73.16 178.363 72.319 177.726 71.453 177.07 C51.054 161.184 34.956 141.233 22 119 C21.646 118.4 21.292 117.801 20.927 117.183 C14.996 107.032 10.795 96.348 6.828 85.3 C6.153 83.425 5.455 81.559 4.75 79.695 C-0.459 65.329 -3.119 49.34 -3.203 34.082 C-3.206 33.672 -3.206 33.672 -3.22 31.596 C-3.23 29.876 -3.236 28.156 -3.24 26.436 C-3.25 23.809 -3.281 21.183 -3.312 18.557 C-3.319 16.878 -3.324 15.199 -3.328 13.52 C-3.34 12.739 -3.353 11.959 -3.366 11.155 C-3.347 6.577 -2.769 3.683 0 0 Z " fill="#1A0F0C" transform="translate(313,623)"/>
<path d="M0 0 C11.88 0 23.76 0 36 0 C40.501 11.253 40.501 11.253 42.35 16.532 C42.764 17.71 43.177 18.888 43.604 20.101 C44.036 21.34 44.469 22.579 44.914 23.855 C45.374 25.17 45.835 26.484 46.295 27.798 C47.253 30.533 48.209 33.269 49.164 36.005 C50.383 39.495 51.605 42.985 52.829 46.474 C53.777 49.18 54.724 51.887 55.67 54.594 C56.337 56.502 57.006 58.409 57.674 60.315 C59.601 65.843 61.491 71.343 63 77 C59.089 73.183 55.449 69.196 51.875 65.062 C51.307 64.407 50.74 63.752 50.155 63.077 C45.965 58.204 41.958 53.212 38.025 48.131 C34.947 44.166 31.766 40.311 28.5 36.5 C24.259 31.55 20.208 26.481 16.219 21.327 C12.229 16.207 8.016 11.296 3.707 6.442 C0 2.212 0 2.212 0 0 Z " fill="#EEEEEE" transform="translate(441,358)"/>
<path d="M0 0 C12.21 0 24.42 0 37 0 C33.076 5.232 29.136 10.381 25 15.438 C24.446 16.117 23.892 16.797 23.321 17.497 C17.97 24.054 12.588 30.584 7.203 37.113 C3.928 41.084 0.669 45.068 -2.586 49.055 C-4.523 51.419 -6.467 53.777 -8.414 56.133 C-20.653 70.944 -20.653 70.944 -26 78 C-27 76 -27 76 -26.142 73.103 C-25.685 71.845 -25.218 70.589 -24.746 69.336 C-24.494 68.647 -24.242 67.959 -23.982 67.25 C-23.43 65.746 -22.875 64.244 -22.317 62.744 C-20.816 58.702 -19.339 54.651 -17.859 50.602 C-17.548 49.751 -17.236 48.9 -16.915 48.024 C-13.241 37.967 -9.712 27.86 -6.188 17.75 C-5.565 15.967 -4.943 14.183 -4.32 12.4 C-2.878 8.267 -1.439 4.134 0 0 Z " fill="#EDEDED" transform="translate(551,358)"/>
<path d="M0 0 C4.604 4.274 8.149 9.101 11.812 14.188 C16.301 20.365 20.829 26.437 25.742 32.285 C27 34 27 34 27 36 C9.51 36 -7.98 36 -26 36 C-24.34 31.849 -23.356 29.932 -20.625 26.688 C-16.32 21.452 -12.258 16.059 -8.213 10.622 C-5.536 7.029 -2.826 3.479 0 0 Z " fill="#EFEFEF" transform="translate(514,314)"/>
<path d="M0 0 C5.156 1.719 7.039 6.975 9.745 11.482 C10.807 13.242 11.898 14.982 12.99 16.723 C13.66 17.83 14.33 18.937 15.02 20.078 C15.639 21.093 16.259 22.108 16.898 23.153 C18 26 18 26 17.436 28.558 C16.962 29.364 16.488 30.17 16 31 C15.474 31.918 14.947 32.836 14.405 33.782 C11.005 36.918 7.903 36.632 3.516 36.488 C3.108 36.485 3.108 36.485 1.044 36.467 C-1.555 36.439 -4.152 36.376 -6.75 36.312 C-8.514 36.287 -10.279 36.265 -12.043 36.244 C-16.363 36.189 -20.681 36.103 -25 36 C-23.731 32.523 -22.273 29.738 -20.059 26.777 C-19.769 26.387 -19.769 26.387 -18.301 24.411 C-17.686 23.595 -17.071 22.779 -16.438 21.938 C-16.125 21.518 -16.125 21.518 -14.542 19.395 C-12.7 16.926 -10.851 14.463 -9 12 C-8.024 10.696 -7.049 9.391 -6.074 8.086 C-4.056 5.386 -2.03 2.691 0 0 Z " fill="#EFEFEF" transform="translate(466,314)"/>
<path d="M0 0 C4.386 4.093 7.787 8.614 11.25 13.5 C11.815 14.29 12.38 15.08 12.962 15.894 C14.648 18.258 16.326 20.628 18 23 C18.487 23.69 18.975 24.38 19.477 25.09 C27 35.765 27 35.765 27 37 C21.841 37.174 16.683 37.3 11.521 37.385 C9.768 37.42 8.014 37.467 6.261 37.528 C3.733 37.613 1.208 37.653 -1.32 37.684 C-2.099 37.72 -2.877 37.756 -3.679 37.793 C-7.045 37.795 -9.166 37.624 -11.908 35.571 C-14.425 32.9 -15.977 31.124 -16.054 27.387 C-14.885 24.741 -13.62 22.286 -12.129 19.805 C-11.842 19.323 -11.842 19.323 -10.389 16.887 C-9.786 15.893 -9.183 14.899 -8.562 13.875 C-7.964 12.873 -7.365 11.872 -6.748 10.84 C-4.556 7.183 -2.365 3.548 0 0 Z " fill="#EEEEEE" transform="translate(561,313)"/>
<path d="M0 0 C0.66 0 1.32 0 2 0 C2 6.6 2 13.2 2 20 C-0.722 21.464 -3.445 22.929 -6.25 24.438 C-7.101 24.898 -7.952 25.359 -8.829 25.834 C-9.509 26.197 -10.19 26.56 -10.891 26.934 C-11.582 27.305 -12.273 27.677 -12.985 28.06 C-15.054 29.025 -16.73 29.724 -19 30 C-20.831 29.196 -20.831 29.196 -22.672 27.91 C-23.004 27.683 -23.004 27.683 -24.684 26.533 C-25.366 26.048 -26.047 25.563 -26.75 25.062 C-27.099 24.822 -27.099 24.822 -28.863 23.604 C-30.583 22.414 -32.293 21.208 -34 20 C-30.35 16.902 -26.653 14.594 -22.422 12.363 C-21.81 12.038 -21.198 11.713 -20.567 11.379 C-18.631 10.352 -16.691 9.332 -14.75 8.312 C-12.796 7.281 -10.842 6.249 -8.89 5.214 C-7.13 4.282 -5.367 3.354 -3.604 2.427 C-1 1 -1 1 0 0 Z " fill="#EBECEC" transform="translate(406,372)"/>
<path d="M0 0 C12.205 5.967 24.103 12.444 36 19 C33.27 21.815 30.353 24.012 27.125 26.25 C26.611 26.614 26.611 26.614 24.008 28.453 C21 30 21 30 18.637 30.02 C14.768 28.524 11.265 26.524 7.688 24.438 C5.151 22.973 2.614 21.509 0 20 C0 13.4 0 6.8 0 0 Z " fill="#EDEDEC" transform="translate(621,372)"/>
<path d="M0 0 C10.56 0 21.12 0 32 0 C29.506 4.989 26.345 9.255 23.062 13.75 C22.429 14.638 21.795 15.526 21.143 16.441 C20.53 17.281 19.917 18.12 19.285 18.984 C18.727 19.755 18.169 20.525 17.594 21.319 C17.068 21.874 16.542 22.429 16 23 C15.01 23 14.02 23 13 23 C11.466 21.104 11.466 21.104 9.863 18.477 C9.286 17.538 8.71 16.6 8.115 15.633 C7.52 14.64 6.925 13.648 6.312 12.625 C5.706 11.64 5.099 10.655 4.475 9.641 C0 2.292 0 2.292 0 0 Z " fill="#EDEDED" transform="translate(475,310)"/>
<path d="M0 0 C10.56 0 21.12 0 32 0 C29.938 5.154 27.425 9.584 24.562 14.312 C24.072 15.148 23.582 15.984 23.076 16.846 C22.599 17.635 22.121 18.425 21.629 19.238 C21.413 19.599 21.413 19.599 20.319 21.427 C19.883 21.946 19.448 22.465 19 23 C18.01 23 17.02 23 16 23 C14.514 21.503 14.514 21.503 12.969 19.422 C12.405 18.673 11.842 17.924 11.262 17.152 C10.68 16.36 10.099 15.567 9.5 14.75 C8.919 13.973 8.337 13.195 7.738 12.395 C6.65 10.938 5.566 9.478 4.486 8.015 C3.453 6.614 2.392 5.233 1.311 3.868 C0 2 0 2 0 0 Z " fill="#ECEDEC" transform="translate(522,310)"/>
<path d="M0 0 C0.66 0 1.32 0 2 0 C1.67 1.65 1.34 3.3 1 5 C0.01 5.33 -0.98 5.66 -2 6 C-2.33 7.98 -2.66 9.96 -3 12 C-1.779 12.182 -0.559 12.364 0.699 12.551 C24.449 16.151 24.449 16.151 34 20 C35.992 20.376 37.992 20.72 40 21 C40 21.66 40 22.32 40 23 C41.279 23.144 42.558 23.289 43.875 23.438 C46.257 23.706 47.845 23.922 50 25 C49.34 17.41 48.68 9.82 48 2 C48.66 2 49.32 2 50 2 C51.448 10.74 52.292 19.139 52 28 C45.289 26.628 38.928 24.735 32.438 22.562 C18.486 18.018 4.539 15.776 -10 14 C-9.67 13.01 -9.34 12.02 -9 11 C-8.34 11 -7.68 11 -7 11 C-6.887 10.649 -6.887 10.649 -6.312 8.875 C-4.662 5.259 -2.709 2.912 0 0 Z " fill="#E8C98D" transform="translate(540,428)"/>
<path d="M0 0 C0 5.28 0 10.56 0 16 C-3.84 14.464 -7.218 12.867 -10.812 10.875 C-11.3 10.606 -11.3 10.606 -13.77 9.242 C-14.506 8.832 -15.242 8.422 -16 8 C-13.63 5.342 -11.18 3.888 -8 2.312 C-7.567 2.094 -7.567 2.094 -5.375 0.988 C-3 0 -3 0 0 0 Z " fill="#E1E1E0" transform="translate(614,372)"/>
<path d="M0 0 C0.99 0.33 1.98 0.66 3 1 C2.67 1.99 2.34 2.98 2 4 C1.34 4 0.68 4 0 4 C-0.33 5.65 -0.66 7.3 -1 9 C-1.66 9 -2.32 9 -3 9 C-3.098 9.703 -3.196 10.405 -3.297 11.129 C-4.119 14.488 -5.516 16.948 -7.25 19.938 C-10.997 26.718 -13.589 33.634 -16 41 C-16.286 41.847 -16.572 42.694 -16.867 43.566 C-17.59 45.707 -18.296 47.853 -19 50 C-19.562 51.688 -20.124 53.375 -20.688 55.062 C-20.939 55.817 -21.19 56.571 -21.449 57.348 C-21.631 57.893 -21.813 58.438 -22 59 C-22.66 58.67 -23.32 58.34 -24 58 C-21.595 46.174 -17.855 35.043 -13 24 C-12.34 24 -11.68 24 -11 24 C-10.905 23.122 -10.809 22.244 -10.711 21.34 C-9.936 17.698 -8.724 15.613 -6.625 12.562 C-3.894 8.457 -1.74 4.605 0 0 Z " fill="#E7C78A" transform="translate(337,534)"/>
<path d="M0 0 C5.851 1.8 10.793 3.787 16 7 C13.104 9.296 10.183 11.043 6.875 12.688 C6.441 12.906 6.441 12.906 4.242 14.012 C2 15 2 15 0 15 C0 10.05 0 5.1 0 0 Z " fill="#E7E7E7" transform="translate(415,372)"/>
<path d="M0 0 C0.33 0.165 0.33 0.165 2 1 C2.344 3.371 2.344 3.371 2.5 6.438 C2.694 10.163 3.132 13.585 4.016 17.195 C5.567 24.65 5.298 32.245 5.261 39.825 C5.25 42.456 5.261 45.086 5.273 47.717 C5.272 49.393 5.27 51.07 5.266 52.746 C5.27 53.53 5.274 54.315 5.278 55.123 C5.245 58.945 5.171 60.744 3 64 C2.98 63.116 2.96 62.231 2.94 61.32 C2.211 30.273 2.211 30.273 0.661 15.941 C0.087 10.591 -0.081 5.382 0 0 Z " fill="#C8AC79" transform="translate(751,595)"/>
<path d="M0 0 C0.66 0 1.32 0 2 0 C1.34 1.65 0.68 3.3 0 5 C-0.66 5 -1.32 5 -2 5 C-2.268 5.577 -2.536 6.155 -2.812 6.75 C-4.029 9.056 -5.303 11.021 -7 13 C-7.66 13 -8.32 13 -9 13 C-9.237 13.562 -9.474 14.124 -9.719 14.703 C-11.289 17.519 -13.215 19.48 -15.5 21.75 C-16.294 22.549 -17.088 23.348 -17.906 24.172 C-20 26 -20 26 -22 26 C-22.227 26.572 -22.454 27.145 -22.688 27.734 C-24.36 30.621 -26.381 32.195 -29 34.25 C-29.887 34.956 -30.774 35.663 -31.688 36.391 C-34 38 -34 38 -36 38 C-36.33 38.99 -36.66 39.98 -37 41 C-37.66 40.67 -38.32 40.34 -39 40 C-39 39.01 -39 38.02 -39 37 C-34.778 34 -34.778 34 -32 34 C-32 33.34 -32 32.68 -32 32 C-31.361 31.711 -30.721 31.423 -30.062 31.125 C-28 30 -28 30 -27 28 C-26.01 28 -25.02 28 -24 28 C-23.732 27.237 -23.464 26.474 -23.188 25.688 C-22.049 23.11 -21.186 21.73 -19 20 C-18.34 20 -17.68 20 -17 20 C-17 19.34 -17 18.68 -17 18 C-16.01 17.67 -15.02 17.34 -14 17 C-12.988 15.341 -11.987 13.674 -11 12 C-10.34 12 -9.68 12 -9 12 C-9 11.01 -9 10.02 -9 9 C-8.34 9 -7.68 9 -7 9 C-7 8.34 -7 7.68 -7 7 C-6.34 7 -5.68 7 -5 7 C-4.732 6.361 -4.464 5.721 -4.188 5.062 C-3 3 -3 3 0 2 C0 1.34 0 0.68 0 0 Z " fill="#E7C88B" transform="translate(700,789)"/>
<path d="M0 0 C4.669 1.605 9.093 3.975 13 7 C13 7.66 13 8.32 13 9 C10.878 10.172 8.752 11.338 6.625 12.5 C6.022 12.834 5.418 13.168 4.797 13.512 C0.227 16 0.227 16 -2 16 C-1.858 14.083 -1.712 12.166 -1.562 10.25 C-1.481 9.183 -1.4 8.115 -1.316 7.016 C-1.059 4.563 -0.682 2.361 0 0 Z " fill="#EBEAE9" transform="translate(367,398)"/>
<path d="M0 0 C0.66 5.28 1.32 10.56 2 16 C-2.174 14.609 -5.192 13.496 -8.875 11.375 C-9.656 10.929 -10.437 10.483 -11.242 10.023 C-11.822 9.686 -12.402 9.348 -13 9 C-13 8.34 -13 7.68 -13 7 C-10.664 5.273 -10.664 5.273 -7.625 3.375 C-6.627 2.743 -5.63 2.112 -4.602 1.461 C-2 0 -2 0 0 0 Z " fill="#E8E8E5" transform="translate(662,398)"/>
<path d="M0 0 C0.898 2.943 1.025 5.035 0.477 8.055 C0.343 8.827 0.209 9.6 0.072 10.396 C-0.076 11.214 -0.223 12.032 -0.375 12.875 C-3.767 33.006 -3.442 52.768 -1 73 C-1.33 73.165 -1.33 73.165 -3 74 C-3.072 73.433 -3.072 73.433 -3.438 70.562 C-4 67 -4 67 -5 66 C-5.113 63.76 -5.155 61.516 -5.168 59.273 C-5.172 58.582 -5.176 57.89 -5.181 57.178 C-5.191 54.91 -5.19 52.643 -5.188 50.375 C-5.187 49.607 -5.187 48.838 -5.187 48.046 C-5.171 38.319 -4.999 28.636 -4.188 18.938 C-4.117 18.049 -4.047 17.161 -3.975 16.246 C-3.42 10.506 -2.044 5.387 0 0 Z " fill="#E7C88D" transform="translate(312,599)"/>
<path d="M0 0 C6.123 -0.108 12.213 -0.06 18.328 0.258 C32.96 1.017 47.372 0.823 62 0 C62.165 0.33 62.165 0.33 63 2 C52.917 2.889 42.912 3.186 32.795 3.185 C30.371 3.188 27.947 3.206 25.523 3.225 C16.817 3.255 8.553 2.862 0 1 C0 0.67 0 0.34 0 0 Z " fill="#E6C88C" transform="translate(481,877)"/>
<path d="M0 0 C-29.157 10.226 -29.157 10.226 -41.562 12.688 C-42.357 12.848 -43.151 13.008 -43.97 13.173 C-47.911 13.885 -51.133 14.141 -55 13 C-55 12.67 -55 12.34 -55 12 C-53.907 11.856 -52.814 11.711 -51.688 11.562 C-48 11 -48 11 -45 10 C-42.628 9.528 -40.252 9.072 -37.875 8.625 C-31.2 7.332 -24.913 5.63 -18.637 3.016 C-15.768 1.911 -12.913 1.084 -9.938 0.312 C-8.915 0.041 -7.893 -0.231 -6.84 -0.512 C-4.024 -0.996 -2.672 -0.778 0 0 Z " fill="#E6C78C" transform="translate(606,863)"/>
<path d="M0 0 C0.926 0.107 1.851 0.214 2.805 0.324 C3.715 0.423 4.625 0.523 5.562 0.625 C7.83 0.906 10.096 1.207 12.359 1.52 C17.451 2.158 22.555 2.361 27.68 2.574 C28.153 2.596 28.153 2.596 30.547 2.705 C34.77 2.889 38.954 3.021 43.18 2.914 C46.68 3.012 46.68 3.012 49.68 5.012 C34.859 8.47 16.465 5.841 1.68 3.012 C-0.32 2.674 -2.319 2.34 -4.32 2.012 C-2.32 0.012 -2.32 0.012 0 0 Z " fill="#E4C589" transform="translate(481.3203125,841.98828125)"/>
<path d="M0 0 C0.66 0 1.32 0 2 0 C3.448 8.74 4.292 17.139 4 26 C-4.541 24.322 -12.726 21.66 -21 19 C-18.659 17.55 -17.42 16.957 -14.641 17.242 C-14.246 17.347 -14.246 17.347 -12.25 17.875 C-11.451 18.079 -10.652 18.282 -9.828 18.492 C-9.225 18.66 -8.622 18.827 -8 19 C-8 19.66 -8 20.32 -8 21 C-6.721 21.144 -5.442 21.289 -4.125 21.438 C-1.743 21.706 -0.155 21.922 2 23 C1.34 15.41 0.68 7.82 0 0 Z " fill="#D6BB86" transform="translate(588,430)"/>
<path d="M0 0 C2.64 0.66 5.28 1.32 8 2 C8 2.66 8 3.32 8 4 C8.681 4.124 9.361 4.247 10.062 4.375 C13.443 5.094 16.714 5.926 20 7 C20.33 7.66 20.66 8.32 21 9 C22.834 9.534 24.694 9.978 26.562 10.375 C31.907 11.62 36.219 13.334 41 16 C41 16.66 41 17.32 41 18 C30.676 16.107 21.532 11.75 12.062 7.375 C11.749 7.231 11.749 7.231 10.164 6.499 C6.648 4.852 3.248 3.132 0 1 C0 0.67 0 0.34 0 0 Z " fill="#DCBF86" transform="translate(400,851)"/>
<path d="M0 0 C0.99 0.33 1.98 0.66 3 1 C2.287 1.75 1.574 2.5 0.84 3.273 C-4.52 8.981 -9.408 14.622 -13.66 21.234 C-13.881 21.526 -13.881 21.526 -15 23 C-15.66 23 -16.32 23 -17 23 C-17.134 23.371 -17.134 23.371 -17.812 25.25 C-18.942 27.866 -20.209 29.802 -22 32 C-22.595 23.712 -15.734 17.465 -10.613 11.531 C-9 10 -9 10 -6 9 C-5.938 8.216 -5.876 7.433 -5.812 6.625 C-5.544 5.759 -5.276 4.892 -5 4 C-2.438 2.688 -2.438 2.688 0 2 C0 1.34 0 0.68 0 0 Z " fill="#E5C58B" transform="translate(362,503)"/>
<path d="M0 0 C2.438 0.812 2.438 0.812 5 2 C5.33 2.99 5.66 3.98 6 5 C6.577 5.103 7.155 5.206 7.75 5.312 C10.703 6.215 11.867 8.022 13.727 10.395 C16.158 13.459 18.947 16.126 21.953 18.621 C26.504 22.405 29.39 25.672 32 31 C29 31 29 31 27.492 29.602 C26.959 28.949 26.425 28.297 25.875 27.625 C25.265 26.899 24.656 26.174 24.027 25.426 C23.358 24.625 22.689 23.825 22 23 C13.555 13.292 13.555 13.292 9.438 10 C8.633 9.34 7.829 8.68 7 8 C7 7.34 7 6.68 7 6 C6.216 5.752 5.433 5.505 4.625 5.25 C1.677 3.846 1.098 2.993 0 0 Z " fill="#DFC088" transform="translate(644,485)"/>
<path d="M0 0 C0.33 0 0.66 0 1 0 C1.627 2.312 2.253 4.624 2.875 6.938 C3.06 7.625 3.245 8.312 3.435 9.02 C4.402 12.645 5.305 16.262 6.062 19.938 C6.667 22.833 7.517 25.445 8.625 28.188 C9.969 31.558 10.274 34.343 10 38 C10.66 38 11.32 38 12 38 C12 39.65 12 41.3 12 43 C9.437 39.934 8.204 37.15 7.027 33.344 C6.685 32.238 6.343 31.132 5.99 29.992 C5.643 28.84 5.295 27.687 4.938 26.5 C4.762 25.939 4.762 25.939 3.873 23.102 C1.662 15.863 -0.322 8.564 -1 1 C-0.67 0.67 -0.34 0.34 0 0 Z " fill="#E3C48B" transform="translate(277,682)"/>
<path d="M0 0 C1.32 0.66 1.32 0.66 8 4 C8 4.66 8 5.32 8 6 C8.99 6 9.98 6 11 6 C11 6.66 11 7.32 11 8 C11.589 8.122 12.178 8.245 12.784 8.371 C15.017 9.005 16.523 9.798 18.453 11.066 C19.072 11.469 19.691 11.872 20.328 12.287 C20.962 12.708 21.597 13.129 22.25 13.562 C22.9 13.987 23.549 14.412 24.219 14.85 C25.816 15.895 27.408 16.947 29 18 C26.614 19.892 24.928 21.024 22 22 C22 19 22 19 23 17 C22.34 17 21.68 17 21 17 C21 16.34 21 15.68 21 15 C19.68 14.67 18.36 14.34 17 14 C17 13.34 17 12.68 17 12 C15.35 11.67 13.7 11.34 12 11 C12 10.34 12 9.68 12 9 C11.01 9.33 10.02 9.66 9 10 C9 9.34 9 8.68 9 8 C8.34 8 7.68 8 7 8 C6.34 7.01 5.68 6.02 5 5 C2.375 3.812 2.375 3.812 0 3 C0 2.01 0 1.02 0 0 Z " fill="#DDBF8A" transform="translate(391,445)"/>
<path d="M0 0 C0 0.66 0 1.32 0 2 C-0.619 2.166 -1.239 2.332 -1.877 2.503 C-4.731 3.27 -7.584 4.041 -10.438 4.812 C-11.411 5.074 -12.385 5.335 -13.389 5.604 C-19.335 7.214 -25.175 8.994 -31 11 C-30.67 7.7 -30.34 4.4 -30 1 C-29.34 1 -28.68 1 -28 1 C-27.67 2.65 -27.34 4.3 -27 6 C-23.469 5.576 -20.249 5.085 -16.875 3.938 C-14.049 3.016 -11.945 2.827 -9 3 C-9 2.34 -9 1.68 -9 1 C-5.804 -0.065 -3.343 -0.074 0 0 Z " fill="#E4C68C" transform="translate(467,445)"/>
<path d="M0 0 C0.99 0.66 1.98 1.32 3 2 C1.71 3.376 0.373 4.708 -1 6 C-1.66 6 -2.32 6 -3 6 C-3.206 6.577 -3.413 7.155 -3.625 7.75 C-5.493 10.806 -8.024 12.056 -11 14 C-12.018 15.32 -13.022 16.65 -14 18 C-14.99 18.33 -15.98 18.66 -17 19 C-17.217 19.33 -17.217 19.33 -18.312 21 C-20.612 23.725 -22.544 23.693 -26 24 C-25.67 23.34 -25.34 22.68 -25 22 C-24.01 22 -23.02 22 -22 22 C-21.67 21.01 -21.34 20.02 -21 19 C-18.785 16.957 -18.785 16.957 -16.062 14.812 C-15.167 14.097 -14.271 13.382 -13.348 12.645 C-11 11 -11 11 -9 11 C-8.745 10.417 -8.49 9.835 -8.227 9.234 C-6.883 6.786 -5.382 5.183 -3.375 3.25 C-2.743 2.636 -2.112 2.023 -1.461 1.391 C-1.22 1.161 -1.22 1.161 0 0 Z " fill="#E0C285" transform="translate(663,781)"/>
<path d="M0 0 C2.834 3.203 3.521 5.781 4 10 C4.66 10 5.32 10 6 10 C6.315 10.822 6.629 11.645 6.953 12.492 C7.381 13.609 7.809 14.725 8.25 15.875 C8.702 17.058 9.155 18.242 9.621 19.461 C11.105 23.268 12.676 27.032 14.301 30.781 C15.091 33.288 15.124 35.387 15 38 C15.66 38 16.32 38 17 38 C17 40.64 17 43.28 17 46 C14.914 42.287 13.824 38.309 12.625 34.25 C11.097 29.214 9.514 24.491 6.969 19.863 C5.363 16.776 4.206 13.508 2.953 10.266 C2 8 2 8 0.188 5.062 C-0.204 4.382 -0.596 3.701 -1 3 C-0.67 2.01 -0.34 1.02 0 0 Z " fill="#E6C78C" transform="translate(696,545)"/>
<path d="M0 0 C0.369 0.157 0.369 0.157 2.238 0.953 C15.558 6.572 29.077 11.115 43 15 C43 15.33 43 15.66 43 16 C36.998 16.218 31.808 15.506 26 14 C26 13.34 26 12.68 26 12 C24.68 12 23.36 12 22 12 C22 11.34 22 10.68 22 10 C21.691 9.951 21.691 9.951 20.129 9.703 C12.708 8.393 6.292 6.195 0 2 C0 1.34 0 0.68 0 0 Z " fill="#E2C48B" transform="translate(425,825)"/>
<path d="M0 0 C0 0.66 0 1.32 0 2 C-0.675 1.988 -1.351 1.977 -2.047 1.965 C-2.939 1.956 -3.831 1.947 -4.75 1.938 C-5.632 1.926 -6.513 1.914 -7.422 1.902 C-9.814 1.993 -11.753 2.18 -14 3 C-15 5.188 -15 5.188 -16 8 C-18.31 11.773 -20.645 15.093 -24 18 C-24.66 18 -25.32 18 -26 18 C-25.688 16.062 -25.688 16.062 -25 14 C-24.01 13.67 -23.02 13.34 -22 13 C-21.67 12.175 -21.34 11.35 -21 10.5 C-20.67 9.675 -20.34 8.85 -20 8 C-19.01 7.67 -18.02 7.34 -17 7 C-16.711 6.237 -16.423 5.474 -16.125 4.688 C-12.703 -3.487 -7.245 -2.082 0 0 Z " fill="#E1C285" transform="translate(573,404)"/>
<path d="M0 0 C2.073 0.959 3.798 2.059 5.625 3.43 C5.932 3.657 5.932 3.657 7.484 4.809 C7.943 5.158 8.402 5.507 8.875 5.867 C8.215 6.527 7.555 7.187 6.875 7.867 C5.967 7.187 5.06 6.506 4.125 5.805 C0.875 3.867 0.875 3.867 -1.375 3.992 C-3.125 4.867 -3.125 4.867 -5.125 6.867 C-5.723 6.991 -6.321 7.115 -6.938 7.242 C-9.125 7.867 -9.125 7.867 -11.562 9.93 C-14.428 12.096 -15.632 12.266 -19.125 11.867 C-17.812 10.367 -17.812 10.367 -16.125 8.867 C-15.135 8.867 -14.145 8.867 -13.125 8.867 C-13.125 8.207 -13.125 7.547 -13.125 6.867 C-10.859 5.105 -10.859 5.105 -7.875 3.18 C-6.9 2.536 -5.926 1.893 -4.922 1.23 C-2.125 -0.133 -2.125 -0.133 0 0 Z " fill="#E0C389" transform="translate(649.125,438.1328125)"/>
<path d="M0 0 C0.66 0.99 1.32 1.98 2 3 C1.419 5.639 0.747 8.021 -0.125 10.562 C-0.359 11.275 -0.592 11.987 -0.833 12.721 C-2.667 18.235 -4.702 23.66 -7 29 C-7.33 29 -7.66 29 -8 29 C-7.484 21.388 -6.588 10.588 -1 5 C-0.375 2.375 -0.375 2.375 0 0 Z " fill="#E7C78E" transform="translate(745,702)"/>
<path d="M0 0 C1 3 1 3 -0.125 5.875 C-2.09 9.151 -4.126 11.494 -7 14 C-7.66 14 -8.32 14 -9 14 C-9.124 14.619 -9.247 15.237 -9.375 15.875 C-10 18 -10 18 -12 20 C-12 19.34 -12 18.68 -12 18 C-12.66 17.67 -13.32 17.34 -14 17 C-13.381 16.773 -12.763 16.546 -12.125 16.312 C-9.339 14.592 -9.128 13.031 -8 10 C-6 7.188 -6 7.188 -4 5 C-3.34 5 -2.68 5 -2 5 C-1.856 4.361 -1.711 3.721 -1.562 3.062 C-1 1 -1 1 0 0 Z " fill="#E0C085" transform="translate(682,758)"/>
<path d="M0 0 C2.273 3.41 3.553 6.927 4.938 10.75 C6.42 14.814 7.91 18.857 9.629 22.828 C11 26 11 26 12 29 C11.34 29 10.68 29 10 29 C7.568 25.633 7 24.266 7 20 C6.34 20 5.68 20 5 20 C5 18.68 5 17.36 5 16 C4.34 16 3.68 16 3 16 C2.302 13.899 1.617 11.794 0.938 9.688 C0.555 8.516 0.172 7.344 -0.223 6.137 C-1 3 -1 3 0 0 Z " fill="#DBBF89" transform="translate(318,703)"/>
<path d="M0 0 C1.98 0.66 3.96 1.32 6 2 C6 2.66 6 3.32 6 4 C6.99 4 7.98 4 9 4 C9 4.66 9 5.32 9 6 C9.516 6.103 10.031 6.206 10.562 6.312 C13.886 7.25 16.9 8.479 20 10 C20.33 10.99 20.66 11.98 21 13 C21.66 13.33 22.32 13.66 23 14 C21.68 14 20.36 14 19 14 C19 13.34 19 12.68 19 12 C18.326 11.927 17.652 11.853 16.957 11.777 C13.015 10.741 10.069 8.788 6.688 6.562 C6.042 6.155 5.397 5.747 4.732 5.326 C3.115 4.277 1.552 3.144 0 2 C0 1.34 0 0.68 0 0 Z " fill="#E3C58B" transform="translate(376,836)"/>
<path d="M0 0 C0.66 0 1.32 0 2 0 C3.614 16.775 3.614 16.775 3 22 C2.34 22.66 1.68 23.32 1 24 C0.1 15.977 -0.115 8.07 0 0 Z " fill="#E7C78B" transform="translate(273,648)"/>
<path d="M0 0 C0.33 0.165 0.33 0.165 2 1 C2.379 3.652 2.379 3.652 2.562 6.938 C2.906 12.811 2.906 12.811 4 15 C3.911 17.724 3.766 20.41 3.562 23.125 C3.51 23.879 3.458 24.633 3.404 25.41 C3.275 27.274 3.138 29.137 3 31 C2.67 31 2.34 31 2 31 C1.66 27.521 1.329 24.042 1 20.562 C0.905 19.589 0.809 18.615 0.711 17.611 C0.158 11.71 -0.098 5.927 0 0 Z " fill="#D7B982" transform="translate(751,595)"/>
<path d="M0 0 C0.99 0.33 1.98 0.66 3 1 C3.333 2.333 3.667 3.667 4 5 C4.99 5.33 5.98 5.66 7 6 C3.596 8.032 0.677 8.369 -3.25 8.625 C-3.789 8.662 -3.789 8.662 -6.516 8.852 C-7.335 8.901 -8.155 8.95 -9 9 C-9 8.01 -9 7.02 -9 6 C-5.7 5.67 -2.4 5.34 1 5 C0.67 3.35 0.34 1.7 0 0 Z " fill="#D8BD8A" transform="translate(492,435)"/>
<path d="M0 0 C0 0.66 0 1.32 0 2 C-0.639 2.103 -1.279 2.206 -1.938 2.312 C-2.618 2.539 -3.299 2.766 -4 3 C-4.33 3.99 -4.66 4.98 -5 6 C-6.559 7.387 -6.559 7.387 -8.438 8.688 C-9.055 9.124 -9.672 9.561 -10.309 10.012 C-12 11 -12 11 -14 11 C-14.289 11.639 -14.577 12.279 -14.875 12.938 C-16 15 -16 15 -18 16 C-17.75 13.625 -17.75 13.625 -17 11 C-15 9.875 -15 9.875 -13 9 C-12.67 8.01 -12.34 7.02 -12 6 C-9.398 4.352 -8.138 4 -5 4 C-4.67 3.01 -4.34 2.02 -4 1 C-2 0 -2 0 0 0 Z " fill="#DEBF86" transform="translate(392,479)"/>
<path d="M0 0 C0.99 0.33 1.98 0.66 3 1 C-0.667 8.333 -4.333 15.667 -8 23 C-8.33 23 -8.66 23 -9 23 C-9.87 16.218 -6.348 11.082 -2.375 5.867 C-0.921 3.893 -0.427 2.393 0 0 Z " fill="#E3C38A" transform="translate(732,737)"/>
<path d="M0 0 C0.99 0.33 1.98 0.66 3 1 C2.67 1.99 2.34 2.98 2 4 C1.34 4 0.68 4 0 4 C-0.33 5.65 -0.66 7.3 -1 9 C-1.66 9 -2.32 9 -3 9 C-3.082 9.66 -3.165 10.32 -3.25 11 C-4.248 14.99 -6.072 18.385 -8 22 C-9.323 18.03 -8.618 16.868 -7 13 C-5.501 10.386 -3.943 7.821 -2.34 5.27 C-1 3 -1 3 0 0 Z " fill="#DDBF87" transform="translate(337,534)"/>
<path d="M0 0 C0.99 0.66 1.98 1.32 3 2 C2.278 2.846 1.556 3.691 0.812 4.562 C-1.987 7.914 -4.496 11.423 -7 15 C-7.99 14.67 -8.98 14.34 -10 14 C-6.7 9.38 -3.4 4.76 0 0 Z " fill="#341E1E" transform="translate(447,326)"/>
<path d="M0 0 C0.99 0.66 1.98 1.32 3 2 C2.34 8.86 0.764 15.344 -1 22 C-1.66 22 -2.32 22 -3 22 C-2.857 21.009 -2.714 20.017 -2.566 18.996 C-1.999 15.021 -1.465 11.043 -0.938 7.062 C-0.847 6.379 -0.756 5.695 -0.662 4.99 C-0.441 3.327 -0.221 1.663 0 0 Z " fill="#D9BA82" transform="translate(750,675)"/>
<path d="M0 0 C0.99 0 1.98 0 3 0 C3 0.66 3 1.32 3 2 C2.01 2 1.02 2 0 2 C0 2.66 0 3.32 0 4 C-0.99 4 -1.98 4 -3 4 C-3 4.66 -3 5.32 -3 6 C-7.29 8.31 -11.58 10.62 -16 13 C-16 12.01 -16 11.02 -16 10 C-13.094 7.197 -12.212 7 -8 7 C-7.67 6.01 -7.34 5.02 -7 4 C-5.02 3.67 -3.04 3.34 -1 3 C-0.67 2.01 -0.34 1.02 0 0 Z " fill="#E1C389" transform="translate(646,838)"/>
<path d="M0 0 C0.33 0 0.66 0 1 0 C1.027 1.979 1.046 3.958 1.062 5.938 C1.074 7.04 1.086 8.142 1.098 9.277 C1 12 1 12 0 13 C0.032 14.998 0.068 16.996 0.16 18.992 C0 21 0 21 -2 24 C-2.66 24 -3.32 24 -4 24 C-3.356 18.447 -2.499 12.987 -1.438 7.5 C-1.368 7.136 -1.368 7.136 -1.018 5.297 C-0.681 3.531 -0.341 1.765 0 0 Z " fill="#472D2B" transform="translate(708,670)"/>
<path d="M0 0 C0.33 0 0.66 0 1 0 C2.656 7.785 0.871 14.642 -2 22 C-2.66 22.66 -3.32 23.32 -4 24 C-3.286 15.863 -1.672 7.983 0 0 Z " fill="#D6B985" transform="translate(279,577)"/>
<path d="M0 0 C0.33 1.32 0.66 2.64 1 4 C0.443 4.206 -0.114 4.413 -0.688 4.625 C-3 6 -3 6 -5.375 9 C-8.197 12.225 -9.897 13.046 -14 14 C-10.64 9.89 -7.397 6.054 -3 3 C-2.34 3 -1.68 3 -1 3 C-0.67 2.01 -0.34 1.02 0 0 Z " fill="#DFC086" transform="translate(357,454)"/>
<path d="M0 0 C-0.33 0.66 -0.66 1.32 -1 2 C-2.785 2.344 -2.785 2.344 -5.062 2.5 C-8.221 2.776 -11.131 3.219 -14.188 4.062 C-17.651 4.914 -20.459 5.177 -24 5 C-20.288 2.525 -16.862 1.812 -12.562 0.812 C-11.799 0.622 -11.035 0.432 -10.248 0.236 C-9.507 0.062 -8.767 -0.113 -8.004 -0.293 C-7.332 -0.453 -6.66 -0.613 -5.967 -0.778 C-3.736 -1.03 -2.13 -0.662 0 0 Z " fill="#D7BB84" transform="translate(468,403)"/>
<path d="M0 0 C1.32 0 2.64 0 4 0 C4.655 6.362 5.121 12.604 5 19 C4.34 19.33 3.68 19.66 3 20 C2.67 13.73 2.34 7.46 2 1 C1.34 0.67 0.68 0.34 0 0 Z " fill="#E9C98F" transform="translate(584,409)"/>
<path d="M0 0 C0.66 0 1.32 0 2 0 C1.453 3.375 0.945 5.082 -1 8 C-1.66 8 -2.32 8 -3 8 C-3.33 8.99 -3.66 9.98 -4 11 C-5.32 10.67 -6.64 10.34 -8 10 C-6.719 8.293 -5.382 6.626 -4 5 C-3.34 5 -2.68 5 -2 5 C-1.34 3.35 -0.68 1.7 0 0 Z " fill="#E2C284" transform="translate(328,483)"/>
<path d="M0 0 C0.33 0 0.66 0 1 0 C1.121 7.077 0.854 13.972 0 21 C-0.66 21 -1.32 21 -2 21 C-2.192 6.827 -2.192 6.827 -1 1 C-0.67 0.67 -0.34 0.34 0 0 Z " fill="#E9C78A" transform="translate(274,619)"/>
<path d="M0 0 C0.33 0.99 0.66 1.98 1 3 C-2.63 6.96 -6.26 10.92 -10 15 C-10.99 14.67 -11.98 14.34 -13 14 C-12.229 13.241 -11.458 12.481 -10.664 11.699 C-9.651 10.695 -8.638 9.692 -7.625 8.688 C-7.117 8.188 -6.609 7.688 -6.086 7.174 C-3.771 4.875 -1.817 2.725 0 0 Z " fill="#4D312F" transform="translate(666,765)"/></g>
</svg>