<?xml version="1.0" encoding="UTF-8"?>
<svg xmlns="http://www.w3.org/2000/svg" viewBox="0 0 1024 1024" preserveAspectRatio="xMidYMid meet">
<style>

.main { transform-origin: 50% 95%; animation: tuxedoSway 4.8s ease-in-out infinite; }
@keyframes tuxedoSway {
  0%,100% { transform: rotate(-1.2deg); }
  50%     { transform: rotate(1.2deg); }
}
.sparkle { transform-origin: center; animation: twinkle 2.4s ease-in-out infinite; }
.sparkle.s1 { animation-delay: .0s; }
.sparkle.s2 { animation-delay: .5s; animation-duration: 2.8s; }
.sparkle.s3 { animation-delay: 1.0s; animation-duration: 2.2s; }
.sparkle.s4 { animation-delay: 1.6s; animation-duration: 2.6s; }
.sparkle.s5 { animation-delay: .3s;  animation-duration: 3.0s; }
.sparkle.s6 { animation-delay: 1.2s; animation-duration: 2.1s; }
@keyframes twinkle {
  0%,100% { opacity: 0.2; transform: scale(.6); }
  50%     { opacity: 1;   transform: scale(1.3) rotate(45deg); }
}

</style>
<g class="main"><path d="M0 0 C-4.6622 3.3396 -9.3295 6.672 -14 10 C-14.6524 10.4652 -15.3049 10.9304 -15.9771 11.4097 C-25.6449 18.2947 -35.3992 25.0397 -45.25 31.6609 C-51.0154 35.5595 -56.5633 39.6545 -62 44 C-59.022 46.4117 -57.7076 47.3986 -54 48 C-48.4196 46.3288 -43.4368 43.6091 -38.3125 40.875 C-36.8993 40.1481 -35.4846 39.4241 -34.0684 38.7031 C-32.0691 37.6843 -30.0731 36.6618 -28.0877 35.6162 C-18.0317 30.32 -18.0317 30.32 -13 31 C-10.6429 34.5356 -10.6999 36.2203 -10.5859 40.418 C-10.5473 41.6716 -10.5086 42.9252 -10.4688 44.2168 C-10.4533 44.872 -10.4533 44.872 -10.375 48.1875 C-10.3368 49.5228 -10.2978 50.8581 -10.2578 52.1934 C-10.1634 55.4621 -10.0778 58.7308 -10 62 C-3.2195 53.7547 3.4922 45.463 10 37 C10.5268 36.3195 11.0536 35.6389 11.5964 34.9377 C16.1597 28.9663 20.3184 23.0575 23 16 C35.7104 19.0707 48.3151 22.4973 60.9102 26.0085 C64.2559 26.9391 67.6045 27.8592 70.9531 28.7793 C90.771 34.2707 110.7975 40.0399 122.1309 58.8799 C128.5506 70.3878 131.2997 80.1054 131.2852 93.3464 C131.2917 94.578 131.2982 95.8096 131.3049 97.0785 C131.3208 100.4806 131.328 103.8825 131.3313 107.2846 C131.3371 110.9603 131.3543 114.6359 131.37 118.3116 C131.399 125.5068 131.4175 132.702 131.4324 139.8973 C131.4501 148.2841 131.4781 156.6709 131.5065 165.0578 C131.5568 180.0294 131.5976 195.001 131.6331 209.9727 C131.6674 224.4838 131.7089 238.9948 131.7581 253.5059 C131.7611 254.399 131.7641 255.2922 131.7672 256.2125 C131.7703 257.1042 131.7733 257.9958 131.7764 258.9145 C131.8324 275.4534 131.8815 291.9924 131.9276 308.5313 C131.944 314.3698 131.9625 320.2082 131.9817 326.0466 C132.0049 333.1702 132.0242 340.2938 132.0387 347.4174 C132.0462 351.0482 132.0552 354.679 132.0687 358.3098 C132.0834 362.2551 132.09 366.2004 132.0957 370.1457 C132.1012 371.2803 132.1066 372.415 132.1122 373.584 C132.1124 374.1195 132.1124 374.1195 132.113 376.8293 C132.1142 377.2836 132.1142 377.2836 132.1201 379.5824 C131.9391 384.732 131.4279 389.8651 131 395 C112.85 395 94.7 395 76 395 C76.33 400.94 76.66 406.88 77 413 C79.4428 412.9884 81.8855 412.9768 84.4023 412.9648 C86.7587 412.9571 89.1151 412.951 91.4714 412.9451 C93.1137 412.94 94.7559 412.9332 96.3982 412.9246 C98.7538 412.9125 101.1093 412.9068 103.4648 412.9023 C104.2034 412.8972 104.9419 412.892 105.7029 412.8867 C107.469 412.8865 109.235 412.9381 111 413 C113.7274 415.7274 112.2849 423.7735 112.3125 427.4375 C112.3415 428.6847 112.3705 429.9318 112.4004 431.2168 C112.4771 442.4485 109.9758 451.7856 102 460 C94.2812 466.4496 87.0129 469.7739 77 471 C76.67 471.33 76.34 471.66 76 472 C65.1997 471.9332 54.5949 469.8773 44 468 C43.962 468.7325 43.924 469.4649 43.8849 470.2196 C42.1817 502.67 40.0641 535.0958 37.9935 567.5243 C37.6812 572.4151 37.3694 577.306 37.0577 582.1968 C36.1914 595.789 35.3246 609.3812 34.4557 622.9733 C34.4281 623.4039 34.4281 623.4039 34.2888 625.5835 C34.1773 627.3286 34.0657 629.0737 33.9541 630.8189 C33.8988 631.6849 33.8434 632.5509 33.7864 633.4431 C33.7309 634.3102 33.6755 635.1773 33.6184 636.0706 C32.7141 650.2181 31.8136 664.3658 30.9146 678.5136 C29.9875 693.1023 29.0575 707.6908 28.1244 722.2791 C27.6021 730.4459 27.081 738.6128 26.5633 746.78 C26.1243 753.705 25.6826 760.6298 25.2372 767.5544 C25.0103 771.0849 24.7846 774.6155 24.5624 778.1464 C24.322 781.9666 24.0754 785.7864 23.8281 789.6062 C23.7585 790.7285 23.6888 791.8509 23.617 793.0072 C23.5501 794.0255 23.4832 795.0439 23.4142 796.0931 C23.3579 796.9746 23.3017 797.8562 23.2437 798.7645 C23 801 23 801 22 804 C11.5866 804.0231 1.1731 804.0409 -9.2403 804.0518 C-14.0752 804.057 -18.91 804.0641 -23.7449 804.0754 C-28.4068 804.0863 -33.0687 804.0923 -37.7306 804.0949 C-39.5132 804.0967 -41.2959 804.1004 -43.0786 804.1057 C-45.5667 804.1129 -48.0547 804.114 -50.5427 804.1135 C-51.2872 804.1171 -52.0317 804.1207 -52.7987 804.1244 C-57.8859 804.1141 -57.8859 804.1141 -59 803 C-59.0989 801.2054 -59.1266 799.4068 -59.1275 797.6095 C-59.1305 796.4325 -59.1335 795.2556 -59.1366 794.0431 C-59.1349 792.7336 -59.1331 791.4241 -59.1313 790.0749 C-59.133 788.6827 -59.1352 787.2905 -59.1377 785.8983 C-59.1423 782.8594 -59.1437 779.8206 -59.1427 776.7817 C-59.1412 771.8384 -59.1463 766.895 -59.1524 761.9516 C-59.1605 754.7745 -59.1654 747.5974 -59.1687 740.4203 C-59.1742 729.0816 -59.191 717.743 -59.21 706.4044 C-59.2164 702.5285 -59.2227 698.6527 -59.229 694.7769 C-59.2306 693.8081 -59.2322 692.8394 -59.2338 691.8414 C-59.2517 680.806 -59.268 669.7705 -59.283 658.7351 C-59.2843 657.7259 -59.2857 656.7167 -59.2871 655.6769 C-59.3091 639.3193 -59.3198 622.9618 -59.3273 606.6042 C-59.3354 589.8257 -59.3587 573.0473 -59.3953 556.2688 C-59.4173 545.9112 -59.427 535.5537 -59.4208 525.1961 C-59.4176 518.1004 -59.4289 511.0048 -59.4517 503.9091 C-59.4644 499.8114 -59.4705 495.714 -59.4593 491.6163 C-59.4491 487.8676 -59.4573 484.1194 -59.4801 480.3707 C-59.4875 478.3665 -59.4752 476.3623 -59.4622 474.3582 C-59.473 473.1734 -59.4838 471.9887 -59.495 470.7681 C-59.496 469.7434 -59.4969 468.7187 -59.4979 467.6629 C-60.1365 464.2757 -61.3054 463.0882 -64 461 C-67 460.5 -67 460.5 -70 461 C-72.6992 463.0905 -73.864 464.2784 -74.5032 467.6705 C-74.5047 468.6988 -74.5062 469.727 -74.5078 470.7865 C-74.5193 471.9753 -74.5307 473.1642 -74.5425 474.389 C-74.5347 475.6964 -74.527 477.0038 -74.519 478.3508 C-74.5249 479.7525 -74.5325 481.1543 -74.5417 482.556 C-74.562 486.4123 -74.5574 490.2681 -74.5488 494.1243 C-74.5439 498.2811 -74.5619 502.4378 -74.5772 506.5946 C-74.6006 513.7979 -74.6093 521.001 -74.6081 528.2043 C-74.6064 538.6191 -74.6268 549.0338 -74.6525 559.4486 C-74.6936 576.3451 -74.7169 593.2416 -74.729 610.1382 C-74.7408 626.5532 -74.761 642.9683 -74.7925 659.3833 C-74.7944 660.3948 -74.7964 661.4064 -74.7983 662.4486 C-74.8081 667.5231 -74.818 672.5976 -74.8281 677.6721 C-74.9109 719.7814 -74.9616 761.8906 -75 804 C-101.73 804 -128.46 804 -156 804 C-157.3079 800.0762 -157.4261 796.2003 -157.6873 792.1023 C-157.7493 791.1798 -157.8112 790.2573 -157.8751 789.3069 C-158.0829 786.1983 -158.2849 783.0894 -158.4871 779.9805 C-158.6348 777.7533 -158.7828 775.5262 -158.9312 773.299 C-159.3359 767.2088 -159.7357 761.1183 -160.1347 755.0277 C-160.5588 748.5664 -160.9874 742.1055 -161.4155 735.6445 C-162.1402 724.6986 -162.862 713.7524 -163.5818 702.8062 C-164.3082 691.7595 -165.0361 680.7129 -165.7664 669.6665 C-165.8105 668.9981 -165.8547 668.3297 -165.9003 667.641 C-166.1227 664.2759 -166.3452 660.9108 -166.5678 657.5457 C-168.4736 628.7235 -170.3727 599.9009 -172.2704 571.0783 C-173.1321 557.9922 -173.9949 544.9063 -174.8579 531.8203 C-174.9301 530.7252 -175.0024 529.6301 -175.0768 528.5018 C-175.3576 524.2437 -175.6384 519.9857 -175.9192 515.7276 C-176.6062 505.3106 -177.293 494.8936 -177.9797 484.4766 C-178.0856 482.8705 -178.1915 481.2643 -178.2974 479.6582 C-178.5316 476.1055 -178.7658 472.5527 -179 469 C-180.7568 469.1533 -182.5134 469.3085 -184.27 469.4644 C-185.2483 469.5506 -186.2265 469.6367 -187.2344 469.7256 C-190.4778 470.0474 -193.6644 470.5677 -196.875 471.125 C-209.8087 472.9929 -221.0727 471.5444 -231.75 463.75 C-240.2317 456.7044 -245.1395 447.8761 -247 437 C-247.0887 435.1735 -247.1306 433.3443 -247.1328 431.5156 C-247.1341 430.4986 -247.1354 429.4815 -247.1367 428.4336 C-247.1329 427.383 -247.129 426.3324 -247.125 425.25 C-247.1269 424.717 -247.1269 424.717 -247.1367 422.0195 C-247.1354 421.0076 -247.1341 419.9957 -247.1328 418.9531 C-247.1317 418.0266 -247.1306 417.1001 -247.1294 416.1455 C-247 414 -247 414 -246 413 C-243.4791 412.9115 -240.9857 412.8847 -238.4648 412.9023 C-238.0882 412.9031 -238.0882 412.9031 -236.1823 412.9066 C-233.7673 412.9122 -231.3524 412.9248 -228.9375 412.9375 C-227.304 412.9425 -225.6706 412.9471 -224.0371 412.9512 C-220.0247 412.9614 -216.0124 412.9809 -212 413 C-211.67 407.06 -211.34 401.12 -211 395 C-228.82 395 -246.64 395 -265 395 C-265.0679 355.3299 -265.1215 315.6599 -265.1532 275.9897 C-265.1569 271.3035 -265.1608 266.6173 -265.1648 261.9312 C-265.1656 260.9982 -265.1664 260.0653 -265.1672 259.1041 C-265.1802 244.0097 -265.2039 228.9152 -265.2315 213.8207 C-265.2595 198.326 -265.2762 182.8312 -265.2823 167.3364 C-265.2864 157.7796 -265.2993 148.2229 -265.3237 138.6661 C-265.3396 132.1077 -265.3444 125.5493 -265.3405 118.9909 C-265.3386 115.2102 -265.3415 111.4296 -265.3576 107.649 C-265.375 103.5411 -265.3689 99.4336 -265.3608 95.3257 C-265.3695 94.1428 -265.3782 92.9599 -265.3872 91.7412 C-265.2984 75.178 -259.8351 61.2403 -248.3164 49.2148 C-238.6101 39.9341 -228.1461 34.9948 -215.3125 31.375 C-214.1885 31.0502 -213.0645 30.7253 -211.9065 30.3906 C-208.6843 29.4632 -205.4596 28.546 -202.2333 27.6332 C-199.8112 26.9465 -197.3904 26.2554 -194.9697 25.5635 C-189.6272 24.0367 -184.2828 22.5169 -178.9375 21 C-178.0602 20.7506 -177.1829 20.5013 -176.279 20.2443 C-173.7792 19.5349 -171.2785 18.8293 -168.7773 18.125 C-168.0202 17.9098 -167.2631 17.6946 -166.4831 17.4728 C-161.2298 16 -161.2298 16 -159 16 C-158.01 19.3 -157.02 22.6 -156 26 C-155.34 26 -154.68 26 -154 26 C-152.2721 28.0052 -150.6595 30.0188 -149.0625 32.125 C-148.0693 33.4143 -147.0758 34.7033 -146.082 35.9922 C-145.5724 36.657 -145.0627 37.3219 -144.5376 38.0068 C-143.0651 39.9157 -141.5747 41.8084 -140.0742 43.6953 C-139.6004 44.292 -139.1266 44.8887 -138.6384 45.5034 C-137.7501 46.6208 -136.8605 47.7372 -135.969 48.8521 C-132.0966 53.7498 -128.5469 58.8635 -125 64 C-124.9802 63.0714 -124.9604 62.1428 -124.9399 61.186 C-124.8619 57.7455 -124.7752 54.3054 -124.6826 50.8652 C-124.6443 49.3754 -124.6095 47.8855 -124.5781 46.3955 C-124.5325 44.2555 -124.4745 42.1162 -124.4141 39.9766 C-124.3826 38.6883 -124.3512 37.4 -124.3188 36.0728 C-124 33 -124 33 -122 31 C-116.2883 31.2575 -112.1069 33.148 -107.1602 35.7383 C-105.6706 36.4837 -104.1803 37.2278 -102.6895 37.9707 C-100.3671 39.1401 -98.051 40.3185 -95.7454 41.5208 C-93.5012 42.6849 -91.24 43.8076 -88.9727 44.9258 C-88.2922 45.2933 -87.6117 45.6608 -86.9107 46.0394 C-83.8516 47.5161 -82.0569 48.3273 -78.7248 47.2955 C-76.7224 46.3017 -74.857 45.2421 -73 44 C-81.9346 37.4861 -90.8617 31.0073 -100.1055 24.9375 C-103.8889 22.405 -107.5768 19.7465 -111.2671 17.0815 C-117.4112 12.664 -123.676 8.4249 -129.9553 4.2024 C-130.7409 3.6703 -131.5265 3.1381 -132.3359 2.5898 C-133.0428 2.1141 -133.7497 1.6384 -134.478 1.1482 C-134.7292 0.9587 -134.7292 0.9587 -136 0 C-136 -0.33 -136 -0.66 -136 -1 C-118.5632 -1.1771 -101.1264 -1.3428 -83.6893 -1.4948 C-75.5934 -1.5656 -67.4976 -1.6402 -59.4019 -1.7236 C-52.3475 -1.7963 -45.2931 -1.862 -38.2386 -1.9191 C-34.5016 -1.9497 -30.7646 -1.9838 -27.0277 -2.0263 C-22.8611 -2.0735 -18.6946 -2.1051 -14.5278 -2.1353 C-13.282 -2.1518 -12.0362 -2.1683 -10.7527 -2.1854 C-9.6224 -2.191 -8.4922 -2.1967 -7.3277 -2.2025 C-6.3413 -2.2118 -5.355 -2.221 -4.3388 -2.2305 C-2 -2 -2 -2 0 0 Z " fill="#010101" transform="translate(575,72)"/>
<path d="M0 0 C-4.6622 3.3396 -9.3295 6.672 -14 10 C-14.6524 10.4652 -15.3049 10.9304 -15.9771 11.4097 C-25.6449 18.2947 -35.3992 25.0397 -45.25 31.6609 C-51.0154 35.5595 -56.5633 39.6545 -62 44 C-59.022 46.4117 -57.7076 47.3986 -54 48 C-48.4196 46.3288 -43.4368 43.6091 -38.3125 40.875 C-36.8993 40.1481 -35.4846 39.4241 -34.0684 38.7031 C-32.0691 37.6843 -30.0731 36.6618 -28.0877 35.6162 C-18.0317 30.32 -18.0317 30.32 -13 31 C-10.6429 34.5356 -10.6999 36.2203 -10.5859 40.418 C-10.5473 41.6716 -10.5086 42.9252 -10.4688 44.2168 C-10.4533 44.872 -10.4533 44.872 -10.375 48.1875 C-10.3368 49.5228 -10.2978 50.8581 -10.2578 52.1934 C-10.1634 55.4621 -10.0778 58.7308 -10 62 C-2.5514 52.9422 4.7722 43.8216 11.7722 34.4104 C12.0277 34.0707 12.0277 34.0707 13.3203 32.3516 C13.7665 31.7517 14.2127 31.1518 14.6724 30.5337 C16 29 16 29 19 27 C16.9074 35.6242 13.9425 43.8574 10.8219 52.1475 C4.7816 68.2143 -0.999 84.3683 -6.6875 100.5625 C-12.8749 118.1688 -19.1225 135.7516 -25.4375 153.3125 C-32.3491 172.5383 -39.1717 191.7938 -45.9376 211.0713 C-53.5443 232.7432 -61.246 254.3803 -69 276 C-71 275 -71 275 -72.366 271.438 C-72.9012 269.8179 -73.4283 268.1951 -73.9492 266.5703 C-74.2383 265.6904 -74.5274 264.8106 -74.8253 263.904 C-75.4541 261.9886 -76.0798 260.0721 -76.7026 258.1548 C-78.3825 252.9869 -80.0882 247.8276 -81.793 242.668 C-82.1431 241.6067 -82.4933 240.5454 -82.8541 239.452 C-86.2878 229.0731 -89.875 218.7508 -93.5 208.4375 C-98.6185 193.8588 -103.6584 179.2562 -108.625 164.625 C-113.2818 150.9115 -117.996 137.2208 -122.8125 123.5625 C-123.0831 122.795 -123.3537 122.0275 -123.6325 121.2368 C-124.1697 119.7131 -124.707 118.1895 -125.2442 116.6658 C-125.5039 115.9292 -125.7637 115.1925 -126.0312 114.4336 C-126.287 113.7083 -126.5427 112.9831 -126.8062 112.2358 C-130.9366 100.5133 -134.977 88.7598 -139 77 C-139.3119 76.0887 -139.6237 75.1773 -139.9451 74.2383 C-142.1189 67.8849 -144.2898 61.5304 -146.4579 55.175 C-147.1911 53.0259 -147.9249 50.8771 -148.6591 48.7283 C-149.6923 45.7036 -150.7234 42.6781 -151.7539 39.6523 C-152.067 38.737 -152.38 37.8217 -152.7026 36.8786 C-152.8468 36.4545 -152.8468 36.4545 -153.5764 34.3083 C-153.8283 33.5698 -154.0801 32.8312 -154.3396 32.0702 C-154.9804 30.0614 -155.5129 28.0509 -156 26 C-155.34 26 -154.68 26 -154 26 C-152.2721 28.0052 -150.6595 30.0188 -149.0625 32.125 C-148.0693 33.4143 -147.0758 34.7033 -146.082 35.9922 C-145.5724 36.657 -145.0627 37.3219 -144.5376 38.0068 C-143.0651 39.9157 -141.5747 41.8084 -140.0742 43.6953 C-139.6004 44.292 -139.1266 44.8887 -138.6384 45.5034 C-137.7501 46.6208 -136.8605 47.7372 -135.969 48.8521 C-132.0966 53.7498 -128.5469 58.8635 -125 64 C-124.9802 63.0714 -124.9604 62.1428 -124.9399 61.186 C-124.8619 57.7455 -124.7752 54.3054 -124.6826 50.8652 C-124.6443 49.3754 -124.6095 47.8855 -124.5781 46.3955 C-124.5325 44.2555 -124.4745 42.1162 -124.4141 39.9766 C-124.3826 38.6883 -124.3512 37.4 -124.3188 36.0728 C-124 33 -124 33 -122 31 C-116.2883 31.2575 -112.1069 33.148 -107.1602 35.7383 C-105.6706 36.4837 -104.1803 37.2278 -102.6895 37.9707 C-100.3671 39.1401 -98.051 40.3185 -95.7454 41.5208 C-93.5012 42.6849 -91.24 43.8076 -88.9727 44.9258 C-88.6324 45.1095 -88.6324 45.1095 -86.9107 46.0394 C-83.8516 47.5161 -82.0569 48.3273 -78.7248 47.2955 C-76.7224 46.3017 -74.857 45.2421 -73 44 C-81.9346 37.4861 -90.8617 31.0073 -100.1055 24.9375 C-103.8889 22.405 -107.5768 19.7465 -111.2671 17.0815 C-117.4112 12.664 -123.676 8.4249 -129.9553 4.2024 C-130.7409 3.6703 -131.5265 3.1381 -132.3359 2.5898 C-133.0428 2.1141 -133.7497 1.6384 -134.478 1.1482 C-134.9803 0.7693 -135.4825 0.3904 -136 0 C-136 -0.33 -136 -0.66 -136 -1 C-118.5632 -1.1771 -101.1264 -1.3428 -83.6893 -1.4948 C-75.5934 -1.5656 -67.4976 -1.6402 -59.4019 -1.7236 C-52.3475 -1.7963 -45.2931 -1.862 -38.2386 -1.9191 C-34.5016 -1.9497 -30.7646 -1.9838 -27.0277 -2.0263 C-22.8611 -2.0735 -18.6946 -2.1051 -14.5278 -2.1353 C-13.282 -2.1518 -12.0362 -2.1683 -10.7527 -2.1854 C-9.6224 -2.191 -8.4922 -2.1967 -7.3277 -2.2025 C-6.3413 -2.2118 -5.355 -2.221 -4.3388 -2.2305 C-2 -2 -2 -2 0 0 Z " fill="#FDFDFD" transform="translate(575,72)"/>
<path d="M0 0 C7.7019 21.9872 15.3626 43.9867 22.8649 66.0428 C27.2629 78.9679 31.7353 91.8652 36.25 104.75 C42.3267 122.0946 48.2582 139.486 54.1486 156.8946 C59.6078 173.0244 65.158 189.119 70.7959 205.1872 C77.063 223.0591 83.0764 241.0116 89 259 C92.6789 250.2972 95.7105 241.37 98.7961 232.4454 C100.4582 227.6398 102.1293 222.8374 103.8008 218.0352 C104.1472 217.0396 104.4937 216.0441 104.8506 215.0184 C108.502 204.5382 112.2132 194.0795 115.9375 183.625 C116.2692 182.6938 116.6009 181.7627 116.9426 180.8033 C118.2907 177.0194 119.6391 173.2356 120.9881 169.452 C123.2964 162.9776 125.5992 156.5011 127.8984 150.0234 C139.5584 117.1786 151.3225 84.3712 163.1055 51.5703 C163.742 49.798 164.3786 48.0257 165.0151 46.2534 C166.1633 43.0569 167.3121 39.8606 168.4614 36.6646 C168.9809 35.2191 169.5002 33.7736 170.0195 32.3281 C170.1432 31.9841 170.1432 31.9841 170.7692 30.243 C172.0643 26.6338 173.3459 23.0203 174.6108 19.4004 C174.877 18.6401 175.1432 17.8797 175.4174 17.0964 C175.9199 15.6587 176.4203 14.2203 176.9182 12.7811 C178.4379 8.4331 180.1436 4.2157 182 0 C183.98 0.33 185.96 0.66 188 1 C186.68 1.33 185.36 1.66 184 2 C184.2336 2.5645 184.4673 3.1291 184.708 3.7107 C187.6424 10.9107 190.2282 18.2092 192.75 25.5625 C192.8574 25.8748 192.8574 25.8748 193.4012 27.4555 C198.6751 42.7981 203.7542 58.2148 208.3042 73.7891 C209.0035 76.011 209.8238 78.1499 210.6875 80.3125 C211.8778 83.6568 212.1245 85.5547 212 89 C209.0638 89.8381 206.1262 90.6706 203.1875 91.5 C202.7708 91.6192 202.7708 91.6192 200.6621 92.2227 C199.8597 92.4482 199.0572 92.6738 198.2305 92.9062 C197.4921 93.1157 196.7537 93.3252 195.9929 93.541 C194 94 194 94 191 94 C195.7601 99.5931 200.746 104.8688 206 110 C204.3998 115.221 201.1033 118.9905 197.75 123.1875 C196.479 124.7994 195.2082 126.4113 193.9375 128.0234 C193.2852 128.8468 192.633 129.6702 191.9609 130.5186 C188.8681 134.4324 185.8094 138.3725 182.75 142.3125 C182.1617 143.069 181.5734 143.8255 180.9673 144.605 C174.7111 152.6511 168.4901 160.7234 162.3203 168.8359 C160.9636 170.6198 159.6068 172.4037 158.25 174.1875 C157.9063 174.6395 157.9063 174.6395 156.1667 176.9268 C151.7941 182.6682 147.3826 188.377 142.9375 194.0625 C138.048 200.3189 133.2496 206.6368 128.5 213 C122.5935 220.9111 116.5906 228.7385 110.5039 236.5117 C108.034 239.6664 105.5871 242.8376 103.1523 246.0195 C102.8362 246.431 102.8362 246.431 101.2366 248.5132 C100.0259 250.0898 98.8192 251.6694 97.6169 253.2524 C97.3437 253.6072 97.3437 253.6072 95.9609 255.4023 C95.7227 255.7143 95.7227 255.7143 94.5171 257.2927 C92.8476 259.1715 91.0522 260.5582 89 262 C84.2931 257.6081 80.545 252.6397 76.6875 247.5 C75.2631 245.6158 73.8387 243.7317 72.4141 241.8477 C71.6861 240.8823 70.9581 239.917 70.208 238.9224 C66.6762 234.248 63.1177 229.594 59.5625 224.9375 C54.8327 218.7339 50.1262 212.5149 45.457 206.2656 C42.0621 201.739 38.6201 197.2481 35.1875 192.75 C29.9511 185.8875 24.7411 179.0071 19.5745 172.092 C15.4615 166.5955 11.2946 161.1411 7.125 155.6875 C1.2992 148.0641 -4.4463 140.3877 -10.0994 132.6353 C-12.714 129.0586 -15.3534 125.5202 -18.1289 122.0664 C-18.606 121.4689 -19.0831 120.8714 -19.5747 120.2559 C-20.8398 118.6839 -22.1204 117.1246 -23.4023 115.5664 C-25 113 -25 113 -25.0859 110.9961 C-23.46 108.0073 -21.1293 105.8186 -18.6875 103.5 C-18.2009 103.0269 -17.7143 102.5538 -17.2129 102.0664 C-15.8132 100.7062 -14.4067 99.353 -13 98 C-11.6633 96.67 -10.3286 95.3381 -9 94 C-10.0519 93.9175 -11.1037 93.835 -12.1875 93.75 C-18.3331 93.0081 -24.14 90.9206 -30 89 C-29.4117 83.9725 -28.3325 79.5257 -26.6992 74.707 C-26.4667 74.015 -26.2341 73.323 -25.9946 72.61 C-25.2312 70.3422 -24.4594 68.0774 -23.6875 65.8125 C-23.1512 64.2252 -22.6155 62.6377 -22.0803 61.05 C-21.2457 58.5746 -20.4105 56.0993 -19.573 53.6249 C-17.5725 47.7132 -15.5991 41.7929 -13.6406 35.8672 C-13.0981 34.2281 -12.5555 32.589 -12.0129 30.95 C-11.2309 28.5871 -10.4496 26.2241 -9.6707 23.8603 C-8.9487 21.6702 -8.2228 19.4815 -7.4961 17.293 C-7.0854 16.0506 -6.6748 14.8081 -6.2517 13.5281 C-4.9766 9.9341 -3.5395 6.487 -2 3 C-3.98 3 -5.96 3 -8 3 C-5.2257 1.1505 -3.3596 0 0 0 Z " fill="#373737" transform="translate(416,88)"/>
<path d="M0 0 C0.9526 0.3609 1.9052 0.7219 2.8867 1.0938 C4.1535 1.5629 5.4204 2.0317 6.6875 2.5 C7.3133 2.7385 7.9392 2.977 8.584 3.2227 C12.1819 4.5413 15.1652 5.2933 19 5 C19.165 5.495 19.165 5.495 20 8 C22.5469 8.9141 22.5469 8.9141 25.75 9.625 C26.2734 9.7449 26.2734 9.7449 28.9219 10.3516 C31.6115 10.9182 34.3028 11.4706 37 12 C37 12.66 37 13.32 37 14 C38.7268 14.5081 40.4566 15.0061 42.1875 15.5 C43.1504 15.7784 44.1134 16.0569 45.1055 16.3438 C48 17 48 17 50.7383 16.9062 C51.4846 16.9372 52.231 16.9681 53 17 C53.33 17.495 53.33 17.495 55 20 C58.0469 21.1328 58.0469 21.1328 61.75 22.125 C62.9617 22.4576 64.1734 22.7902 65.4219 23.1328 C70.68 24.4072 75.6001 25.0757 81.0137 25.239 C96.081 25.7484 107.7067 30.799 118.2148 41.8086 C122.6313 47.2301 124.8764 53.1383 126.5 59.875 C127.6442 64.5908 129.0527 66.1196 133 69 C133.6545 72.4908 133.541 74.1684 131.598 77.1552 C127.5695 80.0158 123.6963 79.5578 118.8699 79.5176 C118.3549 79.5211 118.3549 79.5211 115.749 79.5388 C112.3363 79.5565 108.9244 79.5447 105.5117 79.5312 C103.132 79.5339 100.7522 79.5378 98.3725 79.5428 C93.3748 79.5488 88.3773 79.5402 83.3796 79.5215 C77.0092 79.4988 70.6395 79.5117 64.2691 79.5358 C59.347 79.5503 54.4251 79.5456 49.5031 79.5353 C47.157 79.5326 44.8109 79.5358 42.4648 79.5452 C29.6804 79.585 18.1381 79.2947 6 75 C5.0771 74.6868 4.1542 74.3735 3.2034 74.0508 C0.3015 73.0471 -2.5606 71.953 -5.4258 70.8496 C-10.6897 68.8966 -10.6897 68.8966 -14 70 C-14.33 72.97 -14.66 75.94 -15 79 C-35.79 79 -56.58 79 -78 79 C-78 73.39 -78 67.78 -78 62 C-78.33 60.02 -78.66 58.04 -79 56 C-80.1983 37.3574 -75.5291 21.8981 -68 5 C-63.9271 5 -63.4741 5.0726 -60.4375 7.25 C-48.6196 15.0255 -35.0507 16.5942 -21.375 13.875 C-12.9233 11.747 -6.8142 7.3593 -1 1 C-0.67 0.67 -0.34 0.34 0 0 Z " fill="#030303" transform="translate(594,895)"/>
<path d="M0 0 C1.7188 1.4531 1.7188 1.4531 3.5 3.25 C12.2504 11.2139 23.2909 13.353 34.7852 13.2109 C43.6417 12.6298 50.936 9.9022 58.5273 5.4023 C60.9614 4.0219 63.3821 2.9788 66 2 C74.59 22.5819 79.7544 40.4734 76 63 C76 67.62 76 72.24 76 77 C55.21 77 34.42 77 13 77 C12.67 73.37 12.34 69.74 12 66 C11.3709 66.2295 11.3709 66.2295 8.1875 67.3906 C-2.4585 71.2236 -12.9747 74.4479 -24 77 C-24 67.1 -24 57.2 -24 47 C-57 47 -90 47 -124 47 C-115.7047 34.557 -107.5362 27.5034 -93 24 C-90.2941 23.7864 -87.645 23.6379 -84.9375 23.5625 C-77.0503 23.2235 -69.6709 21.8981 -62 20 C-61.1389 19.8234 -60.2778 19.6468 -59.3906 19.4648 C-57.1875 19 -57.1875 19 -54 18 C-53.835 17.505 -53.835 17.505 -53 15 C-51.8037 14.8763 -50.6075 14.7525 -49.375 14.625 C-45.7137 14.1576 -42.4151 13.4636 -39 12 C-38.34 11.01 -37.68 10.02 -37 9 C-34.6671 8.956 -32.333 8.9605 -30 9 C-28.313 8.3866 -26.6403 7.729 -25 7 C-24.01 7 -23.02 7 -22 7 C-21.67 5.68 -21.34 4.36 -21 3 C-20.0512 3.0825 -19.1025 3.165 -18.125 3.25 C-13.7172 3.2949 -10.2698 1.6191 -6.332 -0.2227 C-3.6388 -1.1204 -2.589 -1.1126 0 0 Z " fill="#040404" transform="translate(424,897)"/>
<path d="M0 0 C-4.6622 3.3396 -9.3295 6.672 -14 10 C-14.6524 10.4652 -15.3049 10.9304 -15.9771 11.4097 C-25.6449 18.2947 -35.3992 25.0397 -45.25 31.6609 C-51.0154 35.5595 -56.5633 39.6545 -62 44 C-59.022 46.4117 -57.7076 47.3986 -54 48 C-48.4196 46.3288 -43.4368 43.6091 -38.3125 40.875 C-36.8993 40.1481 -35.4846 39.4241 -34.0684 38.7031 C-32.0691 37.6843 -30.0731 36.6618 -28.0877 35.6162 C-18.459 30.5451 -18.459 30.5451 -13 31 C-11.2943 32.7057 -11.8725 34.9073 -11.8706 37.2383 C-11.8675 38.3561 -11.8643 39.474 -11.8611 40.6257 C-11.8621 41.234 -11.8621 41.234 -11.8672 44.3125 C-11.8662 45.5517 -11.8653 46.7909 -11.8643 48.0676 C-11.8636 50.6939 -11.865 53.32 -11.8696 55.9463 C-11.8753 59.3193 -11.872 62.6922 -11.8661 66.0652 C-11.8616 69.2726 -11.8647 72.4801 -11.8672 75.6875 C-11.8652 76.9041 -11.8631 78.1208 -11.8611 79.3743 C-11.8626 79.9332 -11.8626 79.9332 -11.8706 82.7617 C-11.8714 83.7513 -11.8722 84.7409 -11.873 85.7605 C-12 88 -12 88 -13 89 C-18.6796 88.6142 -22.9109 86.8867 -27.9453 84.332 C-29.449 83.5966 -30.9529 82.8616 -32.457 82.127 C-34.8017 80.9679 -37.1433 79.8033 -39.481 78.6301 C-41.7534 77.4944 -44.0358 76.3808 -46.3203 75.2695 C-47.0163 74.9124 -47.7122 74.5552 -48.4292 74.1872 C-53.3491 71.8141 -53.3491 71.8141 -56.728 72.7791 C-57.4778 73.182 -58.2275 73.5849 -59 74 C-61.0488 74.2588 -61.0488 74.2588 -63.0312 74.2656 C-63.7596 74.2682 -64.4879 74.2708 -65.2383 74.2734 C-65.9846 74.2657 -66.731 74.258 -67.5 74.25 C-67.8732 74.2539 -67.8732 74.2539 -69.7617 74.2734 C-70.1259 74.2721 -70.1259 74.2721 -71.9688 74.2656 C-72.6229 74.2634 -73.2771 74.2611 -73.9512 74.2588 C-76 74 -76 74 -78.2402 72.7632 C-82.5593 71.5688 -85.332 73.5481 -89.1875 75.5234 C-89.9676 75.9036 -90.7477 76.2838 -91.5515 76.6754 C-94.043 77.892 -96.5219 79.1316 -99 80.375 C-101.4793 81.6084 -103.9609 82.8364 -106.4485 84.0531 C-107.9951 84.8106 -109.5369 85.5781 -111.073 86.3568 C-114.8141 88.1991 -117.7181 89.625 -122 89 C-123.7057 87.2943 -123.1275 85.0927 -123.1294 82.7617 C-123.131 82.2028 -123.131 82.2028 -123.1389 79.3743 C-123.1379 78.766 -123.1379 78.766 -123.1328 75.6875 C-123.1338 74.4483 -123.1347 73.2091 -123.1357 71.9324 C-123.1364 69.3061 -123.135 66.68 -123.1304 64.0537 C-123.1247 60.6807 -123.128 57.3078 -123.1339 53.9348 C-123.1384 50.7274 -123.1353 47.5199 -123.1328 44.3125 C-123.1348 43.0959 -123.1369 41.8792 -123.1389 40.6257 C-123.1358 39.5079 -123.1326 38.39 -123.1294 37.2383 C-123.1286 36.2487 -123.1278 35.2591 -123.127 34.2395 C-123 32 -123 32 -122 31 C-116.3086 31.3776 -112.1677 33.1162 -107.1602 35.7383 C-105.6706 36.4837 -104.1803 37.2278 -102.6895 37.9707 C-100.3671 39.1401 -98.051 40.3185 -95.7454 41.5208 C-93.5012 42.6849 -91.24 43.8076 -88.9727 44.9258 C-88.2922 45.2933 -87.6117 45.6608 -86.9107 46.0394 C-83.8516 47.5161 -82.0569 48.3273 -78.7248 47.2955 C-76.7224 46.3017 -74.857 45.2421 -73 44 C-81.9346 37.4861 -90.8617 31.0073 -100.1055 24.9375 C-103.8889 22.405 -107.5768 19.7465 -111.2671 17.0815 C-117.4112 12.664 -123.676 8.4249 -129.9553 4.2024 C-130.7409 3.6703 -131.5265 3.1381 -132.3359 2.5898 C-133.0428 2.1141 -133.7497 1.6384 -134.478 1.1482 C-134.9803 0.7693 -135.4825 0.3904 -136 0 C-136 -0.33 -136 -0.66 -136 -1 C-118.5632 -1.1771 -101.1264 -1.3428 -83.6893 -1.4948 C-75.5934 -1.5656 -67.4976 -1.6402 -59.4019 -1.7236 C-52.3475 -1.7963 -45.2931 -1.862 -38.2386 -1.9191 C-34.5016 -1.9497 -30.7646 -1.9838 -27.0277 -2.0263 C-22.8611 -2.0735 -18.6946 -2.1051 -14.5278 -2.1353 C-13.282 -2.1518 -12.0362 -2.1683 -10.7527 -2.1854 C-10.1875 -2.1882 -10.1875 -2.1882 -7.3277 -2.2025 C-6.3413 -2.2118 -5.355 -2.221 -4.3388 -2.2305 C-2 -2 -2 -2 0 0 Z " fill="#393939" transform="translate(575,72)"/>
<path d="M0 0 C-4.6622 3.3396 -9.3295 6.672 -14 10 C-14.6524 10.4652 -15.3049 10.9304 -15.9771 11.4097 C-25.6449 18.2947 -35.3992 25.0397 -45.25 31.6609 C-51.0154 35.5595 -56.5633 39.6545 -62 44 C-61.34 44.66 -60.68 45.32 -60 46 C-64.95 46 -69.9 46 -75 46 C-74.34 45.34 -73.68 44.68 -73 44 C-81.9329 37.4838 -90.8618 31.0072 -100.1055 24.9375 C-103.8889 22.405 -107.5768 19.7465 -111.2671 17.0815 C-117.4112 12.664 -123.676 8.4249 -129.9553 4.2024 C-130.7409 3.6703 -131.5265 3.1381 -132.3359 2.5898 C-133.0428 2.1141 -133.7497 1.6384 -134.478 1.1482 C-134.9803 0.7693 -135.4825 0.3904 -136 0 C-136 -0.33 -136 -0.66 -136 -1 C-118.5632 -1.1771 -101.1264 -1.3428 -83.6893 -1.4948 C-75.5934 -1.5656 -67.4976 -1.6402 -59.4019 -1.7236 C-52.3475 -1.7963 -45.2931 -1.862 -38.2386 -1.9191 C-34.5016 -1.9497 -30.7646 -1.9838 -27.0277 -2.0263 C-22.8611 -2.0735 -18.6946 -2.1051 -14.5278 -2.1353 C-13.282 -2.1518 -12.0362 -2.1683 -10.7527 -2.1854 C-10.1875 -2.1882 -10.1875 -2.1882 -7.3277 -2.2025 C-6.3413 -2.2118 -5.355 -2.221 -4.3388 -2.2305 C-2 -2 -2 -2 0 0 Z " fill="#DADADA" transform="translate(575,72)"/>
<path d="M0 0 C0.2269 0.5775 0.4538 1.155 0.6875 1.75 C2 4 2 4 4.625 5.875 C7 8 7 8 7.5625 11 C6.8455 14.8242 6.1774 15.7437 3 18 C-0.3717 18.6066 -3.7121 18.5461 -7.1301 18.5176 C-7.6451 18.5211 -7.6451 18.5211 -10.251 18.5388 C-13.6637 18.5565 -17.0756 18.5447 -20.4883 18.5312 C-22.868 18.5339 -25.2478 18.5378 -27.6275 18.5428 C-32.6252 18.5488 -37.6227 18.5402 -42.6204 18.5215 C-48.9908 18.4988 -55.3605 18.5117 -61.7309 18.5358 C-66.653 18.5503 -71.5749 18.5456 -76.4969 18.5353 C-78.843 18.5326 -81.1891 18.5358 -83.5352 18.5452 C-96.3196 18.585 -107.8619 18.2947 -120 14 C-120.9229 13.6868 -121.8458 13.3735 -122.7966 13.0508 C-125.6985 12.0471 -128.5606 10.953 -131.4258 9.8496 C-136.6897 7.8966 -136.6897 7.8966 -140 9 C-140.33 11.97 -140.66 14.94 -141 18 C-161.79 18 -182.58 18 -204 18 C-203.67 12.39 -203.34 6.78 -203 1 C-202.67 2.32 -202.34 3.64 -202 5 C-135.34 5 -68.68 5 0 5 C0 3.35 0 1.7 0 0 Z " fill="#3C3C3C" transform="translate(720,956)"/>
<path d="M0 0 C0.33 0 0.66 0 1 0 C1 102.96 1 205.92 1 312 C18.82 312 36.64 312 55 312 C55 337.41 55 362.82 55 389 C56.98 389 58.96 389 61 389 C61 389.33 61 389.66 61 390 C48.0575 389.5943 38.5777 386.9894 29 378 C21.6665 370.1439 17.8802 360.2238 17.8672 349.5156 C17.8659 348.4986 17.8646 347.4815 17.8633 346.4336 C17.8671 345.383 17.871 344.3324 17.875 343.25 C17.8731 342.717 17.8731 342.717 17.8633 340.0195 C17.8646 339.0076 17.8659 337.9957 17.8672 336.9531 C17.8683 336.0266 17.8694 335.1001 17.8706 334.1455 C18 332 18 332 19 331 C21.5209 330.9115 24.0143 330.8847 26.5352 330.9023 C26.9118 330.9031 26.9118 330.9031 28.8177 330.9066 C31.2327 330.9122 33.6476 330.9248 36.0625 330.9375 C37.696 330.9425 39.3294 330.9471 40.9629 330.9512 C44.9753 330.9614 48.9876 330.9809 53 331 C53.33 325.06 53.66 319.12 54 313 C36.18 313 18.36 313 0 313 C0 209.71 0 106.42 0 0 Z " fill="#F5E3CC" transform="translate(310,154)"/>
<path d="M0 0 C4.8238 -0.0247 9.6476 -0.0428 14.4714 -0.0549 C16.1137 -0.06 17.7559 -0.0668 19.3982 -0.0754 C21.7538 -0.0875 24.1093 -0.0932 26.4648 -0.0977 C27.2034 -0.1028 27.9419 -0.108 28.7029 -0.1133 C30.469 -0.1135 32.235 -0.0619 34 0 C36.7274 2.7274 35.2849 10.7735 35.3125 14.4375 C35.3415 15.6847 35.3705 16.9318 35.4004 18.2168 C35.4771 29.4485 32.9758 38.7856 25 47 C17.3997 53.3506 9.8645 56.9724 0 58 C-1.2565 55.487 -1.127 53.7675 -1.1294 50.9553 C-1.1325 49.9041 -1.1357 48.8528 -1.1389 47.7697 C-1.1369 46.6301 -1.1349 45.4905 -1.1328 44.3164 C-1.1338 43.15 -1.1347 41.9835 -1.1357 40.7817 C-1.1364 38.3111 -1.1345 35.8405 -1.1304 33.3699 C-1.125 29.5818 -1.1303 25.7939 -1.1367 22.0059 C-1.1361 19.6094 -1.1348 17.2129 -1.1328 14.8164 C-1.1348 13.6789 -1.1369 12.5413 -1.1389 11.3693 C-1.1358 10.3149 -1.1326 9.2604 -1.1294 8.1741 C-1.1286 7.2452 -1.1278 6.3164 -1.127 5.3594 C-1 3 -1 3 0 0 Z " fill="#F7E3CC" transform="translate(652,485)"/>
<path d="M0 0 C1.7057 1.7057 1.1275 3.9073 1.1294 6.2383 C1.1325 7.3561 1.1357 8.474 1.1389 9.6257 C1.1369 10.8424 1.1349 12.059 1.1328 13.3125 C1.1338 14.5517 1.1347 15.7909 1.1357 17.0676 C1.1364 19.6939 1.135 22.32 1.1304 24.9463 C1.1247 28.3193 1.128 31.6922 1.1339 35.0652 C1.1384 38.2726 1.1353 41.4801 1.1328 44.6875 C1.1348 45.9041 1.1369 47.1208 1.1389 48.3743 C1.1374 48.9332 1.1374 48.9332 1.1294 51.7617 C1.1286 52.7513 1.1278 53.7409 1.127 54.7605 C1 57 1 57 0 58 C-5.6411 57.5998 -9.9944 55.9136 -15.0508 53.4727 C-15.7908 53.1237 -16.5308 52.7747 -17.2933 52.4151 C-18.8458 51.6807 -20.3962 50.9417 -21.9446 50.1985 C-24.3182 49.0598 -26.6984 47.9361 -29.0801 46.8145 C-30.5916 46.0972 -32.1026 45.3791 -33.6133 44.6602 C-34.3247 44.3236 -35.0361 43.9871 -35.7691 43.6404 C-38.5452 42.3031 -40.8045 41.1955 -43 39 C-42.9671 36.2713 -42.436 33.7033 -42 31 C-40.8566 30.951 -39.7132 30.902 -38.5352 30.8516 C-37.0442 30.7765 -35.5534 30.701 -34.0625 30.625 C-33.3078 30.5941 -32.553 30.5631 -31.7754 30.5312 C-29.8449 30.4274 -27.9206 30.221 -26 30 C-25.67 29.34 -25.34 28.68 -25 28 C-30.61 28 -36.22 28 -42 28 C-43 19.375 -43 19.375 -43 16 C-42.34 16.33 -41.68 16.66 -41 17 C-38.6637 16.0387 -36.4529 15.0169 -34.1992 13.8867 C-33.5258 13.5571 -32.8524 13.2275 -32.1586 12.8879 C-29.9979 11.8285 -27.8426 10.7584 -25.6875 9.6875 C-23.5422 8.6294 -21.3957 7.5735 -19.2485 6.5192 C-17.9115 5.8619 -16.5759 5.202 -15.2416 4.5392 C-5.1839 -0.432 -5.1839 -0.432 0 0 Z " fill="#393939" transform="translate(562,103)"/>
<path d="M0 0 C27.39 0 54.78 0 83 0 C83 6.27 83 12.54 83 19 C55.61 19 28.22 19 0 19 C0 12.73 0 6.46 0 0 Z " fill="#363737" transform="translate(568,407)"/>
<path d="M0 0 C27.39 0 54.78 0 83 0 C83 6.27 83 12.54 83 19 C55.61 19 28.22 19 0 19 C0 12.73 0 6.46 0 0 Z " fill="#353536" transform="translate(365,407)"/>
<path d="M0 0 C2.8985 1.3131 4.9828 2.7268 7.2344 4.9688 C7.808 5.5398 8.3816 6.1109 8.9727 6.6992 C9.5592 7.2935 10.1457 7.8877 10.75 8.5 C11.352 9.0943 11.954 9.6885 12.5742 10.3008 C13.1427 10.8718 13.7112 11.4429 14.2969 12.0312 C14.816 12.5527 15.3352 13.0741 15.8701 13.6113 C17 15 17 15 17 17 C18.32 16.67 19.64 16.34 21 16 C21 22.6 21 29.2 21 36 C4.83 36 -11.34 36 -28 36 C-28 28 -28 28 -26.5994 26.0325 C-25.9465 25.5641 -25.2937 25.0958 -24.6211 24.6133 C-21.2301 21.9802 -18.1381 19.2673 -15.0977 16.2305 C-14.2707 15.4048 -13.4438 14.5792 -12.5918 13.7285 C-12.1745 13.3092 -12.1745 13.3092 -10.0625 11.1875 C-9.2008 10.3296 -8.339 9.4718 -7.4512 8.5879 C-6.6333 7.7687 -5.8154 6.9495 -4.9727 6.1055 C-4.2328 5.3645 -3.493 4.6235 -2.7307 3.8601 C-1 2 -1 2 0 0 Z " fill="#F8C575" transform="translate(623,228)"/>
<path d="M0 0 C2 2 2 2 2 16 C-18.79 16 -39.58 16 -61 16 C-61.165 14.185 -61.165 14.185 -62 5 C-63.2581 5.4589 -64.5163 5.9178 -65.8125 6.3906 C-76.4347 10.2151 -86.9843 13.523 -98 16 C-98 11.71 -98 7.42 -98 3 C-65.66 3 -33.32 3 0 3 C0 2.01 0 1.02 0 0 Z " fill="#363636" transform="translate(498,958)"/>
<path d="M0 0 C0.66 0 1.32 0 2 0 C2.5337 1.0648 3.0673 2.1295 3.6172 3.2266 C12.874 21.3887 24.4578 35.7809 39 50 C38.67 50.165 38.67 50.165 37 51 C34.4806 49.9606 32.1092 48.8613 29.6875 47.625 C28.9749 47.2643 28.2623 46.9036 27.5281 46.532 C19.6128 42.4249 11.4697 37.7602 5.3867 31.168 C3 29 3 29 1.0039 28.9297 C-1.6715 30.3587 -3.7721 32.1348 -6.0625 34.125 C-15.0802 41.6617 -24.9009 47.9461 -36 52 C-36.66 51.67 -37.32 51.34 -38 51 C-37.3593 50.4431 -36.7187 49.8863 -36.0586 49.3125 C-20.3539 35.4568 -9.2109 18.7035 0 0 Z " fill="#363536" transform="translate(506,452)"/>
<path d="M0 0 C0.4599 -0.0122 0.4599 -0.0122 2.7871 -0.0742 C3.6708 -0.0781 4.5544 -0.082 5.4648 -0.0859 C6.2743 -0.0942 7.0837 -0.1024 7.9177 -0.1108 C10.0625 0.375 10.0625 0.375 11.8315 2.2563 C13.9433 5.8911 13.2446 9.2485 13.0625 13.375 C18.6725 13.375 24.2825 13.375 30.0625 13.375 C29.7325 14.365 29.4025 15.355 29.0625 16.375 C23.7825 16.375 18.5025 16.375 13.0625 16.375 C13.0625 19.015 13.0625 21.655 13.0625 24.375 C11.5938 26.8477 11.5938 26.8477 9.0625 28.375 C6.078 28.7481 3.5318 28.8906 0.5625 28.8125 C-0.1968 28.8196 -0.956 28.8267 -1.7383 28.834 C-4.9796 28.7971 -7.5247 28.5775 -10.4531 27.1406 C-13.1833 23.8931 -12.1736 20.4472 -11.9375 16.375 C-17.2175 16.375 -22.4975 16.375 -27.9375 16.375 C-28.2675 15.385 -28.5975 14.395 -28.9375 13.375 C-23.3275 13.375 -17.7175 13.375 -11.9375 13.375 C-11.9787 11.6012 -12.02 9.8275 -12.0625 8 C-12.1328 4.9766 -12.1328 4.9766 -11.9375 2.375 C-8.6468 -0.9157 -4.4698 0.0062 0 0 Z " fill="#040404" transform="translate(506.9375,117.625)"/>
<path d="M0 0 C0.33 0 0.66 0 1 0 C1 102.96 1 205.92 1 312 C18.82 312 36.64 312 55 312 C55 337.41 55 362.82 55 389 C56.98 389 58.96 389 61 389 C61 389.33 61 389.66 61 390 C58.69 390 56.38 390 54 390 C54 384.06 54 378.12 54 372 C53.0203 372.0103 53.0203 372.0103 48.0625 372.0625 C46.0417 372.0838 44.0196 372.0724 42 372 C41 371 41 371 40.8865 368.7751 C40.8917 367.8168 40.8969 366.8585 40.9023 365.8711 C40.9056 364.8366 40.9088 363.8021 40.9121 362.7363 C40.9163 362.192 40.9163 362.192 40.9375 359.4375 C40.942 358.345 40.9465 357.2525 40.9512 356.127 C40.963 353.4179 40.9809 350.709 41 348 C45.29 348 49.58 348 54 348 C54 336.45 54 324.9 54 313 C36.18 313 18.36 313 0 313 C0 209.71 0 106.42 0 0 Z " fill="#A19180" transform="translate(310,154)"/>
<path d="M0 0 C0.33 0 0.66 0 1 0 C1 4.62 1 9.24 1 14 C-19.79 14 -40.58 14 -62 14 C-62.165 12.185 -62.165 12.185 -63 3 C-64.2581 3.4589 -65.5163 3.9178 -66.8125 4.3906 C-77.4347 8.2151 -87.9843 11.523 -99 14 C-99 9.71 -99 5.42 -99 1 C-86.46 1 -73.92 1 -61 1 C-61 4.96 -61 8.92 -61 13 C-40.87 13 -20.74 13 0 13 C0 8.71 0 4.42 0 0 Z " fill="#424242" transform="translate(499,960)"/>
<path d="M0 0 C0 6.6 0 13.2 0 20 C-9.57 20 -19.14 20 -29 20 C-24.9762 15.9762 -21.2251 12.7455 -16.6875 9.4375 C-16.0617 8.9689 -15.4358 8.5004 -14.791 8.0176 C-3.858 0 -3.858 0 0 0 Z " fill="#FBFCF9" transform="translate(644,244)"/>
<path d="M0 0 C4.29 0 8.58 0 13 0 C13 7.92 13 15.84 13 24 C8.71 24 4.42 24 0 24 C0 16.08 0 8.16 0 0 Z " fill="#E1BE98" transform="translate(651,502)"/>
<path d="M0 0 C0.66 0 1.32 0 2 0 C3.7279 2.0052 5.3405 4.0188 6.9375 6.125 C7.9307 7.4143 8.9242 8.7033 9.918 9.9922 C10.1728 10.3246 10.1728 10.3246 11.4624 12.0068 C12.9349 13.9157 14.4253 15.8084 15.9258 17.6953 C16.1627 17.9936 16.1627 17.9936 17.3616 19.5034 C18.2499 20.6208 19.1395 21.7372 20.031 22.8521 C23.9225 27.774 27.3786 32.8266 31 38 C31.33 27.77 31.66 17.54 32 7 C32.33 7 32.66 7 33 7 C33 24.82 33 42.64 33 61 C32.67 61 32.34 61 32 61 C32.0438 59.912 32.0877 58.8241 32.1328 57.7031 C32.2516 45.8842 29.3486 40.5841 21 32 C19.3214 29.9219 17.7643 27.7848 16.1875 25.625 C13.8506 22.4594 11.5101 19.3523 8.9375 16.375 C7 14 7 14 7 12 C6.01 12.33 5.02 12.66 4 13 C3.3294 11.2098 2.6637 9.4178 2 7.625 C1.6288 6.6273 1.2575 5.6295 0.875 4.6016 C0 2 0 2 0 0 Z " fill="#CECECF" transform="translate(419,98)"/>
<path d="M0 0 C1.3177 2.6353 0.7585 3.5458 -0.125 6.3125 C-0.2397 6.6921 -0.2397 6.6921 -0.8203 8.6133 C-2.3584 11.7252 -4.5077 13.5903 -7 16 C-8.8196 18.1549 -10.5324 20.3884 -12.25 22.625 C-13.21 23.8614 -14.171 25.097 -15.1328 26.332 C-15.6101 26.9451 -16.0874 27.5583 -16.5791 28.1899 C-25.3024 39.3024 -25.3024 39.3024 -28 42 C-28.1558 43.3402 -28.2504 44.6876 -28.3164 46.0352 C-28.3583 46.844 -28.4002 47.6529 -28.4434 48.4863 C-28.4827 49.3365 -28.522 50.1866 -28.5625 51.0625 C-28.6057 51.9165 -28.6489 52.7705 -28.6934 53.6504 C-28.7998 55.7667 -28.9004 57.8833 -29 60 C-29.33 60 -29.66 60 -30 60 C-30 42.51 -30 25.02 -30 7 C-29.67 7 -29.34 7 -29 7 C-28.67 16.24 -28.34 25.48 -28 35 C-20.5522 25.9153 -13.2199 16.7846 -6.1399 7.4104 C-5.6258 6.731 -5.1117 6.0516 -4.582 5.3516 C-4.1306 4.7517 -3.6792 4.1518 -3.2141 3.5337 C-2 2 -2 2 0 0 Z " fill="#D3D4D4" transform="translate(593,99)"/>
<path d="M0 0 C2.875 2.0625 2.875 2.0625 5 5 C5 8.546 4.7209 10.8618 2.8125 13.875 C0.0885 15.5658 -1.7847 16 -5 16 C-7.875 14 -7.875 14 -10 11 C-10.625 7.4375 -10.625 7.4375 -10 4 C-6.9975 0.6543 -4.5051 -1.0137 0 0 Z " fill="#363636" transform="translate(519,421)"/>
<path d="M0 0 C3.625 0.5625 3.625 0.5625 6.625 2.625 C8.625 5.5625 8.625 5.5625 8.6875 9.1875 C7.625 12.5625 7.625 12.5625 5.9375 14.5 C2.889 15.9007 0.9457 16.0468 -2.375 15.5625 C-4.75 14 -4.75 14 -6.375 11.5625 C-6.8317 7.9085 -6.7878 5.5096 -5.3125 2.125 C-3.375 0.5625 -3.375 0.5625 0 0 Z " fill="#363636" transform="translate(515.375,378.4375)"/>
<path d="M0 0 C1.32 0.66 2.64 1.32 4 2 C4 2.99 4 3.98 4 5 C1.832 6.6914 1.832 6.6914 -1.1875 8.5625 C-4.7335 10.7792 -7.9632 12.86 -10.9883 15.7461 C-17.6876 21.9797 -22.5345 23.8277 -31.8125 23.625 C-34.891 23.4954 -37.9294 23.2755 -41 23 C-41.4902 15.6477 -41.4902 15.6477 -39.25 12.6875 C-38.5075 12.1306 -37.765 11.5737 -37 11 C-36.2575 10.4225 -35.515 9.845 -34.75 9.25 C-34.1725 8.8375 -33.595 8.425 -33 8 C-33 11.936 -34.5802 12.9936 -37 16 C-37.75 18.3125 -37.75 18.3125 -38 20 C-30.7322 21.3214 -24.8464 20.8396 -18.125 17.625 C-16 16 -16 16 -14.4375 13.8125 C-13.9631 13.2144 -13.4887 12.6163 -13 12 C-11.68 12 -10.36 12 -9 12 C-9 11.34 -9 10.68 -9 10 C-8.34 10 -7.68 10 -7 10 C-7 9.34 -7 8.68 -7 8 C-5.1875 5.875 -5.1875 5.875 -3 4 C-2.01 4 -1.02 4 0 4 C0 2.68 0 1.36 0 0 Z " fill="#ECC98E" transform="translate(636,241)"/>
<path d="M0 0 C0.33 0 0.66 0 1 0 C1 4.62 1 9.24 1 14 C-19.79 14 -40.58 14 -62 14 C-62.33 10.37 -62.66 6.74 -63 3 C-65.31 3.33 -67.62 3.66 -70 4 C-69.67 3.01 -69.34 2.02 -69 1 C-66.36 1 -63.72 1 -61 1 C-61 4.96 -61 8.92 -61 13 C-40.87 13 -20.74 13 0 13 C0 8.71 0 4.42 0 0 Z " fill="#696969" transform="translate(499,960)"/>
<path d="M0 0 C1.9375 1.6875 1.9375 1.6875 3 4 C2.7593 7.3704 2.412 8.588 0 11 C-3.137 11.3337 -5.1655 11.5285 -7.875 9.8125 C-9.4066 7.3449 -9.4282 5.8548 -9 3 C-6.7428 -0.6366 -4.0233 -0.5867 0 0 Z " fill="#4E4E4D" transform="translate(699,471)"/>
<path d="M0 0 C3.5625 0.1875 3.5625 0.1875 5.5625 2.1875 C5.8962 5.3245 6.091 7.353 4.375 10.0625 C1.9074 11.5941 0.4173 11.6157 -2.4375 11.1875 C-4.3125 10.125 -4.3125 10.125 -5.4375 8.1875 C-4.8912 0.2668 -4.8912 0.2668 0 0 Z " fill="#4D4E4E" transform="translate(319.4375,470.8125)"/>
<path d="M0 0 C3.5625 0.1875 3.5625 0.1875 5.5625 2.1875 C4.9856 8.7644 4.9856 8.7644 3.5625 10.1875 C-1.656 10.6413 -1.656 10.6413 -4.375 9.0625 C-5.9769 6.2356 -5.2333 4.2382 -4.4375 1.1875 C-3.4375 0.1875 -3.4375 0.1875 0 0 Z " fill="#3A3939" transform="translate(506.4375,286.8125)"/>
<path d="M0 0 C3 0.25 3 0.25 5 2.25 C5.25 5.25 5.25 5.25 5 8.25 C3 10.25 3 10.25 0.0625 10.5625 C-3 10.25 -3 10.25 -4.9375 9.0625 C-6 7.25 -6 7.25 -5.8125 4.6875 C-4.6137 1.0912 -3.8125 0.3177 0 0 Z " fill="#3A3A3A" transform="translate(507,237.75)"/>
<path d="M0 0 C3.625 0.375 3.625 0.375 7 1 C8.3256 7.3871 8.3256 7.3871 6.9375 10 C4.0593 11.4855 2.0547 10.7969 -1 10 C-2 9 -2 9 -2.1875 5.5625 C-2 2 -2 2 0 0 Z " fill="#3E3E3E" transform="translate(504,180)"/>
<path d="M0 0 C0.99 0.165 0.99 0.165 6 1 C6.1237 1.825 6.2475 2.65 6.375 3.5 C7.071 7.3977 8.0088 11.1674 9 15 C7.35 14.67 5.7 14.34 4 14 C3.01 11.03 2.02 8.06 1 5 C-1.64 5.33 -4.28 5.66 -7 6 C-4 4 -4 4 -1 4 C-0.67 2.68 -0.34 1.36 0 0 Z " fill="#484748" transform="translate(403,900)"/>
<path d="M0 0 C3.2104 1.3819 5.0494 2.9242 7.25 5.625 C7.7708 6.2566 8.2916 6.8883 8.8281 7.5391 C9.0215 7.7801 9.0215 7.7801 10 9 C9.67 9.165 9.67 9.165 8 10 C6.68 8.35 5.36 6.7 4 5 C2.25 5.1875 2.25 5.1875 0 6 C-0.5569 6.7219 -1.1137 7.4437 -1.6875 8.1875 C-4.393 11.478 -7.3076 13.3023 -10.8711 15.5742 C-13.2149 17.1439 -15.1315 18.8878 -17 21 C-17.66 20.67 -18.32 20.34 -19 20 C-18.46 19.4652 -17.9199 18.9304 -17.3635 18.3794 C-14.9273 15.9639 -12.4948 13.5445 -10.0625 11.125 C-9.2124 10.2832 -8.3622 9.4415 -7.4863 8.5742 C-6.6774 7.7686 -5.8686 6.9629 -5.0352 6.1328 C-4.2863 5.3892 -3.5374 4.6456 -2.7659 3.8794 C-1 2 -1 2 0 0 Z " fill="#EAC489" transform="translate(623,228)"/>
<path d="M0 0 C1.65 0.33 3.3 0.66 5 1 C5 1.66 5 2.32 5 3 C5.66 3.33 6.32 3.66 7 4 C6.01 4.33 5.02 4.66 4 5 C2.832 7.0664 2.832 7.0664 1.8125 9.5625 C1.4683 10.3888 1.1241 11.2151 0.7695 12.0664 C0.5156 12.7045 0.2616 13.3426 0 14 C-1.32 14 -2.64 14 -4 14 C-3.2966 9.0759 -2.2352 4.4705 0 0 Z " fill="#464546" transform="translate(626,906)"/>
<path d="M0 0 C0.99 0.165 0.99 0.165 6 1 C5.67 1.165 5.67 1.165 4 2 C4.3004 2.6033 4.6007 3.2066 4.9102 3.8281 C5.1003 4.2277 5.1003 4.2277 6.0625 6.25 C6.4454 7.0389 6.8282 7.8278 7.2227 8.6406 C8.0856 11.2599 7.9305 12.4486 7 15 C6.01 15 5.02 15 4 15 C3.7345 14.3013 3.4689 13.6027 3.1953 12.8828 C2.8421 11.9727 2.4889 11.0627 2.125 10.125 C1.777 9.2201 1.4289 8.3152 1.0703 7.3828 C0 5 0 5 -2 3 C-1.34 2.01 -0.68 1.02 0 0 Z " fill="#464646" transform="translate(387,906)"/>
<path d="M0 0 C2.125 0.375 2.125 0.375 4 1 C4 1.66 4 2.32 4 3 C4.66 3.33 5.32 3.66 6 4 C5.01 4.33 4.02 4.66 3 5 C1.832 7.0664 1.832 7.0664 0.8125 9.5625 C0.4683 10.3888 0.1241 11.2151 -0.2305 12.0664 C-0.4844 12.7045 -0.7384 13.3426 -1 14 C-2.32 14 -3.64 14 -5 14 C-3.5 3.5 -3.5 3.5 0 0 Z " fill="#3C3C3C" transform="translate(610,900)"/>
<path d="M0 0 C1.65 0 3.3 0 5 0 C5.66 1.32 6.32 2.64 7 4 C5.68 4 4.36 4 3 4 C2.8763 4.9075 2.7525 5.815 2.625 6.75 C2.0789 9.5897 1.4274 11.5259 0 14 C-1.32 13.67 -2.64 13.34 -4 13 C-3.2799 8.3915 -1.687 4.3276 0 0 Z " fill="#414042" transform="translate(642,912)"/>
<path d="M0 0 C1.65 0.33 3.3 0.66 5 1 C5.7383 5.3245 6.3917 9.6554 7 14 C5.0977 13.7812 5.0977 13.7812 3 13 C2.0586 10.9688 2.0586 10.9688 1.4375 8.5 C0.8086 6.0312 0.8086 6.0312 0 4 C-0.99 3.67 -1.98 3.34 -3 3 C-2.34 3 -1.68 3 -1 3 C-0.67 2.01 -0.34 1.02 0 0 Z " fill="#3E3E3E" transform="translate(371,912)"/>
<path d="M0 0 C2.5625 0.1875 2.5625 0.1875 4.5625 2.1875 C4.2328 5.4846 3.9398 6.8102 1.5625 9.1875 C0.2425 9.1875 -1.0775 9.1875 -2.4375 9.1875 C-4.4375 6.1875 -4.4375 6.1875 -4.125 3.5625 C-3.1642 0.2434 -3.1642 0.2434 0 0 Z " fill="#3A3839" transform="translate(696.4375,408.8125)"/>
<path d="M0 0 C3.125 0.375 3.125 0.375 6 1 C6.6875 3.3125 6.6875 3.3125 7 6 C5.875 7.875 5.875 7.875 4 9 C-0.4211 8.5789 -0.4211 8.5789 -2 7 C-2.1875 4.5625 -2.1875 4.5625 -2 2 C-1.34 1.34 -0.68 0.68 0 0 Z " fill="#3C3B3C" transform="translate(318,409)"/>
<path d="M0 0 C0.7631 0.2063 1.5263 0.4125 2.3125 0.625 C3 2.9375 3 2.9375 3.3125 5.625 C2.1875 7.5 2.1875 7.5 0.3125 8.625 C-2.375 8.3125 -2.375 8.3125 -4.6875 7.625 C-5.0175 5.645 -5.3475 3.665 -5.6875 1.625 C-2.6875 -0.375 -2.6875 -0.375 0 0 Z " fill="#393939" transform="translate(697.6875,423.375)"/>
<path d="M0 0 C2.4375 0.1875 2.4375 0.1875 3.4375 1.1875 C3.625 4.125 3.625 4.125 3.4375 7.1875 C2.7775 7.8475 2.1175 8.5075 1.4375 9.1875 C-3.1181 8.6319 -3.1181 8.6319 -4.5625 7.1875 C-4.75 4.75 -4.75 4.75 -4.5625 2.1875 C-2.5625 0.1875 -2.5625 0.1875 0 0 Z " fill="#363637" transform="translate(320.5625,437.8125)"/>
<path d="M0 0 C2.5625 0.1875 2.5625 0.1875 4.5625 2.1875 C4.0069 6.7431 4.0069 6.7431 2.5625 8.1875 C0.125 8.375 0.125 8.375 -2.4375 8.1875 C-3.0975 7.5275 -3.7575 6.8675 -4.4375 6.1875 C-3.7178 0.286 -3.7178 0.286 0 0 Z " fill="#353536" transform="translate(696.4375,437.8125)"/>
<path d="M0 0 C4.5556 0.5556 4.5556 0.5556 6 2 C6.1875 4.4375 6.1875 4.4375 6 7 C5.34 7.66 4.68 8.32 4 9 C-0.5556 8.4444 -0.5556 8.4444 -2 7 C-2.1875 4.5625 -2.1875 4.5625 -2 2 C-1.34 1.34 -0.68 0.68 0 0 Z " fill="#3D3C3C" transform="translate(318,423)"/>
<path d="M0 0 C0.66 0.33 1.32 0.66 2 1 C-2.7342 6.0211 -7.8006 11.3455 -15 12 C-10.5899 7.1489 -5.42 3.6519 0 0 Z " fill="#FEF8E0" transform="translate(638,246)"/>
<path d="M0 0 C10.56 0 21.12 0 32 0 C32 0.33 32 0.66 32 1 C31.5864 1.0125 31.5864 1.0125 29.4932 1.0759 C25.7453 1.192 21.9977 1.3147 18.25 1.4375 C16.948 1.4768 15.6461 1.5161 14.3047 1.5566 C13.0543 1.5985 11.8039 1.6404 10.5156 1.6836 C9.3635 1.7203 8.2114 1.7569 7.0244 1.7947 C4.5226 1.9645 2.3891 2.2797 0 3 C0 2.01 0 1.02 0 0 Z " fill="#F2E9DD" transform="translate(652,485)"/></g>

<g class="effects">
  <g class="sparkle s1"><polygon points="242.0,180.0 233.2,183.2 230.0,192.0 226.8,183.2 218.0,180.0 226.8,176.8 230.0,168.0 233.2,176.8" fill="#ffd966"/></g>
  <g class="sparkle s2"><polygon points="834.0,160.0 823.8,163.8 820.0,174.0 816.2,163.8 806.0,160.0 816.2,156.2 820.0,146.0 823.8,156.2" fill="#ffd966"/></g>
  <g class="sparkle s3"><polygon points="170.0,460.0 162.7,462.7 160.0,470.0 157.3,462.7 150.0,460.0 157.3,457.3 160.0,450.0 162.7,457.3" fill="#ffffff"/></g>
  <g class="sparkle s4"><polygon points="891.0,430.0 883.0,433.0 880.0,441.0 877.0,433.0 869.0,430.0 877.0,427.0 880.0,419.0 883.0,427.0" fill="#ffffff"/></g>
  <g class="sparkle s5"><polygon points="269.0,760.0 262.4,762.4 260.0,769.0 257.6,762.4 251.0,760.0 257.6,757.6 260.0,751.0 262.4,757.6" fill="#fff5cc"/></g>
  <g class="sparkle s6"><polygon points="800.0,780.0 792.7,782.7 790.0,790.0 787.3,782.7 780.0,780.0 787.3,777.3 790.0,770.0 792.7,777.3" fill="#fff5cc"/></g>
</g>

</svg>
