<?xml version="1.0" encoding="UTF-8"?>
<svg xmlns="http://www.w3.org/2000/svg" viewBox="0 0 1024 1024" preserveAspectRatio="xMidYMid meet">
<style>

.main { transform-origin: 512px 600px; animation: waveIn 1.6s cubic-bezier(.2,1.1,.3,1) both, waveSway 3s 1.6s ease-in-out infinite; }
.drop { opacity:0; }
@keyframes waveIn {
  0% { transform: translateX(-60%) rotate(-6deg); opacity:0; }
  100%{ transform: translateX(0) rotate(0); opacity:1; }
}
@keyframes waveSway {
  0%,100% { transform: translateX(0) rotate(0); }
  25%     { transform: translateX(-15px) rotate(-1.2deg); }
  75%     { transform: translateX(15px) rotate(1.2deg); }
}
@keyframes splash {
  0%   { opacity:0; transform: translate(0,0) scale(.4); }
  25%  { opacity:1; }
  100% { opacity:0; transform: translate(var(--dx), var(--dy)) scale(1.2); }
}

</style>

<g class="main"><path d="M0 0 C0.586 0.402 1.172 0.804 1.776 1.219 C11.779 8.128 21.407 15.367 30 24 C31.513 25.342 33.034 26.676 34.562 28 C63.084 53.695 87.279 91.587 90.273 130.559 C90.637 144.433 87.796 157.473 78 168 C69.489 175.431 59.329 178.735 48.125 178.312 C30.552 176.555 17.318 164.364 6.145 151.594 C5 150 5 150 5 148 C4.432 147.724 3.863 147.448 3.277 147.164 C1 146 1 146 -1.121 144.711 C-7.918 140.791 -14.229 139.36 -22 141 C-26.09 143.199 -29.478 145.993 -33 149 C-43.711 157.439 -56.494 160.441 -69.993 159.271 C-80.403 157.867 -89.607 153.163 -98 147 C-98.581 146.578 -99.163 146.157 -99.762 145.723 C-103.433 142.861 -106.393 139.404 -109.387 135.867 C-109.919 135.251 -110.451 134.635 -111 134 C-111.22 133.702 -111.22 133.702 -112.332 132.195 C-114 131 -114 131 -116.875 131.137 C-134.42 135.983 -150.564 155.369 -160 170 C-160.65 171.004 -161.299 172.008 -161.969 173.043 C-171.89 189.317 -178.218 208.93 -179 228 C-179.033 228.689 -179.065 229.378 -179.099 230.088 C-180.371 260.441 -171.568 288.296 -151 311 C-150.34 311.33 -149.68 311.66 -149 312 C-149 312.66 -149 313.32 -149 314 C-148.417 314.257 -147.835 314.513 -147.234 314.777 C-144.799 316.11 -143.22 317.612 -141.25 319.562 C-120.945 337.961 -92.122 344.348 -65.469 343.253 C-61.379 342.834 -58.382 341.309 -54.977 339.117 C-51.604 337.211 -48.783 337.595 -45 338 C-44.34 338.33 -43.68 338.66 -43 339 C-32.88 338.913 -23.474 335.142 -14.688 330.438 C-13.866 330.001 -13.045 329.564 -12.199 329.114 C-1.685 323.37 7.174 316.033 15.879 307.812 C19.457 304.755 22.168 303.698 26.875 303.625 C27.697 303.597 28.52 303.568 29.367 303.539 C34.048 304.359 37.086 306.816 39.949 310.523 C40.523 311.464 41.096 312.405 41.688 313.375 C62.039 345.119 91.302 366.393 127.562 376.75 C128.591 377.044 129.62 377.338 130.68 377.642 C144.256 381.364 157.689 382.45 171.711 383.035 C183.802 383.708 183.802 383.708 189 388 C192.524 393.141 193.589 397.026 193.533 403.287 C193.542 404.085 193.551 404.882 193.56 405.704 C193.582 408.323 193.575 410.94 193.566 413.559 C193.572 415.39 193.578 417.222 193.585 419.054 C193.596 422.886 193.591 426.718 193.576 430.55 C193.559 435.447 193.583 440.343 193.618 445.24 C193.64 449.021 193.638 452.802 193.63 456.582 C193.629 458.387 193.636 460.192 193.651 461.997 C193.769 479.006 193.769 479.006 189.371 484.62 C188.918 485.076 188.466 485.531 188 486 C187.75 486.252 187.75 486.252 186.487 487.528 C181.133 492.398 176.227 492.146 169.299 492.131 C168.853 492.132 168.853 492.132 166.596 492.138 C163.585 492.143 160.575 492.142 157.564 492.14 C155.392 492.143 153.22 492.146 151.048 492.149 C145.062 492.158 139.077 492.159 133.091 492.16 C126.641 492.162 120.192 492.169 113.742 492.176 C98.892 492.191 84.041 492.196 69.19 492.201 C61.848 492.203 54.506 492.207 47.164 492.211 C22.022 492.223 -3.121 492.234 -28.263 492.238 C-29.842 492.238 -31.421 492.238 -32.999 492.238 C-34.582 492.238 -36.164 492.239 -37.747 492.239 C-40.922 492.239 -44.096 492.24 -47.271 492.24 C-47.665 492.24 -47.665 492.24 -49.657 492.241 C-75.154 492.244 -100.652 492.26 -126.15 492.283 C-153.119 492.308 -180.088 492.322 -207.057 492.323 C-210.021 492.323 -212.985 492.323 -215.949 492.324 C-216.314 492.324 -216.314 492.324 -218.16 492.324 C-229.88 492.325 -241.599 492.336 -253.318 492.35 C-265.114 492.365 -276.91 492.368 -288.705 492.36 C-295.089 492.356 -301.473 492.357 -307.857 492.371 C-313.712 492.384 -319.567 492.383 -325.422 492.37 C-327.53 492.369 -329.638 492.372 -331.746 492.38 C-349.069 492.448 -365.737 491.115 -382.188 485.312 C-383.196 484.966 -384.204 484.619 -385.243 484.262 C-421.022 471.615 -448.759 446.544 -469 415 C-469.432 414.328 -469.865 413.657 -470.31 412.965 C-483.794 391.619 -491.129 365.792 -495 341 C-495.137 340.19 -495.274 339.379 -495.415 338.544 C-508.742 257.724 -485.229 168.308 -438.453 101.891 C-424.538 82.578 -409.106 65.075 -392.375 48.188 C-391.94 47.746 -391.94 47.746 -389.736 45.509 C-384.125 39.89 -378.272 34.861 -372 30 C-370.753 28.986 -369.509 27.968 -368.27 26.945 C-355.88 16.804 -342.684 8.282 -329 0 C-328.185 -0.51 -327.371 -1.021 -326.531 -1.547 C-245.346 -51.881 -137.152 -61.806 0 0 Z M-231 -24 C-232.437 -23.678 -233.875 -23.357 -235.312 -23.035 C-258.852 -17.506 -281.976 -8.776 -303.141 2.902 C-306.611 4.817 -310.16 6.506 -313.75 8.188 C-329.619 16.067 -344.067 27.132 -358 38 C-358.946 38.732 -359.892 39.464 -360.867 40.219 C-378.65 54.361 -396.155 70.975 -410 89 C-410.943 90.181 -411.887 91.36 -412.832 92.539 C-434.297 119.607 -451.462 149.409 -463 182 C-463.348 182.97 -463.695 183.94 -464.053 184.939 C-468.027 196.119 -471.518 207.374 -474.438 218.875 C-474.685 219.843 -474.932 220.811 -475.186 221.808 C-476.661 227.857 -477.555 233.791 -478 240 C-474.078 237.117 -471.467 234.121 -468.625 230.188 C-455.762 213.224 -439.405 198.158 -422 186 C-420.876 185.192 -419.752 184.384 -418.629 183.574 C-415.454 181.324 -412.244 179.148 -409 177 C-408.378 176.586 -407.755 176.172 -407.114 175.746 C-393.085 166.481 -378.869 158.556 -361.625 158.75 C-360.781 158.754 -359.938 158.758 -359.069 158.762 C-354.903 158.82 -351.002 159.007 -346.938 160 C-335.981 162.61 -324.299 162.589 -314.473 156.75 C-307.249 151.638 -303.381 145.484 -298.914 137.973 C-295.558 132.761 -291.888 130.015 -286 128 C-284.337 127.861 -282.668 127.781 -281 127.75 C-274.923 127.321 -270.236 125.099 -264.848 122.375 C-256.846 118.511 -245.534 118.816 -236.938 120.875 C-231.649 122.724 -227.246 126.065 -222.672 129.224 C-212.42 136.244 -202.138 140.059 -189.531 138.742 C-187.28 138.306 -185.177 137.717 -183 137 C-182.201 136.754 -181.402 136.508 -180.578 136.254 C-172.576 133.458 -165.581 128.551 -160.375 121.812 C-153.981 114.241 -144.718 111.266 -135.125 110.188 C-124.74 109.583 -114.44 111.602 -106 118 C-102.263 121.405 -98.744 125.018 -95.314 128.731 C-87.093 137.495 -76.995 143.888 -64.75 144.438 C-53.652 144.064 -45.224 140.206 -37 133 C-27.739 125.705 -18.852 124.867 -7.409 125.654 C3.19 127.177 12.199 134.485 18.668 142.609 C19.108 143.068 19.547 143.527 20 144 C20.66 144 21.32 144 22 144 C22.258 144.58 22.516 145.16 22.781 145.758 C26.806 153.163 34.525 158.476 42 162 C48.621 163.686 55.642 163.937 62.016 161.234 C67.561 157.785 72.68 151.847 74.598 145.531 C79.226 116.413 63.761 87.555 47.277 64.745 C10.973 15.127 -45.248 -14.599 -104.5 -27.25 C-105.638 -27.497 -106.776 -27.743 -107.948 -27.997 C-124.85 -31.448 -141.847 -32.387 -159.062 -32.312 C-159.505 -32.312 -159.505 -32.312 -161.745 -32.307 C-185.389 -32.226 -207.96 -29.355 -231 -24 Z " fill="#4FAEDC" transform="translate(667,312)"/>
<path d="M0 0 C0.586 0.402 1.172 0.804 1.776 1.219 C11.779 8.128 21.407 15.367 30 24 C31.513 25.342 33.034 26.676 34.562 28 C63.084 53.695 87.279 91.587 90.273 130.559 C90.637 144.433 87.796 157.473 78 168 C69.489 175.431 59.329 178.735 48.125 178.312 C30.552 176.555 17.318 164.364 6.145 151.594 C5 150 5 150 5 148 C4.432 147.724 3.863 147.448 3.277 147.164 C1 146 1 146 -1.121 144.711 C-7.918 140.791 -14.229 139.36 -22 141 C-26.09 143.199 -29.478 145.993 -33 149 C-43.711 157.439 -56.494 160.441 -69.993 159.271 C-80.403 157.867 -89.607 153.163 -98 147 C-98.581 146.578 -99.163 146.157 -99.762 145.723 C-103.433 142.861 -106.393 139.404 -109.387 135.867 C-109.919 135.251 -110.451 134.635 -111 134 C-111.22 133.702 -111.22 133.702 -112.332 132.195 C-114 131 -114 131 -116.875 131.137 C-134.42 135.983 -150.564 155.369 -160 170 C-160.65 171.004 -161.299 172.008 -161.969 173.043 C-171.89 189.317 -178.218 208.93 -179 228 C-179.033 228.689 -179.065 229.378 -179.099 230.088 C-180.371 260.441 -171.568 288.296 -151 311 C-150.34 311.33 -149.68 311.66 -149 312 C-149 312.66 -149 313.32 -149 314 C-148.417 314.257 -147.835 314.513 -147.234 314.777 C-144.799 316.11 -143.22 317.612 -141.25 319.562 C-133.396 326.724 -123.47 331.331 -114 336 C-114 336.66 -114 337.32 -114 338 C-96.605 343.196 -80.079 344.609 -62 345 C-84.472 368.03 -117.983 380.561 -148.812 387.188 C-149.589 387.355 -150.366 387.522 -151.166 387.694 C-184.833 394.657 -220.466 389.452 -251 374 C-251.628 373.683 -252.257 373.366 -252.904 373.04 C-286.716 355.638 -311.563 323.511 -324 288 C-326.081 281.424 -327.619 274.753 -329 268 C-329.164 267.237 -329.327 266.475 -329.496 265.689 C-331.851 254.373 -332.304 243.085 -332.375 231.562 C-332.383 230.886 -332.391 230.21 -332.399 229.513 C-332.483 220.227 -331.374 211.958 -329 203 C-328.673 201.378 -328.357 199.753 -328.062 198.125 C-325.841 186.909 -322.644 176.445 -318 166 C-317.694 165.176 -317.389 164.353 -317.074 163.504 C-314.781 157.512 -311.391 153.538 -306 150 C-303.75 149.312 -303.75 149.312 -302 149 C-301.879 148.408 -301.758 147.817 -301.633 147.207 C-299.875 138.917 -298.214 133.93 -291 129 C-287.531 127.336 -284.822 126.82 -281 126.75 C-274.923 126.321 -270.236 124.099 -264.848 121.375 C-256.846 117.511 -245.534 117.816 -236.938 119.875 C-231.649 121.724 -227.246 125.065 -222.672 128.224 C-212.42 135.244 -202.138 139.059 -189.531 137.742 C-187.28 137.306 -185.177 136.719 -183 136 C-182.189 135.742 -181.378 135.484 -180.543 135.219 C-172.619 132.395 -166.233 127.927 -160.938 121.375 C-154.478 113.46 -145.004 110.298 -135.125 109.188 C-124.74 108.583 -114.44 110.602 -106 117 C-102.263 120.405 -98.744 124.018 -95.314 127.731 C-87.093 136.495 -76.995 142.888 -64.75 143.438 C-53.652 143.064 -45.224 139.206 -37 132 C-27.735 124.702 -18.851 123.869 -7.405 124.658 C3.939 126.271 13.055 134.453 20 143 C21.645 144.688 23.313 146.354 25 148 C25.251 148.273 25.251 148.273 26.52 149.656 C32.801 156.364 39.875 161.335 49.176 162.203 C55.61 162.344 60.968 161.643 65.949 157.301 C72.991 149.787 74.491 142.808 74.422 132.766 C73.165 94.572 45.377 58.879 18.75 33.938 C-15.597 2.533 -59.384 -16.617 -104.5 -26.25 C-105.638 -26.497 -106.776 -26.743 -107.948 -26.997 C-124.85 -30.448 -141.847 -31.387 -159.062 -31.312 C-159.505 -31.312 -159.505 -31.312 -161.745 -31.307 C-185.389 -31.226 -207.96 -28.355 -231 -23 C-232.437 -22.678 -233.875 -22.357 -235.312 -22.035 C-258.852 -16.506 -281.976 -7.776 -303.141 3.902 C-306.611 5.817 -310.16 7.506 -313.75 9.188 C-329.619 17.067 -344.067 28.132 -358 39 C-358.946 39.732 -359.892 40.464 -360.867 41.219 C-378.312 55.092 -395.386 71.339 -409 89 C-409.944 90.182 -410.89 91.363 -411.836 92.543 C-431.858 117.797 -448.66 145.775 -460 176 C-460.66 176 -461.32 176 -462 176 C-462.99 179.3 -463.98 182.6 -465 186 C-465.99 186 -466.98 186 -468 186 C-468.037 186.58 -468.075 187.16 -468.113 187.758 C-468.548 192.923 -469.59 196.366 -472 201 C-474.223 207.703 -475.508 214.484 -476.473 221.469 C-477 224 -477 224 -479 227 C-479.287 229.325 -479.287 229.325 -479.344 232.043 C-479.373 233.035 -479.403 234.027 -479.434 235.049 C-479.456 236.085 -479.477 237.12 -479.5 238.188 C-479.787 251.519 -479.787 251.519 -482 258 C-485.452 260.302 -486.947 260.345 -491 260 C-493 258 -493 258 -493.266 254.938 C-493.11 215.818 -480.141 178.821 -463 144 C-462.588 143.162 -462.176 142.324 -461.751 141.46 C-452.46 122.781 -441.533 105.239 -428.526 88.927 C-427.071 87.089 -425.646 85.232 -424.23 83.363 C-414.422 70.478 -403.129 59.055 -391.75 47.562 C-390.935 46.734 -390.119 45.906 -389.28 45.052 C-383.824 39.59 -378.092 34.734 -372 30 C-370.753 28.986 -369.509 27.968 -368.27 26.945 C-355.88 16.804 -342.684 8.282 -329 0 C-328.185 -0.51 -327.371 -1.021 -326.531 -1.547 C-245.346 -51.881 -137.152 -61.806 0 0 Z " fill="#2F85C0" transform="translate(667,312)"/>
<path d="M0 0 C0.822 -0.028 1.645 -0.057 2.492 -0.086 C7.173 0.734 10.211 3.191 13.074 6.898 C13.648 7.839 14.221 8.78 14.812 9.75 C37.625 45.332 70.077 64.996 110.485 75.601 C113.125 76.375 113.125 76.375 115.729 77.432 C119.166 78.785 122.667 79.073 126.312 79.438 C126.701 79.479 126.701 79.479 128.666 79.687 C137.134 80.546 145.623 80.993 154.125 81.375 C148.138 95.676 127.493 107.374 114.125 113.375 C108.895 115.42 103.551 116.948 98.125 118.375 C96.987 118.696 95.849 119.017 94.676 119.348 C74.306 124.166 50.16 123.054 30.125 117.375 C28.869 117.036 27.614 116.697 26.32 116.348 C5.11 109.939 -14.455 98.886 -30.5 83.629 C-32.563 81.671 -34.678 79.865 -36.875 78.062 C-46.86 69.318 -54.411 58.143 -61.691 47.153 C-62.476 45.974 -63.272 44.803 -64.079 43.64 C-66.875 39.587 -66.875 39.587 -66.875 37.375 C-63.575 36.715 -60.275 36.055 -56.875 35.375 C-56.875 34.715 -56.875 34.055 -56.875 33.375 C-56.16 33.095 -55.444 32.816 -54.707 32.527 C-37.77 25.713 -24.191 16.648 -10.996 4.188 C-7.418 1.13 -4.707 0.073 0 0 Z " fill="#2D86C2" transform="translate(693.875,615.625)"/>
<path d="M0 0 C4.602 3.164 7.619 7.364 9.375 12.633 C10.047 20.067 9.978 26.505 5.375 32.633 C0.412 37.595 -4.538 40.339 -11.562 41.008 C-18.766 40.687 -24.645 37.839 -29.625 32.633 C-33.462 26.615 -34.595 20.681 -33.625 13.633 C-32.2 8.352 -29.476 3.379 -24.73 0.473 C-16.005 -4.044 -8.898 -4.747 0 0 Z " fill="#3A89C0" transform="translate(658.625,512.3671875)"/>
<path d="M0 0 C2.205 1.959 3.916 3.688 5.75 5.938 C10.764 11.843 10.764 11.843 14 14 C14 14.66 14 15.32 14 16 C14.532 16.236 15.065 16.472 15.613 16.715 C18.071 18.038 20.236 19.601 22.465 21.275 C38.407 33.193 55.726 41.287 75.504 44.129 C79.326 45.081 81.267 46.189 84 49 C84.312 52.25 84.312 52.25 84 55 C83.505 55.165 83.505 55.165 81 56 C81 56.66 81 57.32 81 58 C75.302 58.172 70.336 57.681 64.812 56.312 C64.072 56.132 63.332 55.951 62.569 55.765 C55.806 54.052 49.384 51.825 43 49 C42.394 48.732 41.787 48.465 41.163 48.189 C24.386 40.65 9.979 29.961 -3 17 C-3.851 16.161 -4.702 15.322 -5.578 14.457 C-10.916 8.886 -10.916 8.886 -11.297 4.863 C-11 2 -11 2 -9.438 0.062 C-5.873 -1.491 -3.748 -0.948 0 0 Z " fill="#1B6BA5" transform="translate(445,633)"/>
<path d="M0 0 C5.53 3.036 9.112 5.633 11.188 11.75 C12.032 19.06 11.861 25.778 7.188 31.75 C1.897 36.121 -3.8 38.319 -10.727 38.133 C-15.87 37.189 -19.72 33.929 -23.188 30.188 C-27.242 24.106 -27.699 19.017 -26.812 11.75 C-24.864 6.212 -21.136 2.432 -16.055 -0.406 C-10.764 -2.397 -5.227 -2.045 0 0 Z " fill="#4CACDC" transform="translate(425.8125,508.25)"/>
<path d="M0 0 C4.821 3.428 8.742 8.067 9.812 14 C10.389 19.995 9.121 24.086 5.812 29 C0.417 34.126 -4.029 35.532 -11.363 35.375 C-17.414 34.572 -20.919 31.554 -24.688 26.938 C-27.139 21.946 -26.931 16.398 -26.188 11 C-23.654 5.745 -19.998 2.561 -14.938 -0.25 C-9.799 -1.651 -5.081 -1.594 0 0 Z " fill="#2E84C0" transform="translate(565.1875,498)"/>
<path d="M0 0 C3.084 0.139 6.167 0.288 9.25 0.438 C9.686 0.457 9.686 0.457 11.895 0.557 C12.739 0.599 13.583 0.64 14.453 0.684 C14.841 0.702 14.841 0.702 16.802 0.795 C19 1 19 1 20.803 1.504 C23.376 2.085 25.711 2.13 28.349 2.136 C29.441 2.141 30.534 2.146 31.659 2.151 C32.86 2.151 34.061 2.151 35.298 2.151 C36.576 2.156 37.853 2.16 39.17 2.164 C42.726 2.176 46.282 2.181 49.838 2.186 C53.684 2.192 57.531 2.204 61.377 2.215 C68.083 2.233 74.788 2.248 81.493 2.26 C91.328 2.279 101.163 2.303 110.998 2.329 C127.237 2.371 143.476 2.41 159.715 2.446 C196.184 2.527 232.653 2.624 269.122 2.723 C274.97 2.738 280.818 2.754 286.665 2.769 C349.165 2.935 411.663 3.165 474.161 3.546 C476.953 3.563 479.744 3.579 482.535 3.596 C503.357 3.722 524.178 3.855 545 4 C545 4.33 545 4.66 545 5 C496.374 5.017 447.749 5.033 399.123 5.042 C398.403 5.042 397.682 5.043 396.94 5.043 C381.281 5.046 365.621 5.049 349.962 5.051 C342.282 5.052 334.602 5.054 326.921 5.055 C326.157 5.055 325.393 5.055 324.606 5.055 C299.864 5.06 275.122 5.067 250.381 5.076 C224.941 5.086 199.502 5.092 174.063 5.094 C170.464 5.094 166.866 5.095 163.267 5.095 C162.559 5.095 161.85 5.095 161.121 5.095 C149.751 5.096 138.381 5.101 127.012 5.107 C115.563 5.113 104.114 5.115 92.665 5.114 C86.469 5.113 80.273 5.114 74.078 5.119 C68.393 5.124 62.709 5.124 57.025 5.121 C54.98 5.12 52.935 5.122 50.89 5.125 C40.946 5.139 31.021 5.042 21.086 4.59 C20.276 4.556 19.467 4.522 18.634 4.487 C12.158 4.152 6.187 2.999 0 1 C0 0.67 0 0.34 0 0 Z " fill="#65A5C2" transform="translate(291,798)"/>
<path d="M0 0 C2.678 1.854 3.007 3.031 3.703 6.273 C3.891 7.64 4.072 9.007 4.25 10.375 C6.68 25.897 11.897 40.263 19.887 53.785 C21.928 57.341 23.024 59.263 22.887 63.445 C22 66 22 66 20.312 67.438 C16.854 68.279 15.375 68.35 12 67 C9.492 63.933 7.772 60.53 6 57 C5.505 56.024 5.01 55.048 4.5 54.043 C-3.694 37.079 -9.313 19.933 -9 1 C-5.518 -0.915 -3.856 -1.285 0 0 Z " fill="#1C6DA6" transform="translate(412,559)"/>
<path d="M0 0 C2.875 0.5 2.875 0.5 4.75 1.625 C6.388 4.356 6.135 6.358 5.875 9.5 C4.59 11.746 4.59 11.746 2.812 13.938 C-3.575 22.51 -7.557 32.586 -11.301 42.547 C-12.125 44.5 -12.125 44.5 -14.125 47.5 C-17.228 47.896 -19.236 48.052 -21.938 46.375 C-23.616 43.725 -23.859 41.628 -24.125 38.5 C-21.811 29.832 -17.345 21.711 -13.062 13.875 C-12.652 13.117 -12.241 12.36 -11.817 11.579 C-5.825 0.932 -5.825 0.932 0 0 Z " fill="#1C6BA5" transform="translate(434.125,445.5)"/>
<path d="M0 0 C3.761 0.039 5.465 0.156 8.812 2 C11.798 5.563 12.622 8.138 13.125 12.75 C12.675 17.027 11.493 19.036 8.75 22.312 C5.739 24.678 2.548 24.678 -1.223 24.559 C-4.466 24.165 -6.581 23.175 -9.25 21.312 C-12.399 17.046 -12.66 13.511 -11.906 8.434 C-10.89 5.149 -8.881 3.417 -6.25 1.312 C-4.533 -0.404 -2.341 0.059 0 0 Z " fill="#4CACDC" transform="translate(387.25,568.6875)"/>
<path d="M0 0 C3.438 0.812 3.438 0.812 5.438 3.812 C6.209 8.957 4.411 13.012 2.582 17.723 C0.961 22.098 -0.277 26.571 -1.535 31.062 C-2.555 33.793 -3.209 35.131 -5.562 36.812 C-9.125 37.125 -9.125 37.125 -12.562 36.812 C-14.562 34.812 -14.562 34.812 -14.938 31.625 C-14.694 22.068 -11.196 10.18 -6.562 1.812 C-3.562 -0.188 -3.562 -0.188 0 0 Z " fill="#1D6DA6" transform="translate(354.5625,478.1875)"/>
<path d="M0 0 C3.084 0.139 6.167 0.288 9.25 0.438 C9.686 0.457 9.686 0.457 11.895 0.557 C12.739 0.599 13.583 0.64 14.453 0.684 C14.841 0.702 14.841 0.702 16.802 0.795 C19 1 19 1 20.772 1.504 C23.512 2.114 26.04 2.131 28.849 2.139 C30.052 2.144 31.254 2.15 32.494 2.155 C33.83 2.156 35.166 2.157 36.503 2.158 C37.921 2.163 39.339 2.168 40.757 2.173 C44.659 2.187 48.561 2.194 52.463 2.201 C56.668 2.209 60.874 2.222 65.08 2.235 C72.368 2.257 79.657 2.275 86.945 2.291 C97.483 2.314 108.021 2.342 118.559 2.371 C135.655 2.419 152.751 2.462 169.847 2.503 C186.456 2.542 203.065 2.583 219.674 2.628 C220.186 2.629 220.186 2.629 222.776 2.636 C227.91 2.65 233.045 2.663 238.179 2.677 C280.786 2.791 323.393 2.898 366 3 C366 3.33 366 3.66 366 4 C321.107 4.069 276.214 4.122 231.32 4.153 C226.018 4.157 220.716 4.161 215.414 4.165 C214.359 4.166 213.303 4.166 212.215 4.167 C195.133 4.18 178.05 4.204 160.967 4.231 C143.433 4.26 125.9 4.276 108.367 4.282 C97.551 4.286 86.735 4.299 75.919 4.324 C68.499 4.34 61.078 4.344 53.658 4.341 C49.379 4.339 45.1 4.341 40.821 4.358 C36.898 4.372 32.974 4.373 29.051 4.363 C27.637 4.361 26.224 4.365 24.811 4.375 C16.088 4.43 8.355 3.558 0 1 C0 0.67 0 0.34 0 0 Z " fill="#5CAAD1" transform="translate(291,798)"/>
<path d="M0 0 C3 2 3 2 4 5 C4.117 7.619 4.178 10.213 4.193 12.833 C4.197 13.231 4.197 13.231 4.218 15.248 C4.242 17.888 4.259 20.528 4.273 23.168 C4.279 24.071 4.284 24.974 4.29 25.904 C4.316 30.686 4.336 35.467 4.35 40.248 C4.363 44.199 4.391 48.149 4.432 52.1 C4.482 56.876 4.506 61.651 4.513 66.427 C4.52 68.243 4.535 70.059 4.559 71.875 C4.777 89.332 4.777 89.332 0.442 94.55 C-0.034 95.028 -0.51 95.507 -1 96 C-1.824 96.984 -2.648 97.969 -3.497 98.983 C-8.21 102.554 -14.463 101.489 -20.055 101.27 C-21.311 101.24 -22.568 101.211 -23.863 101.181 C-27.188 101.099 -30.511 100.995 -33.835 100.88 C-37.233 100.768 -40.632 100.685 -44.031 100.6 C-50.688 100.427 -57.344 100.224 -64 100 C-64 99.67 -64 99.34 -64 99 C-63.362 98.994 -62.724 98.988 -62.066 98.982 C-55.415 98.918 -48.764 98.834 -42.113 98.738 C-39.632 98.704 -37.151 98.676 -34.669 98.654 C-31.1 98.62 -27.53 98.568 -23.961 98.512 C-22.854 98.505 -21.748 98.499 -20.608 98.492 C-14.947 98.385 -10.928 98.083 -6 95 C-5.536 94.866 -5.536 94.866 -3.188 94.188 C-2.466 93.796 -1.744 93.404 -1 93 C0.207 88.146 0.136 83.3 0.114 78.333 C0.114 77.483 0.114 76.634 0.114 75.758 C0.113 72.967 0.106 70.175 0.098 67.383 C0.096 65.441 0.094 63.499 0.093 61.557 C0.09 56.457 0.08 51.358 0.069 46.258 C0.058 41.05 0.054 35.841 0.049 30.633 C0.038 20.422 0.021 10.211 0 0 Z " fill="#85C0DD" transform="translate(856,702)"/>
<path d="M0 0 C1.327 2.654 0.746 3.645 -0.125 6.438 C-1.643 10.732 -1.643 10.732 -4.25 12.688 C-5.158 13.121 -6.065 13.554 -7 14 C-8.102 14.958 -9.183 15.94 -10.25 16.938 C-18.669 24.203 -29.29 26.167 -40.238 25.93 C-44.031 25.618 -47.383 25.206 -51 24 C-54.516 23.717 -58.037 23.722 -61.562 23.688 C-62.038 23.673 -62.038 23.673 -64.447 23.6 C-71.475 23.537 -76.677 25.029 -83 28 C-84.643 28.693 -86.289 29.382 -87.938 30.062 C-90.297 31.06 -91.785 31.773 -93.555 33.641 C-94.032 34.089 -94.509 34.538 -95 35 C-98.188 34.688 -98.188 34.688 -101 34 C-93 25.43 -77.893 20.236 -66.453 19.762 C-53.313 19.462 -53.313 19.462 -46.938 21 C-36.039 23.596 -24.286 23.603 -14.484 17.836 C-8.067 13.094 -3.947 6.839 0 0 Z " fill="#83BDD7" transform="translate(367,450)"/>
<path d="M0 0 C1.084 3.252 0.925 4.719 0.441 8.059 C0.302 9.074 0.163 10.09 0.02 11.136 C-0.131 12.225 -0.282 13.315 -0.438 14.438 C-3.765 40.692 -1.571 63.008 9.443 87.27 C10 89 10 89 9 91 C8.01 91 7.02 91 6 91 C5.807 90.362 5.613 89.724 5.414 89.066 C5.154 88.24 4.893 87.414 4.625 86.562 C4.37 85.739 4.115 84.915 3.852 84.066 C3 82 3 82 1 81 C0.438 78.707 0.438 78.707 0 75.812 C-0.843 70.713 -2.163 66.139 -4.046 61.326 C-5.136 57.526 -5.288 54.017 -5.266 50.102 C-5.268 49.349 -5.269 48.596 -5.271 47.821 C-5.273 46.229 -5.269 44.637 -5.261 43.045 C-5.25 40.667 -5.261 38.289 -5.273 35.91 C-5.302 9.474 -5.302 9.474 0 0 Z " fill="#6EA3C2" transform="translate(490,512)"/>
<path d="M0 0 C0.33 0 0.66 0 1 0 C1.028 1.937 1.047 3.875 1.062 5.812 C1.074 6.891 1.086 7.97 1.098 9.082 C1.022 12.108 0.815 14.994 0.502 17.996 C-0.056 24 -0.145 29.951 -0.133 35.977 C-0.134 37.068 -0.135 38.16 -0.136 39.285 C-0.136 41.569 -0.135 43.853 -0.13 46.137 C-0.125 49.65 -0.13 53.163 -0.137 56.676 C-0.136 58.901 -0.135 61.126 -0.133 63.352 C-0.135 64.406 -0.137 65.46 -0.139 66.546 C-0.136 67.511 -0.133 68.476 -0.129 69.471 C-0.129 70.324 -0.128 71.177 -0.127 72.056 C0 74 0 74 1 75 C1.285 76.606 1.514 78.222 1.719 79.84 C1.846 80.82 1.974 81.801 2.105 82.811 C2.236 83.842 2.366 84.874 2.5 85.938 C2.757 87.968 3.017 89.998 3.281 92.027 C3.395 92.932 3.509 93.837 3.627 94.769 C4 97 4 97 5 99 C5.07 100.707 5.084 102.417 5.062 104.125 C5.053 105.035 5.044 105.945 5.035 106.883 C5.024 107.581 5.012 108.28 5 109 C5.66 109 6.32 109 7 109 C8.354 111.709 8.065 114.009 8 117 C7.34 115.68 6.68 114.36 6 113 C5.34 113.99 4.68 114.98 4 116 C-3.973 77.51 -5.636 38.961 0 0 Z " fill="#9FD0E2" transform="translate(172,558)"/>
<path d="M0 0 C1.054 0.006 2.109 0.013 3.195 0.02 C5.875 0.188 5.875 0.188 7.875 1.188 C7.875 1.848 7.875 2.507 7.875 3.188 C8.865 3.188 9.855 3.188 10.875 3.188 C10.875 3.848 10.875 4.507 10.875 5.188 C11.616 5.285 12.357 5.383 13.121 5.484 C19.242 7.047 24.398 13.117 27.875 18.188 C27.875 18.848 27.875 19.507 27.875 20.188 C28.535 20.188 29.195 20.188 29.875 20.188 C29.875 20.848 29.875 21.507 29.875 22.188 C30.865 22.517 31.855 22.848 32.875 23.188 C32.875 23.848 32.875 24.507 32.875 25.188 C33.865 25.517 34.855 25.848 35.875 26.188 C35.875 26.848 35.875 27.507 35.875 28.188 C36.865 28.188 37.855 28.188 38.875 28.188 C40.208 29.521 41.542 30.854 42.875 32.188 C45.125 32.938 45.125 32.938 46.875 33.188 C46.875 33.847 46.875 34.507 46.875 35.188 C48.195 35.517 49.515 35.847 50.875 36.188 C50.215 36.188 49.555 36.188 48.875 36.188 C48.875 36.847 48.875 37.507 48.875 38.188 C36.737 34.813 26.523 23.874 18.875 14.188 C18.875 13.527 18.875 12.868 18.875 12.188 C18.591 12.05 18.591 12.05 17.152 11.352 C14.875 10.188 14.875 10.188 12.754 8.898 C5.879 4.933 -0.267 4.209 -8.125 5.188 C-11.012 6.215 -11.012 6.215 -13.125 7.188 C-9.829 0.924 -6.965 -0.094 0 0 Z " fill="#74A8C7" transform="translate(653.125,447.8125)"/>
<path d="M0 0 C4.011 3.329 7.72 6.722 11.312 10.5 C19.204 18.459 28.914 23.929 40.25 24.438 C50.148 24.105 58.656 21.128 66.098 14.586 C67.981 13.016 69.771 12.003 72 11 C69.811 16.148 68.282 19.552 63 22 C62.619 22.25 62.619 22.25 60.693 23.515 C52.144 28.229 36.39 28.49 27.094 25.926 C21.506 23.932 17.017 21.415 13 17 C10.398 14.334 8.105 12.07 5 10 C4.34 9.01 3.68 8.02 3 7 C2.34 6.67 1.68 6.34 1 6 C0.375 2.938 0.375 2.938 0 0 Z " fill="#70A4C3" transform="translate(562,431)"/>
<path d="M0 0 C0 0.33 0 0.66 0 1 C-2.64 1.33 -5.28 1.66 -8 2 C-8 1.34 -8 0.68 -8 0 C-9.058 0.204 -10.117 0.407 -11.207 0.617 C-17.164 1.36 -22.825 0.16 -28.688 -0.875 C-29.802 -1.062 -30.916 -1.249 -32.064 -1.441 C-40.045 -2.79 -40.045 -2.79 -43.354 -3.518 C-45.974 -3.995 -48.405 -4.157 -51.066 -4.205 C-52.046 -4.225 -53.027 -4.245 -54.037 -4.266 C-55.083 -4.282 -56.129 -4.299 -57.207 -4.316 C-58.288 -4.337 -59.368 -4.358 -60.481 -4.379 C-63.925 -4.445 -67.369 -4.504 -70.812 -4.562 C-73.15 -4.606 -75.488 -4.649 -77.826 -4.693 C-83.551 -4.8 -89.275 -4.902 -95 -5 C-95 -5.33 -95 -5.66 -95 -6 C-63.118 -9.185 -31.306 -6.33 0 0 Z " fill="#7BADCA" transform="translate(574,272)"/>
<path d="M0 0 C2.619 0.381 3.792 0.787 5.668 2.707 C5.919 3.054 5.919 3.054 7.188 4.812 C7.697 5.5 8.206 6.187 8.73 6.895 C11.26 11.089 11.403 15.163 11 20 C8.887 26.143 5.794 29.77 0.172 33.074 C-4.661 35.134 -10.467 34.941 -15.355 33.125 C-19.941 30.51 -23.523 27.199 -25 22 C-25.404 17.963 -25.526 14.028 -25 10 C-24.34 9.34 -23.68 8.68 -23 8 C-23.33 11.96 -23.66 15.92 -24 20 C-23.34 20 -22.68 20 -22 20 C-21.608 20.908 -21.216 21.815 -20.812 22.75 C-18.776 26.401 -17.681 28.006 -14 30 C-9.04 30.523 -3.761 30.673 1 29 C1.33 28.34 1.66 27.68 2 27 C2.66 27 3.32 27 4 27 C4.33 26.01 4.66 25.02 5 24 C5.66 24 6.32 24 7 24 C7.054 22.104 7.093 20.209 7.125 18.312 C7.148 17.257 7.171 16.201 7.195 15.113 C6.83 9.293 4.11 4.11 0 0 Z " fill="#7BACC9" transform="translate(564,499)"/>
<path d="M0 0 C2.625 0.375 2.625 0.375 5 1 C-0.46 6.642 -6.361 11.823 -12.273 16.984 C-17.991 22.019 -23.417 27.311 -28.812 32.688 C-29.542 33.413 -30.272 34.138 -31.024 34.885 C-34.131 38.001 -37.162 41.111 -39.949 44.52 C-40.626 45.338 -41.303 46.157 -42 47 C-42.33 47 -42.66 47 -43 47 C-43 45.02 -43 43.04 -43 41 C-42.701 40.887 -42.701 40.887 -41.188 40.312 C-39 39 -39 39 -37.438 36.375 C-36.963 35.591 -36.489 34.808 -36 34 C-35.01 34 -34.02 34 -33 34 C-33 33.01 -33 32.02 -33 31 C-32.01 31 -31.02 31 -30 31 C-29.752 30.257 -29.505 29.515 -29.25 28.75 C-27.895 25.77 -26.49 24.101 -24 22 C-23.34 22 -22.68 22 -22 22 C-21.897 21.361 -21.794 20.721 -21.688 20.062 C-21.461 19.382 -21.234 18.701 -21 18 C-20.01 17.67 -19.02 17.34 -18 17 C-17.67 16.34 -17.34 15.68 -17 15 C-16.34 15 -15.68 15 -15 15 C-15 14.01 -15 13.02 -15 12 C-14.01 12.33 -13.02 12.66 -12 13 C-11.01 12.34 -10.02 11.68 -9 11 C-8.897 10.34 -8.794 9.68 -8.688 9 C-8.461 8.34 -8.234 7.68 -8 7 C-4.938 5.75 -4.938 5.75 -2 5 C-2 4.01 -2 3.02 -2 2 C-1.34 1.34 -0.68 0.68 0 0 Z " fill="#669DC0" transform="translate(304,349)"/>
<path d="M0 0 C1.875 -0.363 1.875 -0.363 4 -0.312 C4.701 -0.309 5.402 -0.305 6.125 -0.301 C8 0 8 0 10 2 C10.301 4.277 10.301 4.277 10.312 6.938 C10.329 7.813 10.346 8.688 10.363 9.59 C10 12 10 12 8.664 13.785 C7 15 7 15 4.062 15.5 C1 15 1 15 -1.438 12.938 C-3.468 9.12 -3.07 7.128 -2 3 C-1.34 2.01 -0.68 1.02 0 0 Z " fill="#1B6BA3" transform="translate(338,523)"/>
<path d="M0 0 C0.48 0.012 0.48 0.012 2.907 0.07 C6.251 0.159 9.594 0.264 12.938 0.375 C14.029 0.406 15.12 0.437 16.244 0.468 C21.498 0.664 26.092 0.9 31 3 C31 3.33 31 3.66 31 4 C5.59 4 -19.82 4 -46 4 C-46 3.67 -46 3.34 -46 3 C-45.371 2.939 -44.742 2.879 -44.094 2.816 C-40.156 2.431 -36.234 2.032 -32.312 1.5 C-21.602 0.14 -10.786 -0.269 0 0 Z " fill="#4080AE" transform="translate(512,276)"/>
<path d="M0 0 C1.812 0.188 1.812 0.188 4 1 C5.049 2.636 6.049 4.305 7 6 C7.99 6.66 8.98 7.32 10 8 C10 8.99 10 9.98 10 11 C10.99 11 11.98 11 13 11 C13.041 11.447 13.041 11.447 13.25 13.711 C14.533 19.336 18.614 22.482 23 26 C25.916 27.644 28.831 28.929 32 30 C32 30.99 32 31.98 32 33 C32.763 33.268 33.526 33.536 34.312 33.812 C36.936 34.972 38.271 35.753 40 38 C40.688 40.188 40.688 40.188 41 42 C35.941 40.465 32.618 37.382 28.75 33.938 C28.084 33.35 27.418 32.762 26.732 32.156 C19.39 25.633 12.612 18.999 6.562 11.25 C6.137 10.707 5.711 10.163 5.272 9.604 C2.943 6.536 1.237 3.651 0 0 Z " fill="#A2D3E6" transform="translate(204,734)"/>
<path d="M0 0 C2.375 1.625 2.375 1.625 4 4 C4.61 7.659 4.445 9.305 2.438 12.438 C0 14 0 14 -3.625 13.938 C-7 13 -7 13 -9 10 C-9.542 3.933 -9.542 3.933 -7.875 1.062 C-5.065 -0.53 -3.172 -0.453 0 0 Z " fill="#48AADD" transform="translate(462,524)"/>
<path d="M0 0 C6.011 1.302 11.964 2.742 17.91 4.316 C29.264 6.828 46.388 9.301 56.875 3.5 C57.584 3.044 58.293 2.587 59.023 2.117 C62.396 0.211 65.217 0.595 69 1 C69.33 1.165 69.33 1.165 71 2 C73.211 1.912 75.42 1.757 77.625 1.562 C78.219 1.512 78.219 1.512 81.227 1.254 C82.142 1.17 83.057 1.086 84 1 C80.555 3.296 78.062 3.54 74 4 C74 4.66 74 5.32 74 6 C73.381 5.835 72.763 5.67 72.125 5.5 C69.327 5.052 66.703 4.833 63.875 4.75 C63.027 4.724 62.179 4.698 61.305 4.672 C59 5 59 5 57.736 6.496 C55.197 8.696 53.245 8.388 49.926 8.398 C48.708 8.405 47.49 8.411 46.236 8.417 C44.941 8.403 43.646 8.389 42.312 8.375 C40.997 8.366 39.682 8.358 38.327 8.349 C24.693 8.143 12.67 6.288 0 1 C0 0.67 0 0.34 0 0 Z " fill="#AAD7E9" transform="translate(553,649)"/>
<path d="M0 0 C0 0.33 0 0.66 0 1 C-1.101 1.015 -2.201 1.029 -3.335 1.044 C-27.906 1.394 -52.327 1.782 -76.514 6.617 C-79.05 7.008 -81.439 7.066 -84 7 C-80.82 3.184 -77.777 1.857 -73 1 C-68.567 0.603 -64.136 0.484 -59.688 0.375 C-59.029 0.356 -59.029 0.356 -55.699 0.26 C-37.139 -0.233 -18.564 -0.088 0 0 Z " fill="#93BFDA" transform="translate(528,279)"/>
<path d="M0 0 C0.66 0.33 1.32 0.66 2 1 C-0.97 3.97 -3.94 6.94 -7 10 C-6.67 10.66 -6.34 11.32 -6 12 C-7.093 12.536 -8.186 13.072 -9.312 13.625 C-13.103 15.748 -14.168 18.074 -16 22 C-17.326 22.362 -18.659 22.697 -20 23 C-20.268 23.681 -20.536 24.361 -20.812 25.062 C-22.565 29.397 -25.525 32.881 -29 36 C-29.99 36 -30.98 36 -32 36 C-34.188 37.5 -34.188 37.5 -36 39 C-34.317 34.761 -31.212 31.753 -28.125 28.5 C-27.528 27.865 -26.931 27.23 -26.316 26.576 C-17.741 17.526 -8.858 8.771 0 0 Z " fill="#6BA1C3" transform="translate(285,350)"/>
<path d="M0 0 C15.063 -2.002 30.361 5.385 44 11 C43.67 11.66 43.34 12.32 43 13 C43.66 13.66 44.32 14.32 45 15 C41.351 14.359 38.038 13.372 34.57 12.074 C33.534 11.691 32.497 11.308 31.429 10.914 C30.339 10.509 29.249 10.104 28.125 9.688 C18.84 6.285 9.635 3.24 0 1 C0 0.67 0 0.34 0 0 Z " fill="#78AAC9" transform="translate(573,287)"/>
<path d="M0 0 C0.33 0 0.66 0 1 0 C1.05 3.874 1.086 7.747 1.11 11.621 C1.125 13.568 1.15 15.514 1.176 17.461 C1.208 23.697 1.005 29.656 0.004 35.816 C-1.225 43.547 -1.268 51.136 -1.206 58.943 C-1.187 61.327 -1.185 63.711 -1.186 66.096 C-1.168 73.453 -1.05 80.703 0 88 C-0.99 87.34 -1.98 86.68 -3 86 C-3.374 84.07 -3.374 84.07 -3.372 81.675 C-3.378 80.773 -3.385 79.871 -3.391 78.942 C-3.382 77.957 -3.373 76.972 -3.363 75.957 C-3.365 74.933 -3.366 73.909 -3.367 72.853 C-3.365 69.506 -3.34 66.16 -3.312 62.812 C-3.303 60.526 -3.294 58.24 -3.285 55.954 C-3.028 13.989 -3.028 13.989 0 0 Z " fill="#5CA7CB" transform="translate(174,546)"/>
<path d="M0 0 C0.66 0.33 1.32 0.66 2 1 C-0.695 5.829 -3.298 8.034 -8.055 10.789 C-10.782 12.487 -12.793 14.679 -15 17 C-19.748 21.748 -23.347 23.833 -30 25 C-20.827 15.521 -10.709 7.639 0 0 Z " fill="#7AABC7" transform="translate(317,325)"/>
<path d="M0 0 C3.442 0.018 6.884 0.021 10.327 0.02 C12.525 0.025 14.724 0.031 16.923 0.038 C17.947 0.039 18.971 0.04 20.026 0.041 C20.503 0.044 20.503 0.044 22.921 0.061 C23.756 0.064 24.591 0.068 25.451 0.072 C27.998 0.214 30.37 0.649 32.856 1.206 C32.856 1.866 32.856 2.526 32.856 3.206 C32.244 3.135 31.632 3.064 31.001 2.991 C23.405 2.199 15.852 2.052 8.221 2.075 C6.161 2.081 4.102 2.075 2.042 2.069 C-13.707 2.06 -13.707 2.06 -20.144 4.206 C-20.701 4.041 -21.258 3.876 -21.831 3.706 C-24.794 3.065 -27.19 3.588 -30.144 4.147 C-32.634 4.22 -33.976 3.366 -36.144 2.206 C-24.131 -0.186 -12.197 -0.068 0 0 Z " fill="#3B7EAF" transform="translate(500.143798828125,266.794189453125)"/>
<path d="M0 0 C4.837 1.577 7.779 3.578 11.438 7.125 C19.371 14.583 29.31 19.215 39 24 C39 24.33 39 24.66 39 25 C37.35 25 35.7 25 34 25 C34 24.34 34 23.68 34 23 C31.03 22.34 28.06 21.68 25 21 C25 20.34 25 19.68 25 19 C23.35 18.67 21.7 18.34 20 18 C19.67 17.01 19.34 16.02 19 15 C18.01 15 17.02 15 16 15 C16 14.34 16 13.68 16 13 C15.557 12.969 15.557 12.969 13.312 12.812 C9.163 11.795 7.808 10.168 5 7 C4.072 6.113 3.144 5.226 2.188 4.312 C0 2 0 2 0 0 Z " fill="#88BAD2" transform="translate(514,624)"/>
<path d="M0 0 C5.302 0.768 10.127 2.269 15.195 3.965 C24.792 6.576 34.341 7.344 44.25 7.625 C45.388 7.664 46.526 7.702 47.699 7.742 C50.466 7.835 53.233 7.921 56 8 C54 10 54 10 51.31 10.243 C50.196 10.239 49.082 10.235 47.934 10.23 C46.726 10.229 45.519 10.227 44.275 10.225 C43.009 10.212 41.742 10.2 40.438 10.188 C39.167 10.187 37.897 10.186 36.588 10.186 C27.14 10.14 27.14 10.14 26 9 C23.894 8.524 21.787 8.052 19.676 7.598 C12.798 6.061 6.161 4.497 0 1 C0 0.67 0 0.34 0 0 Z " fill="#3D80AA" transform="translate(549,649)"/>
<path d="M0 0 C0 3 0 3 -1.069 4.593 C-4.859 8.296 -7.715 9.417 -13.027 9.589 C-15.403 9.547 -17.778 9.471 -20.152 9.367 C-21.408 9.337 -22.663 9.306 -23.956 9.274 C-27.274 9.188 -30.588 9.075 -33.904 8.948 C-37.295 8.826 -40.688 8.739 -44.08 8.648 C-50.721 8.465 -57.361 8.246 -64 8 C-64 7.67 -64 7.34 -64 7 C-63.362 6.994 -62.724 6.988 -62.066 6.982 C-55.415 6.918 -48.764 6.834 -42.113 6.738 C-39.632 6.704 -37.151 6.676 -34.669 6.654 C-31.1 6.62 -27.53 6.568 -23.961 6.512 C-22.854 6.505 -21.748 6.499 -20.608 6.492 C-14.966 6.385 -10.888 6.122 -6 3 C-4 2 -2 1 0 0 Z " fill="#73B5D5" transform="translate(856,794)"/>
<path d="M0 0 C3.223 0.435 6.444 0.819 9.678 1.162 C11.461 1.375 13.233 1.681 15 2 C15.165 2.33 15.165 2.33 16 4 C17.644 4.722 19.311 5.394 21 6 C17.845 7.052 16.942 6.972 13.816 6.293 C12.98 6.119 12.144 5.946 11.282 5.767 C10.385 5.575 9.487 5.384 8.562 5.188 C-1.916 3.058 -12.351 1.869 -23 1 C-23 0.67 -23 0.34 -23 0 C-20.625 -0.169 -18.25 -0.335 -15.875 -0.5 C-15.21 -0.548 -14.545 -0.595 -13.859 -0.645 C-2.806 -1.403 -2.806 -1.403 0 0 Z " fill="#76A9C9" transform="translate(551,280)"/>
<path d="M0 0 C0.66 0.33 1.32 0.66 2 1 C1.34 1.66 0.68 2.32 0 3 C-0.268 3.804 -0.536 4.609 -0.812 5.438 C-2.325 8.701 -3.835 9.381 -7 11 C-7.722 11.536 -8.444 12.072 -9.188 12.625 C-17.312 16.597 -30.956 16.491 -39.422 13.988 C-40.273 13.662 -41.123 13.336 -42 13 C-38.73 11.91 -38.149 12.136 -35 13 C-24.47 14.072 -14.276 11.882 -5.812 5.375 C-3.782 3.65 -1.884 1.884 0 0 Z " fill="#9BC7DE" transform="translate(632,442)"/>
<path d="M0 0 C-2.137 2.393 -3.818 3.508 -6.871 4.465 C-7.61 4.708 -8.35 4.951 -9.111 5.201 C-10.657 5.691 -12.204 6.178 -13.752 6.662 C-18.222 8.137 -20.737 9.493 -24 13 C-27.25 12.75 -27.25 12.75 -30 12 C-27.974 9.818 -26.11 8.363 -23.453 7.027 C-22.772 6.685 -22.092 6.343 -21.391 5.99 C-20.684 5.643 -19.978 5.295 -19.25 4.938 C-18.905 4.762 -18.905 4.762 -17.156 3.873 C-5.19 -2.076 -5.19 -2.076 0 0 Z " fill="#88C3DA" transform="translate(296,472)"/>
<path d="M0 0 C0.33 0 0.66 0 1 0 C1.196 1.284 1.392 2.568 1.594 3.891 C3.394 14.794 6.008 24.635 10.445 34.776 C10.789 35.566 11.134 36.355 11.488 37.168 C11.646 37.515 11.646 37.515 12.443 39.27 C13 41 13 41 12 43 C11.01 43 10.02 43 9 43 C8.807 42.362 8.613 41.724 8.414 41.066 C8.154 40.24 7.893 39.414 7.625 38.562 C7.37 37.739 7.115 36.915 6.852 36.066 C6 34 6 34 4 33 C3.406 30.719 3.406 30.719 2.93 27.715 C2.756 26.626 2.582 25.538 2.402 24.416 C2.315 23.842 2.315 23.842 1.875 20.938 C1.784 20.377 1.784 20.377 1.324 17.541 C0.4 11.622 -0.22 5.989 0 0 Z " fill="#8ABCD5" transform="translate(487,560)"/>
<path d="M0 0 C1.11 3.329 0.941 3.874 -0.215 7.012 C-0.489 7.769 -0.763 8.526 -1.045 9.307 C-1.339 10.092 -1.634 10.878 -1.938 11.688 C-2.228 12.485 -2.519 13.282 -2.818 14.104 C-3.537 16.072 -4.268 18.036 -5 20 C-5.66 20 -6.32 20 -7 20 C-7.254 21.016 -7.508 22.032 -7.77 23.078 C-9.846 31.385 -11.923 39.693 -14 48 C-14.33 48 -14.66 48 -15 48 C-14.642 38.232 -13.534 27.301 -8 19 C-7.367 16.738 -7.367 16.738 -6.875 14.312 C-6.707 13.504 -6.54 12.696 -6.367 11.863 C-6.307 11.556 -6.307 11.556 -6 10 C-5.01 10 -4.02 10 -3 10 C-2.01 6.7 -1.02 3.4 0 0 Z " fill="#659CBD" transform="translate(205,488)"/>
<path d="M0 0 C3.084 0.139 6.167 0.288 9.25 0.438 C9.686 0.457 9.686 0.457 11.895 0.557 C12.739 0.599 13.583 0.64 14.453 0.684 C14.841 0.702 14.841 0.702 16.802 0.795 C19 1 19 1 20.897 1.5 C24.374 2.327 27.926 2.241 31.484 2.316 C32.3 2.337 33.116 2.358 33.956 2.379 C36.554 2.445 39.152 2.504 41.75 2.562 C43.514 2.606 45.279 2.649 47.043 2.693 C51.362 2.8 55.681 2.902 60 3 C60 3.33 60 3.66 60 4 C53.384 4.077 46.768 4.129 40.151 4.165 C37.905 4.18 35.659 4.2 33.413 4.226 C30.166 4.263 26.919 4.28 23.672 4.293 C23.178 4.301 23.178 4.301 20.678 4.34 C13.422 4.342 6.956 3.029 0 1 C0 0.67 0 0.34 0 0 Z " fill="#79B8D5" transform="translate(291,798)"/>
<path d="M0 0 C0.66 0.33 1.32 0.66 2 1 C0.485 4.968 -1.872 6.616 -5.312 9 C-8.173 10.998 -10.983 12.986 -13.707 15.168 C-16 17 -16 17 -18.375 18.312 C-22.094 20.703 -24.965 23.808 -28 27 C-28.66 26.67 -29.32 26.34 -30 26 C-21.56 16.975 -12.438 9.426 -2.484 2.116 C-1 1 -1 1 0 0 Z " fill="#A0D1E2" transform="translate(246,496)"/>
<path d="M0 0 C2.706 0.615 4.5 1.302 6.146 3.601 C7.261 5.662 8.27 7.746 9.25 9.875 C9.601 10.596 9.951 11.316 10.312 12.059 C11.891 15.354 13.197 18.423 14 22 C13.01 22 12.02 22 11 22 C11 21.01 11 20.02 11 19 C10.34 19 9.68 19 9 19 C5.029 15.898 4.176 12.795 3 8 C2.67 7.67 2.34 7.34 2 7 C1.959 5.334 1.957 3.666 2 2 C1.34 2 0.68 2 0 2 C0 1.34 0 0.68 0 0 Z " fill="#669CBF" transform="translate(733,383)"/>
<path d="M0 0 C2.31 0 4.62 0 7 0 C7.33 0.99 7.66 1.98 8 3 C9.328 3.354 10.662 3.685 12 4 C13 5 14 6 15 7 C15.603 7.143 16.207 7.286 16.828 7.434 C19.337 8.088 21.081 9.153 23.25 10.562 C23.956 11.018 24.663 11.473 25.391 11.941 C25.922 12.291 26.453 12.64 27 13 C26.67 13.66 26.34 14.32 26 15 C26 15.66 26 16.32 26 17 C21.256 14.713 16.887 11.87 12.438 9.062 C11.574 8.524 10.711 7.986 9.822 7.432 C8.993 6.909 8.163 6.386 7.309 5.848 C6.554 5.373 5.799 4.899 5.021 4.41 C3.118 3.082 1.578 1.695 0 0 Z " fill="#83B3CF" transform="translate(644,315)"/>
<path d="M0 0 C-1.467 4.4 -4.514 6.183 -8.5 8.375 C-11.681 10.443 -13.617 13.067 -16 16 C-18.062 17.938 -18.062 17.938 -20 19 C-22.121 18.566 -22.121 18.566 -24 18 C-23.564 17.648 -23.129 17.296 -22.68 16.934 C-19.49 14.289 -16.647 11.684 -14.062 8.438 C-10.472 4.094 -5.821 0 0 0 Z " fill="#7BAECA" transform="translate(520,425)"/>
<path d="M0 0 C1.327 2.654 0.746 3.645 -0.125 6.438 C-1.643 10.732 -1.643 10.732 -4.25 12.688 C-5.158 13.121 -6.065 13.554 -7 14 C-8.102 14.958 -9.183 15.94 -10.25 16.938 C-17.247 23 -24.214 24.634 -33.312 24.375 C-34.192 24.374 -35.072 24.372 -35.979 24.371 C-40.266 24.313 -43.21 24.155 -47 22 C-46.366 22.031 -45.732 22.063 -45.079 22.095 C-19.903 23.179 -19.903 23.179 -9.91 14.102 C-5.955 9.871 -2.888 5.003 0 0 Z " fill="#B7DFEC" transform="translate(367,450)"/>
<path d="M0 0 C0 3.94 -1.423 5.741 -3.438 9.125 C-6.772 14.802 -9.936 20.548 -13 26.375 C-13.398 27.131 -13.795 27.886 -14.205 28.665 C-15.138 30.442 -16.07 32.221 -17 34 C-17.33 34 -17.66 34 -18 34 C-18.25 28.375 -18.25 28.375 -16 25 C-15.34 25 -14.68 25 -14 25 C-14 23.68 -14 22.36 -14 21 C-13.34 21 -12.68 21 -12 21 C-12 19.02 -12 17.04 -12 15 C-10.68 14.67 -9.36 14.34 -8 14 C-8 12.02 -8 10.04 -8 8 C-6.68 7.67 -5.36 7.34 -4 7 C-4 5.35 -4 3.7 -4 2 C-2.68 1.34 -1.36 0.68 0 0 Z " fill="#7DADC9" transform="translate(233,433)"/>
<path d="M0 0 C-3.75 1.125 -3.75 1.125 -6 0 C-6 -0.66 -6 -1.32 -6 -2 C-8.64 -2.33 -11.28 -2.66 -14 -3 C-14.33 -3.99 -14.66 -4.98 -15 -6 C-17.31 -5.67 -19.62 -5.34 -22 -5 C-22 -5.33 -22 -5.66 -22 -6 C-35.633 -6.185 -35.633 -6.185 -42 -5 C-29.261 -13.493 -11.416 -8.412 0 0 Z " fill="#8DBBD4" transform="translate(562,430)"/>
<path d="M0 0 C-0.871 0.485 -1.743 0.969 -2.641 1.469 C-10.681 5.98 -18.402 10.768 -26 16 C-26.66 15.67 -27.32 15.34 -28 15 C-27.34 13.35 -26.68 11.7 -26 10 C-23.36 9.67 -20.72 9.34 -18 9 C-17.67 8.01 -17.34 7.02 -17 6 C-14.688 3.75 -14.688 3.75 -12 2 C-9.688 2.25 -9.688 2.25 -8 3 C-8 2.01 -8 1.02 -8 0 C-2.25 -1.125 -2.25 -1.125 0 0 Z " fill="#7EAFCB" transform="translate(357,319)"/>
<path d="M0 0 C1.21 3.63 0.667 4.987 -0.363 8.629 C-0.673 9.747 -0.983 10.865 -1.303 12.018 C-1.636 13.187 -1.969 14.357 -2.312 15.562 C-4.5 23.336 -6.573 31.047 -8 39 C-8.66 39 -9.32 39 -10 39 C-10 40.98 -10 42.96 -10 45 C-10.33 45 -10.66 45 -11 45 C-11.054 42.729 -11.093 40.458 -11.125 38.188 C-11.148 36.923 -11.171 35.658 -11.195 34.355 C-11 31 -11 31 -9 28 C-8.34 28 -7.68 28 -7 28 C-6.887 26.873 -6.773 25.747 -6.656 24.586 C-6.056 19.792 -4.836 15.26 -3.5 10.625 C-3.274 9.819 -3.049 9.014 -2.816 8.184 C-1.152 2.304 -1.152 2.304 0 0 Z " fill="#92BFD7" transform="translate(198,508)"/>
<path d="M0 0 C4.062 1.51 5.498 3.89 7.75 7.5 C11.488 13.318 15.58 18.687 20 24 C19.67 24.66 19.34 25.32 19 26 C18.587 25.546 18.175 25.092 17.75 24.625 C16 23 16 23 14.047 22.168 C11.473 20.699 10.81 19.32 9.5 16.688 C7.634 13.099 5.54 10.153 3 7 C1.812 4.312 1.812 4.312 1 2 C0.67 1.34 0.34 0.68 0 0 Z " fill="#87B8D0" transform="translate(701,618)"/>
<path d="M0 0 C0.66 0.66 1.32 1.32 2 2 C1.629 1.969 1.629 1.969 -0.25 1.812 C-3.55 2.038 -4.447 2.989 -7 5 C-7.949 5.289 -8.898 5.577 -9.875 5.875 C-13.782 7.282 -15.935 9.227 -19 12 C-19 11.01 -19 10.02 -19 9 C-19.33 9.165 -19.33 9.165 -21 10 C-19.193 5.399 -15.985 3.103 -11.75 0.75 C-7.878 -0.306 -3.987 -0.533 0 0 Z " fill="#6CA6CB" transform="translate(562,497)"/>
<path d="M0 0 C5.302 1.586 9.067 5.032 13.25 8.5 C13.982 9.094 14.714 9.689 15.469 10.301 C20.863 14.726 20.863 14.726 22 17 C17.131 15.783 13.955 13.639 10.102 10.582 C7.375 8.529 4.466 6.899 1.469 5.273 C0.984 4.853 0.499 4.433 0 4 C0 2.68 0 1.36 0 0 Z " fill="#75A7C5" transform="translate(671,316)"/>
<path d="M0 0 C3.3 0 6.6 0 10 0 C10 0.33 10 0.66 10 1 C9.331 1.147 8.662 1.294 7.973 1.445 C0.684 3.148 -6.24 5.407 -13.211 8.106 C-16.942 9.499 -19.2 10.223 -23 9 C-21.35 8.67 -19.7 8.34 -18 8 C-18 7.34 -18 6.68 -18 6 C-11.729 2.284 -7.245 1.466 0 2 C0 1.34 0 0.68 0 0 Z " fill="#86B5CF" transform="translate(422,289)"/>
<path d="M0 0 C1.875 0.562 1.875 0.562 4 2 C5.25 5.625 5.25 5.625 6 9 C6.66 9 7.32 9 8 9 C8.266 9.71 8.531 10.421 8.805 11.152 C9.158 12.071 9.511 12.991 9.875 13.938 C10.049 14.396 10.049 14.396 10.93 16.715 C12 19 12 19 14 20 C14.625 23.062 14.625 23.062 15 26 C10.366 21.876 7.627 17.301 4.688 11.875 C4.46 11.47 4.46 11.47 3.311 9.418 C0 3.394 0 3.394 0 0 Z " fill="#9ACFE0" transform="translate(189,708)"/>
<path d="M0 0 C4.371 0.447 6.819 3.34 9.75 6.312 C10.003 6.556 10.003 6.556 11.285 7.787 C14.305 10.811 15 11.547 15 16 C12.506 14.796 10.319 13.546 8 12 C8 11.01 8 10.02 8 9 C7.34 9 6.68 9 6 9 C6 8.34 6 7.68 6 7 C5.381 6.773 4.763 6.546 4.125 6.312 C1.386 4.621 0.95 3.008 0 0 Z " fill="#6EA2C1" transform="translate(697,338)"/>
<path d="M0 0 C0.99 0.33 1.98 0.66 3 1 C0.236 9.061 -5.024 12.663 -12 17 C-14 16 -14 16 -15 14 C-13.02 13.67 -11.04 13.34 -9 13 C-8.67 11.02 -8.34 9.04 -8 7 C-7.196 6.876 -6.391 6.752 -5.562 6.625 C-4.717 6.419 -3.871 6.212 -3 6 C-2.67 5.34 -2.34 4.68 -2 4 C-1.67 4.33 -1.34 4.66 -1 5 C-0.67 3.35 -0.34 1.7 0 0 Z " fill="#6DA4C6" transform="translate(748,469)"/>
<path d="M0 0 C2.31 0.66 4.62 1.32 7 2 C7.062 2.619 7.124 3.237 7.188 3.875 C8 6 8 6 10.375 7.062 C10.808 7.217 10.808 7.217 13 8 C15.63 10.066 16.435 11.721 17 15 C13.09 13.653 10.445 11.946 7.375 9.188 C6.62 8.521 5.864 7.855 5.086 7.168 C2.937 4.935 1.485 2.71 0 0 Z " fill="#85C0D9" transform="translate(228,761)"/>
<path d="M0 0 C1.65 0 3.3 0 5 0 C1.777 4.887 -1.486 9.745 -4.812 14.562 C-5.104 14.986 -5.104 14.986 -6.582 17.129 C-7.05 17.746 -7.518 18.364 -8 19 C-8.33 19 -8.66 19 -9 19 C-9.23 15.633 -9.339 13.586 -7.625 10.625 C-7.089 10.089 -6.553 9.553 -6 9 C-5.34 9 -4.68 9 -4 9 C-3.67 7.68 -3.34 6.36 -3 5 C-2.34 5 -1.68 5 -1 5 C-0.67 3.35 -0.34 1.7 0 0 Z " fill="#75A9C7" transform="translate(513,466)"/>
<path d="M0 0 C-0.619 0.433 -1.238 0.866 -1.875 1.312 C-4 3 -4 3 -6 6 C-10.356 6.921 -14.558 7.108 -19 7 C-19 7.66 -19 8.32 -19 9 C-19.99 9.33 -20.98 9.66 -22 10 C-22.66 9.34 -23.32 8.68 -24 8 C-3.423 -1.711 -3.423 -1.711 0 0 Z " fill="#72A5C6" transform="translate(397,286)"/>
<path d="M0 0 C0.66 0.33 1.32 0.66 2 1 C0.344 2.904 -0.551 3.905 -3.062 4.438 C-3.702 4.623 -4.341 4.809 -5 5 C-5.248 5.636 -5.495 6.271 -5.75 6.926 C-7 9 -7 9 -9.715 10.047 C-10.247 10.163 -10.247 10.163 -12.938 10.75 C-13.468 10.871 -13.468 10.871 -16.152 11.484 C-19 12 -19 12 -22 12 C-17.025 8.717 -11.929 5.832 -6.625 3.125 C-6.006 2.803 -5.387 2.48 -4.75 2.148 C-3.197 1.368 -1.601 0.676 0 0 Z " fill="#7CADC9" transform="translate(362,299)"/>
<path d="M0 0 C2.438 1.188 2.438 1.188 3.438 3.188 C5.5 3.812 5.5 3.812 7.438 4.188 C7.438 4.847 7.438 5.508 7.438 6.188 C8.366 6.456 9.294 6.724 10.25 7 C13.26 8.121 14.445 8.797 16.438 11.188 C17.098 11.847 17.757 12.508 18.438 13.188 C13.855 12.605 10.302 10.67 6.375 8.375 C6.069 8.203 6.069 8.203 4.521 7.334 C1.009 5.31 -1.847 3.2 -4.562 0.188 C-2.562 -0.812 -2.562 -0.812 0 0 Z " fill="#97CBDF" transform="translate(252.5625,777.8125)"/>
<path d="M0 0 C0.66 0 1.32 0 2 0 C2.33 2.64 2.66 5.28 3 8 C3.66 8 4.32 8 5 8 C9.48 18.56 9.48 18.56 8 23 C8.66 23 9.32 23 10 23 C10 24.65 10 26.3 10 28 C7.671 25.152 6.328 22.608 5.176 19.121 C4.87 18.2 4.563 17.279 4.248 16.33 C3.939 15.376 3.631 14.421 3.312 13.438 C3.152 12.958 3.152 12.958 2.342 10.533 C0 3.408 0 3.408 0 0 Z " fill="#9CCEE1" transform="translate(179,680)"/>
<path d="M0 0 C0.33 0 0.66 0 1 0 C1.05 3.874 1.086 7.747 1.11 11.621 C1.125 13.568 1.15 15.514 1.176 17.461 C1.22 26.194 0.477 34.398 -1 43 C-1.33 43 -1.66 43 -2 43 C-2.105 33.382 -2.031 23.796 -1.562 14.188 C-1.523 13.347 -1.484 12.506 -1.444 11.64 C-1.234 7.671 -0.936 3.879 0 0 Z " fill="#6EACCB" transform="translate(174,546)"/>
<path d="M0 0 C3.271 1.063 6.409 2.18 9.562 3.562 C16.914 6.367 25.232 6.058 33 6 C28.151 8.846 23.464 8.219 18 8 C17.002 7.97 16.005 7.941 14.977 7.91 C7.613 7.505 7.613 7.505 4.5 4.938 C4.252 4.618 4.252 4.618 3 3 C2.01 3 1.02 3 0 3 C0 2.01 0 1.02 0 0 Z " fill="#9DCADE" transform="translate(448,444)"/>
<path d="M0 0 C7.955 0.354 15.558 4.262 21.188 9.875 C21.487 10.226 21.487 10.226 23 12 C14.064 10.096 14.064 10.096 12 7 C12 6.34 12 5.68 12 5 C11.66 5.021 11.66 5.021 9.938 5.125 C6.401 4.975 3.367 4.056 0 3 C0 2.01 0 1.02 0 0 Z " fill="#81B3CE" transform="translate(425,432)"/>
<path d="M0 0 C6.252 1.954 13.013 6.8 17 12 C16.75 14.25 16.75 14.25 16 16 C14.5 14.625 14.5 14.625 13 13 C13 12.34 13 11.68 13 11 C12.319 10.794 11.639 10.587 10.938 10.375 C7.071 8.565 3.936 6.102 1 3 C0.67 2.01 0.34 1.02 0 0 Z " fill="#73A5C4" transform="translate(669,441)"/>
<path d="M0 0 C4.523 8.744 3.493 18.483 2 28 C1.34 28 0.68 28 0 28 C-0.33 28.99 -0.66 29.98 -1 31 C-0.929 30.407 -0.857 29.814 -0.783 29.204 C-0.063 22.736 0.122 16.379 0.062 9.875 C0.058 8.919 0.053 7.962 0.049 6.977 C0.037 4.651 0.021 2.326 0 0 Z " fill="#3F7EAB" transform="translate(753,430)"/>
<path d="M0 0 C-3.324 2.646 -6.844 4.702 -10.562 6.75 C-11.698 7.384 -12.834 8.018 -14.004 8.672 C-17 10 -17 10 -20 9 C-19.34 8.34 -18.68 7.68 -18 7 C-17.443 6.361 -16.886 5.721 -16.312 5.062 C-11.37 0.654 -6.495 -0.398 0 0 Z " fill="#7BACCA" transform="translate(377,308)"/>
<path d="M0 0 C0 3 0 3 -1.75 4.902 C-3.249 6.258 -4.749 7.612 -6.25 8.965 C-8 11 -8 11 -8 15 C-9.969 16.922 -9.969 16.922 -12.5 18.75 C-12.918 19.057 -12.918 19.057 -15.031 20.609 C-15.681 21.068 -16.331 21.527 -17 22 C-17 17.744 -14.549 15.739 -11.875 12.688 C-11.401 12.131 -10.926 11.575 -10.438 11.002 C-7.123 7.155 -3.625 3.555 0 0 Z " fill="#A0D4E5" transform="translate(212,526)"/>
<path d="M0 0 C0.33 0 0.66 0 1 0 C2.775 5.962 3.16 10.828 2.625 17 C2.568 17.775 2.512 18.549 2.453 19.348 C2.313 21.233 2.158 23.116 2 25 C1.34 25.33 0.68 25.66 0 26 C-0.196 21.855 -0.38 17.709 -0.562 13.562 C-0.619 12.378 -0.675 11.194 -0.732 9.975 C-0.781 8.85 -0.829 7.725 -0.879 6.566 C-0.926 5.524 -0.973 4.482 -1.022 3.408 C-1 1 -1 1 0 0 Z " fill="#4180AB" transform="translate(743,431)"/>
<path d="M0 0 C0.33 0 0.66 0 1 0 C1.125 6.75 1.125 6.75 0 9 C0.66 9.33 1.32 9.66 2 10 C1.01 10.33 0.02 10.66 -1 11 C-0.821 11.615 -0.642 12.23 -0.457 12.863 C-0.244 13.672 -0.032 14.48 0.188 15.312 C0.408 16.113 0.628 16.914 0.855 17.738 C1 20 1 20 -0.324 21.793 C-2 23 -2 23 -4 23 C-3.484 15.118 -1.908 7.655 0 0 Z " fill="#78ADCB" transform="translate(179,523)"/>
<path d="M0 0 C0.66 0.33 1.32 0.66 2 1 C-0.97 3.97 -3.94 6.94 -7 10 C-6.67 10.66 -6.34 11.32 -6 12 C-7.114 12.577 -8.228 13.155 -9.375 13.75 C-12.503 15.508 -13.446 16.78 -15 20 C-17.625 20.75 -17.625 20.75 -20 21 C-15.762 15.934 -11.326 11.2 -6.625 6.562 C-5.984 5.926 -5.344 5.29 -4.684 4.635 C-3.125 3.087 -1.563 1.543 0 0 Z " fill="#89B8D0" transform="translate(285,350)"/>
<path d="M0 0 C0 0.66 0 1.32 0 2 C-3.467 3.156 -6.541 3.328 -10.188 3.562 C-10.824 3.604 -10.824 3.604 -14.043 3.816 C-15.019 3.877 -15.995 3.938 -17 4 C-17 4.66 -17 5.32 -17 6 C-18.979 7.364 -20.982 8.694 -23 10 C-23.577 10.577 -24.155 11.155 -24.75 11.75 C-24.956 11.956 -24.956 11.956 -26 13 C-26.66 13 -27.32 13 -28 13 C-26.197 8.131 -22.258 5.073 -17.656 2.887 C-14.804 1.935 -12.308 1.63 -9.312 1.438 C-6.057 1.222 -3.093 0 0 0 Z " fill="#8EBCD3" transform="translate(396,437)"/>
<path d="M0 0 C0.41 -0.008 0.41 -0.008 2.486 -0.049 C7.938 -0.053 11.701 0.833 16.562 3.312 C13.567 4.311 12.39 4.32 9.375 3.875 C8.117 3.689 6.859 3.504 5.562 3.312 C5.562 2.652 5.562 1.993 5.562 1.312 C3.291 1.427 1.02 1.554 -1.25 1.688 C-1.882 1.722 -1.882 1.722 -5.082 1.898 C-8.438 2.312 -8.438 2.312 -11.438 4.312 C-13.761 4.706 -16.095 5.047 -18.438 5.312 C-13.794 -0.363 -6.728 -0.026 0 0 Z " fill="#9FC8DC" transform="translate(652.4375,436.6875)"/>
<path d="M0 0 C0.33 0 0.66 0 1 0 C1.332 6.189 0.582 10.34 -2 16 C-2.66 16.33 -3.32 16.66 -4 17 C-4 18.65 -4 20.3 -4 22 C-4.99 21.67 -5.98 21.34 -7 21 C-6.27 16.312 -4.634 12.091 -2.938 7.688 C-2.797 7.317 -2.797 7.317 -2.084 5.443 C-1.393 3.628 -0.697 1.814 0 0 Z " fill="#7CADCB" transform="translate(194,478)"/>
<path d="M0 0 C3.772 0.571 5.627 2.166 8.312 4.812 C8.672 5.156 8.672 5.156 10.488 6.895 C12 9 12 9 11.73 11.262 C11.61 11.549 11.61 11.549 11 13 C10.01 12.34 9.02 11.68 8 11 C8 10.34 8 9.68 8 9 C7.381 8.918 6.763 8.835 6.125 8.75 C4 8 4 8 2.875 6 C2.586 5.34 2.298 4.68 2 4 C1.34 3.67 0.68 3.34 0 3 C0 2.01 0 1.02 0 0 Z " fill="#679EBF" transform="translate(687,458)"/>
<path d="M0 0 C-3.287 1.367 -6.58 2.716 -9.875 4.062 C-10.812 4.452 -11.749 4.842 -12.715 5.244 C-13.163 5.426 -13.163 5.426 -15.43 6.348 C-16.257 6.688 -17.085 7.028 -17.937 7.379 C-20 8 -20 8 -22 7 C-17.757 1.872 -12.511 0.494 -6.188 -0.75 C-3 -1 -3 -1 0 0 Z " fill="#81B0CC" transform="translate(399,300)"/>
<path d="M0 0 C6.467 0.597 12.313 2.125 18.5 4.062 C18.959 4.203 18.959 4.203 21.281 4.916 C23.523 5.605 25.762 6.3 28 7 C28 7.33 28 7.66 28 8 C20.571 8.143 20.571 8.143 17 7 C17 6.34 17 5.68 17 5 C14.69 5 12.38 5 10 5 C10 4.34 10 3.68 10 3 C7.36 3 4.72 3 2 3 C2 2.34 2 1.68 2 1 C1.34 0.67 0.68 0.34 0 0 Z " fill="#8CB8D1" transform="translate(574,273)"/>
<path d="M0 0 C4.579 1.451 8.976 3.206 13.375 5.125 C14.016 5.402 14.656 5.679 15.316 5.965 C16.879 6.641 18.439 7.32 20 8 C19.34 8.33 19.34 8.33 16 10 C16 9.34 16 8.68 16 8 C15.536 8.021 15.536 8.021 13.188 8.125 C10 8 10 8 7 6 C4.679 5.292 2.346 4.62 0 4 C0 2.68 0 1.36 0 0 Z " fill="#7EB2CD" transform="translate(762,677)"/>
<path d="M0 0 C1.532 4.084 0.631 7.795 0 12 C0.66 12 1.32 12 2 12 C2.413 12.908 2.825 13.815 3.25 14.75 C4.897 17.81 6.534 19.619 9 22 C9 22.66 9 23.32 9 24 C4.577 22.648 2.596 20.801 0 17 C-1.08 13.761 -1.133 11.34 -1.125 7.938 C-1.128 6.874 -1.13 5.811 -1.133 4.715 C-1 2 -1 2 0 0 Z " fill="#8DBBD2" transform="translate(540,507)"/>
<path d="M0 0 C0.33 0 0.66 0 1 0 C1.348 4.876 0.586 7.844 -2 12 C-5.3 15 -5.3 15 -8 15 C-6.53 9.268 -3.555 4.664 0 0 Z " fill="#72A7C7" transform="translate(224,421)"/>
<path d="M0 0 C-8.962 5.477 -19.803 5.325 -30 5 C-30 4.67 -30 4.34 -30 4 C-22.247 2.485 -14.9 1.72 -7 2 C-7 1.34 -7 0.68 -7 0 C-2.25 -1.125 -2.25 -1.125 0 0 Z " fill="#649CBF" transform="translate(628,465)"/>
<path d="M0 0 C4.41 0.666 8.266 2.266 12.312 4.062 C12.635 4.203 12.635 4.203 14.268 4.916 C15.847 5.606 17.424 6.303 19 7 C13.166 8.945 8.249 6.427 2.855 4.133 C1 3 1 3 0 0 Z " fill="#82B2CD" transform="translate(613,285)"/>
<path d="M0 0 C5.94 0 11.88 0 18 0 C18.33 0.66 18.66 1.32 19 2 C20.644 2.722 22.311 3.394 24 4 C20.703 5.099 19.451 4.89 16.113 4.223 C15.644 4.131 15.644 4.131 13.271 3.666 C12.295 3.467 11.319 3.268 10.312 3.062 C9.324 2.867 8.336 2.672 7.318 2.471 C4.877 1.987 2.438 1.497 0 1 C0 0.67 0 0.34 0 0 Z " fill="#82B1CD" transform="translate(548,282)"/>
<path d="M0 0 C7.305 -0.237 14.066 0.659 21.25 1.938 C22.312 2.12 23.374 2.302 24.469 2.49 C28.992 3.272 33.502 4.086 38 5 C38 5.33 38 5.66 38 6 C35.36 6.33 32.72 6.66 30 7 C30 6.34 30 5.68 30 5 C28.68 5.33 27.36 5.66 26 6 C26 5.34 26 4.68 26 4 C25.397 3.934 25.397 3.934 22.344 3.598 C20.729 3.419 19.115 3.241 17.5 3.062 C16.709 2.975 15.917 2.888 15.102 2.799 C10.062 2.241 5.03 1.64 0 1 C0 0.67 0 0.34 0 0 Z " fill="#ABD2E5" transform="translate(536,267)"/>
<path d="M0 0 C0.33 0 0.66 0 1 0 C1.675 11.421 0.271 20.383 -4 31 C-4.66 29.68 -5.32 28.36 -6 27 C-5.67 27 -5.34 27 -5 27 C-4.34 24.36 -3.68 21.72 -3 19 C-2.34 19 -1.68 19 -1 19 C-0.67 12.73 -0.34 6.46 0 0 Z " fill="#99C2D9" transform="translate(756,439)"/>
<path d="M0 0 C2.625 0.375 2.625 0.375 5 1 C1.728 4.381 -1.674 7.614 -5.125 10.812 C-5.549 11.208 -5.549 11.208 -7.695 13.207 C-10 15 -10 15 -13 15 C-12.361 14.423 -11.721 13.845 -11.062 13.25 C-9 11 -9 11 -8.625 8.875 C-8.419 8.256 -8.212 7.637 -8 7 C-4.938 5.75 -4.938 5.75 -2 5 C-2 4.01 -2 3.02 -2 2 C-1.34 1.34 -0.68 0.68 0 0 Z " fill="#8BB8D2" transform="translate(304,349)"/>
<path d="M0 0 C-0.905 1.155 -1.824 2.299 -2.75 3.438 C-3.26 4.076 -3.771 4.714 -4.297 5.371 C-6.233 7.223 -7.39 7.586 -10 8 C-10.908 8.186 -11.815 8.371 -12.75 8.562 C-13.493 8.707 -14.235 8.851 -15 9 C-13.333 7.333 -11.667 5.667 -10 4 C-9.68 3.618 -9.68 3.618 -8.062 1.688 C-5.308 -0.566 -3.46 -0.315 0 0 Z " fill="#679FC3" transform="translate(302,341)"/>
<path d="M0 0 C0 4.714 -3.012 7.522 -6 11 C-8.875 13.5 -8.875 13.5 -11 15 C-11.33 14.34 -11.66 13.68 -12 13 C-10.568 11.204 -9.129 9.414 -7.688 7.625 C-6.887 6.627 -6.086 5.63 -5.262 4.602 C-3 2 -3 2 0 0 Z " fill="#5FABCE" transform="translate(200,543)"/>
<path d="M0 0 C5.61 0 11.22 0 17 0 C16 3 16 3 14 4 C12.192 4.147 10.377 4.221 8.562 4.25 C7.594 4.276 6.626 4.302 5.629 4.328 C3 4 3 4 1.152 2.547 C0 1 0 1 0 0 Z " fill="#6AA0C2" transform="translate(548,529)"/>
<path d="M0 0 C0 0.66 0 1.32 0 2 C-0.99 2.33 -1.98 2.66 -3 3 C-3 3.99 -3 4.98 -3 6 C-6 7 -6 7 -9 7 C-9.186 7.639 -9.371 8.279 -9.562 8.938 C-11 11 -11 11 -14.625 11.75 C-15.739 11.832 -16.852 11.915 -18 12 C-13.928 7.366 -6.379 0 0 0 Z M-8 7 C-6 8 -6 8 -6 8 Z " fill="#99CEE3" transform="translate(266,484)"/>
<path d="M0 0 C1.125 3.75 1.125 3.75 0 6 C-0.66 6 -1.32 6 -2 6 C-2.124 6.598 -2.248 7.196 -2.375 7.812 C-3 10 -3 10 -5 13 C-7.625 13.688 -7.625 13.688 -10 14 C-8.436 10.478 -6.305 7.729 -3.875 4.75 C-3.151 3.858 -2.426 2.966 -1.68 2.047 C-1.403 1.709 -1.403 1.709 0 0 Z " fill="#6FA4C4" transform="translate(248,389)"/>
<path d="M0 0 C-1.65 0.33 -3.3 0.66 -5 1 C-5 1.66 -5 2.32 -5 3 C-6.143 3.266 -7.287 3.531 -8.465 3.805 C-9.956 4.161 -11.447 4.518 -12.938 4.875 C-13.692 5.049 -14.447 5.223 -15.225 5.402 C-17.166 5.872 -19.085 6.43 -21 7 C-21.33 7.66 -21.66 8.32 -22 9 C-22.99 8.835 -22.99 8.835 -28 8 C-23.666 5.11 -18.94 3.885 -14 2.312 C-12.989 1.979 -11.979 1.646 -10.938 1.303 C-9.968 0.993 -8.999 0.683 -8 0.363 C-7.113 0.078 -6.226 -0.208 -5.312 -0.503 C-3 -1 -3 -1 0 0 Z " fill="#98C2D9" transform="translate(425,277)"/>
<path d="M0 0 C-5.28 4.95 -10.56 9.9 -16 15 C-16.66 14.67 -17.32 14.34 -18 14 C-17.385 13.408 -16.77 12.817 -16.137 12.207 C-15.328 11.417 -14.52 10.627 -13.688 9.812 C-12.887 9.035 -12.086 8.258 -11.262 7.457 C-9 5 -9 5 -7.395 2.262 C-5.257 -1.206 -3.764 -1.255 0 0 Z " fill="#69AECC" transform="translate(221,523)"/>
<path d="M0 0 C1.32 0.33 2.64 0.66 4 1 C0.379 5.979 -4.419 11.21 -10 14 C-9.498 9.606 -8.128 7.128 -5 4 C-2.25 3.188 -2.25 3.188 0 3 C0 2.01 0 1.02 0 0 Z " fill="#7CAFCC" transform="translate(528,452)"/>
<path d="M0 0 C0.99 0.33 1.98 0.66 3 1 C3 1.99 3 2.98 3 4 C3.99 4.33 4.98 4.66 6 5 C8.25 7.312 8.25 7.312 10 10 C9.67 11.32 9.34 12.64 9 14 C5.37 10.04 1.74 6.08 -2 2 C-1.34 1.34 -0.68 0.68 0 0 Z " fill="#77AAC9" transform="translate(697,353)"/>
<path d="M0 0 C0 0.33 0 0.66 0 1 C-3.63 1.66 -7.26 2.32 -11 3 C-11 3.33 -11 3.66 -11 4 C-17.27 4 -23.54 4 -30 4 C-30 3.67 -30 3.34 -30 3 C-26.689 2.489 -23.376 1.993 -20.062 1.5 C-19.599 1.428 -19.599 1.428 -17.256 1.066 C-11.433 0.208 -5.885 -0.145 0 0 Z " fill="#93BED7" transform="translate(478,267)"/>
<path d="M0 0 C0.99 0.33 1.98 0.66 3 1 C2.233 2.419 1.461 3.835 0.688 5.25 C0.258 6.039 -0.171 6.828 -0.613 7.641 C-2 10 -2 10 -3.594 12.094 C-5.411 14.557 -6.138 17.083 -7 20 C-7.981 16.947 -7.981 15.053 -7 12 C-6.34 12 -5.68 12 -5 12 C-4.807 11.385 -4.613 10.77 -4.414 10.137 C-4.284 9.733 -4.284 9.733 -3.625 7.688 C-3.37 6.887 -3.115 6.086 -2.852 5.262 C-2 3 -2 3 0 0 Z " fill="#347AAB" transform="translate(213,442)"/>
<path d="M0 0 C0.33 0.66 0.66 1.32 1 2 C-0.717 6.246 -2.374 8.341 -6 11 C-6.75 13.188 -6.75 13.188 -7 15 C-7.66 15 -8.32 15 -9 15 C-9 15.99 -9 16.98 -9 18 C-9.99 18 -10.98 18 -12 18 C-10.469 13.328 -7.892 9.978 -4.875 6.188 C-4.407 5.59 -3.939 4.993 -3.457 4.377 C-2.31 2.914 -1.156 1.456 0 0 Z " fill="#8FBCD2" transform="translate(237,403)"/>
<path d="M0 0 C0.641 1.836 0.641 1.836 1 4 C-3.208 8.91 -6.617 11.149 -13 12 C-8.877 7.748 -4.487 3.864 0 0 Z " fill="#80B3CE" transform="translate(682,621)"/>
<path d="M0 0 C1.137 3.404 0.84 5.775 0.062 9.25 C-0.132 10.142 -0.327 11.034 -0.527 11.953 C-0.683 12.629 -0.839 13.304 -1 14 C-1.66 14 -2.32 14 -3 14 C-2.938 14.763 -2.876 15.526 -2.812 16.312 C-3.034 19.488 -3.718 19.957 -6 22 C-4.863 14.265 -2.893 7.26 0 0 Z " fill="#97C3D8" transform="translate(186,500)"/>
<path d="M0 0 C1 2 1 2 0.379 3.971 C0.039 4.757 -0.302 5.542 -0.652 6.352 C-1.017 7.202 -1.381 8.053 -1.756 8.93 C-1.951 9.374 -1.951 9.374 -2.938 11.625 C-3.324 12.522 -3.71 13.419 -4.107 14.344 C-5.065 16.566 -6.029 18.784 -7 21 C-8.207 17.379 -7.682 15.788 -6.75 12.125 C-6.497 11.096 -6.245 10.068 -5.984 9.008 C-4.992 5.976 -3.818 3.615 -2 1 C-1.34 0.67 -0.68 0.34 0 0 Z " fill="#8BB8D0" transform="translate(214,467)"/>
<path d="M0 0 C0.33 0 0.66 0 1 0 C3.112 16.708 3.112 16.708 4 25 C2 24 2 24 1.113 21.953 C-1.139 14.349 -1.033 7.828 0 0 Z " fill="#4686B0" transform="translate(486,557)"/>
<path d="M0 0 C0 0.33 0 0.66 0 1 C-7.38 3.21 -13.383 4.623 -21 3 C-21.33 2.34 -21.66 1.68 -22 1 C-19.646 0.83 -17.292 0.664 -14.938 0.5 C-13.627 0.407 -12.316 0.314 -10.965 0.219 C-7.299 0.017 -3.67 -0.038 0 0 Z " fill="#3A7CA9" transform="translate(617,456)"/>
<path d="M0 0 C2.331 3.496 3.191 6.92 4.188 10.938 C4.283 11.296 4.283 11.296 4.764 13.107 C5.692 16.803 6.122 19.366 5 23 C4.711 22.237 4.423 21.474 4.125 20.688 C3 18 3 18 1 15 C0.967 13.047 0.942 11.093 0.996 9.141 C1.002 6.02 0.512 3.075 0 0 Z " fill="#87B5CF" transform="translate(750,414)"/>
<path d="M0 0 C12.956 0.956 12.956 0.956 17 5 C17.99 5.66 18.98 6.32 20 7 C12.848 6.501 6.587 3.684 0 1 C0 0.67 0 0.34 0 0 Z " fill="#9BCCE1" transform="translate(271,791)"/>
<path d="M0 0 C4.218 1.506 5.775 4.24 8 8 C9.095 11.285 9.1 13.737 9.062 17.188 C9.053 18.274 9.044 19.361 9.035 20.48 C9.024 21.312 9.012 22.143 9 23 C8.67 23 8.34 23 8 23 C7.939 22.584 7.939 22.584 7.633 20.48 C7.465 19.394 7.298 18.307 7.125 17.188 C6.963 16.109 6.8 15.03 6.633 13.918 C6 11 6 11 4 8 C3.333 6.333 2.667 4.667 2 3 C1.34 2.01 0.68 1.02 0 0 Z " fill="#9FC9DD" transform="translate(659,514)"/>
<path d="M0 0 C0.66 0.33 1.32 0.66 2 1 C-0.31 3.31 -2.62 5.62 -5 8 C-5 5 -5 5 -2.5 2.312 C-1.675 1.549 -0.85 0.786 0 0 Z M-9 9 C-8.34 9.33 -7.68 9.66 -7 10 C-9.813 13.31 -13.142 15.105 -17 17 C-19.438 16.75 -19.438 16.75 -21 16 C-18 14 -18 14 -15 14 C-15 13.34 -15 12.68 -15 12 C-14.196 11.691 -13.391 11.381 -12.562 11.062 C-10 10 -10 10 -9 9 Z " fill="#3480B3" transform="translate(511,432)"/>
<path d="M0 0 C0.779 0.009 1.558 0.018 2.361 0.027 C4.262 0.051 6.162 0.087 8.062 0.125 C8.062 0.455 8.062 0.785 8.062 1.125 C7.159 1.174 6.255 1.223 5.324 1.273 C4.145 1.348 2.965 1.423 1.75 1.5 C1.164 1.535 1.164 1.535 -1.801 1.711 C-4.938 2.125 -4.938 2.125 -7.938 4.125 C-9.98 4.32 -9.98 4.32 -12.125 4.25 C-12.754 4.229 -12.754 4.229 -15.938 4.125 C-15.938 3.465 -15.938 2.805 -15.938 2.125 C-10.467 0.28 -5.749 -0.128 0 0 Z " fill="#3E80AD" transform="translate(535.9375,422.875)"/>
<path d="M0 0 C4.541 4.266 8.247 9.036 12 14 C11.67 14.66 11.34 15.32 11 16 C3.538 10.353 3.538 10.353 2.5 5.812 C2.335 5.214 2.17 4.616 2 4 C1.01 3.67 0.02 3.34 -1 3 C-0.67 2.01 -0.34 1.02 0 0 Z " fill="#7DAAC7" transform="translate(719,360)"/>
<path d="M0 0 C0.99 0.33 1.98 0.66 3 1 C1.607 5.876 -0.939 8.076 -5 11 C-7.375 11.812 -7.375 11.812 -9 12 C-9 11.01 -9 10.02 -9 9 C-8.01 8.67 -7.02 8.34 -6 8 C-5.34 7.01 -4.68 6.02 -4 5 C-2.68 5 -1.36 5 0 5 C0 3.35 0 1.7 0 0 Z " fill="#79AAC7" transform="translate(663,539)"/>
<path d="M0 0 C0.66 0.33 1.32 0.66 2 1 C1.34 1.66 0.68 2.32 0 3 C-0.268 3.804 -0.536 4.609 -0.812 5.438 C-2.303 8.654 -3.844 9.501 -7 11 C-7.66 11 -8.32 11 -9 11 C-8.463 7.149 -6.884 5.682 -3.938 3.25 C-3.204 2.636 -2.471 2.023 -1.715 1.391 C-1.149 0.932 -0.583 0.473 0 0 Z " fill="#74ABC9" transform="translate(632,442)"/>
<path d="M0 0 C0.33 0 0.66 0 1 0 C1.467 4.58 1.173 7.249 -1.5 10.938 C-2.325 11.948 -3.15 12.959 -4 14 C-4.66 13.01 -5.32 12.02 -6 11 C-5.068 7.894 -3.808 5.712 -2 3 C-1.34 3 -0.68 3 0 3 C0 2.01 0 1.02 0 0 Z " fill="#5D97BD" transform="translate(243,413)"/>
<path d="M0 0 C3.594 1.335 6.755 2.96 10 5 C9.67 5.66 9.34 6.32 9 7 C9 7.66 9 8.32 9 9 C5.421 7.348 2.252 5.217 -1 3 C-0.67 2.01 -0.34 1.02 0 0 Z " fill="#6EA4C7" transform="translate(661,323)"/>
<path d="M0 0 C0.66 0 1.32 0 2 0 C1.667 2.333 1.333 4.667 1 7 C0.948 7.608 0.948 7.608 0.688 10.688 C-0.083 14.402 -1.093 15.656 -4 18 C-3.886 16.395 -3.758 14.791 -3.625 13.188 C-3.555 12.294 -3.486 11.401 -3.414 10.48 C-3 8 -3 8 -1 5 C-0.615 3.345 -0.272 1.678 0 0 Z " fill="#3B7EAC" transform="translate(183,514)"/>
<path d="M0 0 C0 0.99 0 1.98 0 3 C-7.59 3 -15.18 3 -23 3 C-23.33 2.34 -23.66 1.68 -24 1 C-22.819 1.012 -21.638 1.023 -20.422 1.035 C-18.865 1.045 -17.307 1.054 -15.75 1.062 C-14.973 1.071 -14.195 1.079 -13.395 1.088 C-12.64 1.091 -11.886 1.094 -11.109 1.098 C-10.418 1.103 -9.727 1.108 -9.015 1.114 C-5.89 0.937 -3.163 0 0 0 Z " fill="#4081AC" transform="translate(484,450)"/>
<path d="M0 0 C-0.639 0.289 -1.279 0.577 -1.938 0.875 C-4 2 -4 2 -5 4 C-7.805 4.165 -7.805 4.165 -22 5 C-18.382 3.191 -15.469 2.269 -11.562 1.375 C-10.45 1.115 -9.338 0.854 -8.191 0.586 C-5.362 0.066 -2.865 -0.118 0 0 Z " fill="#92BDD5" transform="translate(448,271)"/>
<path d="M0 0 C4.574 0.785 8.902 2.155 13.312 3.562 C14.053 3.796 14.794 4.03 15.557 4.271 C17.372 4.845 19.186 5.422 21 6 C21 6.33 21 6.66 21 7 C15.232 7.361 11.29 6.191 6 4 C4.004 3.323 2.005 2.652 0 2 C0 1.34 0 0.68 0 0 Z " fill="#3F82AB" transform="translate(779,686)"/>
<path d="M0 0 C4.507 1.733 7.945 3.09 11 7 C11 7.99 11 8.98 11 10 C8.061 8.648 5.708 7.101 3.25 5 C2.636 4.484 2.023 3.969 1.391 3.438 C0 2 0 2 0 0 Z " fill="#6AA3C2" transform="translate(514,624)"/>
<path d="M0 0 C0 0.33 0 0.66 0 1 C-1.98 1 -3.96 1 -6 1 C-6 1.66 -6 2.32 -6 3 C-11.294 7 -11.294 7 -15 7 C-15 6.01 -15 5.02 -15 4 C-9.609 0.406 -6.463 -0.454 0 0 Z " fill="#397FAF" transform="translate(698,617)"/>
<path d="M0 0 C0.495 0.33 0.495 0.33 3 2 C3.363 5.188 3.363 5.188 3.312 9 C3.309 10.258 3.305 11.516 3.301 12.812 C3 16 3 16 1 18 C0.67 12.06 0.34 6.12 0 0 Z " fill="#78B4D0" transform="translate(856,702)"/>
<path d="M0 0 C3.905 1.425 7.248 3.267 10.75 5.5 C11.714 6.108 12.678 6.717 13.672 7.344 C16 9 16 9 17 11 C15.68 11 14.36 11 13 11 C13 10.34 13 9.68 13 9 C12.361 8.876 11.721 8.752 11.062 8.625 C10.382 8.419 9.701 8.212 9 8 C8.67 7.34 8.34 6.68 8 6 C7.216 5.691 6.433 5.381 5.625 5.062 C3.034 4.014 1.758 3.128 0 1 C0 0.67 0 0.34 0 0 Z " fill="#88B4CE" transform="translate(654,305)"/>
<path d="M0 0 C5.75 -0.125 5.75 -0.125 8 1 C8 1.66 8 2.32 8 3 C10.64 3 13.28 3 16 3 C16 3.66 16 4.32 16 5 C3.98 5.568 3.98 5.568 0 2 C0 1.34 0 0.68 0 0 Z " fill="#397EAF" transform="translate(568,273)"/></g>
<circle class="drop" cx="420" cy="440" r="12" fill="#3B9ACC" style="--dx:-160px; --dy:-100px; animation: splash 2.2s 2.0s ease-out infinite;"/>
<circle class="drop" cx="600" cy="420" r="14" fill="#5EB0D8" style="--dx:200px; --dy:-130px; animation: splash 2.2s 2.4s ease-out infinite;"/>
<circle class="drop" cx="500" cy="380" r="10" fill="#3B9ACC" style="--dx:-80px; --dy:-180px; animation: splash 2.2s 2.8s ease-out infinite;"/>
<circle class="drop" cx="650" cy="450" r="11" fill="#89CAE5" style="--dx:140px; --dy:-180px; animation: splash 2.2s 3.2s ease-out infinite;"/>
<circle class="drop" cx="460" cy="400" r="9" fill="#3B9ACC" style="--dx:60px; --dy:-200px; animation: splash 2.2s 3.6s ease-out infinite;"/>
<circle class="drop" cx="580" cy="440" r="13" fill="#5EB0D8" style="--dx:-120px; --dy:-150px; animation: splash 2.2s 4.0s ease-out infinite;"/>

</svg>