<?xml version="1.0" encoding="UTF-8"?>
<svg viewBox="0 0 400 400" xmlns="http://www.w3.org/2000/svg">
<!-- 신부 #3 · 하트 뿜기 + 기쁨 바운스 - scope prefix: bh -->
<style>
  .bh-whale   { transform-box: view-box; transform-origin: 200px 240px; animation: bh-bounce 1s ease-in-out infinite; }
  .bh-body    { transform-box: view-box; transform-origin: 200px 240px; animation: bh-squish 1s ease-in-out infinite; }
  .bh-flower  { transform-box: view-box; transform-origin: 200px 170px; animation: bh-flower 0.8s ease-in-out infinite; }
  .bh-heart-1 { transform-box: view-box; transform-origin: 200px 130px; animation: bh-heart 2.1s ease-out infinite 0s; }
  .bh-heart-2 { transform-box: view-box; transform-origin: 155px 150px; animation: bh-heart 2.1s ease-out infinite 0.7s; }
  .bh-heart-3 { transform-box: view-box; transform-origin: 245px 150px; animation: bh-heart 2.1s ease-out infinite 1.4s; }

  @keyframes bh-bounce { 0%,100%{transform:translateY(0)} 50%{transform:translateY(-8px)} }
  @keyframes bh-squish { 0%,100%{transform:scale(1,1)} 25%{transform:scale(0.96,1.04)} 75%{transform:scale(1.04,0.96)} }
  @keyframes bh-flower { 0%,100%{transform:rotate(-3deg)} 50%{transform:rotate(3deg)} }
  @keyframes bh-heart {
    0%   { transform: translateY(0) scale(0);   opacity: 0; }
    15%  { transform: translateY(-8px) scale(1); opacity: 1; }
    80%  { transform: translateY(-60px) scale(1); opacity: 1; }
    100% { transform: translateY(-80px) scale(0.6); opacity: 0; }
  }
</style>
<defs>
  <radialGradient id="bh-bg" cx="50%" cy="45%" r="70%">
    <stop offset="0%" stop-color="#FFF0F6"/><stop offset="100%" stop-color="#FFD5E5"/>
  </radialGradient>
</defs>
<rect width="400" height="400" fill="url(#bh-bg)"/>

<g class="bh-heart-1"><path d="M 200 130 c -8 -14, -26 -10, -26 7 c 0 13, 26 26, 26 26 c 0 0, 26 -13, 26 -26 c 0 -17, -18 -21, -26 -7 Z" fill="#FF4D8F"/></g>
<g class="bh-heart-2"><path d="M 155 150 c -6 -10, -19 -7, -19 5 c 0 9, 19 19, 19 19 c 0 0, 19 -10, 19 -19 c 0 -12, -13 -15, -19 -5 Z" fill="#FF88B0"/></g>
<g class="bh-heart-3"><path d="M 245 150 c -6 -10, -19 -7, -19 5 c 0 9, 19 19, 19 19 c 0 0, 19 -10, 19 -19 c 0 -12, -13 -15, -19 -5 Z" fill="#FF88B0"/></g>

<g class="bh-whale"><g class="bh-body">
  <path d="M 190 158 L 215 158 Q 310 185 325 260 Q 322 298 305 305 Q 290 292 275 292 Q 260 305 245 292 Q 230 303 218 292 Q 208 298 200 290 L 198 165 Z" fill="white" opacity="0.65"/>
  <path d="M 300 240 Q 345 202 375 170 Q 352 214 318 240 Q 352 266 375 310 Q 345 278 300 240 Z" fill="#E89FB8"/>
  <ellipse cx="200" cy="240" rx="118" ry="82" fill="#F5B8D0"/>
  <ellipse cx="195" cy="272" rx="92" ry="40" fill="#FFF0F5"/>
  <path d="M 225 310 Q 250 345 262 350 Q 228 335 208 315 Z" fill="#E89FB8"/>
  <circle cx="132" cy="220" r="13" fill="white"/>
  <circle cx="129" cy="223" r="9" fill="#3D2B1F"/>
  <circle cx="126" cy="218" r="3.5" fill="white"/>
  <path d="M 123 208 Q 118 204 114 203" stroke="#3D2B1F" stroke-width="2.5" fill="none" stroke-linecap="round"/>
  <path d="M 130 205 Q 129 200 128 195" stroke="#3D2B1F" stroke-width="2.5" fill="none" stroke-linecap="round"/>
  <path d="M 137 207 Q 140 203 143 199" stroke="#3D2B1F" stroke-width="2.5" fill="none" stroke-linecap="round"/>
  <ellipse cx="142" cy="252" rx="14" ry="6" fill="#FF8FA3" opacity="0.85"/>
  <path d="M 114 250 Q 104 265 90 255" stroke="#3D2B1F" stroke-width="3.5" fill="none" stroke-linecap="round"/>
  <g class="bh-flower">
    <circle cx="187" cy="165" r="10" fill="#FF8FA3"/>
    <circle cx="213" cy="165" r="10" fill="#FF8FA3"/>
    <circle cx="200" cy="177" r="10" fill="#FF8FA3"/>
    <circle cx="192" cy="155" r="10" fill="#FF8FA3"/>
    <circle cx="208" cy="155" r="10" fill="#FF8FA3"/>
    <circle cx="200" cy="165" r="6" fill="#FFD700"/>
  </g>
</g></g>
</svg>
